<?xml version="1.0" encoding="utf-8"?>
<!-- Generator: Adobe Illustrator 21.0.0, SVG Export Plug-In . SVG Version: 6.00 Build 0)  -->
<svg version="1.1" xmlns="http://www.w3.org/2000/svg" xmlns:xlink="http://www.w3.org/1999/xlink" x="0px" y="0px"
	 viewBox="0 0 576 576" enable-background="new 0 0 576 576" xml:space="preserve">
<g id="Layer_2">
	<path d="M56.292,78.742V33.767c-3.234,0.138-5.555,0.24-6.963,0.309c-1.41,0.069-2.924,0.308-4.54,0.722
		c-1.616,0.413-2.647,0.791-3.094,1.135c-0.449,0.344-0.999,1.117-1.652,2.321c-0.654,1.204-1.066,2.321-1.237,3.351
		c-0.173,1.033-0.431,2.752-0.774,5.16l-4.848,0.411c0.825-6.05,1.341-12,1.547-17.845l0.928-0.824l8.562,1.135h31.979l8.767-1.135
		l0.928,0.824c0.138,4.471,0.653,10.283,1.548,17.435l-4.849,0.411c-0.413-2.405-0.722-4.16-0.928-5.259
		c-0.207-1.099-0.618-2.27-1.238-3.507c-0.618-1.239-1.169-2.028-1.65-2.375c-0.482-0.342-1.461-0.737-2.939-1.186
		c-1.481-0.446-2.906-0.704-4.281-0.773c-1.377-0.069-3.508-0.171-6.396-0.309c-1.101,11.003-1.65,27.713-1.65,50.132
		c0,2.545,0.446,4.351,1.342,5.415c0.892,1.069,2.406,1.599,4.538,1.599l5.674-0.309l0.31,0.413l-0.928,4.744
		c-6.879-0.207-11.932-0.308-15.164-0.308l-14.133,0.413l0.826-4.435c4.813-0.413,7.735-1.255,8.767-2.528
		C55.776,87.63,56.292,84.244,56.292,78.742z"/>
	<path d="M142.116,95.351c-4.195-0.138-7.325-0.207-9.387-0.207c-3.234,0-7.566,0.24-12.998,0.722l-0.309-0.515l0.309-3.714
		c2.888-0.207,4.831-0.515,5.829-0.928c0.996-0.413,1.496-1.135,1.496-2.168c0-1.03-0.242-2.165-0.723-3.402l-2.475-7.945
		c-1.376-0.066-3.646-0.102-6.808-0.102c-3.164,0-6.705,0.207-10.625,0.62c-2.407,6.394-3.61,9.901-3.61,10.521
		c0,2.063,1.616,3.096,4.849,3.096h4.435l0.31,0.411l-0.619,3.92c-4.195-0.344-8.15-0.515-11.863-0.515l-9.49,0.207l0.62-4.229
		c1.511-0.207,2.715-0.74,3.61-1.599c0.893-0.859,1.787-2.321,2.682-4.384l16.195-40.953l7.324-1.341l0.722,0.104
		c4.813,17.328,9.182,31.531,13.102,42.603c0.686,1.995,1.563,3.387,2.629,4.178c1.066,0.791,2.767,1.288,5.106,1.495l0.207,0.413
		L142.116,95.351z M115.089,72.863c2.406,0,4.916-0.138,7.53-0.413l-6.292-20.011h-0.722l-7.53,20.424H115.089z"/>
	<path d="M185.852,46.405c3.163,2.303,4.745,5.244,4.745,8.82c0,7.083-4.059,12.446-12.172,16.091l8.767,13.204
		c1.651,2.476,3.233,4.231,4.745,5.261c1.512,1.033,3.335,1.548,5.468,1.548l0.412,0.515l-0.515,3.198l-7.943,0.824
		c-3.233,0-6.224-2.51-8.974-7.529l-8.665-15.165h-6.705l-0.207,11.038c0,2.821,0.325,4.591,0.979,5.313
		c0.653,0.722,2.355,1.12,5.107,1.186l0.205,0.308l-0.825,3.92c0-0.138-3.164-0.207-9.49-0.207l-10.315,0.311l0.722-4.229
		c2.544-0.344,4.23-0.928,5.055-1.755c0.825-0.826,1.238-2.372,1.238-4.642l0.103-32.906c0-1.65-0.207-2.767-0.62-3.354
		c-0.412-0.584-1.204-0.877-2.372-0.877l-2.888,0.104l-0.31-0.413l0.619-3.92c4.333,0.14,7.564,0.207,9.697,0.207l11.038-0.308
		C178.322,42.949,182.689,44.102,185.852,46.405z M173.577,68.635c5.777-2.339,8.665-6.088,8.665-11.245
		c0-6.669-4.919-10.006-14.752-10.006c-0.964,0-1.444,0.62-1.444,1.857c-0.552,8.391-0.825,14.581-0.825,18.567L173.577,68.635z"/>
	<path d="M234.025,69.767l10.934,0.207l7.633-0.413l0.413,2.27c-1.102,0.826-1.841,2.099-2.218,3.818
		c-0.379,1.719-0.568,4.402-0.568,8.044c0,3.647,0.171,6.259,0.515,7.84l-0.515,0.827c-5.64,2.339-12.208,3.507-19.703,3.507
		c-7.496,0-13.497-2.252-18-6.756c-4.505-4.504-6.756-10.796-6.756-18.878c0-8.08,2.715-14.698,8.149-19.858
		c5.431-5.157,12.653-7.735,21.662-7.735c4.606,0,10.109,0.655,16.505,1.961l0.412,0.617c-1.17,4.126-1.892,8.735-2.165,13.823
		l-5.055,0.413c0.137-1.446,0.207-2.89,0.207-4.333c0-2.408-0.928-4.142-2.785-5.211c-1.857-1.063-4.884-1.597-9.078-1.597
		c-6.121,0-10.815,1.701-14.08,5.106c-3.267,3.402-4.901,8.457-4.901,15.163c0,6.705,1.616,12.069,4.848,16.093
		c3.231,4.022,7.598,6.034,13.1,6.034c1.924,0,3.781-0.222,5.57-0.671c1.788-0.446,3.508-1.117,5.158-2.012v-9.077
		c0-1.719-0.293-2.854-0.877-3.405c-0.584-0.548-1.771-0.824-3.558-0.824h-5.468l-0.205-0.413L234.025,69.767z"/>
	<path d="M313.454,95.351c-4.198-0.138-7.325-0.207-9.386-0.207c-3.234,0-7.57,0.24-12.997,0.722l-0.311-0.515l0.311-3.714
		c2.887-0.207,4.83-0.515,5.825-0.928c0.995-0.413,1.495-1.135,1.495-2.168c0-1.03-0.24-2.165-0.719-3.402l-2.479-7.945
		c-1.372-0.066-3.642-0.102-6.806-0.102s-6.705,0.207-10.625,0.62c-2.408,6.394-3.61,9.901-3.61,10.521
		c0,2.063,1.616,3.096,4.848,3.096h4.435l0.31,0.411l-0.618,3.92c-4.195-0.344-8.15-0.515-11.864-0.515l-9.49,0.207l0.62-4.229
		c1.511-0.207,2.715-0.74,3.61-1.599c0.893-0.859,1.787-2.321,2.682-4.384l16.195-40.953l7.324-1.341l0.725,0.104
		c4.81,17.328,9.176,31.531,13.099,42.603c0.689,1.995,1.561,3.387,2.632,4.178c1.061,0.791,2.765,1.288,5.106,1.495l0.204,0.413
		L313.454,95.351z M286.427,72.863c2.406,0,4.915-0.138,7.531-0.413l-6.293-20.011h-0.722l-7.53,20.424H286.427z"/>
	<path d="M357.192,46.405c3.162,2.303,4.744,5.244,4.744,8.82c0,7.083-4.058,12.446-12.171,16.091l8.769,13.204
		c1.65,2.476,3.231,4.231,4.744,5.261c1.512,1.033,3.336,1.548,5.468,1.548l0.413,0.515l-0.518,3.198l-7.942,0.824
		c-3.234,0-6.226-2.51-8.975-7.529l-8.664-15.165h-6.705l-0.207,11.038c0,2.821,0.326,4.591,0.979,5.313
		c0.653,0.722,2.356,1.12,5.106,1.186l0.207,0.308l-0.824,3.92c0-0.138-3.165-0.207-9.49-0.207l-10.317,0.311l0.722-4.229
		c2.543-0.344,4.229-0.928,5.055-1.755c0.826-0.826,1.237-2.372,1.237-4.642l0.104-32.906c0-1.65-0.207-2.767-0.62-3.354
		c-0.413-0.584-1.204-0.877-2.372-0.877l-2.89,0.104l-0.309-0.413l0.62-3.92c4.331,0.14,7.565,0.207,9.697,0.207l11.036-0.308
		C349.66,42.949,354.027,44.102,357.192,46.405z M344.916,68.635c5.777-2.339,8.664-6.088,8.664-11.245
		c0-6.669-4.917-10.006-14.749-10.006c-0.964,0-1.446,0.62-1.446,1.857c-0.551,8.391-0.824,14.581-0.824,18.567L344.916,68.635z"/>
	<path d="M404.023,43.051l9.901,0.515l8.047-0.308l0.309,0.617l-0.515,3.509c-2.614,0.551-4.486,1.426-5.621,2.63
		c-1.135,1.204-2.905,3.8-5.313,7.789l-8.355,14.234c-0.758,1.308-1.204,2.752-1.342,4.333c-0.276,2.339-0.413,4.95-0.413,7.84
		c0,2.887,0.258,4.711,0.775,5.466c0.515,0.757,1.528,1.135,3.043,1.135l4.127-0.207l0.207,0.311l-0.826,4.331
		c-5.091-0.207-8.631-0.308-10.625-0.308c-3.645,0-7.463,0.308-11.449,0.928l0.617-4.229c3.025-0.482,4.917-1.239,5.675-2.27
		c0.755-1.033,1.135-3.06,1.135-6.085v-3.198c0-2.89-0.826-5.846-2.477-8.87c-6.396-12.242-9.903-18.843-10.521-19.807
		c-1.515-2.27-4.06-3.576-7.633-3.92l-0.207-0.413l0.617-3.714c3.92,0.14,7.151,0.207,9.697,0.207l12.38-0.62l0.309,0.62
		l-0.309,3.405c-2.339,0.138-3.938,0.395-4.797,0.773c-0.859,0.38-1.29,1.084-1.29,2.114c0,1.033,2.956,7.463,8.873,19.292h0.515
		l8.871-15.887c0.893-1.581,1.341-2.89,1.341-3.92c0-1.306-1.686-2.063-5.055-2.27l-0.207-0.309L404.023,43.051z"/>
	<path d="M444.353,66.156l8.46,0.104l10.212-0.826l0.413,0.515l-1.24,5.366c-4.744-0.138-8.337-0.207-10.778-0.207
		c-2.443,0-4.866,0.171-7.274,0.515c-0.207,5.226-0.308,9.439-0.308,12.635c0,3.198,0.326,5.055,0.979,5.57
		c0.653,0.518,2.821,0.775,6.498,0.775s6.463-0.222,8.355-0.671c1.892-0.446,3.249-1.291,4.076-2.528
		c0.826-1.237,1.479-3.405,1.959-6.499l4.54-0.413l0.413,0.515c-1.033,4.54-1.791,9.217-2.27,14.03l-0.62,0.515
		c-11.416-0.344-19.082-0.515-23.002-0.515c-5.777,0-10.867,0.273-15.267,0.826l0.515-4.333c2.545-0.276,4.264-0.893,5.16-1.857
		c0.893-0.961,1.339-2.614,1.339-4.953l0.104-32.699c0-1.719-0.207-2.869-0.62-3.456c-0.413-0.584-1.237-0.877-2.476-0.877
		l-2.785,0.104l-0.204-0.413l0.617-3.92c4.881,0.14,11.089,0.207,18.621,0.207c7.529,0,14.046-0.308,19.547-0.928l0.309,0.515
		c-0.962,4.264-1.614,8.873-1.959,13.824l-4.95,0.413c0.135-1.512,0.204-2.647,0.204-3.405c0-2.543-0.653-4.109-1.959-4.693
		c-1.308-0.584-4.007-0.877-8.098-0.877c-4.094,0-6.414,0.156-6.963,0.464c-0.551,0.309-0.862,1.153-0.928,2.528L444.353,66.156z"/>
	<path d="M523.162,45.734h-3.094l-0.207-0.413l0.722-4.022c3.782,0.207,6.705,0.308,8.768,0.308l8.768-0.62l-0.413,4.231
		c-3.713,0.482-5.606,2.201-5.672,5.157l-1.24,44.357l-4.022,1.132c-10.592-15.402-20.529-29.259-29.812-41.57h-0.515l-0.309,31.256
		c0,1.306,0.207,2.201,0.617,2.683c0.413,0.479,1.099,0.722,2.063,0.722l4.127-0.104l0.309,0.311l-0.824,4.124
		c-3.854-0.207-6.98-0.308-9.388-0.308l-8.562,0.62l0.518-4.231c3.367-0.411,5.088-2.096,5.157-5.052l1.135-34.041
		c0-1.719-0.5-2.905-1.497-3.56c-0.997-0.653-2.905-1.15-5.723-1.495l-0.413-0.518l0.722-3.507c3.369,0.276,5.983,0.413,7.84,0.413
		l6.292-0.308c8.319,12.24,17.33,24.793,27.027,37.65h0.515l-0.104-29.81C525.947,46.869,525.019,45.734,523.162,45.734z"/>
</g>
<g id="Layer_3">
	<path d="M60.935,555.874c-3.801-0.162-6.462-0.241-7.983-0.241c-2.399,0-5.001,0.241-7.802,0.72l0.36-2.759
		c1.841-0.362,3.081-0.893,3.722-1.59c0.639-0.701,0.959-1.892,0.959-3.573l0.06-25.207c0-1.281-0.149-2.141-0.45-2.582
		c-0.299-0.437-0.89-0.66-1.77-0.66l-2.041,0.12l-0.121-0.241l0.42-2.638c3.16,0.117,7.312,0.177,12.454,0.177
		c5.141,0,9.392-0.237,12.752-0.72l0.181,0.362c-0.68,3.079-1.14,6.46-1.38,10.142l-2.881,0.241c0.079-1.281,0.12-2.201,0.12-2.763
		c0-1.96-0.42-3.159-1.261-3.599c-0.84-0.441-2.672-0.66-5.491-0.66c-2.821,0-4.432,0.109-4.832,0.328
		c-0.401,0.222-0.622,0.893-0.659,2.013l-0.481,12.664l6.181,0.06l6.302-0.663l0.241,0.301l-0.841,3.599
		c-3.042-0.117-5.403-0.177-7.082-0.177c-1.681,0-3.323,0.14-4.922,0.418l-0.239,9.965c0,1.639,0.179,2.729,0.539,3.268
		c0.36,0.543,1.061,0.81,2.101,0.81l4.261-0.177l0.12,0.237L60.935,555.874z"/>
	<path d="M87.583,548.913c0,1.639,0.179,2.729,0.539,3.268c0.36,0.543,1.061,0.81,2.101,0.81l3.181-0.177l0.12,0.237l-0.541,2.763
		c-3.362-0.121-5.742-0.181-7.142-0.181c-2.322,0-4.883,0.241-7.683,0.72l0.362-2.759c1.879-0.362,3.151-0.893,3.81-1.59
		c0.66-0.701,0.99-1.892,0.99-3.573l0.06-25.207c0-1.281-0.149-2.141-0.45-2.582c-0.3-0.437-0.89-0.66-1.77-0.66l-2.521,0.12
		l-0.119-0.241l0.42-2.638c3.121,0.117,5.301,0.177,6.541,0.177c1.681,0,4.18-0.177,7.502-0.539l-0.239,2.702
		c-1.681,0.2-2.802,0.528-3.362,0.987c-0.56,0.464-0.88,1.274-0.959,2.431C87.862,534.587,87.583,543.229,87.583,548.913z"/>
	<path d="M126.352,519.684c2.161,1.677,3.241,3.859,3.241,6.539c0,5.243-2.94,9.203-8.821,11.883l6.601,10.443
		c1.159,1.922,2.29,3.253,3.39,3.991c1.101,0.739,2.452,1.112,4.052,1.112l0.239,0.237l-0.36,2.043l-5.101,0.66
		c-1.001,0-2.071-0.513-3.211-1.53c-1.14-1.021-2.19-2.412-3.151-4.172l-6.42-11.642h-4.982l-0.179,8.94
		c0,2.163,0.239,3.524,0.72,4.082c0.48,0.562,1.681,0.841,3.601,0.841l0.119,0.241l-0.539,2.521c0-0.042-2.122-0.102-6.362-0.181
		l-6.903,0.181l0.541-2.702c1.881-0.2,3.111-0.611,3.691-1.229c0.579-0.622,0.869-1.79,0.869-3.512l0.06-25.207
		c0-1.281-0.149-2.141-0.45-2.582c-0.299-0.437-0.889-0.66-1.769-0.66l-2.041,0.12l-0.12-0.241l0.42-2.638
		c2.921,0.117,5.141,0.177,6.661,0.177l7.383-0.237C121.251,517.163,124.192,518.004,126.352,519.684z M124.613,527.663
		c0-5.28-3.662-7.922-10.983-7.922c-0.401,0-0.671,0.09-0.81,0.271c-0.141,0.181-0.232,0.55-0.271,1.112
		c-0.36,6.121-0.56,11.043-0.599,14.763l6.181,0.599c1.479-0.358,2.9-1.24,4.261-2.638c0.562-0.603,1.07-1.451,1.532-2.552
		C124.381,530.196,124.613,528.986,124.613,527.663z"/>
	<path d="M151.08,534.387l6.181,0.06l7.323-0.66l0.239,0.298l-0.841,3.543c-3.441-0.121-6.072-0.181-7.892-0.181
		c-1.82,0-3.531,0.139-5.131,0.418c-0.16,5.762-0.239,9.524-0.239,11.284s0.249,2.83,0.75,3.211c0.499,0.381,2.129,0.569,4.89,0.569
		c2.761,0,4.841-0.17,6.243-0.509c1.4-0.339,2.409-0.98,3.03-1.922c0.62-0.939,1.089-2.57,1.409-4.888l2.642-0.301l0.179,0.301
		c-0.72,3.321-1.261,6.682-1.621,10.082l-0.3,0.358c-8.322-0.279-13.764-0.418-16.325-0.418c-3.922,0-7.321,0.2-10.202,0.599
		l0.36-2.759c1.802-0.241,3.032-0.712,3.692-1.409c0.66-0.701,0.989-1.911,0.989-3.633l0.061-25.207c0-1.281-0.149-2.141-0.45-2.582
		c-0.3-0.437-0.89-0.66-1.77-0.66l-2.041,0.12l-0.121-0.241l0.42-2.638c3.16,0.117,7.463,0.177,12.905,0.177
		c5.441,0,9.922-0.237,13.444-0.72l0.179,0.362c-0.68,2.962-1.14,6.283-1.379,9.961l-2.881,0.241
		c0.079-1.161,0.121-2.02,0.121-2.582c0-1.96-0.471-3.159-1.412-3.599c-0.94-0.441-2.96-0.66-6.06-0.66
		c-3.102,0-4.852,0.109-5.252,0.328c-0.401,0.222-0.622,0.893-0.66,2.013L151.08,534.387z"/>
	<path d="M210.072,556.232l-0.181-0.418l0.241-2.341c2.041-0.162,3.441-0.399,4.2-0.72c0.76-0.32,1.14-0.863,1.14-1.621
		c0-0.761-0.179-1.7-0.539-2.823l-1.981-6.539c-0.961-0.041-2.721-0.06-5.282-0.06c-2.561,0-5.062,0.158-7.502,0.479l-2.22,6.241
		c-0.36,1.082-0.541,1.862-0.541,2.34c0,1.643,1.2,2.461,3.601,2.461h3.42l0.121,0.241l-0.36,2.578
		c-2.921-0.279-5.702-0.418-8.342-0.418l-6.602,0.181l0.481-2.823c1.12-0.12,2.018-0.509,2.701-1.168
		c0.678-0.66,1.34-1.809,1.98-3.452l11.703-30.668l3.78-1.022h0.48c3.362,12.445,6.543,23.167,9.543,32.172
		c0.48,1.477,1.12,2.517,1.92,3.12c0.801,0.599,2.08,0.98,3.842,1.138l0.119,0.241l-0.42,2.461
		c-2.879-0.121-5.352-0.181-7.412-0.181C215.903,555.632,213.272,555.832,210.072,556.232z M206.532,539.249
		c1.44,0,3.301-0.102,5.581-0.302l-4.741-15.724h-0.42l-5.702,16.026H206.532z"/>
	<path d="M260.787,546.93v-24.306c0-1.722-0.661-2.582-1.981-2.582l-2.282,0.06l-0.119-0.241l0.539-2.698
		c2.44,0.158,4.202,0.237,5.282,0.237c1.76,0,3.88-0.158,6.362-0.479l-0.299,2.763c-1.402,0.2-2.421,0.588-3.062,1.169
		c-0.641,0.58-0.98,1.451-1.019,2.612l-0.841,33.728l-1.741,0.841c-7.242-11.243-14.683-22.267-22.325-33.069h-0.3l-0.301,25.625
		c0,0.882,0.141,1.5,0.42,1.862c0.281,0.362,0.76,0.539,1.441,0.539l3.06-0.06l0.121,0.241l-0.541,2.702
		c-2.521-0.162-4.381-0.241-5.582-0.241c-1.92,0-4.042,0.158-6.362,0.479l0.301-2.759c2.439-0.279,3.68-1.541,3.72-3.78l0.78-26.228
		c0-1.24-0.369-2.122-1.11-2.642c-0.741-0.52-2.11-0.878-4.112-1.078l-0.179-0.301l0.481-2.22c2.32,0.2,4.04,0.298,5.161,0.298
		l4.02-0.237c5.921,9.204,12.643,19.124,20.166,29.767H260.787z"/>
	<path d="M291.996,556.352c-3.722-0.479-6.302-0.72-7.743-0.72c-2.399,0-5.001,0.241-7.801,0.72l0.36-2.759
		c1.841-0.362,3.081-0.893,3.722-1.59c0.639-0.701,0.959-1.892,0.959-3.573l0.06-25.207c0-1.281-0.148-2.141-0.45-2.582
		c-0.299-0.437-0.889-0.66-1.77-0.66l-2.041,0.12l-0.12-0.241l0.42-2.638c2.682,0.117,4.781,0.177,6.302,0.177l9.122-0.237
		c5.838,0,10.595,1.658,14.258,4.979c3.656,3.324,5.488,7.805,5.488,13.444c0,5.642-1.998,10.515-6,14.616
		C302.758,554.302,297.835,556.352,291.996,556.352z M288.875,520.103c-0.841,0-1.402,0.091-1.681,0.271
		c-0.281,0.177-0.441,0.528-0.48,1.048c-0.599,15.407-0.901,24.197-0.901,26.379s0.501,3.641,1.502,4.38
		c0.999,0.742,3.021,1.112,6.058,1.112c4.327,0,7.726-1.489,10.206-4.47c2.48-2.981,3.724-7.093,3.724-12.335
		c0-5.239-1.59-9.283-4.771-12.121C299.35,521.524,294.798,520.103,288.875,520.103z"/>
	<path d="M346.609,555.934c-1.764-0.203-3.121-0.301-4.082-0.301c-1.843,0-4.161,0.241-6.961,0.72l0.358-2.759
		c1.839-0.362,3.079-0.893,3.72-1.59c0.641-0.701,0.961-1.892,0.961-3.573l0.06-25.207c0-1.281-0.151-2.141-0.448-2.582
		c-0.301-0.437-0.893-0.66-1.771-0.66l-2.039,0.12l-0.12-0.241l0.418-2.638c2.921,0.117,5.141,0.177,6.663,0.177l7.082-0.237
		c3.799,0,6.72,0.788,8.763,2.371c2.039,1.579,3.06,3.829,3.06,6.75c0,2.001-0.611,3.803-1.832,5.401
		c-1.221,1.602-2.932,2.883-5.129,3.84c2.917,0.641,5.201,1.764,6.841,3.362c1.639,1.602,2.461,3.52,2.461,5.763
		c0,3.121-1.402,5.83-4.202,8.133c-2.8,2.299-6.102,3.449-9.901,3.449C349.669,556.232,348.369,556.134,346.609,555.934z
		 M346.428,552.21c1.04,0.641,2.781,0.961,5.22,0.961c2.442,0,4.353-0.671,5.733-2.009c1.379-1.342,2.069-3.151,2.069-5.431
		c0-4.444-2.698-7.142-8.099-8.103l-6.241,0.12l-0.241,11.22C344.868,550.492,345.388,551.573,346.428,552.21z M357.411,527.305
		c0-2.559-0.859-4.462-2.582-5.702c-1.719-1.24-4.379-1.862-7.982-1.862c-0.4,0-0.679,0.083-0.841,0.241
		c-0.32,0.441-0.58,5.303-0.78,14.586c3.761,0.32,5.83,0.471,6.215,0.448c0.377-0.019,0.69-0.068,0.927-0.151
		c0.241-0.079,0.69-0.309,1.353-0.69c0.66-0.381,1.24-0.829,1.737-1.349c0.501-0.52,0.95-1.27,1.353-2.25
		C357.211,529.597,357.411,528.504,357.411,527.305z"/>
	<path d="M398.582,556.171c-6.962-0.358-11.722-0.539-14.284-0.539c-3.882,0-7.18,0.2-9.901,0.599l0.358-2.759
		c1.56-0.241,2.631-0.712,3.211-1.409c0.58-0.701,0.87-1.911,0.87-3.633l0.061-25.207c0-1.281-0.151-2.141-0.448-2.582
		c-0.302-0.437-0.893-0.66-1.771-0.66l-2.039,0.12l-0.121-0.241l0.418-2.638c2.962,0.117,5.02,0.177,6.181,0.177
		c1.602,0,3.923-0.177,6.965-0.539l-0.241,2.702c-0.441,0.079-0.833,0.147-1.172,0.207c-0.339,0.06-0.641,0.151-0.901,0.271
		c-0.26,0.121-0.479,0.211-0.659,0.271c-0.177,0.06-0.339,0.219-0.479,0.479c-0.139,0.26-0.241,0.441-0.302,0.539
		c-0.06,0.102-0.121,0.343-0.181,0.724c-0.056,0.38-0.109,0.648-0.147,0.807c-0.083,0.803-0.12,1.564-0.12,2.284
		c-0.482,6.682-0.72,14.401-0.72,23.164c0,2.043,0.29,3.324,0.871,3.84c0.577,0.52,2.299,0.78,5.16,0.78s4.839-0.497,5.943-1.5
		c1.097-0.999,1.99-3.339,2.668-7.021l2.642-0.298l0.181,0.298c-0.72,3.641-1.301,7.444-1.741,11.405L398.582,556.171z"/>
	<path d="M422.168,556.352c-4.922,0-8.925-1.719-12.004-5.16c-3.079-3.441-4.62-8.013-4.62-13.715c0-5.703,1.9-10.594,5.702-14.672
		c3.799-4.082,8.34-6.124,13.625-6.124c5.28,0,9.501,1.722,12.66,5.163c3.162,3.441,4.741,8.013,4.741,13.711
		c0,5.703-1.93,10.595-5.789,14.676C432.619,554.313,427.848,556.352,422.168,556.352z M410.703,536.249
		c0,4.881,1.24,8.94,3.724,12.181c2.48,3.241,5.65,4.862,9.513,4.862c3.859,0,6.991-1.451,9.392-4.353
		c2.401-2.898,3.599-6.78,3.599-11.642c0-4.862-1.27-8.914-3.81-12.151c-2.54-3.242-5.752-4.862-9.633-4.862
		c-3.882,0-6.98,1.44-9.302,4.319C411.864,527.486,410.703,531.364,410.703,536.249z"/>
	<path d="M466.098,556.352c-4.922,0-8.925-1.719-12.004-5.16c-3.079-3.441-4.621-8.013-4.621-13.715
		c0-5.703,1.9-10.594,5.702-14.672c3.799-4.082,8.341-6.124,13.625-6.124c5.28,0,9.501,1.722,12.66,5.163
		c3.162,3.441,4.741,8.013,4.741,13.711c0,5.703-1.93,10.595-5.789,14.676C476.55,554.313,471.778,556.352,466.098,556.352z
		 M454.633,536.249c0,4.881,1.24,8.94,3.724,12.181c2.48,3.241,5.65,4.862,9.513,4.862c3.859,0,6.991-1.451,9.392-4.353
		c2.401-2.898,3.599-6.78,3.599-11.642c0-4.862-1.27-8.914-3.81-12.151c-2.54-3.242-5.751-4.862-9.633-4.862
		c-3.882,0-6.98,1.44-9.302,4.319C455.794,527.486,454.633,531.364,454.633,536.249z"/>
	<path d="M510.029,556.352c-3.72-0.479-6.302-0.72-7.741-0.72c-2.401,0-5.001,0.241-7.802,0.72l0.358-2.759
		c1.839-0.362,3.079-0.893,3.72-1.59c0.641-0.701,0.961-1.892,0.961-3.573l0.061-25.207c0-1.281-0.151-2.141-0.449-2.582
		c-0.301-0.437-0.893-0.66-1.771-0.66l-2.039,0.12l-0.12-0.241l0.418-2.638c2.68,0.117,4.783,0.177,6.302,0.177l9.125-0.237
		c5.838,0,10.591,1.658,14.254,4.979c3.66,3.324,5.492,7.805,5.492,13.444c0,5.642-2.001,10.515-6.004,14.616
		C520.793,554.302,515.871,556.352,510.029,556.352z M506.908,520.103c-0.841,0-1.402,0.091-1.681,0.271
		c-0.279,0.177-0.441,0.528-0.479,1.048c-0.603,15.407-0.901,24.197-0.901,26.379s0.498,3.641,1.5,4.38
		c0.999,0.742,3.019,1.112,6.06,1.112c4.323,0,7.723-1.489,10.203-4.47c2.48-2.981,3.724-7.093,3.724-12.335
		c0-5.239-1.591-9.283-4.771-12.121C517.382,521.524,512.829,520.103,506.908,520.103z"/>
</g>
<g id="Layer_4">
	<path fill-rule="evenodd" clip-rule="evenodd" d="M119.113,329.008c0-1.424,0-2.849,0-4.281c0.303,0.144,0.642,0.24,0.911,0.439
		c1.768,1.277,3.521,2.565,5.277,3.853c0.269,0.188,0.561,0.336,1.081,0.65c-0.173-0.609-0.266-0.945-0.365-1.266
		c-0.461-1.395-1.007-2.757-1.369-4.167c-1.011-3.971-1.38-8.019-1.509-12.101c-0.044-1.299-0.136-2.62-0.461-3.868
		c-0.517-2.048-0.86-4.093-0.86-6.192c0-1.229,0.115-2.451,0.144-3.676c0.059-2.262,0.624-4.44,1.081-6.743c0.454,0,0.849,0,1.24,0
		c1.465,0,2.93-0.022,4.395,0.019c0.672,0.011,1.229-0.155,1.783-0.52c1.657-1.093,3.325-2.137,5.004-3.192
		c0.181-0.118,0.395-0.166,0.72-0.303c-0.875,4.436-1.495,8.761-1.384,13.304c-1.155,0-2.196,0-3.447,0
		c0.69,1.026,1.281,1.812,1.775,2.646c0.413,0.701,0.826,1.447,1.041,2.233c0.479,1.735,0.07,3.318-1.052,4.72
		c-0.782-0.377-1.277-1.078-2.325-1.332c0.886,1.554,1.554,2.953,2.439,4.2c1,1.402,0.805,2.879,0.723,4.44
		c-0.716-0.029-1.148-0.69-2.096-0.627c0.856,0.816,1.557,1.465,2.222,2.133c0.207,0.21,0.447,0.513,0.461,0.778
		c0.052,1.011,0.026,2.019,0.026,3.063c-1.048-0.133-1.852-0.69-3.037-0.583c1.162,1.151,2.181,2.144,3.152,3.17
		c0.291,0.302,0.605,0.69,0.675,1.07c0.225,1.465,0.351,2.941,0.52,4.458c-0.716,0.041-1.306,0.081-1.897,0.125
		c1.827,1.391,3.92,2.344,4.432,4.868c-0.786,0.041-1.506,0.085-2.229,0.115c-0.033,0.074-0.059,0.148-0.078,0.211
		c2.277,1.432,4.846,2.535,6.082,5.203c-0.362,0.218-0.661,0.384-1.196,0.698c1.524,0.277,2.801,0.495,4.063,0.746
		c0.299,0.051,0.683,0.136,0.838,0.347c0.701,0.941,1.336,1.938,2.055,2.993c-1.129,0.421-2.137,0.786-3.133,1.151
		c0.008,0.081,0.029,0.177,0.045,0.262c1.203,0.074,2.402,0.24,3.602,0.21c1.495-0.033,2.207,0.897,3.008,1.978
		c-0.989,0.236-1.871,0.45-2.735,0.657c0.38,0.317,0.786,0.443,1.188,0.546c1.709,0.461,3.443,0.565,5.189,0.461
		c0.989-0.052,1.646,0.207,2.074,1.141c0.229,0.52,0.635,0.974,1.048,1.572c0.443-0.705,0.779-1.277,1.159-1.823
		c0.166-0.24,0.413-0.557,0.668-0.598c1.34-0.233,2.698-0.377,4.1-0.565c0.181,1.569-0.067,3.015,0.203,4.65
		c0.247-0.358,0.365-0.502,0.461-0.661c0.749-1.31,1.476-2.628,2.266-3.904c0.177-0.306,0.535-0.672,0.841-0.701
		c0.93-0.096,1.879-0.03,2.853-0.03c0.074,0.624,0.133,1.126,0.196,1.617c0.059,0.011,0.118,0.022,0.17,0.022
		c0.325-1.443,0.65-2.878,0.993-4.428c0.675,0.181,1.269,0.339,1.871,0.483c0.635,0.155,1.269,0.303,2.067,0.48
		c0-1.487,0-2.816,0-4.248c0.83,0.144,1.509,0.269,2.343,0.428c0-2.059,0-4.019,0-6.06c1.125,0.166,2.111,0.314,3.262,0.491
		c-0.945-2.332-1.82-4.458-2.746-6.742c1.262,0.218,2.314,0.41,3.369,0.587c0.033-0.085,0.074-0.155,0.111-0.24
		c-1.498-1.938-2.982-3.871-4.484-5.809c0.052-0.052,0.107-0.107,0.151-0.159c1.476,0.387,2.952,0.775,4.661,1.225
		c-0.417-0.712-0.73-1.203-1.007-1.705c-0.284-0.535-0.679-0.797-1.303-0.871c-1.565-0.177-3.133-0.439-4.683-0.701
		c-0.332-0.052-0.771-0.17-0.93-0.406c-0.627-0.974-1.166-2.011-1.86-3.237c1.048,0,1.834,0.03,2.616-0.011
		c0.742-0.029,1.532,0.2,2.355-0.218c-1.96-1.927-4.495-1.72-6.828-2.177c-0.048-0.716-0.092-1.332-0.144-2.074
		c-1.631,0.395-3.178,0.797-4.754,1.181c-0.31-0.856-0.583-1.58-0.86-2.343c0.934-0.502,1.764-0.963,2.779-1.517
		c-2.882-0.369-2.882-0.369-4.44,1.631c-0.096,0.125-0.166,0.284-0.284,0.369c-0.192,0.136-0.399,0.288-0.613,0.303
		c-0.613,0.04-1.236,0.011-2.004,0.011c0-1.015,0-1.897,0-2.775c-0.085-0.029-0.163-0.055-0.248-0.074
		c-1.188,1.329-2.377,2.661-3.587,4.03c-1.513-1.077-3.384-1.572-3.842-3.609c-0.007-0.033-0.118-0.033-0.288-0.088
		c-0.056,0.443-0.137,0.863-0.173,1.281c-0.192,2.343-1.007,4.469-2.329,6.396c-0.306,0.432-0.693,0.826-1.336,0.933
		c-0.162-0.963,0.044-1.886-0.147-2.816c-0.605,1.141-1.067,2.185-1.679,3.129c-0.69,1.045-1.948,1.262-3.044,1.716
		c0.107,3.118,0.214,6.167,0.336,9.496c-1.081-1.196-1.959-2.159-2.827-3.122c-0.089,0.04-0.181,0.096-0.262,0.136
		c0.435,2.849,0.871,5.698,1.303,8.543c-0.081,0.029-0.163,0.052-0.24,0.081c-0.561-0.793-1.214-1.546-1.664-2.406
		c-1.222-2.262-2.388-4.565-3.056-7.075c-0.587-2.21-1.295-4.399-1.764-6.639c-0.295-1.421-0.225-2.912-0.384-4.362
		c-0.055-0.528,0.107-0.915,0.413-1.299c1.694-2.137,2.849-4.547,3.698-7.122c0.314-0.982,0.731-1.945,1.255-2.816
		c1.934-3.17,4.65-5.547,7.743-7.577c1.705-1.122,3.454-2.011,5.528-2.167c1.336-0.107,2.635-0.391,3.941-0.579
		c0.044,0.066,0.089,0.129,0.122,0.188c-1.713,2.107-3.443,4.211-5.163,6.314c0.056,0.063,0.111,0.118,0.173,0.177
		c0.406-0.207,0.827-0.41,1.226-0.639c3.295-1.915,6.919-2.679,10.632-3.089c2.207-0.229,4.418-0.008,6.632,0.147
		c1.764,0.137,2.901,1.192,4.174,2.177c-0.93,0.115-1.816,0.085-2.713,0.125c-1.889,0.096-3.794,0.199-5.617,0.808
		c-0.69,0.218-1.395,0.461-2.111,1.247c0.646,0,1.059,0,1.461,0c4.093,0,8.178,0.008,12.26-0.011c0.624,0,1.148,0.111,1.635,0.52
		c1.144,0.974,2.303,1.941,3.473,2.878c1.635,1.31,2.805,2.997,3.812,4.798c0.38,0.679,0.613,1.421,1.015,2.395
		c-2.303-0.775-4.333-1.454-6.381-2.137c-0.026,0.077-0.059,0.148-0.088,0.221c0.284,0.181,0.554,0.369,0.841,0.524
		c2.31,1.277,4.266,2.993,6.056,4.919c1.613,1.738,2.734,3.772,3.587,5.967c1.14,2.93,1.948,5.923,1.838,9.116
		c-0.115,3.292-0.181,6.569-0.236,9.853c-0.048,2.731-0.136,5.477-0.059,8.208c0.044,1.528-0.266,2.878-1.026,4.177
		c-0.572,0.963-1.074,1.967-1.679,3.097c-0.129-0.365-0.207-0.557-0.258-0.742c-0.778-2.661-1.598-5.307-2.295-7.975
		c-0.376-1.424-1.432-2.181-2.602-3.248c0.956,10.145-3.694,17.032-11.935,22.287c0.915-3.454,1.757-6.639,2.624-9.912
		c-0.288,0.029-0.41,0.018-0.505,0.063c-1.882,0.919-3.75,1.863-5.643,2.797c-0.45,0.218-0.602,0.572-0.679,1.022
		c-0.136,0.819-0.369,1.635-0.439,2.45c-0.081,0.908-0.535,1.27-1.373,1.476c-3.148,0.797-6.274,1.664-9.414,2.502
		c-1.196,0.314-2.399,0.616-3.602,0.922c-0.033-0.055-0.059-0.107-0.096-0.159c1.753-1.76,3.499-3.51,5.292-5.296
		c-0.221-0.096-0.303-0.148-0.358-0.148c-0.236,0.033-0.472,0.081-0.697,0.148c-2.428,0.594-4.864,0.576-7.263-0.033
		c-2.192-0.543-4.351-1.192-6.525-1.79c-0.413-0.114-0.819-0.406-1.561-0.022c1.133,0.107,1.602,0.716,2.089,1.351
		c0.542,0.734,1.148,1.413,1.716,2.126c0.17,0.211,0.303,0.461,0.528,0.794c-1.583-0.436-2.827-1.306-4.351-1.495
		c2.177,2.085,4.296,4.189,5.639,7.163c-1.281-0.402-2.38-0.738-3.702-1.151c0.251,0.343,0.328,0.491,0.435,0.594
		c0.244,0.262,0.487,0.524,0.76,0.753c2.332,1.938,4.34,4.155,5.989,6.702c0.565,0.867,0.978,1.812,1.318,2.9
		c-1.941-0.694-3.539-1.771-5.407-2.251c3.41,3.193,6.934,6.218,9.071,10.477c-1.904-0.506-3.62-1.465-5.514-1.927
		c2.941,2.805,6.082,5.329,9.178,8.197c-0.793,0.051-1.332,0.085-1.956,0.129c2.126,1.672,4.215,3.211,6.178,4.905
		c1.985,1.708,3.628,3.75,4.886,6.396c-0.757-0.28-1.233-0.465-1.701-0.639c-0.472-0.188-0.956-0.376-1.439-0.553
		c-0.432-0.155-0.867-0.303-1.303-0.45c3.24,2.199,6.248,4.491,8.289,7.927c-0.661,0.251-1.314-0.056-1.975,0.325
		c2.964,2.048,5.794,4.03,8.03,7.001c-1.214-0.114-2.181-0.188-3.458-0.314c0.945,1.236,1.712,2.24,2.48,3.237
		c0.07-0.022,0.136-0.052,0.207-0.085c0.04-0.576,0.081-1.159,0.136-2c1.513,2.458,2.849,4.702,4.669,6.617
		c1.081,1.144,2.244,2.137,3.757,2.594c0.963,0.284,1.639,0.831,2.262,1.591c2.06,2.528,4.798,3.521,7.986,3.384
		c0.856-0.04,1.713-0.188,2.539-0.284c0.661,1.141,1.085,2.399,1.934,3.214c0.893,0.838,2.17,1.266,3.288,1.864
		c4.063,2.155,8.104,4.333,12.171,6.469c1.882,0.997,3.746,2.074,5.728,2.86c6.27,2.451,12.584,4.753,18.854,7.182
		c1.853,0.709,3.716,0.993,5.672,1.034c2.805,0.04,5.613,0.147,8.414,0.24c1.465,0.056,2.926,0.166,4.388,0.214
		c0.421,0.018,0.911,0.04,1.266-0.14c1.443-0.753,3.015-1.022,4.568-1.203c3.92-0.469,7.85-0.838,11.787-1.173
		c2.72-0.229,5.443-0.314,8.167-0.513c0.701-0.051,1.41-0.207,2.078-0.424c8.082-2.676,16.157-5.351,24.228-8.075
		c1.387-0.469,2.738-1.037,4.048-1.687c4.181-2.085,8.318-4.251,12.515-6.322c1.018-0.502,1.841-1.203,2.591-2.023
		c0.675-0.731,1.314-1.476,1.982-2.207c2.93-3.159,5.846-6.344,8.783-9.496c1.034-1.111,1.901-2.314,2.55-3.683
		c0.971-2.044,2.041-4.03,3.115-6.019c0.705-1.31,1.24-2.628,1.177-4.155c-0.026-0.502,0.103-1.018,0.184-1.531
		c0.587-3.654,1.698-7.148,3.081-10.57c0.314-0.768,0.377-1.521,0.329-2.325c-0.077-1.299-0.163-2.598-0.221-3.904
		c-0.085-2.137-0.155-4.273-0.247-6.399c-0.007-0.177-0.078-0.354-0.129-0.52c-0.056-0.011-0.129-0.011-0.196-0.011
		c-0.461,2.325-0.922,4.646-1.395,6.971c-0.152-0.742-0.037-1.447-0.026-2.155c0.1-4.344,0.166-8.702,0.258-13.053
		c0.029-2.251-0.594-4.263-1.79-6.167c-0.598-0.945-1.214-1.498-2.355-1.31c-0.173,0.022-0.376-0.081-0.675-0.159
		c0-0.952,0-1.871,0-2.846c-2.377,0.104-4.255,0.974-6.063,2.355c-2.129,1.624-3.177,3.831-3.838,6.24
		c-0.871,3.226-1.207,6.532-1.048,9.879c0.033,0.734,0.152,1.498,0.391,2.192c0.886,2.458,1.133,4.989,1.044,7.587
		c-0.077,1.823-0.782,3.454-1.436,5.108c-0.159,0.398-0.347,0.826-0.332,1.247c0.015,0.783,0.196,1.557,0.262,2.344
		c0.17,2.188,0.115,4.355-0.612,6.447c-1.392,3.989-5.366,6.082-9.809,6.148c1.609-1.834,3.144-3.657,3.399-6.148
		c0.266-2.521-0.731-4.613-2.24-6.591c-0.447,0.136-0.86,0.236-1.273,0.373c-2.554,0.849-5.075,1.823-7.68,2.491
		c-3.79,0.956-7.632,1.749-11.47,2.495c-4.429,0.86-8.927,1.192-13.437,1.277c-3.369,0.074-6.72-0.092-10.071-0.365
		c-3.041-0.251-6.056-0.62-9.038-1.269c-2.358-0.524-4.716-1.015-7.041-1.642c-2.181-0.594-4.299-1.362-6.455-2.041
		c-0.28-0.081-0.579-0.118-0.904-0.177c-0.093,0.963-0.077,1.853-0.266,2.687c-0.391,1.823-0.897,3.602-1.321,5.403
		c-0.099,0.421-0.162,0.86-0.129,1.277c0.063,0.701,0.254,1.402,0.321,2.108c0.269,2.804-0.066,5.443-2.155,7.609
		c-0.306,0.325-0.495,0.805-0.594,1.247c-0.428,1.705-1.066,3.325-1.96,4.824c-0.86,1.436-2.026,2.48-3.672,3.004
		c-2.129,0.683-4.269,0.694-6.425,0.314c-0.738-0.122-1.524-0.159-2.299-0.594c0.768-0.491,1.45-0.893,2.081-1.373
		c1.465-1.107,2.764-2.406,3.432-4.155c0.524-1.351,0.598-2.746-0.365-4.045c-0.845-1.126-1.329-2.443-1.447-3.838
		c-0.199-2.284-0.328-4.576-0.402-6.857c-0.1-2.923-1.17-5.277-3.617-6.971c-2.742-1.897-5.458-3.808-8.152-5.746
		c-0.594-0.432-1.177-0.591-1.878-0.58c-1.86,0.03-3.731,0.085-5.591-0.011c-1.484-0.07-2.731,0.232-3.919,1.218
		c-1.115,0.93-2.443,1.598-3.931,1.831c-1.447,0.229-2.247-0.137-2.923-1.436c-0.247-0.48-0.402-1.015-0.583-1.484
		c-1.756-0.421-2.912,0.365-3.716,1.738c-0.565,0.985-1,2.048-1.476,3.085c-0.17,0.343-0.299,0.712-0.498,1.184
		c-1.24-2.199-1.963-4.461-2.218-6.805c-0.236-2.137,0.292-4.251,1.801-5.839c0.978-1.059,2.207-1.948,3.484-2.62
		c1.177-0.616,2.229-1.318,3.129-2.281c0.734-0.786,1.513-1.521,2.27-2.273c0.177-0.188,0.325-0.399,0.638-0.764
		c-0.664,0.166-1.111,0.273-1.756,0.432c-0.749-0.849-1.521-1.753-2.329-2.65c-1.775,1.141-3.429,2.188-5.1,3.251
		c-0.347-1.41-0.24-2.687-0.045-3.986c0.395-2.598,1.698-4.628,3.934-5.916c1.749-1.015,3.761-1.454,5.809-1.465
		c0.638-0.011,1.17-0.159,1.598-0.605c1.177-1.225,2.779-1.1,3.849-0.177c0.72,0.616,1.48,0.487,2.48,0.325
		c-0.701-0.882-1.314-1.591-1.867-2.358c-0.314-0.417-0.653-0.616-1.189-0.628c-1.454-0.04-2.919-0.136-4.377-0.229
		c-0.494-0.022-0.989-0.085-1.668-0.159c1.258-1.694,2.425-3.236,3.554-4.805c0.358-0.509,0.786-0.679,1.399-0.668
		c2.133,0.029,4.273,0.051,6.417-0.011c0.794-0.022,1.21,0.28,1.616,0.908c1.705,2.672,3.794,4.952,6.554,6.576
		c0.506,0.303,0.819,0.69,1.089,1.192c1.679,3.049,3.277,6.156,5.646,8.765c1.303,1.432,2.583,2.908,4.012,4.203
		c1.435,1.288,3.07,2.38,4.591,3.572c1.775,1.395,3.727,2.377,5.997,2.646c0.351,0.048,0.694,0.17,1.034,0.255
		c4.672,1.232,9.466,1.922,14.274,2.218c5.211,0.336,10.426,0.221,15.636-0.554c6.521-0.974,12.691-2.953,18.552-5.934
		c0.874-0.443,1.487-1.004,1.727-1.96c0.115-0.502,0.314-0.993,0.369-1.495c0.177-1.812,0.206-3.591-1.498-4.831
		c-0.129-0.081-0.225-0.218-0.317-0.343c-3.392-4.51-5.964-9.429-7.392-14.909c-1.491-5.691-2.129-11.492-2.144-17.375
		c-0.008-1.141,0.003-2.292-0.008-3.443c0-0.303-0.078-0.598-0.115-0.901c-1.284-0.107-2.365-0.221-3.318,0.882
		c-2.325,2.698-4.753,5.307-7.178,7.912c-0.867,0.952-1.617,1.912-1.683,3.277c-0.022,0.343-0.211,0.668-0.325,1.004
		c-1.199,3.476-3.137,6.476-5.801,9.005c-1.812,1.705-3.476,3.513-4.894,5.598c-2.236,3.255-5.606,4.628-9.403,5.078
		c-0.72,0.081-1.45,0.092-2.222,0.147c-0.136-0.768-0.255-1.373-0.365-2.004c0.472-0.177,0.827-0.354,1.207-0.446
		c1.262-0.295,2.344-0.945,3.403-1.653c1.011-0.675,1.949-1.572,2.06-2.775c0.173-1.915,0.051-3.864,0.051-5.842
		c-0.911-0.266-1.738-0.513-2.572-0.753c-3.082-0.893-6.218-1.631-9.13-2.997c-2.613-1.221-5.185-2.543-7.746-3.871
		c-4.384-2.273-8.351-5.192-12.071-8.396c-2.761-2.365-5.236-5.056-7.754-7.683c-3.402-3.55-6.455-7.392-9.229-11.462
		c-0.923-1.369-1.908-2.705-2.882-4.074c-0.989,0.218-1.901,0.421-2.864,0.638c0.066,1.322,0.133,2.524,0.184,3.75
		c0.115,2.598-0.104,5.13-1.118,7.569c-0.314,0.764-0.679,1.495-1.413,2.018c-0.432-0.365-0.838-0.712-1.281-1.077
		c-0.749,1.118-1.343,2.207-2.133,3.129c-1.351,1.591-3.07,2.594-5.226,2.65c-2.351,0.063-4.406-0.849-6.38-1.978
		c-0.624-0.354-1.166-0.86-1.879-1.406c0.679-0.137,1.14-0.248,1.609-0.332c1.993-0.376,3.941-0.878,5.702-1.893
		c0.709-0.413,1.303-0.893,1.517-1.76c-0.184-0.218-0.376-0.432-0.554-0.639c-0.627-0.768-1.328-1.476-1.867-2.295
		c-1-1.517-1.572-3.148-1.421-5.034c0.17-1.989,0.786-3.779,1.808-5.466c0.244-0.395,0.565-0.845,0.576-1.277
		c0.026-2.166,0.398-4.321-0.019-6.499c-0.613-3.141-1.572-6.137-3.384-8.795c-1.162-1.716-2.535-3.233-4.13-4.554
		c-0.69-0.587-1.303-1.255-2.166-1.62c-2.595-1.111-5.071-2.421-7.411-4c-2.018-1.362-3.838-2.912-5.303-4.868
		c-0.52-0.705-0.989-1.572-1.701-1.927c-0.668-0.343-1.635-0.066-2.461-0.148c-1.059-0.114-1.868,0.24-2.661,0.945
		c-1.424,1.284-3.122,2.081-5.196,2.414c0.255-0.48,0.432-0.815,0.62-1.162c0.701-1.317,1.521-2.594,2.085-3.986
		c0.646-1.613,1.505-3.067,2.653-4.31c1.509-1.646,3.362-2.628,5.706-2.159c0.845,0.17,1.69,0.317,2.609,0.494
		c0.325-1.458,0.642-2.923,1.996-3.79c1.288-0.853,2.775-0.985,4.454-1.018c-0.288-0.376-0.443-0.594-0.62-0.782
		c-0.639-0.65-1.343-1.247-1.923-1.949c-0.631-0.786-1.362-0.889-2.303-0.723c-1.111,0.203-2.244,0.273-3.458,0.421
		c0.166-1.886,1.044-3.196,2.461-4.126c1.727-1.151,3.72-1.517,5.735-1.727c0.815-0.081,1.668-0.063,2.491,0.041
		c2.111,0.255,3.587,1.531,4.812,3.163c0.284,0.358,0.509,0.764,0.764,1.185c0.306-0.17,0.509-0.273,0.723-0.377
		c1.561-0.808,2.72-0.579,3.723,0.838c0.391,0.532,0.613,1.192,0.901,1.801c0.159,0.343,0.28,0.698,0.436,1.085
		c1.432-1.045,1.568-1.273,1.55-2.786c-0.026-1.746-0.734-3.222-1.926-4.469c-0.214-0.218-0.639-0.303-0.96-0.321
		c-0.826-0.044-1.653-0.022-2.616-0.022c0.288-0.856,0.531-1.602,0.778-2.377c1.838,0,3.576,0.063,5.318-0.008
		c2.045-0.085,3.835,0.513,5.381,1.801c0.483,0.395,0.956,0.885,1.192,1.428c0.89,1.971,1.469,4.011,1.1,6.211
		c-0.033,0.218,0.033,0.461,0.063,0.701c0.207,0.096,0.384,0.199,0.568,0.251c2.092,0.701,2.033,1.413,2.126,2.816
		c0.044,0.639,0.044,1.277,0.1,1.908c0.28,3.779,0.579,7.558,0.849,11.337c0.188,2.635,0.343,5.285,0.506,7.931
		c0.037,0.609,0.192,1.144,0.527,1.657c1.502,2.332,2.978,4.68,4.477,7.012c4.421,6.931,9.573,13.285,15.293,19.179
		c3.864,3.989,8.196,7.348,13.16,9.853c0.941,0.476,1.941,0.834,2.967,1.284c0.126-0.314,0.225-0.483,0.262-0.661
		c0.332-1.664-0.222-3.063-1.362-4.218c-1.609-1.631-3.454-3.004-4.808-4.897c-0.827-1.173-2.111-1.878-3.465-2.343
		c-0.122-0.528-0.221-0.985-0.343-1.447c-0.388-1.465-0.919-2.882-1.949-4.011c-0.443-0.484-0.605-0.974-0.69-1.58
		c-0.284-2.188-0.52-4.395-0.978-6.554c-0.31-1.495-0.882-2.982-2.38-3.808c-0.365-0.21-0.406-0.517-0.45-0.889
		c-0.214-1.716-0.369-3.458-0.727-5.152c-0.675-3.203-1.804-6.23-3.842-8.857c-0.332-0.428-0.616-0.9-1.022-1.483
		c0.775,0.059,1.384,0.114,2.033,0.166c0.088-0.325,0.196-0.587,0.229-0.849c0.236-2.27,0.011-4.502-0.657-6.68
		c-0.28-0.886-0.527-1.808-1.321-2.469c-1.672-1.395-3.321-2.816-4.941-4.27c-0.48-0.432-0.956-0.62-1.594-0.598
		c-1.048,0.044-2.111,0.008-3.329,0.008c0.229-0.395,0.332-0.635,0.487-0.845c1.066-1.38,2.078-2.797,3.229-4.104
		c0.93-1.055,1.572-2.137,1.336-3.602c-0.107-0.628-0.041-1.274-0.015-1.904c0.018-0.472-0.14-0.816-0.469-1.159
		c-1.247-1.332-2.48-2.676-3.683-4.034c-0.601-0.69-1.258-1.173-2.251-1.015c-0.229,0.04-0.494-0.074-0.908-0.148
		c1.38-1.528,1.218-3.214,1.026-4.901c-0.362-0.07-0.661-0.136-1.015-0.206c0.151-0.986,0.251-1.938,0.48-2.846
		c0.199-0.841,0.066-1.531-0.413-2.233c-0.583-0.845-1.141-1.72-1.661-2.605c-0.273-0.484-0.638-0.631-1.166-0.62
		c-1.38,0.029-2.775,0.011-4.156,0.011c-0.461,0-0.922,0-1.587,0c0.336-0.406,0.472-0.638,0.664-0.808
		c1.007-0.827,1.631-1.934,2.262-3.034c0.568-0.981,0.613-1.967,0.229-3.067c-0.462-1.321-1.495-2-2.565-2.668
		c-2.325-1.424-4.897-2.207-7.539-2.786c-1.074-0.229-2.126-0.502-3.255-0.764c0-0.997,0.011-1.904-0.015-2.805
		c-0.011-0.347-0.011-0.753-0.188-1.026c-0.69-1.045-1.458-2.052-2.247-3.152c-1.716,0.849-3.369,1.665-5.074,2.502
		c-1.358-1.266-2.694-2.502-4.022-3.727c-0.709-0.638-1.314-1.517-2.144-1.842c-0.731-0.273-1.698,0.052-2.561,0.125
		c-0.199,0.022-0.391,0.029-0.594,0.052c-1.842,0.207-3.683,0.354-5.377,1.266c-1.34,0.735-2.768,1.299-4.119,1.919
		c-0.055,0.572-0.096,1.044-0.147,1.609c-1.775-0.805-3.454-1.568-5.122-2.325c-0.199,0.148-0.325,0.244-0.443,0.336
		c-2.214,1.867-4.436,3.709-6.624,5.602c-0.495,0.417-0.974,0.587-1.598,0.565c-1.232-0.029-2.458-0.029-3.69,0
		c-0.664,0.011-1.406-0.096-1.978,0.17c-1.192,0.554-2.295,1.318-3.436,1.985c0.384,0.255,0.672,0.295,0.971,0.284
		c1.779-0.063,3.554-0.166,5.329-0.221c1.823-0.052,3.613-0.207,5.348-0.878c1.771-0.679,3.579-1.266,5.377-1.882
		c0.842-0.284,1.698-0.546,2.642-0.852c-0.826,1.982-1.324,2.58-2.852,3.48c-3.65,2.137-7.311,4.27-10.964,6.418
		c-1.602,0.93-3.2,1.882-4.845,2.857c0,0.826,0,1.624,0.007,2.41c0.004,0.804,0.022,1.62,0.044,2.428
		c0.078,0.019,0.155,0.041,0.24,0.07c2.447-2.45,4.908-4.897,7.388-7.37c0.528,0.306,0.997,0.568,1.546,0.878
		c-1.343,2.033-2.606,3.938-3.853,5.864c-1.229,1.908-2.598,3.727-3.576,5.798c0.69-0.583,1.232-1.274,1.812-1.934
		c0.251-0.291,0.495-0.679,0.834-0.805c2.122-0.768,4.251-1.476,6.62-2.284c-0.299,0.376-0.424,0.553-0.579,0.72
		c-2.133,2.391-4.34,4.713-6.399,7.174c-1.812,2.155-3.222,4.595-4.484,7.115c-0.336,0.661-0.373,1.229,0.103,1.868
		c0.524,0.679,0.982,1.447,1.38,2.207c0.336,0.62,0.778,0.945,1.476,1.026c0.808,0.115,1.613,0.332,2.569,0.535
		c-0.808,1.233-1.554,2.377-2.369,3.624c2.332,0.177,4.473-0.044,6.824,0.144c-1.904,1.55-3.665,2.809-5.875,3.244
		c-1.288,0.255-2.576,0.432-3.735-0.469c-0.181-0.148-0.424-0.199-0.642-0.303c-1.417-0.661-2.86-0.483-4.292-0.055
		c-1.546,0.461-2.967,0.166-4.296-0.661c-0.365-0.229-0.834-0.417-0.978-1.004c0.325-0.018,0.553-0.051,0.786-0.04
		c0.694,0.052,1.269-0.029,1.701-0.746c0.295-0.469,0.853-0.801,1.34-1.14c0.705-0.502,1.447-0.93,2.34-1.487
		c-1.546-0.458-2.953-0.889-4.606-1.38c1.222-0.432,2.218-0.775,3.285-1.151c0-0.554-0.033-1.07,0.007-1.583
		c0.041-0.572-0.206-0.885-0.768-0.992c-0.232-0.03-0.461-0.122-0.682-0.2c-1.244-0.376-2.473-0.742-3.872-1.17
		c1.602-1.026,3.24-1.635,4.764-2.679c-1.299-0.62-2.439-1.166-3.584-1.698c0.447-0.269,0.823-0.325,1.207-0.398
		c1.875-0.354,1.875-0.354,1.675-2.281c-0.003-0.074-0.085-0.125-0.243-0.336c-0.911,0-1.948,0-3.174,0
		c0.927-0.974,1.672-1.76,2.48-2.598c-0.602-0.48-0.97-1.141-1.772-0.941c-0.922,0.232-2.388,2.011-2.45,2.996
		c-0.1,1.45-0.188,2.908-0.247,4.373c-0.096,2.292-0.17,4.584-0.258,6.879c-0.026,0.461-0.103,0.922-0.148,1.358
		c-0.771,0-1.465,0-2.218,0c0.392-6.111,0.775-12.131,1.166-18.216c-0.365,0-0.616,0-0.937,0c-0.044,0.705-0.092,1.366-0.133,2.096
		c-0.812-0.07-1.561-0.147-2.458-0.229c0.749,1.612,1.414,3.033,2.078,4.44c-0.041,0.052-0.081,0.103-0.122,0.147
		c-0.934-0.55-1.86-1.092-2.845-1.657c-0.317,0.546-0.543,1.007-0.838,1.421c-0.354,0.506-0.273,0.904,0.103,1.377
		c0.517,0.657,0.949,1.369,1.417,2.048c-0.044,0.033-0.085,0.067-0.129,0.096c-0.72-0.48-1.439-0.952-2.262-1.495
		c-0.435,0.73-0.853,1.421-1.284,2.155c1.284,1.288,2.498,2.51,3.72,3.723c-0.037,0.067-0.081,0.125-0.118,0.181
		c-1.303-0.232-2.613-0.461-3.967-0.705c-0.207,0.539-0.399,1.008-0.598,1.513c1.14,1.181,2.262,2.303,3.362,3.428
		c-0.801-0.155-1.491-0.65-2.181-0.65c-0.679,0-1.354,0.506-2.251,0.871c2.251,1.624,4.322,3.111,6.573,4.735
		c-1.318,0.376-2.443,0.69-3.698,1.044c-0.756-0.786-1.546-1.561-2.281-2.399c-0.461-0.513-0.919-0.742-1.65-0.583
		c-1.022,0.218-2.089,0.292-3.188,0.424c-0.413-1.063-0.879-2.037-1.17-3.052c-0.587-2.155-0.557-4.388-0.598-6.595
		c-0.03-1.413,0.365-2.451,1.701-3.03c0.874-0.373,1.103-1.1,1.199-1.986c0.454-4.451,1.469-8.742,3.779-12.625
		c0.288-0.483,0.336-0.919,0.04-1.436c-0.72-1.295-1.125-2.709-1.277-4.177c-0.151-1.546-0.037-3.089,0.705-4.488
		c2.72-5.196,5.554-10.333,9.374-14.836c1.605-1.893,2.716-3.949,3.225-6.351c0.026-0.159,0.077-0.317,0.115-0.472
		c1.004-3.76,2.27-7.41,4.392-10.724c1.1-1.712,2.332-3.295,4.048-4.436c0.583-0.399,0.989-0.867,1.277-1.509
		c0.605-1.329,1.255-2.646,1.856-3.975c0.173-0.387,0.299-0.826,0.339-1.247c0.159-1.757,0.251-3.536,0.413-5.307
		c0.1-1.026-0.096-2.096,0.38-3.255c1.388,2.31,2.701,4.469,3.971,6.657c0.159,0.269,0.147,0.679,0.122,1.026
		c-0.067,1.266-0.24,2.521-0.266,3.779c-0.044,1.738-0.598,3.181-1.879,4.418c-0.901,0.856-1.605,1.937-2.388,2.901
		c0.65,1.181,1.251,2.284,1.879,3.443c-0.299,0.31-0.546,0.605-0.827,0.878c-1.343,1.351-2.69,2.702-4.041,4.045
		c-0.321,0.31-0.565,0.624-0.513,1.126c0.111,1.029,0.148,2.044,0.233,3.067c0.04,0.432,0.155,0.86,0.273,1.528
		c0.38-0.583,0.62-0.897,0.797-1.233c0.365-0.69,0.823-1.151,1.679-0.993c0.557,0.1,0.96-0.159,1.365-0.535
		c1.476-1.384,2.975-2.731,4.473-4.082c2.779-2.535,5.595-5.026,8.348-7.58c1.948-1.801,1.919-1.834,4.55-1.834
		c1.362,0,2.72,0,4.089,0c0.019,0.074,0.037,0.148,0.052,0.233c-2.871,1.705-5.738,3.414-8.503,5.067c0,1.735,0,3.307,0,5.034
		c1.587-0.605,3.048-1.192,4.532-1.727c0.635-0.232,1.037-0.576,1.273-1.247c0.901-2.539,2.591-4.488,4.69-6.152
		c1.045-0.827,2.115-1.406,3.484-1.543c1.923-0.196,3.831-0.572,5.754-0.845c0.314-0.04,0.76-0.022,0.97,0.166
		c0.738,0.65,1.399,1.373,2.167,2.155c-3.635,1.635-7.141,3.218-10.647,4.797c0.019,0.081,0.033,0.155,0.048,0.24
		c0.295,0.022,0.59,0.096,0.878,0.07c2.399-0.177,4.797-0.354,7.207-0.561c0.664-0.052,1.27-0.284,1.805-0.757
		c1.376-1.181,2.83-2.292,4.2-3.495c0.742-0.65,1.458-1.14,2.524-0.901c0.646,0.148,1.332,0.133,2.004,0.17
		c2.997,0.177,5.997,0.325,9.001,0.491c0.151,0.011,0.306,0.093,0.716,0.229c-4.321,1.406-8.37,2.713-12.418,4.022
		c2.421,1.118,4.824,2.008,7.255,2.834c0.314,0.115,0.775-0.055,1.111-0.206c1.184-0.535,2.347-1.141,3.535-1.679
		c0.432-0.188,0.901-0.343,1.351-0.354c2.023-0.029,4.041-0.022,6.063-0.011c0.299,0.011,0.694,0.022,0.893,0.2
		c0.879,0.826,1.801,1.612,2.617,2.724c-3.295,0.365-6.443,0.709-9.632,1.055c0.096,0.21,0.107,0.303,0.159,0.343
		c1.454,1.018,2.916,2.044,4.399,3.03c0.269,0.177,0.679,0.247,1.007,0.218c1.922-0.177,3.845-0.406,5.768-0.62
		c1.964-0.196,3.919-0.395,5.909-0.602c1.004,1.82,2.122,3.513,3.1,5.503c-2.853,0-5.499,0-8.112,0
		c-0.029,0.177-0.081,0.273-0.048,0.336c0.701,1.414,1.399,2.838,2.144,4.229c0.125,0.218,0.483,0.387,0.76,0.45
		c1.233,0.262,2.487,0.472,3.735,0.683c2.808,0.502,5.609,0.982,8.407,1.472c0.391,0.074,0.786,0.148,0.926,0.62
		c0.439,1.58,0.874,3.152,1.358,4.875c-2.775-0.491-5.366-0.959-8.226-1.476c1.034,1.613,1.912,3.008,2.845,4.377
		c0.162,0.244,0.48,0.402,0.76,0.543c1.096,0.557,2.17,1.162,3.296,1.624c1.004,0.421,2.067,0.679,3.281,1.07
		c-0.088-0.532-0.11-0.849-0.206-1.13c-0.355-1.026-0.233-1.989,0.203-2.985c0.609-1.34,0.96-2.772,0.963-4.259
		c0.007-1.653-0.03-3.318-0.074-4.997c-0.026-0.76-0.144-1.528-0.229-2.521c1.41,1.122,2.653,2.103,3.93,3.129
		c0.635-2.185,0.679-2.639,0.417-3.454c-0.303,0.251-0.602,0.502-0.949,0.797c-0.897-1.321-1.816-2.558-2.613-3.864
		c-0.605-0.967-0.65-1.978-0.011-3.026c1.151-1.897,2.203-3.853,3.355-5.746c0.421-0.701,0.657-1.413,0.69-2.222
		c0.07-1.598,0.45-3.118,1.118-4.572c0.472-1.048,0.912-2.115,1.336-3.185c0.151-0.354,0.303-0.742,0.314-1.129
		c0.067-1.458,0.148-2.93,0.074-4.384c-0.118-2.17-0.675-4.115-2.79-5.288c-1.015-0.565-1.878-1.402-2.989-2.247
		c1.24-0.317,2.248-0.568,3.222-0.808c0.52,0.661,0.97,1.225,1.572,1.978c0.067-1.738,0.561-3.059,1.384-4.251
		c0.317-0.461,0.343-0.901,0.173-1.443c-0.539-1.694-1.078-3.403-1.498-5.13c-0.247-0.941-0.731-1.613-1.465-2.211
		c-1.262-1.033-2.362-2.236-3.008-3.757c-0.376-0.871-0.624-1.779-0.956-2.753c-0.971-0.115-1.985-0.325-3.004-0.332
		c-1.063,0-1.742-0.443-2.366-1.269c-1.993-2.617-4.059-5.174-6.071-7.765c-0.446-0.568-0.834-0.768-1.594-0.55
		c-2.506,0.738-5.041,1.354-7.573,2.015c-0.402,0.103-0.797,0.247-1.439,0.458c3.727,2.347,7.196,4.543,10.676,6.742
		c-0.019,0.074-0.044,0.155-0.067,0.229c-7.097,0.376-14.142,1.173-21.379,2.587c3.635,2.218,7.532,1.904,11.293,2.377
		c-0.834,0.661-1.665,1.266-2.554,1.76c-3.712,2.048-7.635,3.65-11.61,5.126c-0.373,0.137-0.73,0.336-1.089,0.495
		c0.344,0.195,0.616,0.207,0.89,0.195c1.823-0.07,3.631-0.206,5.454-0.206c1.428,0,2.89,0.063,4.326,0.849
		c-0.786,0.373-1.45,0.697-2.126,1.011c-5.067,2.351-10.123,4.694-15.197,7.027c-0.495,0.229-0.705,0.531-0.723,1.082
		c-0.052,1.262-0.144,2.532-0.269,3.786c-0.056,0.605,0.1,1.055,0.543,1.476c0.716,0.672,1.373,1.38,2.17,2.188
		c-1.292,0.491-2.421,0.911-3.521,1.329c-1.155-1.317-1.845-2.834-2.978-4.019c-0.07,0.033-0.162,0.052-0.229,0.081
		c0,1.207,0,2.421,0,3.665c-0.864,0-1.594,0-2.421,0c0.365-1.351,0.705-2.639,1.089-4.059c-1.133,0-2.126-0.011-3.104,0
		c-1.506,0.011-2.923-0.336-4.189-1.129c-0.997-0.631-1.775-1.476-2.185-2.746c0.535,0.067,0.912,0.118,1.299,0.137
		c2.406,0.17,4.805,0.314,7.219,0.461c0.365,0.033,0.712,0.033,0.915-0.365c0.48-0.933,0.975-1.875,1.491-2.871
		c-1.103-0.679-2.122-1.318-3.137-1.938c0.794-0.1,1.498-0.07,2.207-0.029c0.826,0.04,1.664,0.051,2.476,0.188
		c0.741,0.125,1.181-0.081,1.568-0.72c1.284-2.096,2.709-4.104,3.89-6.259c0.974-1.783,1.727-3.709,1.927-5.971
		c-0.406,0.273-0.694,0.443-0.952,0.65c-3.24,2.672-6.473,5.34-9.706,8.019c-0.247,0.199-0.469,0.432-0.638,0.69
		c-0.982,1.52-2.292,2.713-3.768,3.738c-2.79,1.949-5.731,3.705-7.927,6.374c-1.137,1.406-2.602,2.295-4.281,2.86
		c-2.624,0.878-5.296,1.454-8.03,0.742c-1.174-0.292-2.425-0.698-3.347-1.436c-1.801-1.421-3.155-3.284-4.089-5.532
		c2.332,0.229,4.55,0.436,6.964,0.668c-0.296-0.491-0.476-0.83-0.687-1.155c-0.863-1.328-1.727-2.646-2.59-3.978
		c-0.476-0.731-1.218-1.428-1.314-2.214c-0.111-0.827,0.388-1.742,0.653-2.609c0.391-1.266,0.819-2.535,1.229-3.79
		c0.384,1.664,0.605,3.299,0.823,4.941c0.048,0.347,0.011,0.72,0.107,1.055c0.177,0.683,0.325,1.395,0.657,2.004
		c0.716,1.306,1.554,2.561,2.34,3.849c0.635,1.026,4.2,3.1,5.403,3.111c1.948,0.011,3.886-0.022,5.827,0.019
		c0.664,0.011,1.126-0.218,1.546-0.69c1.653-1.808,3.314-3.62,4.997-5.402c1.513-1.609,3.049-3.214,4.606-4.79
		c1.543-1.583,3.196-3.07,4.676-4.724c2.229-2.469,4.358-5.026,6.204-7.802c0.159-0.229,0.266-0.502,0.399-0.749
		c-2.384-0.502-4.399,0.155-6.344,1.454c0.222,1.214,0.45,2.461,0.683,3.683c-1.133-1.151-2.369-0.69-3.602-0.679
		c-0.129,0.963-0.244,1.83-0.365,2.686c-0.052,0.38,0,0.875-0.502,0.945c-0.62,0.085-0.712,0.557-0.908,0.974
		c-0.436,0.911-0.864,1.812-1.388,2.912c-0.251-0.682-0.388-1.144-0.576-1.561c-0.229-0.505-0.446-1.026-0.771-1.469
		c-0.69-0.926-1.244-1.045-2.14-0.572c0.21,2.373,0.424,4.753,0.627,7.126c-1.908-1.664-2.646-3.871-3.214-6.418
		c-0.797,0.797-1.465,1.476-2.1,2.107c0.993,2.008,1.129,3.894,0.31,6.019c-0.956-1.34-1.801-2.513-2.683-3.739
		c-0.716,0.443-1.351,0.827-2.052,1.258c1.185,2.731,2.325,5.403,3.547,8.237c-1.528-0.421-2.631-1.07-3.591-1.978
		c-1.214-1.141-2.369-2.347-3.248-3.779c-0.439-0.712-1.015-1.015-1.86-0.934c-0.583,0.063-1.199,0.052-1.782,0
		c-0.277-0.04-0.624-0.177-0.786-0.384c-0.546-0.679-1.008-1.417-1.506-2.126c1.402-2.576,3.015-4.912,5.17-6.838
		c0.856-0.749,1.646-1.724,2.657-2.133c0.923-0.376,2.111-0.188,3.17-0.14c0.867,0.037,1.491-0.207,2.074-0.856
		c1.911-2.074,4.026-3.927,6.311-5.58c1.432-1.033,2.989-1.904,4.58-2.912c-0.21-1.801-0.435-3.702-0.653-5.621
		c0.48-0.258,0.897-0.48,1.321-0.698c3.89-1.959,7.779-3.919,11.662-5.897c3.285-1.672,6.506-3.462,9.333-5.86
		c1.661-1.413,3.181-2.985,4.126-4.982c0.317-0.672,0.783-1.026,1.443-1.288c2.753-1.111,5.502-2.233,8.233-3.384
		c4.786-2.019,8.539-5.244,11.223-9.702c0.258-0.417,0.506-0.838,0.764-1.255c0.133,0.447,0.155,0.845,0.085,1.221
		c-0.387,2.096-1.185,4.004-2.487,5.709c-2.617,3.443-5.351,6.772-8.469,9.772c-0.159,0.159-0.277,0.362-0.502,0.631
		c0.683,0.343,1.266,0.639,1.904,0.952c0.797-0.532,1.628-1.004,2.351-1.613c0.948-0.797,1.915-1.066,3.148-0.775
		c1.476,0.347,2.989,0.524,4.491,0.775c0.015,0.074,0.026,0.136,0.044,0.207c-1.882,1.122-3.764,2.233-5.713,3.395
		c0.243,0.148,0.336,0.244,0.443,0.273c1.842,0.435,3.687,0.897,5.532,1.31c0.373,0.07,0.797,0,1.174-0.089
		c1.192-0.277,2.384-0.572,3.558-0.919c0.509-0.144,0.882-0.074,1.332,0.188c2.033,1.214,3.783,2.745,5.366,4.469
		c0.107,0.129,0.159,0.306,0.31,0.609c-1.609,0-3.049,0-4.805,0c1.037,1.037,1.889,1.853,2.686,2.709
		c0.439,0.472,0.911,0.683,1.565,0.65c1.148-0.059,2.277,0.022,3.41,0.325c3.008,0.808,5.469,2.48,7.543,4.724
		c1.17,1.266,2.033,2.753,2.635,4.617c-0.402-0.221-0.605-0.325-0.805-0.454c-1.569-1.004-3.166-1.967-4.683-3.033
		c-1.1-0.764-2.033-0.188-3.255-0.019c0.439,0.469,0.694,0.76,0.967,1.033c2.782,2.775,5.576,5.528,8.322,8.344
		c0.657,0.672,1.306,1.1,2.27,0.945c0.609-0.107,1.037,0.144,1.388,0.668c0.978,1.487,2.052,2.908,2.971,4.44
		c2.166,3.565,3.2,7.473,2.964,11.662c-0.089,1.768-0.694,3.425-1.517,5.274c-1.203-4.572-2.705-8.728-5.658-12.226
		c-0.136,0.332-0.147,0.627-0.136,0.922c0.14,2.635,0.354,5.285,0.413,7.931c0.037,1.76,0.211,3.454,1.085,5.026
		c0.221,0.421,0.413,0.86,0.568,1.31c0.129,0.406,0.251,0.838,0.251,1.27c0.026,2.214,0.026,4.436,0.015,6.654
		c0,0.199-0.096,0.41-0.163,0.734c-0.59-0.421-1.041-0.816-1.546-1.1c-0.783-0.45-1.115-1.045-1.004-1.959
		c0.033-0.281-0.026-0.753-0.207-0.856c-0.701-0.387-1.339-0.974-2.203-1.048c-0.229,1.591-0.151,8.89,0.118,9.798
		c0.55-0.207,1.103-0.406,1.646-0.616c2.72-1.077,4.79-2.93,6.156-5.484c0.72-1.351,1.277-2.805,1.749-4.263
		c0.48-1.487,0.757-3.037,1.137-4.584c0.797,0.417,1.48,0.963,2.251,1.17c3.724,0.986,7.344-0.69,8.466-4.469
		c0.417-1.454,0.819-2.901,0.417-4.429c-0.04-0.177,0.026-0.376,0.033-0.638c3.166,0.775,6.263,1.543,9.075,2.244
		c1.849-0.922,2.162-2.284,2.007-3.919c-0.1-0.963-0.022-1.945-0.022-2.982c0.539-0.03,0.923-0.063,1.314-0.063
		c1.856,0,3.724,0.018,5.591-0.022c0.406,0,0.882-0.092,1.196-0.325c1.425-1.067,2.794-2.207,4.211-3.296
		c0.432-0.325,0.553-0.723,0.539-1.236c-0.026-0.745,0-1.495,0-2.269c0.439-0.273,0.831-0.524,1.24-0.768
		c0.915-0.554,1.834-1.111,2.771-1.613c0.587-0.314,0.908-0.709,0.83-1.41c-0.059-0.587,0.037-1.196-0.026-1.779
		c-0.048-0.609,0.177-1.063,0.55-1.509c1.14-1.362,2.247-2.753,3.384-4.122c1.166-1.406,1.111-3.019-0.152-4.296
		c-0.45-0.447-0.871-0.93-1.358-1.329c-0.616-0.513-0.775-1.118-0.764-1.882c0.048-2.108-0.029-4.211,0.044-6.307
		c0.037-0.908-0.291-1.45-0.993-1.978c-3.218-2.436-6.403-4.92-9.602-7.388c-0.893-0.69-1.797-1.362-2.698-2.041
		c-0.114,0.461-0.103,0.837,0.066,1.122c0.915,1.569,1.69,3.255,2.842,4.646c1.672,2.044,3.517,3.945,5.606,5.61
		c0.184,0.159,0.314,0.391,0.59,0.723c-2.082-0.232-3.993-0.314-5.739-1.159c-2.539-1.229-4.989-2.587-6.993-4.632
		c-0.41-0.406-0.823-0.65-1.436-0.679c-2.284-0.092-4.573-0.262-6.853-0.387c-0.037,0-0.066,0.107-0.159,0.24
		c3.484,2.805,6.975,5.613,10.463,8.429c-5.565-2.838-11.441-3.591-17.795-3.008c0.317,0.266,0.461,0.391,0.613,0.495
		c1.657,1.088,3.318,2.148,4.967,3.244c0.948,0.638,1.911,1.059,3.063,1.111c0.79,0.029,1.572,0.303,2.355,0.314
		c1.524,0.011,2.181,1.133,3.244,2.229c-0.472-0.104-0.672-0.133-0.856-0.188c-2.779-0.783-5.543-1.569-8.329-2.344
		c-0.886-0.24-1.753-0.513-2.654-0.649c-2.613-0.395-5.229-0.768-7.86-1.089c-1.491-0.181-2.997-0.181-4.484,0.188
		c-1.04,0.262-1.893,0.782-2.439,1.738c-0.487,0.856-0.251,1.34,0.639,1.709c0.682,0.269,1.369,0.635,1.926,1.107
		c0.58,0.491,0.321,1.255-0.424,1.391c-0.568,0.092-1.184,0.129-1.742,0.011c-1.55-0.292-2.841-1.141-4.1-2.063
		c-0.435-0.314-0.852-0.65-1.509-1.141c0,1.17,0.011,2.063,0,2.96c-0.007,0.391,0.052,0.83-0.085,1.177
		c-0.129,0.325-0.436,0.72-0.742,0.801c-0.421,0.129-0.808-0.155-1.03-0.601c-0.753-1.561-1.059-3.207-0.524-4.838
		c0.358-1.037,0.148-1.801-0.384-2.65c-0.605-0.941-1.133-1.937-1.687-2.919c0.052-0.033,0.103-0.063,0.144-0.092
		c1.17,1.233,2.321,2.469,3.535,3.757c1.114-0.513,2.207-1.03,3.51-1.635c-1.07-0.369-1.871-0.639-2.642-0.901
		c0.148-1.812,0.284-3.465,0.417-5.119c0.085-0.029,0.166-0.063,0.247-0.092c0.133,2.425,1.83,3.801,3.196,5.377
		c0.845-0.354,0.827-0.952,0.797-1.557c-0.081-1.495-0.147-3.008-0.24-4.502c-0.026-0.513-0.07-1.026-0.111-1.539
		c0.07-0.011,0.137-0.019,0.203-0.041c0.937,1.938,1.886,3.872,2.83,5.798c2.1-0.745,2.277-1.07,1.709-2.96
		c-0.532-0.052-1.059-0.096-1.613-0.136c0-1.288,0-2.491,0-3.927c1.58,1.801,2.997,3.421,4.458,5.097c0.55-0.354,1-0.65,1.45-0.938
		c-0.546-1.867-1.059-3.613-1.572-5.362c0.874,0.572,1.543,1.244,2.214,1.915c1.421,1.421,1.421,1.421,1.786,3.244
		c0.639-0.354,1.225-0.69,1.871-1.045c-0.628-1.794-1.203-3.465-1.775-5.141c0.067-0.033,0.125-0.074,0.196-0.107
		c1.269,1.048,2.55,2.085,3.831,3.14c0.963-0.668,1.856-1.266,2.697-1.915c0.258-0.2,0.513-0.524,0.583-0.849
		c0.439-1.746,0.487-3.506,0.07-5.285c-0.104-0.443-0.306-0.701-0.694-0.878c-1.262-0.568-2.51-1.162-3.79-1.698
		c-0.384-0.159-0.845-0.177-1.266-0.177c-0.554,0-1.1,0.104-1.65,0.125c-2.65,0.067-5.285,0.262-7.905,0.701
		c-0.539,0.096-0.845,0.302-0.989,0.849c-0.17,0.672-0.45,1.306-0.764,2.199c-0.288-1.007-0.491-1.749-0.712-2.513
		c-0.627,0-1.181,0-1.753,0c-0.672,1.506-1.329,2.982-2.074,4.628c-0.583-1.561-1.107-2.953-1.62-4.292c-0.587,0-1.048,0-1.668,0
		c0.262,0.76,0.484,1.421,0.72,2.137c-0.812,1.033-1.617,2.07-2.428,3.118c-0.336-1.801-0.122-3.532-0.336-5.373
		c-2.004,0.306-3.757-0.284-5.525-0.901c-2.17-0.764-2.181-0.731-2.332-3.096c0-0.159,0-0.303,0-0.502
		c1.1-0.587,2.177-1.163,3.255-1.749c0.938-0.513,1.949-0.69,2.99-0.557c0.937,0.125,1.852,0.399,2.793,0.495
		c3.019,0.325,6.052,0.565,9.075,0.911c0.959,0.103,1.69-0.092,2.27-0.879c0.937-1.24,2.273-1.594,3.75-1.708
		c1.55-0.103,3.081,0,4.591,0.332c0.303,0.077,0.613,0.067,0.908,0.096c0.535-1.022,0.978-1.989,1.517-2.912
		c1.129-1.912,2.949-2.606,5.052-2.037c0.683,0.177,1.402,0.188,2.104,0.258c0.948,0.107,1.9,0.147,2.827,0.314
		c2.69,0.461,5.17,1.458,7.466,2.945c0.38,0.24,0.856,0.439,1.303,0.461c2.963,0.115,5.93,0.137,8.89,0.273
		c1.074,0.048,1.889-0.203,2.598-1.052c0.576-0.69,1.214-1.432,1.989-1.849c1.421-0.757,2.941-1.362,4.469-1.908
		c0.768-0.269,1.62-0.258,2.421,0.107c2.037,0.952,4.107,1.86,6.141,2.834c0.93,0.439,1.871,0.502,2.882,0.472
		c2.498-0.081,4.967-0.399,7.381-1.026c1.76-0.45,3.757-0.303,5.126-1.831c2.03-0.768,4.059-1.532,6.218-2.343
		c-0.137,0.247-0.17,0.354-0.24,0.435c-1.34,1.572-2.679,3.13-4.008,4.702c-0.306,0.365-0.668,0.542-1.144,0.483
		c-0.709-0.085-1.306,0.188-1.919,0.491c-1.417,0.701-2.801,1.498-4.292,2.03c-4.632,1.675-9.407,2.48-14.337,1.749
		c-1.214-0.177-2.329-0.096-3.395,0.565c-0.535,0.325-1.136,0.557-1.723,0.786c-0.325,0.115-0.694,0.236-1.026,0.207
		c-2.628-0.247-5.263-0.543-7.894-0.816c-0.365-0.029-0.73,0-1.096,0c0.587,0.723,1.229,1.225,1.849,1.767
		c0.499,0.443,1.037,0.672,1.716,0.609c0.55-0.056,1.085-0.008,1.69-0.008c0.033,0.395,0.111,0.679,0.067,0.926
		c-0.347,2.023,0.369,3.491,2.107,4.587c0.86,0.546,1.561,1.34,2.34,2.023c-0.059-0.502-0.273-0.882-0.513-1.218
		c-0.723-1.045-1.388-2.133-2.199-3.096c-0.971-1.151-0.69-2.377-0.605-3.75c2.602,0.996,5.133,1.767,7.351,3.299
		c0.594,0.417,1.329,0.701,2.037,0.871c1.41,0.343,2.761,0.834,3.908,1.672c1.029,0.768,2.126,1.572,2.642,2.827
		c0.243,0.576,0.572,0.797,1.166,0.746c0.184-0.011,0.369,0.059,0.605,0.115c0.269,1.044,0.547,2.059,0.86,3.277
		c-0.83-0.369-1.476-0.638-2.1-0.933c-0.613-0.284-1.21-0.598-1.808-0.901c-0.638-0.325-1.258-0.69-1.93-0.93
		c-0.612-0.232-1.159-0.757-2.008-0.683c0.221,0.369,0.365,0.65,0.531,0.901c0.771,1.162,1.639,2.262,2.303,3.465
		c0.76,1.362,1.801,2.284,3.307,2.65c1.048,0.273,1.598,0.993,2.096,1.904c1.653,3.056,2.867,6.263,3.75,9.599
		c0.277,1.082,0.491,2.17,0.738,3.255c-0.074,0.033-0.151,0.051-0.222,0.088c-0.609-1.063-1.255-2.096-1.812-3.185
		c-0.897-1.746-2-3.299-3.698-4.373c-0.38-0.232-0.705-0.528-1.048-0.797c-0.07,0.365-0.026,0.605,0.099,0.775
		c0.753,1.045,1.041,2.185,0.911,3.477c-0.166,1.557,0.166,3.063,0.591,4.55c1.369,4.691,1.764,9.455,1.347,14.311
		c-0.114,1.402-0.845,2.199-1.938,2.993c-0.07-0.24-0.118-0.388-0.136-0.532c-0.225-2.199-0.428-4.399-0.679-6.599
		c-0.048-0.406-0.166-0.9-0.447-1.151c-0.631-0.576-1.376-1.026-2.148-1.569c-0.129,0.388-0.24,0.639-0.31,0.897
		c-0.495,1.889-1.004,3.75-1.462,5.635c-0.114,0.469-0.107,1.004-0.063,1.498c0.148,1.694,0.347,3.377,0.495,5.078
		c0.033,0.384,0.055,0.816-0.081,1.159c-1.133,2.919-2.351,5.802-4.196,8.355c-0.476,0.661-1.048,1.244-1.668,1.978
		c-0.045-0.314-0.096-0.428-0.078-0.535c0.509-3.436,1.041-6.864,1.535-10.308c0.063-0.421,0.24-0.904-0.096-1.435
		c-1.306,1.299-2.517,2.55-3.771,3.746c-0.484,0.45-0.639,0.93-0.628,1.568c0.03,1.664,0.033,3.329-0.011,4.997
		c-0.015,0.531-0.151,1.096-0.38,1.579c-1.018,2.115-2.244,4.104-3.901,5.768c-1.074,1.078-2.251,2.052-3.982,2.458
		c1.314-3.779,2.565-7.37,3.886-11.16c-0.358,0.125-0.509,0.147-0.631,0.225c-1.986,1.211-3.974,2.447-5.975,3.65
		c-0.392,0.24-0.506,0.553-0.498,0.985c0.011,1.277-0.019,2.546,0.008,3.808c0.015,0.661-0.107,1.258-0.469,1.801
		c-0.17,0.273-0.314,0.557-0.454,0.838c-1.34,2.701-3.203,4.997-5.399,7.023c-0.919,0.837-2.033,1.395-3.41,1.989
		c1.812-4.27,3.679-8.237,5.432-12.488c-0.347,0.159-0.469,0.188-0.565,0.255c-2.155,1.609-4.303,3.233-6.469,4.824
		c-0.406,0.306-0.495,0.672-0.528,1.122c-0.085,1.31-0.199,2.605-0.277,3.893c-0.052,1.015-0.292,1.927-0.934,2.742
		c-0.794,0.993-1.506,2.044-2.203,3.1c-0.506,0.775-1.144,1.391-1.938,1.886c-1.214,0.749-2.388,1.546-3.591,2.321
		c-0.539,0.358-1.096,0.69-1.653,1.026c0.399-1.506,0.926-2.912,1.48-4.292c0.568-1.436,1.192-2.857,1.72-4.299
		c0.498-1.384,1.166-2.705,1.609-4.388c-0.509,0.251-0.768,0.354-0.986,0.502c-1.185,0.764-2.048,1.853-2.838,2.993
		c-0.594,0.871-1.321,1.395-2.395,1.495c-0.683,0.067-1.354,0.306-2.023,0.461c0.173,5.266-1.336,9.75-5.144,13.348
		c-0.033-0.672,0.044-1.321,0.103-1.97c0.173-1.764,0.358-3.547-0.115-5.303c-0.162-0.62-0.435-1.103-1.269-1.196
		c-0.819,0.831-1.639,1.753-2.558,2.558c-0.668,0.605-0.816,1.214-0.668,2.092c0.528,3.284,0.653,6.573,0.203,9.905
		c-0.314,2.258-0.406,4.55-0.598,6.842c-0.03,0.365-0.107,0.727-0.207,1.354c-0.266-0.443-0.391-0.62-0.495-0.819
		c-0.679-1.255-1.328-2.532-2.041-3.757c-0.314-0.546-0.439-1.078-0.428-1.698c0.019-1.465,0.008-2.93,0-4.399
		c0-0.247-0.081-0.487-0.136-0.801c-1.059,0.679-1.724,1.557-2.274,2.521c-0.631,1.1-1.173,2.251-1.856,3.307
		c-0.446,0.69-0.443,1.269-0.144,1.989c1.502,3.539,2.953,7.086,4.418,10.636c0.387,0.934,0.745,1.875,1.218,3.07
		c-1.506-0.598-2.76-1.041-3.985-1.572c-0.484-0.21-0.949-0.535-1.34-0.901c-0.897-0.826-1.746-1.727-2.628-2.583
		c-0.166-0.17-0.395-0.277-0.676-0.454c0.074,1.203,0.214,2.273,0.17,3.318c-0.059,1.532,0.48,2.535,1.823,3.384
		c2.841,1.801,5.565,3.779,8.329,5.706c1.314,0.908,1.852,2.867,1.144,4.218c-3.34-1.934-7.126-2.963-10.34-5.591
		c0.048,0.432,0.033,0.587,0.088,0.723c1.443,3.329,3.244,6.429,5.728,9.108c0.373,0.41,0.775,0.616,1.339,0.576
		c0.749-0.044,1.502-0.029,2.252,0c0.513,0.029,0.908-0.147,1.288-0.472c2.41-2.007,3.321-4.543,2.779-7.621
		c-0.059-0.321-0.096-0.661-0.133-0.996c0.317,0.203,0.487,0.45,0.661,0.705c1.716,2.521,3.51,4.982,5.738,7.097
		c1.875,1.779,4.041,2.41,6.551,1.779c1.366-0.343,2.008-1.17,1.841-2.583c-0.088-0.849-0.398-1.687-0.616-2.524
		c-0.17-0.657-0.339-1.306-0.561-2.115c0.838,0.956,1.535,1.746,2.218,2.554c1.694,1.978,3.735,3.129,6.444,2.724
		c0.351-0.052,0.705-0.041,1.063-0.052c1.786-0.044,3.381-0.461,4.79-1.708c1.816-1.594,3.237-3.443,4.466-5.495
		c0.454-0.764,0.583-1.52,0.535-2.369c-0.125-2.332-0.211-4.665-0.299-7.001c-0.059-1.384-0.181-2.753-0.963-3.971
		c-0.314-0.502-0.594-1.022-0.856-1.557c-2.044-4.133-4.488-8.008-7.063-11.817c-0.631-0.956-1.388-1.258-2.432-1.31
		c-1.742-0.07-3.48-0.155-5.2-0.376c-3.321-0.439-3.624-0.428-6.572,1.037c-0.247,0.125-0.498,0.251-0.749,0.365
		c-1.417,0.668-2.823,1.329-4.321,2.033c0.033-0.221,0.015-0.295,0.052-0.351c3.137-4.078,6.281-8.152,9.44-12.222
		c0.284-0.358,0.675-0.661,1.066-0.915c5.912-3.764,11.832-7.503,17.747-11.282c0.742-0.472,1.491-0.845,2.373-1.004
		c7.465-1.373,14.928-2.764,22.397-4.137c0.853-0.155,1.712-0.376,2.565-0.365c1.62,0.04,3.225,0.251,4.849,0.354
		c2.081,0.125,4.181,0.188,6.27,0.325c4.104,0.273,8.197,0.587,12.297,0.86c2.871,0.188,5.757,0.303,8.639,0.524
		c0.76,0.063,1.554,0.28,2.27,0.576c6.495,2.635,12.968,5.318,19.445,7.986c7.495,3.089,15.002,6.178,22.504,9.274
		c0.314,0.125,0.639,0.314,0.89,0.557c3.033,2.845,6.041,5.716,9.06,8.573c2.185,2.063,4.377,4.133,6.569,6.189
		c3.174,2.993,6.344,5.964,9.521,8.938c1.709,1.602,3.44,3.159,5.112,4.794c0.841,0.816,1.775,1.528,2.295,2.672
		c2.096,4.698,4.266,9.367,6.399,14.046c4.823,10.511,9.636,21.01,14.437,31.52c0.295,0.638,0.524,1.34,0.598,2.033
		c0.203,1.923,0.31,3.849,0.465,5.787c0.31,3.819,0.635,7.632,0.938,11.455c0.188,2.321,0.343,4.646,0.546,6.968
		c0.347,4.166,0.734,8.344,1.085,12.51c0.218,2.565,0.317,5.133,0.609,7.683c0.096,0.838-0.048,1.561-0.314,2.303
		c-1.679,4.694-3.366,9.381-5.056,14.072c-3.015,8.384-6.004,16.758-9.045,25.135c-0.616,1.705-1.107,3.443-2.174,4.978
		c-4.964,7.215-9.876,14.459-14.806,21.692c-4.118,6.06-8.233,12.123-12.363,18.176c-0.288,0.417-0.657,0.794-1.063,1.1
		c-3.517,2.687-7.06,5.366-10.591,8.049c-11.747,8.887-23.497,17.784-35.244,26.66c-0.439,0.336-0.934,0.609-1.436,0.819
		c-9.045,3.716-18.098,7.41-27.143,11.108c-7.222,2.942-14.441,5.883-21.67,8.813c-0.908,0.369-1.849,0.69-2.816,0.838
		c-1.639,0.251-3.299,0.347-4.949,0.502c-5.074,0.483-10.152,0.956-15.219,1.432c-4.126,0.391-8.256,0.797-12.382,1.188
		c-4.605,0.424-9.211,0.845-13.813,1.273c-0.247,0.022-0.494,0.155-0.749,0.233c-0.952,0-1.893,0-2.849,0
		c-0.122-0.085-0.236-0.21-0.358-0.233c-1.58-0.347-3.174-0.679-4.757-1.004c-1.856-0.399-3.709-0.782-5.554-1.173
		c1.48-0.365,2.952-0.524,4.428-0.701c4.591-0.542,9.175-1.1,13.762-1.653c1.447-0.177,2.912-0.291,4.333-0.609
		c5.986-1.347,11.946-2.753,17.921-4.144c11.363-2.646,22.718-5.318,34.096-7.945c0.805-0.188,1.343-0.605,1.849-1.162
		c1.498-1.687,2.953-3.41,4.499-5.045c0.572-0.605,0.771-1.203,0.756-2.011c-0.033-3.525-0.011-7.056-0.011-10.669
		c1.875-1.125,3.764-2.255,5.661-3.399c0.277,0.554,0.487,0.974,0.69,1.391c0.173-0.029,0.288-0.029,0.398-0.059
		c7.894-2.358,15.78-4.694,23.663-7.049c0.443-0.136,0.874-0.365,1.229-0.657c3.085-2.558,6.141-5.119,9.197-7.694
		c0.277-0.255,0.542-0.598,0.664-0.956c1.561-4.971-0.387-9.942-3.616-12.728c-0.616-0.535-1.188-1.118-1.838-1.738
		c2.325-1.871,4.506-3.643,6.683-5.41c5.056-4.075,10.116-8.145,15.153-12.227c0.358-0.295,0.701-0.661,0.89-1.07
		c1.974-4.155,3.1-8.551,3.281-13.149c0.096-2.491,0.022-4.949-1.698-7.086c-1.03-1.277-1.816-2.764-2.698-4.144
		c-1.365,0.28-2.638,0.576-3.919,0.827c-1.639,0.325-3.281,0.398-4.945,0.159c-0.454-0.077-0.911-0.148-1.369-0.598
		c0.65-0.62,1.27-1.174,1.845-1.772c2.491-2.521,4.584-5.355,6.089-8.573c0.79-1.694,1.354-3.465,1.248-5.381
		c-0.074-1.31-0.174-2.609-0.229-3.904c-0.115-3.122-0.166-6.263-0.336-9.37c-0.17-3.318-1.332-6.185-4.1-8.196
		c-1.31-0.949-2.701-1.786-4.096-2.613c-0.328-0.203-0.834-0.255-1.225-0.181c-2.406,0.469-4.808,0.982-7.204,1.473
		c-1,0.203-1.989,0.402-3.129,0.642c0.476,0.89,0.893,1.653,1.288,2.417c1.306,2.576,1.657,5.244,0.771,8.03
		c-0.188,0.598-0.428,1.181-0.69,1.893c0.69,0.65,1.373,1.332,2.074,1.956c1.701,1.521,3.015,3.332,4.118,5.322
		c2.081,3.735,2.993,7.706,2.377,11.976c-0.221,1.557-0.594,3.056-1.351,4.772c-1.45-3.945-4.022-6.824-6.565-9.758
		c0.022,0.369,0.096,0.705,0.232,1.004c1.55,3.277,2.558,6.732,3.447,10.223c1.063,4.196,1.583,8.466,1.86,12.769
		c0.048,0.694-0.085,1.306-0.413,1.938c-0.661,1.266-1.244,2.565-1.875,3.842c-0.605,1.233-1.233,2.462-1.842,3.683
		c-0.875-0.302-1.362-0.826-1.768-1.487c-0.675-1.1-1.07-2.292-1.38-3.513c-0.458-1.801-0.879-3.613-1.406-5.392
		c-0.369-1.229-1.351-1.823-2.698-2.262c0.181,0.502,0.262,0.805,0.391,1.078c1.07,2.188,1.889,4.461,2.144,6.875
		c0.273,2.694,0.269,5.373-0.701,7.968c-0.72,1.908-1.653,3.687-2.886,5.296c-0.476,0.62-0.749,1.28-0.812,2.055
		c-0.247,3.148-0.52,6.3-0.801,9.451c-0.051,0.598-0.177,1.185-0.284,1.927c-0.778-1.026-1.358-1.937-1.506-3.004
		c-0.218-1.602-0.365-3.214-0.461-4.827c-0.051-0.901,0.354-1.923,0.026-2.657c-0.351-0.797-1.306-1.34-2.023-1.96
		c-0.539-0.472-1.114-0.897-1.679-1.351c0.435,2.882,1.029,5.613,1.657,8.344c0.173,0.775,0.107,1.402-0.336,2.107
		c-2.373,3.798-4.639,7.65-7.045,11.429c-1.576,2.495-2.989,5.026-3.554,7.957c-0.081,0.376-0.266,0.742-0.458,1.299
		c-1.886-4.115-2.598-8.23-2.502-12.754c-0.805,0.757-1.063,1.469-1.218,2.177c-0.225,1.081-0.398,2.181-0.502,3.277
		c-0.195,2.325-0.232,4.661-0.79,6.945c-0.092,0.406-0.24,0.897-0.531,1.137c-2.14,1.801-3.76,4.063-5.576,6.156
		c-0.926,1.055-2,2.019-3.115,2.893c-1.129,0.875-2.465,1.347-4.019,1.38c0.579-2.945,1.144-5.801,1.757-8.92
		c-1.461,0.878-2.672,1.612-3.908,2.343c0,1.447-0.004,2.827,0.007,4.211c0.004,0.458-0.092,0.826-0.391,1.203
		c-2.871,3.524-5.709,7.097-8.591,10.614c-0.262,0.325-0.76,0.565-1.188,0.639c-1.591,0.28-3.199,0.494-4.808,0.723
		c-0.561,0.07-1.144,0.114-1.794,0.166c0.295-2.86,0.572-5.61,0.849-8.351c-0.092-0.022-0.181-0.052-0.277-0.074
		c-0.325,0.701-0.679,1.391-0.97,2.111c-0.79,1.919-1.247,3.915-1.454,5.982c-0.077,0.764-0.38,1.277-1.07,1.672
		c-1.303,0.757-2.561,1.594-3.83,2.399c-0.399,0.262-0.79,0.387-1.329,0.269c-1.196-0.24-2.421-0.344-3.635-0.52
		c-0.576-0.092-1.048,0.018-1.528,0.398c-3.886,3.004-7.787,5.986-11.684,8.968c-0.746,0.568-1.491,1.133-2.377,1.79
		c0.151-2.24,0.472-4.259,1.24-6.163c0.767-1.905,1.724-3.746,2.69-5.82c-1.085,0.373-1.989,0.646-2.845,1.022
		c-0.269,0.118-0.483,0.495-0.594,0.797c-0.491,1.328-0.978,2.683-1.358,4.041c-0.24,0.838-0.675,1.203-1.513,1.391
		c-2.554,0.557-5.093,1.173-7.61,1.841c-4.539,1.207-8.927,2.82-12.913,5.31c-2.177,1.351-4.536,2.229-6.908,3.13
		c-0.229,0.081-0.487,0.118-0.808,0.188c0-1.653,0.037-3.193-0.018-4.742c-0.026-0.827,0.221-1.38,0.882-1.916
		c2.712-2.177,5.381-4.417,8.056-6.646c0.188-0.159,0.328-0.365,0.65-0.731c-1.174,0-2.122,0.04-3.052-0.026
		c-0.819-0.063-1.417,0.203-1.982,0.808c-2.015,2.188-4.078,4.314-6.096,6.499c-0.609,0.661-1.314,0.911-2.188,0.967
		c-3.148,0.166-6.311,0.343-9.47,0.554c-3.185,0.221-6.381,0.469-9.577,0.698c-0.719,0.055-1.461,0.077-2.262,0.118
		c-0.029-0.387-0.029-0.701-0.085-1.004c-0.184-1.111,0.258-1.834,1.152-2.491c2.03-1.509,3.993-3.129,5.975-4.701
		c0.302-0.251,0.598-0.513,0.9-0.775c-0.063-0.074-0.103-0.136-0.162-0.21c-0.332,0.177-0.672,0.347-1.011,0.524
		c-0.904,0.491-1.804,0.982-2.867,1.078c-1.056,0.085-2.118,0.17-3.181,0.254c-2.716,0.229-5.454,0.248-8.075,1.163
		c-0.506,0.177-1.096,0.269-1.631,0.236c-1.905-0.096-3.764-0.417-5.532-1.192c-0.779-0.332-1.576-0.461-2.425-0.461
		c-3.214,0.033-6.421,0.022-9.632,0c-0.373,0-0.852-0.008-1.111-0.218c-0.624-0.528-1.155-1.151-1.812-1.83
		c1.38-0.609,2.628-1.144,3.842-1.679c0.029-0.668,0.056-1.221,0.089-1.86c1.007-0.158,1.97-0.284,2.934-0.454
		c1.484-0.258,2.949-0.616,4.211-1.495c0.45-0.314,0.889-0.661,0.745-1.391c-4.266-0.015-8.374-0.546-11.905-3.255
		c-0.377,0.554-0.701,1.015-1.055,1.528c-1.343-0.915-2.58-1.76-3.835-2.587c-0.354-0.24-0.73-0.535-1.14-0.616
		c-3.281-0.705-6.566-1.436-9.865-2.012c-2.151-0.376-4.318-0.576-6.263-1.686c-0.978-0.561-1.605-1.347-1.661-2.687
		c1.288-0.336,2.513-0.768,3.787-0.956c1.299-0.196,2.639,0.081,4.063-0.155c-0.764-1.082-1.532-1.879-2.875-1.624
		c-0.853,0.155-1.513-0.21-2.129-0.775c-0.609-0.554-1.322-1.015-1.923-1.591c-0.853-0.794-1.783-1.185-2.997-1.07
		c-1.015,0.107-2.052,0.022-3.126,0.022c-0.498-0.731-1.015-1.432-1.465-2.177c-0.296-0.491-0.661-0.701-1.251-0.679
		c-1.34,0.029-2.69-0.04-4.041,0.022c-0.919,0.048-1.679-0.21-2.436-0.723c-1.9-1.266-3.849-2.495-5.775-3.739
		c-0.203-0.136-0.384-0.314-0.778-0.627c1.343,0,2.406,0.018,3.462-0.011c1.044-0.03,2.089,0.147,3.24-0.155
		c-1.417-1.616-2.79-3.089-4.067-4.639c-0.919-1.141-2.067-1.938-3.288-2.69c-1.144-0.701-2.321-1.38-3.373-2.218
		c-2.724-2.155-5.414-4.377-8.056-6.639c-1.247-1.066-2.351-2.303-3.513-3.454c2.395,0.439,4.602,1.328,7.126,1.926
		c-0.258-0.387-0.347-0.553-0.469-0.712c-1.454-1.875-2.945-3.728-4.358-5.632c-0.742-1.007-1.661-1.767-2.668-2.484
		c-1.812-1.277-3.638-2.561-5.281-4.038c-2.244-2-4.325-4.189-6.469-6.303c-0.218-0.2-0.391-0.439-0.72-0.838
		c2.476,0.723,4.646,1.635,6.975,2.222c0-0.221,0.026-0.314-0.011-0.38c-0.118-0.199-0.247-0.395-0.38-0.594
		c-1.513-2.332-3.24-4.495-5.362-6.314c-0.867-0.742-1.801-1.402-2.676-2.137c-0.417-0.343-0.863-0.709-1.144-1.151
		c-1.251-2.06-2.469-4.156-3.676-6.237c-0.853-1.458-1.694-2.919-2.546-4.373c2.683,2.292,5.056,4.949,8.868,5.993
		c-1.1-2.31-2.185-4.333-3.771-5.993c-0.945-0.985-1.937-2.015-3.285-2.487c-0.601-0.218-0.967-0.561-1.258-1.125
		c-2.358-4.495-4.746-8.964-7.119-13.441c-0.207-0.391-0.395-0.797-0.587-1.184c2.336,1.598,4.436,3.432,6.883,5.277
		c-0.152-1.594-0.233-2.894-0.421-4.171c-0.051-0.336-0.365-0.69-0.661-0.908c-0.845-0.65-1.767-1.218-2.616-1.867
		c-0.329-0.248-0.635-0.602-0.805-0.967c-1.226-2.62-2.417-5.255-3.598-7.897c-0.173-0.388-0.273-0.827-0.306-1.244
		c-0.155-1.613-0.288-3.237-0.399-4.849c-0.081-1.151-0.111-2.314-0.166-3.705c0.587,0.65,1.03,1.144,1.465,1.635
		c2.79,3.255,5.772,6.3,9.311,8.761c2.377,1.664,4.953,2.804,7.864,3.067c0.598,0.052,1.218-0.115,1.834-0.177
		c0.015-0.096,0.033-0.203,0.041-0.295c-4.185-1.045-7.643-3.403-10.972-5.978c-3.295-2.561-6.3-5.444-9.252-8.761
		c2.115,0,3.952,0,5.82,0c-0.996-3.347-2.594-5.347-7.672-5.768c-0.17-0.28-0.377-0.576-0.539-0.874
		c-1.447-2.639-2.882-5.292-4.344-7.931C119.74,329.709,119.397,329.373,119.113,329.008z M144.078,230.104
		c-0.583-0.022-0.893-0.011-1.2-0.051c-1.04-0.148-1.767,0.236-2.417,1.088c-1.174,1.528-2.491,2.949-3.727,4.436
		c-0.421,0.517-0.853,0.901-1.587,0.841c-0.225-0.022-0.568,0.133-0.69,0.325c-0.812,1.24-1.328,2.646-1.255,4.122
		c0.115,2.188,1.107,4.082,2.318,5.871c0.203,0.303,0.494,0.546,0.742,0.83c0.077-0.037,0.144-0.066,0.21-0.096
		c0-0.376,0-0.768,0-1.144c0-2.092,0.029-4.196-0.011-6.289c-0.008-0.627,0.155-1.122,0.576-1.602
		c1.007-1.122,1.964-2.284,2.923-3.425C141.277,233.444,142.591,231.872,144.078,230.104z M206.266,158.772
		c-3.691,1.015-7.381,2.041-11.112,3.067c0,0.974-0.011,1.801,0.004,2.628c0.022,0.838-0.096,1.687,0.107,2.635
		c0.38-0.207,0.62-0.332,0.853-0.465c3.074-1.838,6.145-3.72,9.256-5.499C206.354,160.584,206.62,159.934,206.266,158.772z
		 M300.254,129.765c-1.126-1.417-3.174-2.491-4.923-2.746c-1.801-0.258-3.602-0.461-5.399-0.657
		c-0.243-0.022-0.638,0.052-0.734,0.21c-0.535,0.856-0.986,1.767-1.561,2.827C292.006,129.521,296.132,129.636,300.254,129.765z
		 M143.665,364.045c-1.111-1.129-2.177-2.207-3.314-3.358c-0.827,0.458-1.797,0.941-2.79,1.768
		C139.716,363.019,141.665,363.65,143.665,364.045z"/>
	<path fill-rule="evenodd" clip-rule="evenodd" d="M379.111,165.544c1.443,0.251,2.871,0.483,4.296,0.756
		c2.934,0.554,5.772,1.351,8.514,2.543c0.842,0.354,1.273,0.753,1.166,1.738c-0.103,1.015-0.022,2.052-0.011,3.085
		c0,0.262,0.055,0.528,0.103,0.904c1.509-0.83,3.008-1.395,4.772-1.258c0.041,0.343,0.111,0.639,0.111,0.941
		c0.011,1.742-0.011,3.488,0.015,5.237c0.008,0.554-0.166,0.952-0.55,1.358c-1.591,1.708-3.148,3.454-4.716,5.185
		c-0.07,0.081-0.103,0.196-0.229,0.447c1.831-0.092,3.558-0.199,5.395-0.292c-0.624,1.288-1.554,2.177-2.528,3.026
		c-2.96,2.565-6.373,4.395-9.916,6.019c-0.391,0.17-0.775,0.365-1.318,0.62c1.111,1.978,2.174,3.89,3.292,5.905
		c-0.273,0.059-0.446,0.14-0.62,0.133c-2.174-0.125-4.34-0.24-6.503-0.399c-0.543-0.029-1.078-0.195-1.598-0.365
		c-0.45-0.137-0.908-0.314-1.303-0.568c-1.513-0.952-2.953-0.845-4.395,0.14c-0.125,0.085-0.288,0.115-0.554,0.229
		c-1.351-0.9-2.745-1.842-4.388-2.941c0.21,1.716,0.387,3.174,0.583,4.776c-1.222-0.221-2.295-0.421-3.369-0.62
		c-0.775-0.155-1.546-0.384-2.325-0.472c-1.812-0.195-3.107-1.306-4.37-2.439c-2.369-2.103-4.192-4.635-5.683-7.41
		c-0.229-0.439-0.506-0.867-0.856-1.454c-0.757,1.852-1.096,3.698-2.668,5.045c-0.351-0.746-0.675-1.414-0.96-2.085
		c-1.07-2.447-1.653-5.03-2.185-7.628c-0.051-0.262-0.103-0.546-0.188-0.805c-0.849-2.746-0.627-5.528-0.362-8.337
		c0.081-0.845,0.011-1.712,0.011-2.731c-1.155,0.587-2.233,1.129-3.532,1.779c0.454-1.761,0.303-3.425,1.539-4.824
		c2.941-3.344,5.396-7.038,7.462-10.983c0.089-0.166,0.173-0.354,0.255-0.524c0.008-0.044-0.011-0.085-0.048-0.262
		c-1.694-0.889-3.458-1.83-5.329-2.827c0.314-0.177,0.494-0.314,0.709-0.417c1.207-0.576,2.432-1.144,3.646-1.716
		c0.923-0.443,1.864-0.757,2.938-0.819c3.307-0.166,6.62-0.428,9.916-0.742c2-0.199,3.978-0.565,5.989-1.015
		c-1.922-0.93-3.985-1.351-5.96-2.03c-2.044-0.701-4.166-0.136-6.396-0.443c0.406-1.288,0.782-2.543,1.258-4.082
		c-1.056,0.668-1.856,1.151-2.639,1.672c-0.447,0.306-0.897,0.454-1.436,0.443c-1.532-0.022-3.078-0.011-4.746-0.011
		c0.207-1.882,0.399-3.661,0.624-5.661c-1.004,0.794-1.864,1.41-2.65,2.126c-0.45,0.395-0.827,0.447-1.384,0.258
		c-1.166-0.376-2.355-0.69-3.536-1.004c-0.413-0.107-0.73-0.284-0.867-0.701c-0.885-2.628-1.775-5.244-2.679-7.923
		c1.384-0.48,2.772-0.303,4.122-0.398c2.96-0.189,5.919-0.284,8.879-0.432c0.989-0.052,1.975-0.188,2.952-0.188
		c0.495,0,1.015,0.17,1.477,0.369c6.894,2.897,13.783,5.802,20.666,8.743c1.004,0.424,1.993,0.709,3.093,0.627
		c0.347-0.033,0.701,0.022,1.14,0.052c-0.033,0.376-0.044,0.679-0.114,0.974c-0.24,1.074-0.502,2.155-0.757,3.237
		c-0.277,1.181-0.296,1.159-1.447,1.317c-1.683,0.229-3.351,0.48-5.06,0.849c2.203,1.129,4.543,1.842,6.827,2.716
		c2.318,0.893,4.658,1.708,7.208,2.638c0.04-3.011,0-5.838,0.026-8.938c6.388,5.927,12.558,11.78,18.998,17.777
		c-0.195-3.329-0.369-6.388-0.546-9.451c0.059-0.022,0.1-0.056,0.159-0.085c6.056,8.215,12.112,16.445,18.168,24.671
		c0.077-0.03,0.162-0.052,0.24-0.081c0.668-3.152,1.343-6.292,2.011-9.455c0.056-0.011,0.129-0.019,0.196-0.04
		c3.617,8.709,7.233,17.43,10.839,26.139c0.081,0,0.166-0.011,0.248-0.011c0.638-2.845,0.963-5.757,1.579-8.595
		c0.056-0.019,0.085-0.029,0.115-0.029c0.029,0.011,0.088,0.022,0.1,0.052c3.343,8.333,6.695,16.666,10.115,25.22
		c0.768-1.321,1.144-2.639,1.665-3.864c0.539-1.269,1.037-2.543,1.646-3.812c1.628,8.783,2.986,17.577,4.513,26.339
		c0.093,0.011,0.189,0.033,0.284,0.044c1.583-2.683,3.155-5.351,4.849-8.219c0.107,0.417,0.2,0.616,0.207,0.826
		c0.17,3.318,0.347,6.625,0.487,9.942c0.163,3.801,0.812,7.539,1.506,11.267c0,0.022,0.055,0.029,0.236,0.114
		c1.225-3.915,2.114-7.916,3.38-12.079c0.797,1.613,1.524,2.993,2.174,4.418c0.148,0.336,0.081,0.786,0.081,1.181
		c0,7.015,0,14.027,0,21.05c0,0.461,0,0.934,0,1.509c0.528,0.022,0.956,0.022,1.369,0.074c0.635,0.07,1.015-0.188,1.358-0.723
		c1.122-1.727,2.299-3.421,3.454-5.13c0.122-0.188,0.266-0.376,0.506-0.73c0.096,0.417,0.181,0.649,0.188,0.889
		c0.1,2.023,0.17,4.041,0.262,6.049c0.125,2.679,0.284,5.362,0.413,8.053c0.107,2.21,0.2,4.417,0.306,6.639
		c0.129,2.59,0.288,5.2,0.41,7.805c0.118,2.211,0.185,4.429,0.299,6.639c0.129,2.561,0.284,5.13,0.41,7.691
		c0.111,2.211,0.203,4.429,0.31,6.639c0.129,2.805,0.284,5.602,0.413,8.407c0.111,2.218,0.181,4.428,0.291,6.635
		c0.144,2.683,0.306,5.359,0.424,8.049c0.129,2.764,0.236,5.528,0.152,8.322c-0.244-1.181-0.487-2.362-0.716-3.546
		c-1.908-9.817-3.801-19.648-5.702-29.468c-0.288-1.476-0.572-2.952-0.826-4.44c-0.299-1.705-1.189-3.17-1.904-4.713
		c-2.628-5.669-5.292-11.326-7.946-16.987c-1.959-4.155-3.912-8.311-5.875-12.466c-0.192-0.421-0.365-0.849-0.639-1.469
		c1.842,0.513,3.484,0.986,5.126,1.447c0.048-0.074,0.092-0.147,0.144-0.232c-0.579-0.93-1.166-1.852-1.746-2.782
		c-0.853-1.384-1.812-2.672-2.996-3.812c-2.045-1.945-3.942-4.019-6.012-5.934c-1.177-1.089-1.502-2.428-1.767-4.074
		c1.653,1.092,3.163,2.074,4.786,3.14c0.38-0.993,0.72-1.9,1.089-2.886c-1.484-0.837-2.886-1.623-4.299-2.421
		c-0.248-0.136-0.476-0.291-0.731-0.395c-1.871-0.764-3.148-2.074-4.078-3.904c-1.159-2.284-2.558-4.458-3.849-6.68
		c-0.092-0.17-0.17-0.347-0.35-0.723c2.347,0.742,4.499,1.432,6.657,2.115c0.04-0.052,0.088-0.115,0.125-0.166
		c-0.181-0.221-0.325-0.461-0.528-0.672c-1.561-1.568-3.107-3.174-4.724-4.691c-0.686-0.638-1.531-1.118-2.365-1.572
		c-2.569-1.38-4.897-3.074-6.694-5.399c-0.734-0.96-1.34-2.03-2.126-3.244c1.461,0.291,2.65,0.624,3.864,0.742
		c1.211,0.125,2.451,0.019,3.934,0.019c-0.269-0.543-0.443-0.867-0.58-1.21c-0.727-1.853-2.041-3.023-3.805-3.99
		c-5.019-2.702-9.942-5.58-14.902-8.385c-0.435-0.262-0.878-0.535-1.395-0.849c0.565-0.93,1.093-1.801,1.683-2.749
		c1.853,0.258,3.724,0.52,5.58,0.793c0.026-0.063,0.055-0.114,0.085-0.181c-0.188-0.166-0.347-0.354-0.557-0.476
		c-3.584-2.107-7.174-4.211-10.769-6.285c-0.395-0.218-0.89-0.314-1.343-0.347c-0.775-0.059-1.568-0.018-2.395-0.018
		c0-0.923,0-1.694,0-2.547c2.609-0.542,5.185-1.085,7.923-1.653c-0.317-0.336-0.48-0.542-0.679-0.712
		c-1.1-0.912-2.229-1.779-3.288-2.731c-0.535-0.469-1.129-0.69-1.801-0.827c-3.332-0.661-6.668-1.31-10.005-1.978
		c-0.428-0.085-0.845-0.21-1.329-0.325c0-0.838,0-1.646,0-2.565c1.819-0.284,3.624-0.568,5.432-0.838
		c0.015-0.085,0.029-0.166,0.048-0.251c-2.642-1.476-5.284-2.964-8.019-4.48c0.266-2.273,0.517-4.524,0.794-6.938
		c-2.041,0-3.952,0-6.078,0c0.904-1.417,1.676-2.628,2.517-3.938c-1.077-0.369-2.096-0.148-3.085-0.192c-1.07-0.029-2.14,0-3.214,0
		c-1.026,0-2.052,0-3.24,0c-0.269-1.221-0.535-2.436-0.823-3.768c-1.543,0.62-2.982,1.196-4.561,1.823
		c-0.052-0.93-0.096-1.665-0.125-2.535c-2.734,0.661-5.362,1.288-8.097,1.948c0-1.015,0-1.927,0-2.919
		c-1.044,0.155-1.683,0.856-2.454,1.277c-0.797,0.428-1.554,0.963-2.329,1.436c-0.757,0.469-1.532,0.926-2.491,1.517
		c0-1.458,0-2.705,0-3.949c-0.085-0.03-0.181-0.059-0.266-0.096c-0.79,0.985-1.332,2.148-1.985,3.225
		c-0.661,1.066-1.306,2.159-1.982,3.27c-1.24-0.86-2.406-1.675-3.757-2.628c0.015,2.709,0.406,5.178,0.458,7.975
		c-1.129-1.129-2.081-2.074-3.041-3.026c-0.059,0.04-0.137,0.096-0.196,0.136c0.631,2.137,1.258,4.281,1.971,6.702
		c-1.24-0.723-2.259-1.31-3.285-1.897c-0.059,0.063-0.118,0.115-0.177,0.177c1.399,1.771,2.793,3.539,4.237,5.362
		c-0.783,0.805-1.524,1.557-2.38,2.428c2.321,0.849,4.488,1.642,6.827,2.513c-1.085,0.679-2.015,1.255-3.144,1.956
		c1.399,0.594,2.734,0.166,4.015,0.594c0.291-0.657,0.808-0.793,1.487-0.76c1.141,0.029,2.288,0,3.399,0.395
		c0.852,0.303,1.716,0.137,2.572-0.051c0.498-0.107,1.004-0.148,1.616-0.24c0.059,0.646,0.118,1.255,0.196,2.103
		c0.454-0.45,0.819-0.73,1.085-1.077c1.118-1.425,1.823-3.067,2.491-4.72c0.163-0.399,0.328-0.797,0.716-1.214
		c0.565,2.059,1.13,4.122,1.757,6.425c0.203-0.45,0.332-0.668,0.402-0.911c0.856-3.004,1.639-6.042,2.576-9.012
		c0.528-1.687,0.524-3.318,0.177-5.012c-0.255-1.28-0.48-2.576-0.598-3.867c-0.081-0.794-0.425-1.318-1.004-1.79
		c-1.151-0.948-2.284-1.922-3.425-2.886C379.052,165.732,379.085,165.636,379.111,165.544z"/>
	<path fill-rule="evenodd" clip-rule="evenodd" d="M243.536,132.654c0.679,1.904,1.952,3.369,3.133,4.897
		c0.542,0.701,1.107,1.395,1.842,2.325c0.026-0.524,0.063-0.746,0.044-0.952c-0.17-2.281,0.133-4.502,0.949-6.65
		c0.107-0.28,0.199-0.638,0.413-0.826c0.996-0.89,2.037-1.735,3.266-2.48c-0.343,1.048-0.542,2.192-1.081,3.13
		c-0.83,1.435-0.96,2.982-1.045,4.565c-0.125,2.188,0.635,4.019,2.236,5.51c1.377,1.273,3.063,1.794,4.886,1.831
		c2.343,0.04,4.657-0.2,6.897-0.963c1.716-0.598,3.458-1.151,5.13-1.864c1.273-0.535,2.425-1.354,3.676-1.915
		c3.27-1.487,6.665-2.502,10.303-2.451c1.465,0.011,2.926,0.041,4.333,0.059c0.827,1.982,0.572,3.543-0.768,4.842
		c-0.709-0.513-1.495-0.997-2.166-1.583c-0.83-0.712-1.753-0.934-2.757-0.72c-1.86,0.395-3.709,0.805-5.535,1.306
		c-2.698,0.753-5.392,1.58-8.071,2.417c-0.742,0.232-1.495,0.524-2.156,0.93c-2.657,1.657-5.576,2.58-8.654,2.598
		c-2.734,0.022-5.521-0.052-8.193-1.015c-2.306-0.826-3.956-2.399-5.399-4.27c-0.332-0.443-0.55-0.963-0.889-1.406
		c-0.687-0.886-0.971-1.831-0.827-2.971c0.174-1.299,0.181-2.598,0.284-3.904C243.395,132.946,243.484,132.798,243.536,132.654z"/>
	<path fill-rule="evenodd" clip-rule="evenodd" d="M139.015,278.707c-0.129,1.83-1.133,3.266-2.122,4.679
		c-1.402,2-3.296,3.465-5.241,4.93c-2.037,1.528-4.181,2.255-6.713,1.938c-0.786-0.103-1.576-0.022-2.491-0.022
		c0.225-0.616,0.646-0.93,1.085-1.226c1.738-1.162,3.587-1.978,5.709-2.114c0.251-0.011,0.506-0.137,0.938-0.248
		c-1.76-1.31-3.635-1.122-5.591-1.196c-0.967-2.011-1.956-4.059-2.945-6.104c0.055-0.052,0.115-0.118,0.166-0.166
		c0.458,0.332,0.919,0.657,1.366,0.993c1.166,0.878,2.354,1.749,3.506,2.649c0.461,0.354,0.911,0.546,1.509,0.524
		c1.273-0.044,2.539-0.033,3.801,0c0.561,0.022,0.978-0.155,1.354-0.557c1.137-1.162,2.332-2.269,3.428-3.465
		C137.421,278.626,138.1,278.412,139.015,278.707z"/>
</g>
</svg>
