<?xml version="1.0" encoding="utf-8"?>
<!-- Generator: Adobe Illustrator 21.0.0, SVG Export Plug-In . SVG Version: 6.00 Build 0)  -->
<svg version="1.1" xmlns="http://www.w3.org/2000/svg" xmlns:xlink="http://www.w3.org/1999/xlink" x="0px" y="0px"
	 viewBox="0 0 576 576" enable-background="new 0 0 576 576" xml:space="preserve">
<g id="Layer_2">
	<path d="M34.204,557.043c-5.044,0-9.146-1.761-12.302-5.288c-3.156-3.526-4.736-8.212-4.736-14.056
		c0-5.844,1.947-10.857,5.844-15.037c3.893-4.183,8.548-6.276,13.963-6.276c5.411,0,9.738,1.765,12.974,5.292
		c3.24,3.526,4.859,8.212,4.859,14.052c0,5.844-1.978,10.858-5.933,15.041C44.915,554.954,40.025,557.043,34.204,557.043z
		 M22.455,536.441c0,5.002,1.271,9.162,3.816,12.484c2.542,3.322,5.79,4.982,9.749,4.982c3.955,0,7.165-1.487,9.625-4.461
		c2.46-2.97,3.689-6.948,3.689-11.931c0-4.983-1.302-9.135-3.905-12.453c-2.603-3.322-5.894-4.983-9.873-4.983
		c-3.978,0-7.153,1.476-9.532,4.427C23.644,527.46,22.455,531.435,22.455,536.441z"/>
	<path d="M73.691,550.276c1.762,2.175,4.315,3.26,7.656,3.26c3.341,0,5.894-0.888,7.659-2.673c1.761-1.785,2.646-4.357,2.646-7.721
		l-0.371-20.05c-0.081-1.433-0.255-2.348-0.521-2.739c-0.267-0.386-0.854-0.583-1.754-0.583l-2.646,0.123l-0.124-0.247l0.433-2.704
		c3.074,0.12,5.207,0.182,6.396,0.182c1.68,0,3.855-0.182,6.52-0.552l-0.247,2.769c-1.804,0.243-2.963,0.572-3.476,0.981
		c-0.51,0.413-0.768,1.251-0.768,2.522v20.668c0,4.303-1.333,7.636-3.998,9.992c-2.665,2.36-6.284,3.538-10.854,3.538
		c-4.573,0-8.026-1.178-10.367-3.538c-2.337-2.356-3.503-5.709-3.503-10.054v-20.359c0-1.313-0.155-2.194-0.464-2.646
		c-0.305-0.448-0.912-0.676-1.811-0.676l-2.093,0.123l-0.124-0.247l0.433-2.704c3.074,0.12,5.207,0.182,6.396,0.182
		c1.638,0,3.975-0.182,7.01-0.552l-0.243,2.769c-1.518,0.205-2.534,0.541-3.047,1.012c-0.514,0.475-0.807,1.306-0.892,2.491
		l-0.491,18.084C71.045,544.989,71.926,548.105,73.691,550.276z"/>
	<path d="M132.242,519.465c2.213,1.719,3.322,3.955,3.322,6.702c0,5.373-3.013,9.432-9.042,12.178l6.767,10.703
		c1.19,1.97,2.349,3.333,3.476,4.09c1.124,0.757,2.511,1.14,4.148,1.14l0.247,0.243l-0.367,2.094l-5.23,0.676
		c-1.024,0-2.12-0.525-3.291-1.568c-1.167-1.047-2.244-2.472-3.229-4.276l-6.582-11.931h-5.102l-0.186,9.162
		c0,2.217,0.247,3.611,0.738,4.183c0.491,0.575,1.723,0.861,3.689,0.861l0.124,0.247l-0.552,2.584c0-0.043-2.175-0.104-6.52-0.185
		l-7.072,0.185l0.552-2.769c1.927-0.205,3.186-0.626,3.781-1.259c0.595-0.637,0.892-1.834,0.892-3.6l0.062-25.833
		c0-1.313-0.154-2.194-0.46-2.646c-0.309-0.448-0.915-0.676-1.815-0.676l-2.09,0.123l-0.123-0.247l0.428-2.704
		c2.994,0.12,5.269,0.182,6.829,0.182l7.563-0.243C127.016,516.881,130.029,517.742,132.242,519.465z M130.458,527.642
		c0-5.411-3.751-8.119-11.255-8.119c-0.409,0-0.687,0.093-0.831,0.278c-0.143,0.185-0.236,0.564-0.274,1.14
		c-0.371,6.272-0.576,11.317-0.618,15.129l6.339,0.614c1.514-0.367,2.97-1.271,4.365-2.704c0.575-0.618,1.097-1.487,1.568-2.615
		C130.222,530.238,130.458,528.998,130.458,527.642z"/>
	<path d="M157.584,557.043c-1.723,0-3.38-0.174-4.979-0.521c-1.603-0.348-3.159-0.873-4.677-1.568l-0.305-0.618
		c0.49-3.155,0.738-6.725,0.738-10.699l2.766-0.309c0,4.431,0.502,7.319,1.506,8.671c1.004,1.356,2.986,2.032,5.937,2.032
		c2.955,0,5.207-0.606,6.767-1.815c1.557-1.209,2.337-2.858,2.337-4.951c0-1.804-0.923-3.403-2.769-4.797
		c-1.352-1.024-2.704-1.885-4.06-2.584c-1.352-0.695-2.059-1.054-2.12-1.073c-0.062-0.023-0.124-0.054-0.186-0.093
		c-0.062-0.042-0.502-0.278-1.321-0.707c-0.823-0.433-1.692-0.923-2.615-1.479c-0.923-0.553-1.939-1.298-3.044-2.244
		c-2.175-1.804-3.26-3.955-3.26-6.458c0-3.237,1.364-5.956,4.09-8.15c2.727-2.193,6.079-3.291,10.054-3.291
		c3.117,0,6.254,0.514,9.413,1.537l0.186,0.371c-0.657,3.16-1.109,6.624-1.356,10.394l-2.399,0.247l-0.367-0.309
		c0.119-0.861,0.182-1.927,0.182-3.198c0-2.171-0.533-3.669-1.599-4.488c-1.066-0.823-2.85-1.232-5.35-1.232
		c-2.503,0-4.48,0.564-5.937,1.692c-1.456,1.128-2.182,2.522-2.182,4.183c0,1.661,0.707,3.098,2.12,4.307
		c1.417,1.209,3.824,2.696,7.227,4.457c3.403,1.765,5.763,3.221,7.076,4.368c2.213,1.885,3.322,3.998,3.322,6.335
		c0,3.527-1.418,6.408-4.245,8.641C165.703,555.927,162.053,557.043,157.584,557.043z"/>
	<path d="M207.159,549.419c0,1.68,0.185,2.796,0.552,3.349c0.371,0.556,1.085,0.83,2.152,0.83l3.26-0.181l0.123,0.243l-0.552,2.832
		c-3.445-0.124-5.883-0.186-7.319-0.186c-2.38,0-5.002,0.247-7.872,0.738l0.367-2.827c1.927-0.371,3.229-0.916,3.905-1.63
		c0.68-0.719,1.016-1.939,1.016-3.662l0.062-25.833c0-1.313-0.155-2.194-0.46-2.646c-0.309-0.448-0.916-0.676-1.815-0.676
		l-2.584,0.123l-0.124-0.247l0.433-2.704c3.198,0.12,5.43,0.182,6.701,0.182c1.723,0,4.287-0.182,7.69-0.552l-0.247,2.769
		c-1.723,0.205-2.87,0.541-3.441,1.012c-0.576,0.475-0.904,1.306-0.985,2.491C207.445,534.737,207.159,543.594,207.159,549.419z"/>
	<path d="M232.188,557.043c-1.723,0-3.38-0.174-4.979-0.521c-1.603-0.348-3.159-0.873-4.677-1.568l-0.305-0.618
		c0.491-3.155,0.738-6.725,0.738-10.699l2.765-0.309c0,4.431,0.502,7.319,1.506,8.671c1.004,1.356,2.986,2.032,5.937,2.032
		c2.955,0,5.207-0.606,6.767-1.815c1.557-1.209,2.337-2.858,2.337-4.951c0-1.804-0.923-3.403-2.77-4.797
		c-1.352-1.024-2.704-1.885-4.06-2.584c-1.352-0.695-2.059-1.054-2.12-1.073c-0.062-0.023-0.124-0.054-0.185-0.093
		c-0.062-0.042-0.502-0.278-1.321-0.707c-0.823-0.433-1.692-0.923-2.615-1.479c-0.923-0.553-1.939-1.298-3.044-2.244
		c-2.174-1.804-3.26-3.955-3.26-6.458c0-3.237,1.364-5.956,4.09-8.15c2.727-2.193,6.079-3.291,10.054-3.291
		c3.117,0,6.254,0.514,9.413,1.537l0.186,0.371c-0.657,3.16-1.109,6.624-1.356,10.394l-2.399,0.247l-0.367-0.309
		c0.119-0.861,0.182-1.927,0.182-3.198c0-2.171-0.533-3.669-1.599-4.488c-1.066-0.823-2.851-1.232-5.35-1.232
		c-2.503,0-4.48,0.564-5.936,1.692c-1.456,1.128-2.183,2.522-2.183,4.183c0,1.661,0.707,3.098,2.12,4.307
		c1.417,1.209,3.824,2.696,7.227,4.457c3.403,1.765,5.763,3.221,7.076,4.368c2.213,1.885,3.322,3.998,3.322,6.335
		c0,3.527-1.417,6.408-4.245,8.641C240.307,555.927,236.657,557.043,232.188,557.043z"/>
	<path d="M282.995,546.34v-26.817c-1.927,0.085-3.31,0.147-4.152,0.186c-0.838,0.042-1.742,0.185-2.704,0.432
		c-0.966,0.244-1.58,0.471-1.846,0.676c-0.267,0.205-0.595,0.668-0.985,1.383c-0.39,0.719-0.634,1.383-0.738,2.001
		c-0.1,0.614-0.255,1.638-0.46,3.074l-2.893,0.247c0.494-3.607,0.799-7.157,0.923-10.641l0.552-0.494l5.107,0.676h19.069
		l5.226-0.676l0.552,0.494c0.085,2.665,0.39,6.13,0.923,10.394l-2.889,0.247c-0.247-1.436-0.433-2.483-0.552-3.14
		c-0.124-0.653-0.371-1.352-0.738-2.09c-0.371-0.738-0.699-1.209-0.985-1.414c-0.29-0.205-0.873-0.441-1.753-0.707
		c-0.885-0.266-1.734-0.421-2.553-0.463c-0.819-0.039-2.09-0.101-3.812-0.186c-0.657,6.562-0.985,16.528-0.985,29.896
		c0,1.514,0.266,2.592,0.799,3.229c0.533,0.633,1.433,0.95,2.708,0.95l3.38-0.181l0.185,0.243l-0.552,2.832
		c-4.102-0.124-7.115-0.186-9.042-0.186l-8.424,0.247l0.491-2.646c2.87-0.247,4.612-0.749,5.226-1.506
		C282.69,551.643,282.995,549.623,282.995,546.34z"/>
	<path d="M341.979,549.419c0,1.68,0.185,2.796,0.552,3.349c0.371,0.556,1.085,0.83,2.155,0.83l2.766-0.181l0.123,0.243l-0.552,2.832
		c-3.241-0.124-5.763-0.186-7.567-0.186l-7.072,0.123l0.552-2.769c1.927-0.038,3.187-0.471,3.782-1.29
		c0.595-0.819,0.892-2.584,0.892-5.292v-9.286c-4.346-0.042-7.462-0.062-9.347-0.062l-10.209,0.676l-0.247,11.012
		c0,1.68,0.186,2.796,0.552,3.349c0.371,0.556,1.085,0.83,2.151,0.83l2.77-0.181l0.124,0.243l-0.553,2.832
		c0-0.124-1.325-0.186-3.971-0.186c-2.642,0-5.063,0.081-7.257,0.247c-2.194,0.162-3.31,0.328-3.349,0.491l0.367-2.827
		c1.885-0.371,3.156-0.916,3.812-1.63c0.657-0.719,0.985-1.939,0.985-3.662l0.062-25.833c0-1.313-0.155-2.194-0.46-2.646
		c-0.309-0.448-0.916-0.676-1.815-0.676l-2.09,0.123l-0.124-0.247l0.429-2.704c2.993,0.12,5.064,0.182,6.211,0.182
		c1.684,0,4.083-0.182,7.2-0.552l-0.247,2.769c-1.765,0.286-2.862,0.726-3.291,1.321c-0.433,0.595-0.687,2-0.768,4.214l-0.371,9.965
		l10.336,0.058c2.623,0,5.659-0.205,9.1-0.614l0.062-11.194c0-1.313-0.155-2.194-0.46-2.646c-0.309-0.448-0.915-0.676-1.815-0.676
		l-2.09,0.123l-0.124-0.247l0.429-2.704c0,0.12,1.232,0.182,3.693,0.182c2.87,0,6.107-0.182,9.718-0.552l-0.247,2.769
		c-1.518,0.205-2.534,0.541-3.044,1.012c-0.513,0.475-0.811,1.306-0.892,2.491C342.265,534.819,341.979,543.675,341.979,549.419z"/>
	<path d="M367.012,534.533l6.338,0.062l7.501-0.676l0.247,0.305l-0.861,3.631c-3.526-0.124-6.222-0.185-8.088-0.185
		c-1.866,0-3.619,0.143-5.257,0.429c-0.166,5.906-0.247,9.76-0.247,11.564s0.255,2.901,0.768,3.291
		c0.51,0.39,2.182,0.583,5.014,0.583c2.828,0,4.959-0.174,6.396-0.521c1.433-0.348,2.468-1.004,3.106-1.97
		c0.633-0.962,1.116-2.634,1.444-5.01l2.708-0.309l0.185,0.309c-0.742,3.403-1.294,6.848-1.661,10.332l-0.309,0.367
		c-8.529-0.286-14.106-0.429-16.728-0.429c-4.021,0-7.505,0.205-10.456,0.614l0.367-2.828c1.846-0.247,3.106-0.73,3.782-1.444
		c0.679-0.719,1.016-1.958,1.016-3.723l0.062-25.833c0-1.313-0.154-2.194-0.46-2.646c-0.309-0.448-0.915-0.676-1.815-0.676
		l-2.09,0.123l-0.123-0.247l0.429-2.704c3.241,0.12,7.648,0.182,13.225,0.182c5.574,0,10.17-0.243,13.777-0.738l0.185,0.371
		c-0.699,3.036-1.17,6.439-1.418,10.208l-2.951,0.247c0.081-1.19,0.123-2.07,0.123-2.646c0-2.008-0.483-3.237-1.444-3.689
		c-0.965-0.452-3.036-0.676-6.215-0.676c-3.179,0-4.971,0.112-5.38,0.336c-0.409,0.228-0.638,0.916-0.676,2.063L367.012,534.533z"/>
	<path d="M426.981,556.553c-3.897-0.166-6.624-0.247-8.181-0.247c-2.46,0-5.125,0.247-7.995,0.738l0.367-2.827
		c1.885-0.371,3.156-0.916,3.812-1.63c0.657-0.719,0.985-1.939,0.985-3.662l0.062-25.833c0-1.313-0.154-2.194-0.46-2.646
		c-0.309-0.448-0.915-0.676-1.815-0.676l-2.09,0.123l-0.123-0.247l0.429-2.704c3.241,0.12,7.493,0.182,12.761,0.182
		c5.269,0,9.629-0.243,13.071-0.738l0.186,0.371c-0.699,3.155-1.17,6.62-1.414,10.394l-2.955,0.247
		c0.085-1.313,0.123-2.256,0.123-2.831c0-2.008-0.429-3.237-1.29-3.689c-0.861-0.452-2.739-0.676-5.628-0.676
		c-2.893,0-4.542,0.112-4.952,0.336c-0.409,0.228-0.638,0.916-0.676,2.063l-0.494,12.978l6.338,0.062l6.458-0.68l0.243,0.309
		l-0.861,3.689c-3.117-0.12-5.535-0.182-7.258-0.182c-1.723,0-3.403,0.143-5.04,0.429l-0.247,10.213c0,1.68,0.185,2.796,0.552,3.349
		c0.371,0.556,1.086,0.83,2.152,0.83l4.368-0.181l0.123,0.243L426.981,556.553z"/>
	<path d="M455.15,550.276c1.761,2.175,4.314,3.26,7.655,3.26c3.341,0,5.894-0.888,7.659-2.673c1.761-1.785,2.646-4.357,2.646-7.721
		l-0.371-20.05c-0.081-1.433-0.255-2.348-0.521-2.739c-0.267-0.386-0.854-0.583-1.754-0.583l-2.646,0.123l-0.124-0.247l0.433-2.704
		c3.074,0.12,5.207,0.182,6.396,0.182c1.68,0,3.855-0.182,6.52-0.552l-0.247,2.769c-1.804,0.243-2.963,0.572-3.476,0.981
		c-0.51,0.413-0.768,1.251-0.768,2.522v20.668c0,4.303-1.332,7.636-3.998,9.992c-2.665,2.36-6.284,3.538-10.853,3.538
		c-4.573,0-8.026-1.178-10.367-3.538c-2.337-2.356-3.503-5.709-3.503-10.054v-20.359c0-1.313-0.155-2.194-0.464-2.646
		c-0.305-0.448-0.912-0.676-1.811-0.676l-2.094,0.123l-0.124-0.247l0.433-2.704c3.074,0.12,5.207,0.182,6.396,0.182
		c1.638,0,3.975-0.182,7.011-0.552l-0.244,2.769c-1.518,0.205-2.534,0.541-3.047,1.012c-0.514,0.475-0.807,1.306-0.892,2.491
		l-0.491,18.084C452.504,544.989,453.385,548.105,455.15,550.276z"/>
	<path d="M513.702,519.465c2.213,1.719,3.321,3.955,3.321,6.702c0,5.373-3.013,9.432-9.042,12.178l6.767,10.703
		c1.19,1.97,2.349,3.333,3.476,4.09c1.124,0.757,2.511,1.14,4.148,1.14l0.247,0.243l-0.367,2.094l-5.23,0.676
		c-1.024,0-2.12-0.525-3.291-1.568c-1.166-1.047-2.244-2.472-3.229-4.276l-6.582-11.931h-5.102l-0.185,9.162
		c0,2.217,0.247,3.611,0.738,4.183c0.491,0.575,1.723,0.861,3.689,0.861l0.124,0.247l-0.552,2.584c0-0.043-2.175-0.104-6.52-0.185
		l-7.072,0.185l0.552-2.769c1.927-0.205,3.186-0.626,3.781-1.259c0.595-0.637,0.892-1.834,0.892-3.6l0.062-25.833
		c0-1.313-0.154-2.194-0.46-2.646c-0.309-0.448-0.915-0.676-1.815-0.676l-2.09,0.123l-0.123-0.247l0.429-2.704
		c2.993,0.12,5.268,0.182,6.829,0.182l7.563-0.243C508.476,516.881,511.488,517.742,513.702,519.465z M511.917,527.642
		c0-5.411-3.75-8.119-11.255-8.119c-0.409,0-0.687,0.093-0.831,0.278c-0.143,0.185-0.235,0.564-0.274,1.14
		c-0.371,6.272-0.576,11.317-0.618,15.129l6.339,0.614c1.514-0.367,2.97-1.271,4.365-2.704c0.575-0.618,1.097-1.487,1.568-2.615
		C511.681,530.238,511.917,528.998,511.917,527.642z"/>
	<path d="M536.552,519.924c-0.633,0.309-0.95,0.769-0.95,1.383c0,0.614,0.572,2.244,1.719,4.89c1.151,2.646,2.287,5.156,3.415,7.536
		c1.128,2.379,1.711,3.565,1.754,3.565h0.309l7.011-13.036c0.656-1.19,0.985-2.217,0.985-3.078c0-1.066-1.294-1.68-3.874-1.842
		l-0.123-0.247l0.367-2.399c3.036,0.286,5.311,0.429,6.829,0.429l5.659-0.243l0.247,0.429l-0.371,2.275
		c-1.885,0.371-3.229,0.947-4.029,1.723c-0.799,0.78-1.939,2.503-3.414,5.168c-0.081,0.162-0.143,0.286-0.186,0.367l-6.578,11.564
		c-0.699,1.271-1.109,3.055-1.232,5.349c-0.081,1.684-0.124,3.457-0.124,5.323c0,1.866,0.185,3.086,0.556,3.658
		c0.367,0.576,1.085,0.861,2.151,0.861l3.013-0.181l0.124,0.243l-0.553,2.832c-3.407-0.124-5.782-0.186-7.134-0.186
		c-2.256,0-4.82,0.247-7.69,0.738l0.371-2.827c2.128-0.409,3.465-1.028,3.998-1.846c0.533-0.819,0.799-2.418,0.799-4.797v-2.708
		c0-2.256-0.595-4.57-1.784-6.948l-5.535-11.255c-1.394-2.87-2.379-4.616-2.955-5.23c-0.943-1.024-2.542-1.638-4.797-1.846
		l-0.124-0.243l0.371-2.399c2.623,0.12,4.878,0.182,6.767,0.182l8.733-0.491l0.185,0.429l-0.185,2.155
		C538.429,519.38,537.189,519.616,536.552,519.924z"/>
</g>
<g id="Layer_3">
	<path d="M36.427,87.581c-3.072-0.349-5.443-0.523-7.117-0.523c-3.212,0-7.26,0.419-12.143,1.255l0.629-4.814
		c3.206-0.629,5.373-1.553,6.488-2.774c1.115-1.219,1.674-3.297,1.674-6.227l0.106-43.965c0-2.231-0.262-3.732-0.787-4.501
		c-0.523-0.766-1.553-1.152-3.087-1.152l-3.559,0.21l-0.21-0.419l0.733-4.604c5.093,0.21,8.967,0.313,11.62,0.313l12.35-0.419
		c6.63,0,11.724,1.379,15.282,4.135c3.561,2.756,5.339,6.682,5.339,11.776c0,3.491-1.064,6.631-3.191,9.421
		c-2.13,2.792-5.114,5.026-8.952,6.7c5.093,1.116,9.071,3.072,11.933,5.862c2.862,2.79,4.294,6.141,4.294,10.047
		c0,5.445-2.446,10.174-7.329,14.185c-4.884,4.014-10.642,6.017-17.27,6.017C41.766,88.104,39.496,87.93,36.427,87.581z
		 M36.114,81.093c1.812,1.115,4.847,1.674,9.105,1.674c4.257,0,7.591-1.167,9.998-3.507c2.407-2.337,3.61-5.497,3.61-9.475
		c0-7.746-4.71-12.456-14.131-14.131l-10.885,0.21L33.391,75.44C33.391,78.093,34.297,79.977,36.114,81.093z M55.268,37.653
		c0-4.467-1.501-7.782-4.5-9.946c-3.002-2.161-7.642-3.243-13.921-3.243c-0.699,0-1.188,0.14-1.467,0.417
		c-0.559,0.769-1.012,9.247-1.359,25.438c6.558,0.559,10.168,0.82,10.833,0.784c0.662-0.034,1.203-0.122,1.623-0.262
		c0.417-0.14,1.203-0.541,2.355-1.203c1.152-0.663,2.161-1.449,3.036-2.355c0.869-0.906,1.656-2.215,2.355-3.926
		C54.918,41.648,55.268,39.746,55.268,37.653z"/>
	<path d="M130.002,87.791c-4.257-0.14-7.43-0.21-9.524-0.21c-3.282,0-7.679,0.243-13.189,0.732l-0.316-0.523l0.316-3.768
		c2.93-0.21,4.902-0.523,5.913-0.942c1.009-0.419,1.517-1.152,1.517-2.2c0-1.046-0.243-2.197-0.732-3.452l-2.513-8.062
		c-1.395-0.067-3.698-0.104-6.908-0.104c-3.209,0-6.804,0.21-10.782,0.629c-2.443,6.488-3.662,10.047-3.662,10.675
		c0,2.094,1.638,3.142,4.92,3.142h4.501l0.313,0.417l-0.629,3.978c-4.257-0.349-8.269-0.523-12.037-0.523l-9.63,0.21l0.629-4.291
		c1.535-0.21,2.756-0.751,3.662-1.623c0.906-0.872,1.814-2.355,2.723-4.449l16.434-41.556l7.433-1.361l0.732,0.106
		c4.884,17.583,9.314,31.996,13.292,43.23c0.699,2.024,1.586,3.437,2.671,4.239c1.079,0.802,2.808,1.307,5.181,1.517l0.21,0.419
		L130.002,87.791z M102.579,64.972c2.44,0,4.987-0.14,7.64-0.419l-6.385-20.306h-0.732L95.46,64.972H102.579z"/>
	<path d="M176.478,38.124c3.209,2.337,4.814,5.321,4.814,8.95c0,7.187-4.117,12.629-12.35,16.328l8.898,13.398
		c1.674,2.513,3.279,4.293,4.814,5.339c1.535,1.048,3.385,1.571,5.549,1.571l0.419,0.523l-0.525,3.245l-8.059,0.836
		c-3.282,0-6.317-2.547-9.107-7.64l-8.792-15.389h-6.804l-0.21,11.201c0,2.862,0.331,4.658,0.994,5.391
		c0.662,0.732,2.391,1.136,5.181,1.203l0.21,0.313l-0.836,3.978c0-0.14-3.212-0.21-9.63-0.21l-10.469,0.316l0.732-4.291
		c2.581-0.349,4.291-0.942,5.13-1.781c0.839-0.839,1.255-2.407,1.255-4.71l0.106-33.391c0-1.674-0.21-2.808-0.629-3.403
		c-0.419-0.593-1.221-0.89-2.407-0.89l-2.932,0.106l-0.313-0.419l0.629-3.978c4.395,0.142,7.676,0.21,9.84,0.21l11.199-0.313
		C168.836,34.617,173.266,35.787,176.478,38.124z M164.022,60.681c5.862-2.373,8.792-6.177,8.792-11.41
		c0-6.768-4.99-10.153-14.967-10.153c-0.978,0-1.467,0.629-1.467,1.884c-0.559,8.514-0.836,14.796-0.836,18.841L164.022,60.681z"/>
	<path d="M246.714,87.791c-4.257-0.14-7.43-0.21-9.524-0.21c-3.282,0-7.679,0.243-13.189,0.732l-0.316-0.523l0.316-3.768
		c2.93-0.21,4.902-0.523,5.914-0.942c1.009-0.419,1.516-1.152,1.516-2.2c0-1.046-0.243-2.197-0.732-3.452l-2.513-8.062
		c-1.395-0.067-3.698-0.104-6.907-0.104c-3.209,0-6.804,0.21-10.782,0.629c-2.443,6.488-3.662,10.047-3.662,10.675
		c0,2.094,1.638,3.142,4.92,3.142h4.501l0.313,0.417l-0.629,3.978c-4.257-0.349-8.269-0.523-12.037-0.523l-9.63,0.21l0.629-4.291
		c1.535-0.21,2.756-0.751,3.662-1.623c0.906-0.872,1.814-2.355,2.723-4.449l16.434-41.556l7.433-1.361l0.732,0.106
		c4.883,17.583,9.314,31.996,13.292,43.23c0.699,2.024,1.586,3.437,2.671,4.239c1.079,0.802,2.808,1.307,5.181,1.517l0.21,0.419
		L246.714,87.791z M219.292,64.972c2.441,0,4.987-0.14,7.64-0.419l-6.385-20.306h-0.732l-7.643,20.725H219.292z"/>
	<path d="M272.465,74.599V39.953c-5.585,0.21-9.107,0.699-10.572,1.465c-1.607,0.769-2.792,3.768-3.559,9.001l-4.92,0.316
		c0.696-5.303,1.115-10.363,1.255-15.179l0.836-0.732l7.433,0.839h26.693l7.64-0.839l0.839,0.732
		c0.14,5.096,0.523,10.049,1.152,14.863l-4.816,0.316c-0.28-1.884-0.523-3.367-0.732-4.449c-0.21-1.082-0.611-2.058-1.203-2.932
		c-0.593-0.87-1.046-1.48-1.361-1.83c-0.313-0.349-1.133-0.663-2.458-0.942c-1.465-0.28-4.014-0.489-7.642-0.629
		c-0.909,8.445-1.361,21.181-1.361,38.207c0,2.024,0.383,3.452,1.152,4.291c0.769,0.836,2.024,1.255,3.768,1.255l4.607-0.21
		l0.313,0.316l-0.732,4.395c-6.072-0.21-10.466-0.313-13.189-0.313l-12.456,0.419l0.733-4.188c3.978-0.277,6.403-0.942,7.275-1.99
		C272.028,81.09,272.465,78.577,272.465,74.599z"/>
	<path d="M359.136,77.638c0,2.234,0.243,3.714,0.732,4.446c0.487,0.735,1.465,1.1,2.93,1.1l3.665-0.21l0.313,0.419l-0.836,4.187
		c-4.537-0.14-8.201-0.21-10.991-0.21l-10.469,0.103l0.839-4.185c2.58,0,4.291-0.541,5.129-1.623
		c0.836-1.082,1.255-3.297,1.255-6.649V63.297c-5.585-0.07-9.596-0.106-12.037-0.106l-13.714,0.839l-0.313,13.608
		c0,2.234,0.243,3.732,0.733,4.5c0.487,0.769,1.465,1.152,2.932,1.152l3.662-0.316l0.21,0.419l-0.732,4.187
		c-3.349-0.14-6.193-0.21-8.53-0.21c-2.34,0-5.044,0.103-8.113,0.313c-3.072,0.21-4.64,0.419-4.71,0.629l0.523-4.291
		c2.583-0.489,4.327-1.203,5.236-2.146c0.906-0.942,1.359-2.565,1.359-4.868l0.106-33.287c0-1.744-0.21-2.912-0.629-3.507
		c-0.419-0.593-1.255-0.89-2.513-0.89l-2.826,0.106l-0.313-0.419l0.629-3.978c4.255,0.142,7.5,0.21,9.734,0.21l10.153-0.732
		l-0.417,4.291c-2.373,0.349-3.859,0.908-4.449,1.674c-0.595,0.769-0.96,2.513-1.1,5.236l-0.523,12.666l13.608,0.104
		c3.698,0,7.71-0.243,12.037-0.732l0.103-14.027c0-1.744-0.207-2.912-0.626-3.507c-0.419-0.593-1.258-0.89-2.513-0.89l-2.929,0.106
		l-0.21-0.419l0.626-3.978c0,0.142,2.999,0.21,9.004,0.21l10.885-0.732l-0.313,4.291c-2.164,0.28-3.595,0.717-4.293,1.309
		c-0.696,0.593-1.082,1.693-1.149,3.297C359.516,56.946,359.136,68.357,359.136,77.638z"/>
	<path d="M397.234,58.165l8.585,0.106l10.362-0.838l0.419,0.523l-1.258,5.445c-4.814-0.14-8.46-0.21-10.937-0.21
		c-2.479,0-4.938,0.173-7.381,0.523c-0.21,5.303-0.313,9.578-0.313,12.821c0,3.245,0.331,5.13,0.994,5.652
		c0.663,0.525,2.862,0.787,6.594,0.787s6.558-0.225,8.479-0.68c1.92-0.453,3.297-1.31,4.136-2.565
		c0.839-1.255,1.501-3.455,1.988-6.594l4.607-0.419l0.419,0.523c-1.048,4.607-1.817,9.353-2.303,14.237l-0.629,0.523
		c-11.584-0.349-19.363-0.523-23.341-0.523c-5.862,0-11.027,0.277-15.492,0.839l0.523-4.397c2.583-0.28,4.327-0.906,5.236-1.884
		c0.906-0.976,1.359-2.652,1.359-5.026l0.106-33.181c0-1.744-0.21-2.912-0.629-3.507c-0.419-0.593-1.255-0.89-2.513-0.89
		l-2.826,0.106l-0.207-0.419l0.627-3.978c4.953,0.142,11.253,0.21,18.895,0.21c7.64,0,14.252-0.313,19.835-0.942l0.313,0.523
		c-0.976,4.327-1.638,9.004-1.988,14.027l-5.023,0.419c0.137-1.535,0.207-2.686,0.207-3.455c0-2.58-0.663-4.169-1.988-4.762
		c-1.328-0.593-4.066-0.89-8.217-0.89c-4.154,0-6.509,0.158-7.065,0.471c-0.559,0.313-0.875,1.17-0.942,2.565L397.234,58.165z"/>
	<path d="M490.812,59.998c0,7.922-2.72,14.622-8.163,20.098c-5.445,5.479-12.003,8.217-19.679,8.217
		c-7.679,0-13.73-2.319-18.16-6.962c-4.433-4.64-6.649-10.919-6.649-18.841c0-7.919,2.686-14.602,8.062-20.044
		c5.373-5.443,11.913-8.165,19.625-8.165c7.71,0,13.799,2.303,18.266,6.907C488.579,45.815,490.812,52.081,490.812,59.998z
		 M447.059,60.836c0,6.527,1.623,11.9,4.868,16.121c3.245,4.221,7.466,6.333,12.666,6.333c5.197,0,9.369-1.832,12.508-5.497
		c3.139-3.662,4.71-8.755,4.71-15.282c0-6.524-1.675-11.879-5.023-16.067c-3.352-4.187-7.627-6.281-12.824-6.281
		c-5.199,0-9.317,1.814-12.35,5.443C448.578,49.237,447.059,54.312,447.059,60.836z"/>
	<path d="M544.718,37.443h-3.139l-0.21-0.419l0.732-4.081c3.838,0.21,6.804,0.313,8.898,0.313l8.898-0.629l-0.419,4.294
		c-3.768,0.489-5.689,2.233-5.756,5.233l-1.258,45.011l-4.081,1.149c-10.748-15.629-20.831-29.69-30.251-42.182h-0.523
		l-0.313,31.716c0,1.325,0.21,2.234,0.626,2.723c0.419,0.486,1.116,0.732,2.094,0.732l4.188-0.106l0.313,0.316l-0.836,4.185
		c-3.911-0.21-7.083-0.313-9.526-0.313l-8.688,0.629l0.525-4.294c3.416-0.417,5.163-2.127,5.233-5.127l1.152-34.542
		c0-1.744-0.507-2.948-1.519-3.613c-1.012-0.662-2.948-1.167-5.808-1.517l-0.419-0.525l0.732-3.559
		c3.419,0.28,6.072,0.419,7.956,0.419l6.384-0.313c8.442,12.42,17.586,25.158,27.426,38.204h0.523l-0.106-30.249
		C547.544,38.595,546.602,37.443,544.718,37.443z"/>
</g>
<g id="Layer_4">
	<path fill-rule="evenodd" clip-rule="evenodd" d="M443.203,141.672c-0.057-1.262,0.038-2.524-0.016-3.796
		c-0.07-1.386-0.118-2.791-0.382-4.155c-2.137-11.203-7.35-20.788-15.355-28.876c-1.38-1.399-2.747-2.81-4.031-4.282
		c-0.496-0.563-0.944-0.693-1.586-0.436c-0.632,0.254-0.989,0.75-0.811,1.453c0.172,0.699,0.452,1.408,0.827,2.022
		c0.407,0.668,0.982,1.227,1.472,1.837c1.831,2.333,3.72,4.616,5.446,7.016c1.644,2.28,2.833,4.807,3.513,7.548
		c0.792,3.186,0.703,6.32-0.645,9.343c-1.138,2.534-3.1,3.653-5.869,3.443c-1.688-0.13-3.23-0.722-4.711-1.472
		c-2.973-1.504-5.669-3.418-8.088-5.726c-0.315-0.305-0.63-0.601-0.992-0.843c-0.452-0.318-0.944-0.499-1.434-0.07
		c-0.423,0.375-0.452,0.9-0.197,1.319c0.467,0.769,0.938,1.599,1.606,2.171c1.017,0.871,2.197,1.574,3.338,2.289
		c3.074,1.949,5.881,4.228,8.377,6.87c2.27,2.407,4.098,5.103,4.905,8.367c1.008,4.114-0.378,7.5-3.382,10.243
		c-1.971,1.806-4.321,2.016-6.68,0.773c-1.068-0.563-2.095-1.284-2.979-2.111c-2.191-2.06-4.267-4.247-5.894-6.803
		c-0.928-1.45-2.394-1.838-3.872-2.347c-0.48,1.027-0.216,1.876,0.162,2.658c0.614,1.249,1.272,2.483,2.012,3.665
		c2.505,3.942,4.018,8.199,4.241,12.885c0.172,3.628-0.203,7.185-1.879,10.441c-2.162,4.187-5.452,6.969-10.348,7.408
		c-1.132,0.108-2.257,0.184-3.389,0.257c-0.286,0.016-0.585-0.032-0.979-0.057c-0.092-0.973-0.254-1.873-0.254-2.776
		c0.009-4.028,0.477-8.005,1.109-11.966c0.623-3.885,2.296-7.28,4.759-10.326c0.687-0.836,1.192-1.815,1.746-2.75
		c0.134-0.226,0.124-0.537,0.194-0.887c-1.577-0.013-2.721,0.655-3.624,1.714c-0.954,1.125-1.911,2.276-2.731,3.503
		c-3.195,4.801-6.025,9.798-8.002,15.251c-0.677,1.885-1.411,3.764-2.33,5.538c-1.73,3.37-4.321,4.635-8.082,4.168
		c-2.464-0.315-4.943-0.56-7.388-0.97c-5.414-0.906-10.812-1.901-16.217-2.871c-0.417-0.073-0.827-0.21-1.233-0.318
		c0.019-0.089,0.047-0.181,0.073-0.28c0.696,0,1.389,0.048,2.076-0.007c0.884-0.073,1.027-0.308,0.97-1.167
		c-0.051-0.96-0.124-1.914-0.095-2.874c0.105-3.02,0.811-5.951,1.414-8.892c0.385-1.879,0.801-3.752,1.148-5.637
		c0.099-0.56,0.261-1.195-0.239-1.783c-0.703,0.188-1.116,0.706-1.545,1.179c-1.793,1.961-3.106,4.238-3.885,6.756
		c-1.097,3.535-1.99,7.127-2.963,10.698c-0.032,0.111,0.016,0.257,0.035,0.423c0.591,0.394,1.192,0.798,1.796,1.195
		c-0.032,0.073-0.048,0.146-0.073,0.206c-3.599-0.585-7.198-1.17-10.85-1.764c-0.099-0.728-0.261-1.329-0.261-1.924
		c0.016-2.477-0.007-4.972,0.127-7.455c0.207-3.898,0.248-7.729-1.227-11.464c-2.518-6.403-5.837-12.376-9.579-18.118
		c-0.671-1.036-1.685-1.869-2.623-2.702c-0.785-0.69-1.675-1.253-2.534-1.85c-0.226-0.162-0.502-0.254-0.76-0.381
		c-0.645,1.523-0.598,1.85,0.353,3.058c3.809,4.797,6.622,10.139,8.447,15.975c1.488,4.759,1.844,9.662,1.698,14.615
		c-0.035,1.208-0.254,2.42-0.461,3.624c-0.404,2.454-1.891,3.949-4.247,4.619c-0.544,0.159-1.1,0.324-1.656,0.359
		c-2.174,0.121-4.346,0.21-6.527,0.28c-1.11,0.035-2.219,0.003-3.5,0.003c0.197-0.308,0.242-0.47,0.324-0.499
		c0.772-0.251,1.558-0.486,2.514-0.785c-0.14-0.677-0.242-1.399-0.442-2.089c-0.633-2.203-1.723-4.203-3.059-6.037
		c-2.174-3.001-4.406-5.964-6.749-8.832c-1.844-2.267-3.872-4.378-5.834-6.543c-0.315-0.343-0.703-0.68-1.122-0.855
		c-0.315-0.13-0.849-0.127-1.084,0.061c-0.232,0.188-0.385,0.76-0.267,1.03c0.293,0.658,0.655,1.351,1.18,1.828
		c2.95,2.671,5.023,5.939,6.413,9.592c1.641,4.298,3.011,8.701,4.543,13.209c-0.502,0.165-0.887,0.362-1.288,0.416
		c-2.756,0.309-5.373,1.151-7.9,2.229c-2.969,1.259-5.91,2.591-8.797,4.009c-1.596,0.776-3.145,1.002-4.775,0.309
		c-1.246-0.525-2.49-1.059-3.662-1.711c-2.343-1.297-4.355-3.055-6.339-4.829c-3.462-3.103-6.594-6.482-8.813-10.618
		c-1.437-2.674-2.524-5.462-2.578-8.555c-0.003-0.248-0.025-0.594-0.178-0.721c-0.779-0.642-1.507-1.38-2.648-1.755
		c0.073,1.895,0.162,3.637,0.203,5.382c0.064,2.435,0.671,4.734,1.685,6.934c1.523,3.306,3.402,6.393,5.827,9.118
		c2.954,3.328,5.97,6.6,8.898,9.944c1.405,1.602,2.715,3.294,3.993,5.007c0.337,0.451,0.626,1.144,0.547,1.669
		c-0.289,2.019-0.738,4.003-1.138,6.05c-0.566,0.029-1.046,0.029-1.513,0.083c-1.907,0.207-3.825,0.321-5.71,0.661
		c-5.309,0.951-10.164,3.109-14.729,5.901c-4.012,2.46-7.929,5.074-11.9,7.614c-2.877,1.844-5.945,3.275-9.245,4.229
		c-2.553,0.734-5.097,1.497-7.64,2.263c-1.415,0.423-2.823,0.874-4.095,1.268c-0.404,1.529-0.798,2.909-1.122,4.301
		c-0.095,0.401-0.095,0.887,0.057,1.259c0.677,1.691,1.421,3.354,2.203,5.176c0.855-0.309,1.621-0.477,2.28-0.859
		c0.747-0.432,1.536-0.642,2.365-0.648c1.437-0.019,2.874,0.019,4.314,0.054c0.264,0.006,0.528,0.118,0.995,0.226
		c-0.617,0.576-1.081,1.033-1.564,1.453c-1.211,1.052-1.815,2.442-2.085,3.977c-0.226,1.252,0.375,1.714,1.564,1.233
		c1.084-0.442,2.159-0.928,3.243-1.383c5.996-2.496,12.173-3.885,18.738-3.36c3.605,0.292,7.223,0.149,10.79-0.68
		c6.145-1.437,10.304-5.061,12.386-11.035c0.594-1.695,0.982-3.43,1.109-5.23c0.153-2.162,0.636-2.623,2.772-2.839
		c0.222-0.022,0.436-0.045,0.655-0.054c2.788-0.143,5.57-0.299,8.358-0.429c0.655-0.032,1.307-0.003,1.968-0.003
		c0.006,0.089,0.016,0.178,0.025,0.267c-0.569,0.165-1.125,0.388-1.707,0.48c-1.421,0.21-2.855,0.334-4.279,0.534
		c-1.548,0.219-3.119,0.366-4.632,0.753c-2.041,0.524-2.616,1.376-2.629,3.484c-0.007,1.952-0.477,3.793-1.253,5.567
		c-2.909,6.695-11.553,11.238-17.867,9.925c-0.833-0.181-1.513,0.089-2.136,0.674c-2.359,2.203-4.724,4.406-7.141,6.54
		c-4.095,3.608-8.228,7.159-13.136,9.668c-0.34,0.172-0.68,0.321-1.1,0.522c-0.582-1.644-1.126-3.189-1.656-4.683
		c0.474-0.41,0.858-0.696,1.192-1.036c0.706-0.725,1.001-1.618,0.893-2.632c-0.188-1.647-1.577-3.199-3.22-3.586
		c-1.443-0.343-3.157,0.388-4.104,1.72c-0.563,0.804-0.623,1.625-0.073,2.435c0.34,0.505,0.693,1.027,1.154,1.415
		c1.351,1.139,1.615,2.505,1.005,4.104c-0.118,0.327-0.188,0.674-0.292,1.001c-0.782,2.454-1.558,4.905-2.353,7.35
		c-0.594,1.822-1.195,3.644-1.821,5.456c-0.394,1.163-1.179,1.86-2.426,2.121c-1.145,0.245-2.302,0.55-3.373,1.017
		c-1.866,0.836-3.697,1.758-5.484,2.75c-0.852,0.467-1.691,1.065-2.07,2.194c1.208,0.56,2.241-0.181,3.306-0.321
		c1.138-0.146,2.263-0.347,3.484-0.194c-0.451,1.125-1.202,1.819-2.082,2.289c-2.639,1.415-4.575,3.596-6.524,5.774
		c-0.432,0.48-0.865,0.957-1.44,1.599c1.822-0.21,3.319-0.906,4.995-0.874c-3.418,3.65-6.336,7.598-8.803,12.056
		c1.329-0.105,2.48-0.191,3.926-0.305c-1.059,1.469-2.012,2.696-2.851,3.993c-0.855,1.316-1.596,2.705-2.388,4.063
		c-0.137,0-0.264,0-0.398,0c1.017-1.322,0.089-2.003-0.585-2.813c-2.14-2.534-4.397-4.985-5.996-7.913
		c-0.827-1.536-1.656-3.049-2.645-4.492c-0.499-0.731-1.052-1.246-1.876-1.507c-2.715-0.881-5.408-0.782-8.091,0.127
		c-1.154,0.391-2.009,1.145-2.75,2.111c-1.405,1.828-2.804,3.678-4.365,5.373c-4.021,4.355-8.161,8.603-12.688,12.453
		c-1.695,1.453-3.392,2.922-5.542,3.637c-2.496,0.83-4.432,2.368-6.11,4.317c-3.783,4.422-6.915,9.302-10.075,14.169
		c-0.08,0.124-0.07,0.308-0.111,0.496c1.796,0.502,3.522,0.464,5.226,0c1.733-0.477,3.472-0.741,5.284-0.722
		c0.989,0.009,2.012-0.153,2.96-0.439c1.729-0.518,2.569-1.872,2.788-3.675c0.143-1.145,0.592-2.247,0.9-3.37
		c0.575,0,0.957-0.019,1.345,0c2.381,0.118,2.4,0.099,3.176-2.117c0.057-0.162,0.124-0.328,0.159-0.493
		c0.458-1.831,1.472-3.351,2.741-4.699c1.017-1.074,2.076-2.114,3.185-3.1c2.404-2.153,4.848-4.254,7.268-6.387
		c2.264-2,4.6-3.885,7.233-5.383c2.699-1.542,3.923-1.17,5.357,1.555c0.706,1.354,1.412,2.705,2.156,4.037
		c1.993,3.545,5.166,4.852,9.118,4.699c0.28-0.63,0.563-1.281,0.846-1.93c0.286,1.304,0.092,2.588,0.645,3.717
		c0.664,0.232,0.931-0.048,1.163-0.569c0.607-1.354,1.653-2.292,3.17-3.093c-0.299,1.052-0.604,1.866-0.741,2.702
		c-0.143,0.89-0.13,1.812-0.178,2.661c2.419,1.647,10.533,5.331,12.561,5.716c0.032-0.213,0.073-0.42,0.095-0.626
		c0.293-3.402,1.297-6.584,3.059-9.503c0.553-0.925,1.3-1.736,2.019-2.55c0.321-0.353,0.728-0.712,1.415-0.674
		c-1.491,5.153-2.951,10.199-4.441,15.352c-0.798-0.283-1.459-0.49-2.092-0.757c-6.663-2.826-13.324-5.65-19.975-8.498
		c-2.263-0.976-4.263-2.365-6.037-4.079c-0.499-0.486-1.014-0.963-1.539-1.424c-2.156-1.872-4.747-1.987-7.07-0.305
		c-1.443,1.04-2.486,2.423-3.316,3.98c-0.779,1.446-0.931,2.963-0.741,4.568c0.454,3.891,0.893,7.789,1.303,11.687
		c0.337,3.211,0.76,6.412,0.896,9.636c0.136,3.43,0.057,6.883-0.105,10.313c-0.102,2.219-0.544,4.413-0.814,6.619
		c-0.143,1.16,0.137,2.213,0.722,3.246c1.332,2.372,2.241,4.915,2.798,7.579c0.423,2.063,0.467,4.155,0.41,6.25
		c-0.016,0.483,0.063,0.976,0.127,1.698c0.496-0.366,0.795-0.534,1.04-0.763c1.265-1.195,2.559-2.366,3.767-3.618
		c1.135-1.189,2.337-2.378,3.227-3.752c1.679-2.581,1.265-5.322-0.893-7.493c-0.521-0.515-1.062-1.011-1.624-1.542
		c0.375-0.613,0.69-1.128,1.017-1.643c0.321-0.512,0.62-1.046,0.982-1.542c0.315-0.429,0.372-0.858,0.191-1.342
		c-0.117-0.324-0.197-0.668-0.315-1.001c-1.949-5.573-2.651-11.372-2.728-17.225c-0.044-3.265,0.296-6.53,0.499-9.792
		c0.051-0.817,0.222-1.628,0.356-2.559c0.515,0.095,0.947,0.134,1.345,0.258c1.037,0.324,2.085,0.649,3.093,1.056
		c5.309,2.133,10.345,4.823,15.381,7.519c6.784,3.637,13.333,7.614,18.97,12.927c0.467,0.436,1.011,0.661,1.656,0.633
		c1.634-0.064,3.204-0.391,4.673-1.109c1.176-0.572,1.92-1.507,2.114-2.807c0.111-0.766,0.172-1.561,0.194-2.34
		c0.045-1.961,0.029-3.929,0.089-5.885c0.029-1.036,0.461-1.866,1.65-2.394c-0.467,4.489-0.909,8.813-1.357,13.14
		c-2.045,0.458-3.726,1.361-5.306,2.467c-0.973,0.68-1.974,0.671-2.947,0.06c-0.849-0.531-1.663-1.116-2.454-1.729
		c-1.999-1.542-3.974-3.129-5.989-4.664c-2.906-2.21-6.301-3.462-9.766-5.042c0.458,5.096,0.899,9.986,2.4,14.99
		c0.992-1.704,1.831-3.157,2.788-4.797c0.728,0.992,1.335,1.774,1.908,2.582c0.553,0.779,1.049,1.608,1.628,2.368
		c0.601,0.795,1.252,1.561,1.939,2.292c0.655,0.693,1.364,1.348,2.079,1.977c0.725,0.636,1.285,1.485,2.277,1.908
		c0.152-1.161,0.28-2.219,0.42-3.262c0.092-0.051,0.194-0.092,0.286-0.137c4.117,3.923,7.964,8.135,12.605,11.642
		c0-1.618-0.734-3.046-0.655-4.654c0.232,0.117,0.353,0.156,0.458,0.226c7.328,4.931,15.203,8.889,23.103,12.784
		c10.431,5.157,20.9,10.234,31.016,16.017c0.175,0.102,0.375,0.169,0.626,0.264c0.998-1.946,1.262-3.952,0.963-6.012
		c-0.273-1.898-0.693-3.771-1.036-5.656c-0.086-0.458-0.108-0.928-0.159-1.389c0.095-0.016,0.2-0.035,0.305-0.047
		c0.165,0.528,0.375,1.039,0.493,1.583c1.237,5.907,1.606,11.919,1.831,17.927c0.273,7.023,0.76,14.017,1.86,20.957
		c0.588,3.707,1.3,7.385,2.734,10.876c2.887,7.013,6.581,13.562,11.324,19.508c2.887,3.605,5.713,7.271,8.749,10.749
		c1.469,1.688,2.225,3.456,2.346,5.637c0.41,7.582,0.674,15.165,0.286,22.75c-0.255,4.982-0.747,9.913-2.156,14.716
		c-0.594,2.016-1.386,3.946-2.604,5.681c-0.594,0.842-1.294,1.529-2.352,1.748c-1.04,0.216-1.631,0.877-2.006,1.85
		c-0.83,2.162-1.71,4.295-2.578,6.438c-0.118,0.312-0.223,0.626-0.344,0.957c0.232,0.083,0.344,0.153,0.467,0.153
		c3.446,0.009,6.893,0.022,10.338,0c0.448,0,0.89-0.169,1.288-0.248c-0.143-1.338-0.353-2.492-0.369-3.643
		c-0.029-1.208,0.121-2.413,0.194-3.672c2.69-0.477,5.255-0.932,7.875-1.402c-0.124-2.025-0.251-3.933-0.366-5.84
		c-0.092-1.612-0.305-3.224-0.229-4.823c0.117-2.744,0.356-5.484,0.667-8.212c0.417-3.548,0.728-7.131,1.485-10.606
		c1.357-6.253,3.023-12.45,4.549-18.662c0.165-0.677,0.334-1.354,0.432-2.047c0.181-1.221-0.216-2.225-1.253-2.957
		c-0.432-0.302-0.846-0.61-1.272-0.912c-1.443-1.017-2.683-2.238-3.675-3.688c-2.737-4.012-4.346-8.425-4.756-13.267
		c-0.461-5.411,0.572-10.58,2.499-15.613c1.694-4.422,3.933-8.549,6.381-12.577c2.031-3.354,4.26-6.606,5.503-10.374
		c0.029-0.079,0.099-0.14,0.334-0.436c-0.439,1.755-0.814,3.249-1.246,5.007c1.221-0.706,2.2-1.268,3.284-1.892
		c0.038,0.413,0.054,0.633,0.077,0.842c0.251,2.121,0.474,4.244,0.744,6.359c0.2,1.504,1.135,2.524,2.346,3.532
		c0.369-1.338,0.693-2.537,0.992-3.637c0.753,0.668,1.478,1.285,2.178,1.93c1.157,1.075,2.375,2.054,3.917,2.544
		c1.933,0.613,3.615,0.162,5.052-1.227c0.626-0.604,1.199-1.272,1.774-1.923c0.172-0.191,0.299-0.436,0.566-0.839
		c-1.43,0.534-2.6,1.014-3.802,1.396c-2.003,0.629-3.316,0.079-4.13-1.85c-0.505-1.192-0.849-2.48-1.052-3.755
		c-0.474-2.88-0.725-5.796-1.224-8.673c-1.329-7.655-4.27-14.726-8.31-21.319c-4.871-7.938-11.061-14.812-17.947-21.03
		c-5.122-4.623-10.758-8.6-16.557-12.345c-2.457-1.577-4.871-3.23-7.302-4.845c-8.498-5.659-16.109-12.341-23.192-19.689
		c-5.303-5.496-8.082-12.205-10.297-19.285c-0.013-0.035,0.009-0.079,0.022-0.181c0.095-0.089,0.21-0.216,0.34-0.315
		c3.958-3.014,7.957-5.968,11.858-9.045c1.202-0.944,2.251-1.443,3.735-0.709c0.932,0.464,1.958,0.337,2.902-0.165
		c1.586-0.855,2.483-2.537,2.238-4.238c-0.264-1.856-1.745-3.443-3.519-3.767c-1.812-0.328-2.639,0.169-3.211,1.911
		c-0.467,1.434-0.944,2.864-1.45,4.381c-3.058-0.318-6.034-0.118-9.232-0.486c0.63-0.792,1.033-1.418,1.548-1.927
		c2.769-2.747,5.087-5.866,7.35-9.013c5.217-7.248,9.137-15.133,11.534-23.755c1.685-6.075,1.78-12.307,1.736-18.554
		c-0.003-0.391-0.131-0.773-0.162-1.164c-0.067-0.712-0.474-1.087-1.148-1.23c-0.928-0.21-1.869-0.423-2.801-0.633
		c-1.049-0.235-3.09-1.539-3.774-2.442c0.493,0.041,0.922,0.108,1.351,0.117c1.514,0.029,3.043,0.133,4.556,0.041
		c3.233-0.188,6.203-1.313,9.032-2.849c1.869-1.008,3.863-1.567,5.977-1.748c1.024-0.083,2.035-0.286,3.151-0.448
		c-0.493-0.757-1.109-0.823-1.72-0.757c-2.378,0.264-4.473-0.528-6.454-1.707c-1.837-1.103-3.611-2.292-5.449-3.373
		c-1.39-0.823-2.807-1.596-4.273-2.26c-1.736-0.788-3.558-1.084-5.478-0.604c-1.65,0.407-3.338,0.674-5.001,0.998
		c-0.84,0.153-1.685,0.28-2.645,0.436c0.248-0.82,0.772-1.148,1.322-1.37c0.804-0.324,1.631-0.661,2.476-0.798
		c2.232-0.369,4.483-0.626,6.886-0.957c-0.461-0.858-1.183-1.253-1.904-1.634c-0.836-0.433-1.548-0.992-1.946-1.866
		c-1.526-3.398-1.307-7.061,2.095-9.757c1.628-1.288,3.465-2.206,5.436-2.788c2.299-0.671,4.632-1.224,6.969-1.755
		c6.457-1.469,12.971-2.206,19.587-1.354c5.274,0.687,10.561,1.307,15.81,2.111c11.369,1.755,22.693,3.805,34.141,5.01
		c3.993,0.42,7.999,0.734,12.001,0.14c3.494-0.534,6.985-1.055,10.374-2.105c5.109-1.583,9.875-3.904,14.427-6.689
		c3.643-2.225,6.657-5.207,9.805-8.024c1.227-1.103,2.197-2.473,3.281-3.729c3.834-4.435,6.768-9.376,8.597-14.987
		C442.446,150.841,443.422,146.365,443.203,141.672z M274.567,217.877c-2.146,0.025-4.066-1.876-4.111-4.076
		c-0.045-2.111,2.092-4.095,4.426-4.105c2.022-0.01,3.672,1.822,3.697,4.107C278.617,216.103,276.884,217.855,274.567,217.877z
		 M297.651,272.743c1.23-0.009,2.194,1.084,2.168,2.451c-0.022,1.31-1.065,2.286-2.381,2.225c-1.256-0.048-2.286-1.161-2.241-2.423
		C295.231,273.837,296.401,272.756,297.651,272.743z M280.366,260.767c1.1,0.038,2.089,1.068,2.044,2.153
		c-0.035,1.094-0.846,1.739-2.175,1.723c-1.221-0.019-1.608-0.464-1.599-1.831C278.636,261.591,279.361,260.738,280.366,260.767z
		 M262.419,250.492c0.966,0.022,1.768,0.96,1.762,2.054c-0.007,1.097-0.878,1.962-1.997,1.971c-1.129,0.009-2.041-0.855-2.016-1.92
		C260.191,251.564,261.373,250.467,262.419,250.492z M241.074,243.323c-0.009-1.249,0.722-2.156,1.748-2.19
		c1.068-0.035,1.889,0.922,1.895,2.203c0.01,1.154-0.696,1.825-1.888,1.803C241.875,245.126,241.077,244.302,241.074,243.323z
		 M279.866,287.059c-0.448-0.245-0.858-0.464-1.259-0.699c-11.334-6.683-22.658-13.362-33.992-20.042
		c-1.345-0.795-2.74-1.523-4.095-2.318c-0.588-0.347-1.179-0.754-1.033-1.678c0.947-0.296,1.552,0.203,2.181,0.563
		c6.015,3.43,12.02,6.864,18.036,10.304c6.304,3.615,12.612,7.242,18.922,10.853c0.9,0.522,1.831,0.992,2.909,1.58
		C280.941,286.137,280.439,286.563,279.866,287.059z M289.897,278.965c0.038,0.095,0.063,0.184,0.098,0.28
		c-2.212,1.726-4.425,3.456-6.663,5.204c-0.309-0.143-0.588-0.251-0.846-0.397c-13.302-7.551-26.622-15.079-39.902-22.68
		c-2.884-1.65-2.518-0.865-1.628-4.079c0.572-2.054,1.272-4.082,1.933-6.104c0.172-0.521,0.448-0.992,0.684-1.491
		c0.095-0.003,0.207-0.003,0.305-0.003c1.319,3.468,2.636,6.934,3.987,10.485c4.292-1.297,8.495-2.578,12.866-3.898
		c0.671,5.157,1.326,10.231,2.012,15.502c5.208-1.516,10.237-3.278,15.534-4.861c0.022,3.895,0.051,7.652,0.073,11.521
		C282.295,278.625,286.098,278.796,289.897,278.965z M309.013,421.84c-0.518-0.989-0.757-2.022-0.721-3.145
		c0.102-3.023,0.671-5.974,1.561-8.854c0.372-1.205,0.432-2.349,0.219-3.596c-0.382-2.139-0.712-4.298-0.893-6.47
		c-0.353-4.209-0.585-8.434-0.871-12.656c-0.092-1.424-0.197-2.858-0.286-4.06c-2.518-2.289-5.29-3.831-8.202-5.122
		c-2.941-1.307-5.904-2.537-8.959-3.841c-0.429,0.738-0.801,1.316-1.116,1.923c-2.137,4.098-3.046,8.52-3.265,13.086
		c-0.305,6.527,1.297,12.612,4.457,18.299c1.272,2.289,2.639,4.518,3.92,6.797c0.76,1.367,1.497,2.756,2.111,4.2
		c0.375,0.865,0.56,1.828,0.712,2.769c0.191,1.167-0.264,2.175-1.199,2.874c-0.687,0.518-1.434,1.027-2.238,1.31
		c-1.472,0.525-2.982,1.017-4.518,1.272c-2.489,0.4-5.004,0.693-7.525,0.865c-5.78,0.388-11.566,0.773-17.355,0.976
		c-4.41,0.156-4.422,0.025-7.783,2.865c-2.156,1.815-4.492,3.31-7.169,4.232c-0.394,0.14-0.776,0.33-1.205,0.512
		c1.316,1.367,3.475,2.222,14.316,5.754c1.256-1.819,2.486-3.596,3.758-5.44c0.922,0.645,1.691,1.221,2.492,1.726
		c0.795,0.496,1.437,1.288,2.489,1.335c1.596-2.254,3.869-3.396,6.45-3.942c1.997-0.429,4.025-0.843,6.057-0.947
		c5.745-0.283,11.496-0.436,17.244-0.569c1.615-0.035,3.109-0.305,4.508-1.091c0.499-0.277,1.011-0.524,1.507-0.792
		c1.65-0.874,3.3-1.745,5.096-2.693c-0.417-1.027-0.741-2.006-1.189-2.935C310.654,424.914,309.83,423.382,309.013,421.84z
		 M353.134,154.888c0.639,0.442,1.335,0.839,2.051,1.135c1.157,0.496,2.384,0.839,3.538,1.348c1.424,0.636,2.842,1.316,4.196,2.092
		c0.865,0.502,1.568,1.227,2,2.194c1.841,4.088,3.688,8.183,5.564,12.256c0.4,0.874,0.505,1.698,0.28,2.645
		c-0.327,1.38-0.512,2.792-0.76,4.225c0.585,0.143,1.001,0.276,1.428,0.346c2.273,0.401,4.556,0.75,6.819,1.199
		c1.405,0.274,2.423-0.153,3.345-1.217c4.298-4.947,7.115-10.704,8.558-17.002c1.532-6.686,2.2-13.515,1.456-20.394
		c-0.305-2.779-0.766-5.529-1.672-8.18c-2.617-7.646-6.854-14.357-11.986-20.557c-2.607-3.144-5.926-5.37-9.315-7.522
		c-0.839-0.531-1.568-0.092-1.583,0.909c-0.003,0.296,0.083,0.598,0.14,0.897c0.207,1.03,0.897,1.78,1.552,2.537
		c2.159,2.508,4.374,4.979,6.489,7.528c1.751,2.117,3.36,4.365,4.432,6.915c0.55,1.31,0.855,2.731,1.24,4.107
		c0.159,0.585-0.07,1.068-0.512,1.523c-1.332,1.373-2.651,2.779-3.933,4.206c-0.458,0.496-0.944,0.655-1.606,0.636
		c-2.422-0.07-4.638-0.773-6.66-2.07c-1.138-0.728-2.216-1.542-3.316-2.336c-1.593-1.138-3.173-2.292-4.813-3.472
		c-0.407,0.305-0.655,0.477-0.89,0.661c-1.001,0.798-1.128,1.24-0.407,2.296c0.49,0.702,1.087,1.373,1.762,1.907
		c3.503,2.775,6.539,6.021,9.531,9.312c0.671,0.738,1.329,1.529,1.796,2.397c0.954,1.815,1.79,3.681,2.629,5.551
		c0.191,0.41,0.254,0.925,0.2,1.376c-0.216,1.828-1.354,2.95-3.291,3.395c-2.197,0.499-4.346,0.143-6.466-0.375
		c-2.849-0.696-5.592-1.688-8.193-3.039c-0.753-0.388-1.52-0.718-2.372-0.391c-0.763,0.293-1.504,0.652-2.235,0.979
		C352.094,153.842,352.517,154.456,353.134,154.888z M316.176,188.832c-0.667,0.162-1.38,0.201-2.076,0.201
		c-1.869,0.006-3.748-0.105-5.621-0.038c-0.89,0.035-1.898,0.162-2.62,0.617c-2.416,1.542-4.724,3.249-7.096,4.909
		c0.251,0.992,0.48,1.86,0.728,2.814c2.153-0.315,4.178-0.572,6.184-0.909c5.144-0.868,10.304-1.075,15.502-0.579
		c6.94,0.658,13.877,1.367,20.827,1.866c3.294,0.235,6.648,0.296,9.922-0.045c4.769-0.493,9.359-1.961,13.931-3.418
		c1.405-0.448,2.41-1.332,3.284-2.492c-0.617-1.03-1.599-1.567-2.674-1.682c-1.596-0.172-3.208-0.191-4.813-0.156
		c-1.125,0.032-2.257,0.201-3.373,0.388c-0.807,0.14-1.332-0.083-1.685-0.82c-0.626-1.272-1.713-1.783-3.083-1.818
		c-0.658-0.022-1.303-0.137-1.958-0.159c-0.817-0.032-1.631-0.007-2.515-0.007c0.188,1.269,0.378,2.499,0.591,3.863
		c-0.477,0.035-0.779,0.083-1.081,0.083c-4.877-0.029-9.757-0.026-14.634-0.13c-2.401-0.048-4.785-0.318-7.109-0.992
		c-1.297-0.375-2.162-1.075-2.225-2.521c-0.048-1.036-0.525-1.809-1.38-2.381c-0.327-0.223-0.578-0.556-0.912-0.744
		c-0.359-0.191-0.788-0.404-1.179-0.385c-1.269,0.045-2.483,0.359-3.662,0.957c0.054,0.598,0.133,1.157,0.149,1.714
		C317.619,188.072,317.26,188.587,316.176,188.832z M254.51,175.559c4.396,6.298,10.091,11.057,17.097,14.195
		c3.466,1.548,6.972,2.988,10.453,4.495c0.664,0.289,1.291,0.661,1.86,0.954c-0.063,1.103-0.124,2.031-0.181,3.083
		c1.567-0.248,2.931-0.467,4.336-0.686c0.216-1.628,0.286-3.144,0.054-4.661c-0.308-1.997-1.38-3.475-3.259-4.27
		c-1.122-0.477-2.267-0.899-3.44-1.236c-4.406-1.275-8.74-2.728-12.672-5.16c-3.805-2.343-7.366-5.004-10.326-8.368
		c-2.48-2.82-4.87-5.713-7.306-8.568c-0.204-0.242-0.458-0.458-0.855-0.836c0.063,0.63,0.083,1.017,0.137,1.402
		C250.923,169.484,252.472,172.634,254.51,175.559z M276.659,196.802c-0.426-0.458-1.046-0.795-1.64-1.017
		c-0.938-0.337-1.911-0.588-2.893-0.766c-1.237-0.242-2.492-0.382-3.745-0.55c-1.1-0.149-1.923-0.626-2.407-1.714
		c-0.461-1.021-1.065-1.974-1.586-2.921c-1.396,0.175-1.663,0.388-1.586,1.615c0.2,3.545,1.215,6.851,3.246,9.779
		c1.205,1.751,2.124,1.965,4.136,1.23c2.699-0.979,5.395-1.958,8.091-2.938c0.27-0.092,0.54-0.188,0.82-0.292
		c-0.045-0.216-0.035-0.426-0.099-0.442C277.962,198.414,277.371,197.562,276.659,196.802z M274.681,211.051
		c-1.564,0.019-2.96,1.316-2.928,2.731c0.025,1.491,1.389,2.807,2.874,2.785c1.545-0.022,2.772-1.237,2.737-2.712
		C277.329,212.323,276.096,211.032,274.681,211.051z"/>
</g>
</svg>
