<?xml version="1.0" encoding="utf-8"?>
<!-- Generator: Adobe Illustrator 21.0.0, SVG Export Plug-In . SVG Version: 6.00 Build 0)  -->
<svg version="1.1" xmlns="http://www.w3.org/2000/svg" xmlns:xlink="http://www.w3.org/1999/xlink" x="0px" y="0px"
	 viewBox="0 0 576 576" enable-background="new 0 0 576 576" xml:space="preserve">
<g id="Layer_2">
	<path d="M311.079,138.562c-54.98-1.987-102.287,17.327-140.281,57.259c-33.375,35.077-50.001,77.434-50.104,125.921
		c-0.207,100.416,81.897,183.087,183.1,182.577c101.432,0.634,184.264-82.185,183.403-183.969
		C486.335,218.239,405.662,141.972,311.079,138.562z M304.085,487.125c-90.735-0.028-166.925-73.767-165.28-168.989
		c1.478-85.412,72.116-164.953,173.371-161.273c81.376,2.957,159.854,71.588,157.473,170.048
		C467.572,413.083,396.177,487.164,304.085,487.125z M434.874,270.007c-2.421-1.148-5.06-1.848-6.069-5.036
		c-0.314-0.976-2.706-1.872-4.099-1.804c-2.281,0.122-4.572,0.917-6.761,1.687c-9.64,3.406-19.129,7.3-28.895,10.274
		c-12.597,3.85-25.361,7.208-38.154,10.37c-7.359,1.818-14.9,2.89-22.385,4.173c-2.336,0.401-4.542,0.324-4.476-3.175
		c0.026-1.787-0.754-3.351-3.142-3.249c-1.523,0.059-2.44-0.558-2.14-2.467c0.385-2.458-1.087-3.905-3.39-4.181
		c-2.377-0.285-3.131-1.654-3.123-3.722c0.008-2.131-0.698-3.685-2.831-4.502c-2.1-0.805-2.336-2.147-1.242-4.129
		c0.533-0.968,0.891-2.704,0.388-3.452c-2.225-3.297-0.155-5.356,1.489-7.881c1.335-2.044,3.918-3.833,2.662-7.169
		c-2.469,1.183-7.06,3.347-9.452,4.488c-0.27-0.355,2.466-3.595,3.009-4.334c0.425-0.584,0.869-1.155,1.353-1.697
		c4.953-5.544,10.331-10.738,14.922-16.587c0.887-1.131,0.628-3.463,0.326-3.722c-7.237,4.349-16.065,9.415-23.309,13.758
		c-0.248-0.338,17.55-15.168,24.44-26.699c0.543-0.91,0.932-3.294,0.691-3.613c-9.045,6.08-20.578,13.93-29.623,20.01
		c-0.259-0.238,4.576-5.722,7.423-8.509c2.842-2.783,6.077-5.772,8.021-7.239c7.467-5.616,13.455-12.455,18.482-20.132
		c0.906-1.38,2.506-4.336,2.1-4.857c-0.673,0.346-1.408,0.606-2.007,1.044c-9.492,6.92-19.092,13.702-28.414,20.851
		c-6.624,5.073-12.996,10.494-19.247,16.031c-8.272,7.326-14.7,16.246-20.614,25.488c-3.597,5.63-6.857,11.51-9.799,17.517
		c-2.894,5.912-1.419,8.121,4.997,9.138c8.191,1.292,15.425,4.43,20.397,11.451c3.205,4.524,5.7,9.396,5.555,15.109
		c-0.026,1.157-0.905,2.73-1.87,3.329c-2.735,1.7-5.862,2.767-8.576,4.497c-9.108,5.814-16.149,13.506-20.467,23.531
		c-2.691,6.25-2.469,13.473,0.314,18.944c0.846,1.667,3.522,4.399,6.857,6.236c-0.089-0.941,0.074-2.087,0.163-3.007
		c0.262-2.725,2.687-5.944,5.415-6.543c3.937-0.86,7.91-1.578,11.887-2.22c6.114-0.989,12.246-1.922,18.382-2.772
		c2.591-0.362,4.587,0.287,5.116,3.399c0.54,3.188,1.238,6.369,2.144,9.474c1.578,5.434,0.543,10.651-1.922,15.355
		c-2.099,3.99-5.142,7.509-7.999,11.054c-3.223,3.998-3.002,7.348,1.671,9.696c6.413,3.227,12.97,6.282,19.735,8.651
		c6.195,2.17,12.682,3.682,19.159,4.848c8.002,1.438,16.112,2.985,24.2,3.109c13.769,0.209,27.553-0.529,41.322-1.142
		c3.848-0.17,7.947-0.358,11.363-3.513c-17.262-3.916-34.587-5.106-51.953-6.321c10.657-3.279,22.068-1.982,32.473-6.657
		c-12.823-4.397-26.355-3.669-39.514-5.94c0.714-0.549,10.006-1.685,17.813-2.552c2.806-0.309,10.39-1.018,11.444-1.591
		c-2.159-2.613-7.459-3.957-9.385-4.321c-5.156-0.987-10.42-1.089-15.713-1.035c-2.229,0.022-4.465-0.15-6.705-0.342
		c-1.442-0.126-7.541-0.497-7.578-0.893c5.36-1.065,13.858-2.782,19.199-3.844c0.651-1.933-0.229-2.905-1.974-3.393
		c-2.606-0.739-5.271-1.342-7.777-2.327c-0.968-0.384-2.066-1.578-2.251-2.565c-0.344-1.841-0.636-3.31-2.739-3.903
		c-0.773-0.22-1.653-0.998-1.982-1.747c-1.438-3.245-1.752-6.461-1.342-10.187c0.403-3.628-0.329-7.476,0.455-11.213
		c0.033-0.17-0.114-0.386-0.203-0.573c-1.016-2.005-0.41-3.675,1.364-4.747c6.047-3.648,12.013-7.479,18.286-10.701
		c11.954-6.136,24.03-12.032,36.18-17.776c10.542-4.977,21.31-9.392,32.643-12.398c4.369-1.164,7.023-2.12,6.42-8.359
		c-0.144-1.443,0.74-3.101,1.486-4.489C439.291,274.929,438.301,271.628,434.874,270.007z M267.572,415.182
		c-31.257-23.67-50.171-55.457-54.144-94.568c-5.526-54.44,14.978-96.88,57.316-129.079c2.961-2.246,7.722-5.628,10.886-7.775
		c-1.457-0.209-10.974,2.14-13.817,3.16c-6.846,2.453-13.702,4.9-20.415,7.683c-17.606,7.302-32.684,18.366-45.295,32.506
		c-6.517,7.31-12.209,15.444-17.584,23.653c-3.793,5.798-6.905,12.161-9.437,18.619c-2.843,7.234-5.079,14.774-6.853,22.348
		c-1.456,6.199-1.645,12.688-2.75,18.99c-1.737,9.834-0.421,19.628,0.632,29.316c0.909,8.298,2.935,16.493,5.603,24.546
		c3.911,11.797,8.92,23.03,15.791,33.301c10.405,15.554,23.136,28.933,38.912,39.272c12.882,8.439,26.433,15.122,41.481,18.942
		c9.636,2.445,19.284,4.181,29.153,4.742c14.97,0.841,29.715-0.569,44.135-4.805c5.038-1.484,10.139-2.841,15.007-4.759
		c5.153-2.027,18.785-9.897,18.733-10.15c-7.622,1.251-16.33,1.907-23.586,1.961C320.955,443.297,292.819,434.302,267.572,415.182z"
		/>
</g>
<g id="Layer_3">
	<path d="M96.703,559.805l-0.122-0.283l0.163-1.584c1.38-0.107,2.328-0.27,2.841-0.487c0.514-0.215,0.771-0.581,0.771-1.096
		c0-0.514-0.121-1.15-0.364-1.907l-1.34-4.426c-0.65-0.027-1.841-0.041-3.573-0.041c-1.732,0-3.424,0.108-5.074,0.325l-1.502,4.222
		c-0.244,0.73-0.366,1.259-0.366,1.583c0,1.11,0.812,1.665,2.436,1.665h2.313l0.081,0.162l-0.243,1.746
		c-1.976-0.19-3.857-0.284-5.643-0.284l-4.465,0.122l0.325-1.908c0.757-0.081,1.365-0.345,1.827-0.792
		c0.459-0.447,0.906-1.225,1.34-2.335l7.916-20.744l2.557-0.69h0.325c2.274,8.417,4.426,15.67,6.455,21.758
		c0.325,1.002,0.757,1.705,1.299,2.111c0.542,0.406,1.407,0.664,2.599,0.771l0.08,0.163l-0.284,1.665
		c-1.948-0.082-3.62-0.122-5.013-0.122C100.646,559.4,98.867,559.535,96.703,559.805z M94.308,548.317
		c0.974,0,2.233-0.066,3.776-0.203l-3.207-10.636h-0.284l-3.857,10.838H94.308z"/>
	<path d="M117.325,559.887c-1.137,0-2.233-0.115-3.289-0.345c-1.055-0.229-2.084-0.574-3.085-1.035l-0.204-0.405
		c0.325-2.084,0.488-4.438,0.488-7.064l1.827-0.203c0,2.923,0.33,4.831,0.994,5.724c0.663,0.892,1.969,1.34,3.917,1.34
		c1.949,0,3.436-0.399,4.467-1.198c1.027-0.798,1.542-1.888,1.542-3.268c0-1.191-0.609-2.246-1.827-3.166
		c-0.894-0.676-1.787-1.244-2.679-1.704c-0.894-0.46-1.36-0.697-1.401-0.711c-0.041-0.013-0.082-0.033-0.122-0.061
		c-0.039-0.026-0.331-0.182-0.872-0.467c-0.542-0.284-1.117-0.609-1.726-0.974c-0.609-0.366-1.278-0.859-2.009-1.482
		c-1.435-1.19-2.152-2.61-2.152-4.262c0-2.138,0.899-3.93,2.7-5.379c1.799-1.447,4.012-2.171,6.637-2.171
		c2.056,0,4.126,0.338,6.21,1.015l0.122,0.244c-0.433,2.084-0.73,4.371-0.894,6.86l-1.583,0.163l-0.244-0.204
		c0.082-0.569,0.122-1.271,0.122-2.111c0-1.434-0.352-2.422-1.055-2.964c-0.705-0.54-1.881-0.812-3.532-0.812
		c-1.651,0-2.957,0.373-3.917,1.117c-0.961,0.745-1.442,1.665-1.442,2.761c0,1.096,0.466,2.043,1.401,2.841
		c0.933,0.799,2.523,1.781,4.77,2.943c2.246,1.164,3.802,2.125,4.668,2.882c1.462,1.245,2.192,2.64,2.192,4.182
		c0,2.328-0.933,4.228-2.8,5.703C122.684,559.15,120.275,559.887,117.325,559.887z"/>
	<path d="M165.998,554.853c0,1.11,0.121,1.847,0.366,2.213c0.243,0.364,0.716,0.548,1.42,0.548l1.827-0.122l0.082,0.163
		l-0.366,1.867c-2.137-0.082-3.802-0.122-4.993-0.122l-4.668,0.082l0.365-1.827c1.272-0.027,2.104-0.311,2.497-0.853
		c0.391-0.542,0.589-1.705,0.589-3.491v-6.13c-2.869-0.027-4.927-0.041-6.171-0.041l-6.739,0.446l-0.162,7.267
		c0,1.11,0.121,1.847,0.364,2.213c0.244,0.364,0.718,0.548,1.421,0.548l1.827-0.122l0.081,0.163l-0.366,1.867
		c0-0.082-0.873-0.122-2.618-0.122c-1.745,0-3.344,0.054-4.79,0.162c-1.448,0.108-2.186,0.217-2.213,0.325l0.244-1.867
		c1.245-0.244,2.084-0.602,2.518-1.076c0.432-0.473,0.649-1.279,0.649-2.415l0.041-17.05c0-0.866-0.101-1.448-0.305-1.745
		c-0.203-0.298-0.601-0.447-1.197-0.447l-1.38,0.082l-0.081-0.162l0.284-1.787c1.976,0.081,3.342,0.122,4.101,0.122
		c1.109,0,2.692-0.122,4.749-0.366l-0.162,1.827c-1.164,0.19-1.888,0.482-2.172,0.873c-0.284,0.393-0.454,1.319-0.507,2.781
		l-0.243,6.576l6.819,0.041c1.732,0,3.735-0.135,6.009-0.407l0.041-7.388c0-0.866-0.102-1.448-0.305-1.745
		c-0.204-0.298-0.603-0.447-1.198-0.447l-1.381,0.082l-0.08-0.162l0.284-1.787c0,0.081,0.812,0.122,2.435,0.122
		c1.894,0,4.033-0.122,6.414-0.366l-0.162,1.827c-1.002,0.137-1.671,0.359-2.009,0.671c-0.339,0.311-0.535,0.859-0.589,1.644
		C166.187,545.219,165.998,551.065,165.998,554.853z"/>
	<path d="M182.277,554.853c0,1.11,0.121,1.847,0.364,2.213c0.244,0.364,0.718,0.548,1.421,0.548l2.152-0.122l0.081,0.163
		l-0.366,1.867c-2.274-0.082-3.884-0.122-4.831-0.122c-1.57,0-3.303,0.162-5.197,0.487l0.245-1.867
		c1.271-0.244,2.131-0.602,2.577-1.076c0.446-0.473,0.669-1.279,0.669-2.415l0.041-17.05c0-0.866-0.101-1.448-0.305-1.745
		c-0.203-0.298-0.602-0.447-1.197-0.447l-1.705,0.082l-0.08-0.162l0.284-1.787c2.111,0.081,3.586,0.122,4.424,0.122
		c1.137,0,2.827-0.122,5.075-0.366l-0.162,1.827c-1.137,0.137-1.895,0.359-2.274,0.671c-0.379,0.311-0.595,0.859-0.649,1.644
		C182.465,545.165,182.277,551.01,182.277,554.853z"/>
	<path d="M212.946,549.759c-0.177,0.879-0.264,2.213-0.264,3.998c0,1.786,0.094,3.086,0.284,3.898l-0.244,0.364
		c-1.165,0.487-2.633,0.92-4.405,1.299c-1.773,0.379-3.417,0.568-4.931,0.568c-3.628,0-6.51-1.129-8.647-3.389
		c-2.139-2.26-3.207-5.412-3.207-9.459c0-4.046,1.313-7.388,3.937-10.027c2.624-2.638,6.062-3.958,10.312-3.958
		c2.003,0,4.627,0.324,7.875,0.974l0.163,0.243c-0.542,2.029-0.894,4.289-1.057,6.78l-1.907,0.162
		c0.08-0.73,0.121-1.461,0.121-2.192c0-1.244-0.481-2.152-1.44-2.72c-0.961-0.567-2.525-0.852-4.689-0.852
		c-3.085,0-5.488,0.927-7.206,2.78c-1.72,1.855-2.577,4.514-2.577,7.977c0,3.465,0.845,6.272,2.537,8.424
		c1.691,2.152,3.931,3.227,6.719,3.227c0.974,0,1.921-0.129,2.841-0.386c0.92-0.256,1.828-0.642,2.72-1.156v-4.953
		c0-0.919-0.141-1.516-0.426-1.786c-0.284-0.27-0.887-0.406-1.806-0.406h-2.802l-0.082-0.162l0.366-2.031
		c1.841,0.11,3.559,0.163,5.156,0.163l3.491-0.203l0.162,0.892C213.453,548.236,213.122,548.879,212.946,549.759z"/>
	<path d="M243.21,554.853c0,1.11,0.121,1.847,0.366,2.213c0.244,0.364,0.716,0.548,1.42,0.548l1.827-0.122l0.082,0.163l-0.366,1.867
		c-2.138-0.082-3.802-0.122-4.993-0.122l-4.668,0.082l0.364-1.827c1.272-0.027,2.105-0.311,2.497-0.853
		c0.391-0.542,0.589-1.705,0.589-3.491v-6.13c-2.869-0.027-4.927-0.041-6.171-0.041l-6.739,0.446l-0.162,7.267
		c0,1.11,0.121,1.847,0.365,2.213c0.243,0.364,0.718,0.548,1.421,0.548l1.827-0.122l0.082,0.163l-0.366,1.867
		c0-0.082-0.873-0.122-2.618-0.122s-3.344,0.054-4.79,0.162c-1.448,0.108-2.186,0.217-2.213,0.325l0.243-1.867
		c1.245-0.244,2.084-0.602,2.518-1.076c0.432-0.473,0.649-1.279,0.649-2.415l0.041-17.05c0-0.866-0.101-1.448-0.305-1.745
		c-0.203-0.298-0.602-0.447-1.197-0.447l-1.38,0.082l-0.082-0.162l0.284-1.787c1.976,0.081,3.342,0.122,4.101,0.122
		c1.109,0,2.692-0.122,4.749-0.366l-0.162,1.827c-1.164,0.19-1.888,0.482-2.172,0.873c-0.284,0.393-0.454,1.319-0.507,2.781
		l-0.243,6.576l6.819,0.041c1.732,0,3.735-0.135,6.009-0.407l0.041-7.388c0-0.866-0.102-1.448-0.305-1.745
		c-0.204-0.298-0.603-0.447-1.198-0.447l-1.38,0.082l-0.08-0.162l0.284-1.787c0,0.081,0.812,0.122,2.435,0.122
		c1.894,0,4.033-0.122,6.414-0.366l-0.162,1.827c-1.002,0.137-1.671,0.359-2.009,0.671c-0.339,0.311-0.535,0.859-0.589,1.644
		C243.399,545.219,243.21,551.065,243.21,554.853z"/>
	<path d="M274.021,559.805l-0.122-0.283l0.163-1.584c1.38-0.107,2.328-0.27,2.841-0.487c0.514-0.215,0.771-0.581,0.771-1.096
		c0-0.514-0.121-1.15-0.364-1.907l-1.34-4.426c-0.65-0.027-1.841-0.041-3.573-0.041s-3.424,0.108-5.074,0.325l-1.502,4.222
		c-0.244,0.73-0.366,1.259-0.366,1.583c0,1.11,0.812,1.665,2.436,1.665h2.314l0.081,0.162l-0.243,1.746
		c-1.976-0.19-3.857-0.284-5.643-0.284l-4.465,0.122l0.325-1.908c0.757-0.081,1.365-0.345,1.827-0.792
		c0.459-0.447,0.906-1.225,1.34-2.335l7.916-20.744l2.557-0.69h0.325c2.274,8.417,4.426,15.67,6.455,21.758
		c0.325,1.002,0.757,1.705,1.299,2.111c0.542,0.406,1.407,0.664,2.599,0.771l0.08,0.163l-0.284,1.665
		c-1.948-0.082-3.62-0.122-5.013-0.122C277.965,559.4,276.186,559.535,274.021,559.805z M271.626,548.317
		c0.974,0,2.233-0.066,3.776-0.203l-3.207-10.636h-0.284l-3.857,10.838H271.626z"/>
	<path d="M294.644,559.887c-1.137,0-2.233-0.115-3.289-0.345c-1.055-0.229-2.084-0.574-3.085-1.035l-0.204-0.405
		c0.325-2.084,0.488-4.438,0.488-7.064l1.827-0.203c0,2.923,0.33,4.831,0.994,5.724c0.663,0.892,1.969,1.34,3.917,1.34
		c1.949,0,3.436-0.399,4.467-1.198c1.027-0.798,1.542-1.888,1.542-3.268c0-1.191-0.609-2.246-1.827-3.166
		c-0.894-0.676-1.787-1.244-2.679-1.704c-0.894-0.46-1.36-0.697-1.401-0.711c-0.041-0.013-0.082-0.033-0.122-0.061
		c-0.039-0.026-0.331-0.182-0.872-0.467c-0.542-0.284-1.117-0.609-1.726-0.974c-0.609-0.366-1.278-0.859-2.009-1.482
		c-1.435-1.19-2.152-2.61-2.152-4.262c0-2.138,0.899-3.93,2.7-5.379c1.799-1.447,4.011-2.171,6.637-2.171
		c2.056,0,4.126,0.338,6.21,1.015l0.122,0.244c-0.433,2.084-0.73,4.371-0.894,6.86l-1.583,0.163l-0.244-0.204
		c0.081-0.569,0.122-1.271,0.122-2.111c0-1.434-0.352-2.422-1.055-2.964c-0.705-0.54-1.881-0.812-3.532-0.812
		c-1.651,0-2.957,0.373-3.917,1.117c-0.961,0.745-1.442,1.665-1.442,2.761c0,1.096,0.466,2.043,1.401,2.841
		c0.933,0.799,2.523,1.781,4.77,2.943c2.246,1.164,3.802,2.125,4.668,2.882c1.462,1.245,2.192,2.64,2.192,4.182
		c0,2.328-0.933,4.228-2.8,5.703C300.003,559.15,297.594,559.887,294.644,559.887z"/>
	<path d="M343.317,554.853c0,1.11,0.121,1.847,0.366,2.213c0.244,0.364,0.717,0.548,1.42,0.548l1.827-0.122l0.081,0.163
		l-0.366,1.867c-2.137-0.082-3.802-0.122-4.993-0.122l-4.668,0.082l0.365-1.827c1.272-0.027,2.104-0.311,2.497-0.853
		c0.391-0.542,0.589-1.705,0.589-3.491v-6.13c-2.869-0.027-4.927-0.041-6.171-0.041l-6.739,0.446l-0.162,7.267
		c0,1.11,0.121,1.847,0.364,2.213c0.244,0.364,0.718,0.548,1.421,0.548l1.827-0.122l0.081,0.163l-0.366,1.867
		c0-0.082-0.873-0.122-2.618-0.122c-1.745,0-3.344,0.054-4.79,0.162c-1.448,0.108-2.186,0.217-2.213,0.325l0.244-1.867
		c1.245-0.244,2.084-0.602,2.518-1.076c0.432-0.473,0.649-1.279,0.649-2.415l0.041-17.05c0-0.866-0.101-1.448-0.305-1.745
		c-0.203-0.298-0.602-0.447-1.197-0.447l-1.38,0.082l-0.081-0.162l0.284-1.787c1.976,0.081,3.342,0.122,4.101,0.122
		c1.109,0,2.692-0.122,4.75-0.366l-0.162,1.827c-1.164,0.19-1.888,0.482-2.172,0.873c-0.284,0.393-0.454,1.319-0.507,2.781
		l-0.244,6.576l6.819,0.041c1.732,0,3.735-0.135,6.009-0.407l0.041-7.388c0-0.866-0.102-1.448-0.305-1.745
		c-0.204-0.298-0.603-0.447-1.198-0.447l-1.38,0.082l-0.08-0.162l0.284-1.787c0,0.081,0.812,0.122,2.435,0.122
		c1.894,0,4.033-0.122,6.414-0.366l-0.162,1.827c-1.002,0.137-1.671,0.359-2.009,0.671c-0.339,0.311-0.535,0.859-0.589,1.644
		C343.505,545.219,343.317,551.065,343.317,554.853z"/>
	<path d="M363.817,559.887c-3.329,0-6.035-1.162-8.119-3.491c-2.084-2.328-3.126-5.419-3.126-9.276c0-3.857,1.285-7.165,3.856-9.926
		c2.571-2.761,5.643-4.14,9.216-4.14c3.573,0,6.427,1.164,8.566,3.491c2.137,2.328,3.207,5.419,3.207,9.276
		c0,3.856-1.307,7.165-3.917,9.926C370.886,558.506,367.659,559.887,363.817,559.887z M356.063,546.288
		c0,3.303,0.839,6.048,2.516,8.241c1.679,2.192,3.823,3.289,6.434,3.289c2.612,0,4.73-0.98,6.354-2.943
		c1.624-1.961,2.435-4.587,2.435-7.876c0-3.287-0.859-6.028-2.577-8.22c-1.718-2.192-3.89-3.289-6.516-3.289
		c-2.624,0-4.722,0.975-6.292,2.924C356.847,540.361,356.063,542.986,356.063,546.288z"/>
	<path d="M403.236,553.514v-16.44c0-1.164-0.447-1.746-1.339-1.746l-1.544,0.041l-0.08-0.162l0.364-1.828
		c1.651,0.108,2.843,0.163,3.573,0.163c1.19,0,2.625-0.109,4.303-0.325l-0.203,1.868c-0.948,0.135-1.638,0.4-2.071,0.792
		c-0.433,0.393-0.663,0.982-0.689,1.766l-0.569,22.815l-1.178,0.569c-4.898-7.605-9.932-15.061-15.101-22.368h-0.203l-0.204,17.334
		c0,0.595,0.096,1.014,0.284,1.258c0.19,0.244,0.514,0.366,0.975,0.366l2.07-0.041l0.081,0.162l-0.366,1.827
		c-1.705-0.108-2.964-0.162-3.776-0.162c-1.299,0-2.734,0.108-4.303,0.325l0.204-1.867c1.649-0.19,2.489-1.041,2.516-2.558
		l0.528-17.739c0-0.839-0.25-1.434-0.751-1.787c-0.501-0.35-1.428-0.594-2.781-0.73l-0.121-0.203l0.325-1.502
		c1.569,0.135,2.733,0.203,3.491,0.203l2.719-0.163c4.005,6.225,8.552,12.936,13.64,20.136H403.236z"/>
	<path d="M424.344,559.887c-3.329,0-6.035-1.162-8.12-3.491c-2.084-2.328-3.125-5.419-3.125-9.276c0-3.857,1.285-7.165,3.856-9.926
		c2.571-2.761,5.643-4.14,9.216-4.14c3.573,0,6.427,1.164,8.566,3.491c2.138,2.328,3.207,5.419,3.207,9.276
		c0,3.856-1.306,7.165-3.917,9.926C431.413,558.506,428.186,559.887,424.344,559.887z M416.59,546.288
		c0,3.303,0.839,6.048,2.516,8.241c1.679,2.192,3.823,3.289,6.435,3.289c2.612,0,4.73-0.98,6.354-2.943
		c1.624-1.961,2.435-4.587,2.435-7.876c0-3.287-0.859-6.028-2.577-8.22c-1.718-2.192-3.89-3.289-6.516-3.289
		c-2.625,0-4.723,0.975-6.292,2.924C417.374,540.361,416.59,542.986,416.59,546.288z"/>
	<path d="M450.406,555.422c1.162,1.435,2.848,2.152,5.054,2.152c2.205,0,3.89-0.589,5.054-1.767
		c1.163-1.176,1.745-2.874,1.745-5.093l-0.244-13.235c-0.055-0.947-0.169-1.549-0.345-1.806c-0.176-0.258-0.562-0.386-1.156-0.386
		l-1.746,0.082l-0.08-0.162l0.283-1.787c2.031,0.081,3.438,0.122,4.223,0.122c1.109,0,2.543-0.122,4.303-0.366l-0.163,1.827
		c-1.19,0.163-1.955,0.38-2.293,0.65c-0.339,0.27-0.507,0.826-0.507,1.665v13.64c0,2.841-0.881,5.04-2.638,6.596
		c-1.76,1.556-4.148,2.334-7.166,2.334c-3.017,0-5.297-0.777-6.84-2.334c-1.542-1.556-2.313-3.768-2.313-6.637v-13.437
		c0-0.866-0.102-1.448-0.305-1.745c-0.204-0.298-0.603-0.447-1.198-0.447l-1.38,0.082l-0.08-0.162l0.284-1.787
		c2.029,0.081,3.436,0.122,4.222,0.122c1.082,0,2.625-0.122,4.627-0.366l-0.162,1.827c-1.002,0.137-1.671,0.359-2.009,0.671
		c-0.339,0.311-0.535,0.859-0.589,1.644l-0.325,11.935C448.659,551.931,449.241,553.988,450.406,555.422z"/>
	<path d="M489.052,535.083c1.462,1.137,2.192,2.612,2.192,4.424c0,3.546-1.988,6.226-5.967,8.038l4.465,7.064
		c0.784,1.299,1.549,2.199,2.293,2.7c0.745,0.501,1.658,0.751,2.741,0.751l0.162,0.162l-0.244,1.38l-3.451,0.447
		c-0.677,0-1.401-0.345-2.172-1.036c-0.771-0.69-1.481-1.629-2.131-2.821l-4.343-7.876h-3.37l-0.121,6.05
		c0,1.461,0.162,2.381,0.487,2.761c0.325,0.379,1.137,0.567,2.436,0.567l0.08,0.163l-0.365,1.704c0-0.027-1.435-0.068-4.303-0.121
		l-4.669,0.121l0.366-1.827c1.272-0.135,2.104-0.412,2.497-0.832c0.391-0.419,0.588-1.211,0.588-2.375l0.041-17.05
		c0-0.866-0.1-1.448-0.305-1.745c-0.203-0.298-0.601-0.447-1.197-0.447l-1.38,0.082l-0.081-0.162l0.284-1.787
		c1.976,0.081,3.477,0.122,4.506,0.122l4.994-0.163C485.602,533.378,487.591,533.946,489.052,535.083z M487.876,540.483
		c0-3.573-2.477-5.359-7.429-5.359c-0.271,0-0.454,0.061-0.548,0.182c-0.096,0.122-0.157,0.372-0.184,0.751
		c-0.244,4.141-0.379,7.469-0.405,9.987l4.181,0.405c1.001-0.244,1.962-0.837,2.882-1.786c0.38-0.405,0.724-0.98,1.036-1.725
		C487.719,542.195,487.876,541.375,487.876,540.483z"/>
</g>
<g id="Layer_4">
	<path d="M134.493,113.498l-0.447-1.046l0.597-5.831c5.083-0.397,8.57-0.996,10.466-1.795c1.891-0.796,2.839-2.142,2.839-4.036
		c0-1.893-0.447-4.234-1.345-7.027l-4.933-16.296c-2.391-0.098-6.779-0.15-13.155-0.15c-6.38,0-12.61,0.399-18.689,1.196
		l-5.532,15.549c-0.896,2.691-1.345,4.635-1.345,5.831c0,4.088,2.99,6.129,8.971,6.129h8.52l0.299,0.599l-0.897,6.428
		c-7.276-0.699-14.203-1.046-20.781-1.046l-16.445,0.449l1.196-7.027c2.789-0.299,5.033-1.271,6.727-2.916
		c1.695-1.643,3.338-4.508,4.935-8.596l29.151-76.395l9.42-2.541h1.196c8.372,30.998,16.296,57.708,23.77,80.132
		c1.198,3.689,2.791,6.28,4.785,7.775c1.992,1.495,5.181,2.443,9.568,2.84l0.299,0.597l-1.046,6.13
		c-7.177-0.299-13.333-0.449-18.465-0.449C149.018,112.002,142.466,112.5,134.493,113.498z M125.674,71.189
		c3.587,0,8.222-0.248,13.904-0.748l-11.812-39.169h-1.046l-14.203,39.917H125.674z"/>
	<path d="M237.051,41.81c4.583,3.341,6.877,7.602,6.877,12.784c0,10.265-5.883,18.041-17.641,23.323l12.706,19.136
		c2.394,3.588,4.685,6.129,6.877,7.624c2.192,1.495,4.833,2.242,7.925,2.242l0.597,0.748l-0.747,4.635l-11.512,1.196
		c-4.685,0-9.021-3.637-13.006-10.914l-12.559-21.977h-9.718l-0.299,15.996c0,4.088,0.472,6.653,1.419,7.7
		c0.946,1.046,3.414,1.621,7.402,1.719l0.298,0.449l-1.196,5.681c0-0.201-4.585-0.299-13.754-0.299l-14.95,0.449l1.046-6.13
		c3.687-0.497,6.13-1.346,7.326-2.541s1.795-3.44,1.795-6.727l0.15-47.693c0-2.392-0.299-4.011-0.898-4.859
		c-0.597-0.845-1.745-1.27-3.438-1.27l-4.186,0.15l-0.449-0.599l0.896-5.681c6.28,0.201,10.964,0.299,14.054,0.299l15.998-0.449
		C226.138,36.802,232.466,38.472,237.051,41.81z M219.261,74.028c8.372-3.386,12.558-8.82,12.558-16.296
		c0-9.666-7.128-14.501-21.38-14.501c-1.397,0-2.092,0.896-2.092,2.691c-0.801,12.161-1.196,21.131-1.196,26.91L219.261,74.028z"/>
	<path d="M322.116,41.81c4.583,3.341,6.877,7.602,6.877,12.784c0,10.265-5.883,18.041-17.641,23.323l12.707,19.136
		c2.393,3.588,4.685,6.129,6.877,7.624c2.192,1.495,4.833,2.242,7.925,2.242l0.597,0.748l-0.746,4.635l-11.512,1.196
		c-4.685,0-9.021-3.637-13.006-10.914l-12.558-21.977h-9.718l-0.299,15.996c0,4.088,0.471,6.653,1.419,7.7
		c0.946,1.046,3.413,1.621,7.402,1.719l0.298,0.449l-1.196,5.681c0-0.201-4.585-0.299-13.754-0.299l-14.95,0.449l1.046-6.13
		c3.687-0.497,6.13-1.346,7.326-2.541c1.196-1.196,1.795-3.44,1.795-6.727l0.15-47.693c0-2.392-0.299-4.011-0.898-4.859
		c-0.597-0.845-1.745-1.27-3.438-1.27l-4.186,0.15l-0.449-0.599l0.896-5.681c6.28,0.201,10.964,0.299,14.054,0.299l15.998-0.449
		C311.202,36.802,317.531,38.472,322.116,41.81z M304.325,74.028c8.372-3.386,12.559-8.82,12.559-16.296
		c0-9.666-7.128-14.501-21.38-14.501c-1.397,0-2.092,0.896-2.092,2.691c-0.8,12.161-1.196,21.131-1.196,26.91L304.325,74.028z"/>
	<path d="M392.979,36.953l14.353,0.746l11.66-0.449l0.449,0.898l-0.749,5.082c-3.788,0.799-6.502,2.07-8.147,3.813
		c-1.645,1.745-4.212,5.507-7.7,11.287l-12.109,20.631c-1.098,1.894-1.745,3.988-1.944,6.28c-0.399,3.39-0.597,7.175-0.597,11.361
		c0,4.186,0.373,6.829,1.12,7.925c0.749,1.098,2.218,1.643,4.412,1.643l5.979-0.298l0.299,0.447l-1.196,6.28
		c-7.378-0.299-12.509-0.449-15.399-0.449c-5.284,0-10.816,0.449-16.595,1.346l0.898-6.13c4.384-0.695,7.125-1.793,8.222-3.288
		c1.094-1.495,1.643-4.434,1.643-8.821v-4.634c0-4.186-1.196-8.47-3.587-12.858c-9.269-17.739-14.353-27.307-15.249-28.704
		c-2.194-3.29-5.883-5.183-11.063-5.681l-0.299-0.599l0.898-5.382c5.681,0.201,10.365,0.299,14.052,0.299l17.941-0.896l0.449,0.896
		l-0.449,4.935c-3.39,0.2-5.706,0.573-6.951,1.12c-1.248,0.549-1.868,1.571-1.868,3.066c0,1.493,4.284,10.814,12.856,27.956h0.748
		l12.858-23.023c1.294-2.292,1.943-4.186,1.943-5.681c0-1.893-2.443-2.99-7.326-3.29l-0.298-0.447L392.979,36.953z"/>
	<path d="M489.706,40.84h-4.486l-0.299-0.599l1.048-5.831c5.48,0.299,9.716,0.449,12.706,0.449l12.708-0.896l-0.599,6.128
		c-5.382,0.699-8.123,3.192-8.223,7.476l-1.793,64.286l-5.831,1.645c-15.349-22.324-29.75-42.407-43.207-60.249h-0.746
		l-0.449,45.299c0,1.894,0.299,3.19,0.898,3.887c0.597,0.699,1.593,1.046,2.989,1.046l5.981-0.15l0.449,0.449l-1.196,5.981
		c-5.583-0.299-10.117-0.449-13.604-0.449l-12.409,0.897l0.747-6.129c4.883-0.599,7.374-3.04,7.476-7.326l1.643-49.336
		c0-2.489-0.723-4.21-2.168-5.158c-1.445-0.946-4.21-1.667-8.297-2.168l-0.599-0.746l1.048-5.083
		c4.881,0.399,8.67,0.597,11.361,0.597l9.121-0.449c12.058,17.743,25.117,35.932,39.169,54.57h0.748l-0.149-43.207
		C493.743,42.485,492.397,40.84,489.706,40.84z"/>
</g>
</svg>
