<?xml version="1.0" encoding="utf-8"?>
<!-- Generator: Adobe Illustrator 21.0.0, SVG Export Plug-In . SVG Version: 6.00 Build 0)  -->
<svg version="1.1" xmlns="http://www.w3.org/2000/svg" xmlns:xlink="http://www.w3.org/1999/xlink" x="0px" y="0px"
	 viewBox="0 0 576 576" enable-background="new 0 0 576 576" xml:space="preserve">
<g id="Layer_2">
	<path d="M106.873,92.272c-7.134,3.32-16.01,4.978-26.627,4.978c-10.62,0-19.287-3.463-26.006-10.391
		c-6.719-6.925-10.079-16.487-10.079-28.681c0-12.195,4.107-22.439,12.318-30.735C64.691,19.149,75.062,15,87.587,15
		c6.138,0,13.355,0.995,21.652,2.986l0.498,0.746c-1.578,6.222-2.615,13.149-3.11,20.78l-5.975,0.498
		c0.249-2.24,0.372-4.272,0.372-6.098c0-7.714-6.095-11.572-18.29-11.572c-8.38,0-15.038,2.924-19.973,8.773
		c-4.935,5.848-7.402,13.98-7.402,24.389c0,10.411,2.59,18.934,7.777,25.571c5.184,6.637,12.088,9.954,20.717,9.954
		c5.639,0,10.183-1.597,13.626-4.79c3.44-3.193,5.95-8.151,7.528-14.87l5.972-0.497c-1.661,7.55-2.781,14.309-3.36,20.282
		L106.873,92.272z"/>
	<path d="M131.015,34.038l12.069,0.249l12.069-0.871l-0.498,5.226c-3.482,0.417-5.516,1.329-6.094,2.738
		c-0.332,0.664-0.769,4.541-1.308,11.634c-0.542,7.093-0.809,17.401-0.809,30.922c0,2.986,0.477,4.895,1.431,5.724
		c0.954,0.829,3.713,1.244,8.276,1.244c4.56,0,7.756-0.829,9.581-2.489c1.824-1.658,3.276-5.556,4.356-11.697l5.473-0.621
		l0.375,0.746c-1.163,6.222-2.117,12.735-2.864,19.536l-0.621,0.746c-11.697-0.582-19.828-0.871-24.388-0.871
		c-6.889,0-12.9,0.331-18.044,0.995l0.748-5.226c2.652-0.415,4.458-1.183,5.412-2.303s1.431-3.089,1.431-5.91l0.126-39.446
		c0-2.072-0.249-3.463-0.748-4.169c-0.498-0.703-1.492-1.057-2.987-1.057l-3.36,0.125l-0.372-0.498L131.015,34.038z"/>
	<path d="M207.039,61.412l10.205,0.125l12.319-0.995l0.498,0.623l-1.495,6.47c-5.722-0.164-10.057-0.249-13.002-0.249
		c-2.947,0-5.87,0.208-8.774,0.623c-0.249,6.305-0.372,11.385-0.372,15.243c0,3.856,0.394,6.098,1.181,6.719
		c0.788,0.622,3.403,0.934,7.839,0.934s7.796-0.269,10.079-0.809c2.283-0.538,3.919-1.555,4.916-3.049
		c0.997-1.494,1.785-4.106,2.363-7.839l5.476-0.498l0.498,0.623c-1.246,5.475-2.16,11.117-2.738,16.922l-0.748,0.622
		c-13.771-0.416-23.019-0.622-27.747-0.622c-6.968,0-13.109,0.331-18.416,0.995l0.621-5.226c3.07-0.33,5.144-1.078,6.224-2.24
		c1.077-1.161,1.615-3.152,1.615-5.973l0.126-39.446c0-2.072-0.249-3.463-0.748-4.169c-0.498-0.703-1.492-1.057-2.987-1.057
		l-3.36,0.125l-0.246-0.498l0.744-4.729c5.888,0.168,13.377,0.249,22.462,0.249c9.082,0,16.942-0.374,23.579-1.12l0.372,0.623
		c-1.16,5.144-1.947,10.7-2.363,16.673l-5.972,0.498c0.163-1.824,0.246-3.194,0.246-4.107c0-3.068-0.788-4.956-2.363-5.661
		c-1.578-0.705-4.833-1.059-9.768-1.059c-4.938,0-7.738,0.186-8.399,0.56c-0.664,0.374-1.04,1.391-1.12,3.049L207.039,61.412z"/>
	<path d="M289.785,65.769l13.192,0.248l9.208-0.497l0.496,2.737c-1.326,0.995-2.218,2.532-2.674,4.604
		c-0.458,2.075-0.686,5.31-0.686,9.706c0,4.398,0.206,7.55,0.624,9.457l-0.624,0.995c-6.802,2.821-14.724,4.23-23.766,4.23
		c-9.042,0-16.281-2.717-21.714-8.15c-5.433-5.433-8.15-13.023-8.15-22.771c0-9.748,3.277-17.731,9.829-23.954
		c6.553-6.222,15.263-9.333,26.132-9.333c5.556,0,12.195,0.789,19.908,2.364l0.498,0.746c-1.412,4.978-2.283,10.537-2.612,16.675
		l-6.098,0.497c0.166-1.741,0.249-3.484,0.249-5.226c0-2.903-1.12-4.996-3.36-6.284c-2.24-1.284-5.891-1.929-10.949-1.929
		c-7.387,0-13.048,2.053-16.985,6.159c-3.941,4.107-5.91,10.203-5.91,18.291s1.947,14.56,5.848,19.411
		c3.898,4.853,9.165,7.279,15.801,7.279c2.323,0,4.562-0.268,6.719-0.808c2.156-0.538,4.23-1.347,6.221-2.427V76.843
		c0-2.072-0.354-3.441-1.055-4.107c-0.708-0.663-2.138-0.995-4.295-0.995h-6.593l-0.249-0.497L289.785,65.769z"/>
	<path d="M388.086,96.628c-5.061-0.168-8.833-0.249-11.321-0.249c-3.901,0-9.128,0.289-15.678,0.871l-0.375-0.622l0.375-4.479
		c3.483-0.249,5.827-0.623,7.03-1.12c1.2-0.498,1.803-1.369,1.803-2.614c0-1.244-0.289-2.614-0.871-4.106l-2.987-9.582
		c-1.658-0.082-4.396-0.125-8.211-0.125c-3.815,0-8.088,0.249-12.817,0.746c-2.904,7.716-4.353,11.946-4.353,12.692
		c0,2.489,1.947,3.733,5.848,3.733h5.35l0.372,0.498L351.503,97c-5.061-0.416-9.829-0.622-14.309-0.622l-11.448,0.249l0.748-5.102
		c1.824-0.249,3.277-0.891,4.353-1.929c1.077-1.035,2.156-2.8,3.236-5.287l19.536-49.4l8.836-1.618l0.87,0.125
		c5.805,20.905,11.073,38.035,15.801,51.39c0.83,2.407,1.886,4.087,3.175,5.039c1.283,0.955,3.338,1.555,6.159,1.804l0.249,0.498
		L388.086,96.628z M355.487,69.501c2.901,0,5.928-0.165,9.082-0.497l-7.59-24.14h-0.871l-9.085,24.637H355.487z"/>
	<path d="M447.937,36.776h-3.732l-0.249-0.498l0.871-4.853c4.562,0.249,8.088,0.374,10.577,0.374l10.577-0.746l-0.498,5.101
		c-4.479,0.582-6.762,2.657-6.842,6.222l-1.495,53.505l-4.852,1.369c-12.777-18.581-24.763-35.295-35.962-50.146h-0.621
		l-0.372,37.703c0,1.577,0.249,2.655,0.744,3.235c0.498,0.582,1.326,0.871,2.489,0.871l4.978-0.125l0.372,0.374l-0.994,4.978
		c-4.649-0.249-8.421-0.374-11.325-0.374l-10.328,0.746l0.625-5.101c4.061-0.498,6.138-2.53,6.221-6.098l1.369-41.062
		c0-2.072-0.603-3.504-1.806-4.293c-1.203-0.788-3.504-1.388-6.904-1.805l-0.498-0.621l0.871-4.23
		c4.064,0.332,7.217,0.497,9.457,0.497l7.59-0.374c10.036,14.767,20.905,29.907,32.602,45.419h0.622l-0.126-35.961
		C451.297,38.144,450.177,36.776,447.937,36.776z"/>
	<path d="M499.952,61.412l10.205,0.125l12.318-0.995l0.498,0.623l-1.495,6.47c-5.722-0.164-10.057-0.249-13.001-0.249
		c-2.947,0-5.87,0.208-8.774,0.623c-0.249,6.305-0.372,11.385-0.372,15.243c0,3.856,0.394,6.098,1.181,6.719
		c0.788,0.622,3.403,0.934,7.839,0.934s7.796-0.269,10.079-0.809c2.283-0.538,3.92-1.555,4.916-3.049
		c0.997-1.494,1.784-4.106,2.363-7.839l5.476-0.498l0.498,0.623c-1.246,5.475-2.16,11.117-2.738,16.922l-0.748,0.622
		c-13.771-0.416-23.018-0.622-27.747-0.622c-6.968,0-13.109,0.331-18.416,0.995l0.622-5.226c3.07-0.33,5.144-1.078,6.224-2.24
		c1.077-1.161,1.615-3.152,1.615-5.973l0.126-39.446c0-2.072-0.249-3.463-0.748-4.169c-0.498-0.703-1.492-1.057-2.987-1.057
		l-3.36,0.125l-0.246-0.498l0.744-4.729c5.889,0.168,13.377,0.249,22.462,0.249c9.082,0,16.943-0.374,23.579-1.12l0.372,0.623
		c-1.16,5.144-1.948,10.7-2.363,16.673l-5.971,0.498c0.163-1.824,0.246-3.194,0.246-4.107c0-3.068-0.788-4.956-2.363-5.661
		c-1.578-0.705-4.833-1.059-9.768-1.059c-4.938,0-7.738,0.186-8.399,0.56c-0.665,0.374-1.04,1.391-1.12,3.049L499.952,61.412z"/>
</g>
<g id="Layer_3">
	<path d="M61.292,567.78c-1.22,0-2.392-0.123-3.524-0.37c-1.135-0.246-2.237-0.615-3.311-1.11l-0.216-0.435
		c0.347-2.235,0.522-4.76,0.522-7.576l1.958-0.217c0,3.135,0.356,5.181,1.066,6.139c0.711,0.957,2.114,1.437,4.203,1.437
		c2.092,0,3.686-0.428,4.79-1.285c1.102-0.856,1.654-2.025,1.654-3.505c0-1.277-0.653-2.409-1.96-3.396
		c-0.957-0.725-1.914-1.334-2.873-1.828c-0.957-0.493-1.457-0.748-1.501-0.763c-0.044-0.014-0.087-0.036-0.131-0.066
		c-0.044-0.027-0.356-0.195-0.935-0.5c-0.582-0.305-1.197-0.653-1.851-1.044c-0.653-0.392-1.373-0.921-2.155-1.59
		c-1.539-1.277-2.308-2.8-2.308-4.572c0-2.293,0.965-4.215,2.896-5.769c1.93-1.552,4.304-2.328,7.117-2.328
		c2.207,0,4.427,0.362,6.663,1.088l0.131,0.261c-0.465,2.235-0.785,4.688-0.96,7.358l-1.698,0.175l-0.26-0.219
		c0.085-0.61,0.129-1.363,0.129-2.264c0-1.538-0.377-2.598-1.132-3.179c-0.755-0.58-2.018-0.871-3.787-0.871
		c-1.772,0-3.172,0.4-4.203,1.198c-1.031,0.799-1.545,1.785-1.545,2.961c0,1.176,0.5,2.191,1.501,3.047
		c1.003,0.857,2.707,1.91,5.116,3.157c2.409,1.248,4.08,2.279,5.009,3.091c1.567,1.336,2.352,2.831,2.352,4.486
		c0,2.496-1.003,4.535-3.005,6.117C67.039,566.99,64.455,567.78,61.292,567.78z"/>
	<path d="M76.313,541.439l-0.041-0.174l0.26-1.873c2.321,0.087,3.962,0.131,4.919,0.131c2.031,0,4.137-0.16,6.313-0.48l0.131,0.305
		l-0.172,1.698c-1.482,0.118-2.477,0.291-2.983,0.524c-0.509,0.232-0.763,0.624-0.763,1.176c0,1.132,1.785,7.895,5.356,20.289h0.26
		l6.141-16.72l-0.785-2.395c-0.29-0.841-0.741-1.451-1.351-1.828c-0.61-0.377-1.465-0.595-2.567-0.653l-0.087-0.174l0.304-1.873
		c2.324,0.087,3.921,0.131,4.79,0.131c1.857,0,4.006-0.16,6.445-0.48l0.131,0.305l-0.175,1.698
		c-1.509,0.118-2.518,0.291-3.027,0.524s-0.763,0.61-0.763,1.132c0,0.957,1.802,7.735,5.4,20.333h0.263
		c4.7-12.685,7.051-19.433,7.051-20.247c0-1.016-0.987-1.523-2.961-1.523h-2.176l-0.088-0.175l0.306-1.871
		c2.177,0.204,4.194,0.305,6.051,0.305l4.616-0.131l-0.304,2.046c-0.872,0.059-1.482,0.211-1.829,0.457
		c-0.347,0.248-0.667,0.792-0.957,1.634l-9.143,23.512l-2.701,0.957c-1.654-5.95-3.467-12.103-5.441-18.46h-0.262l-6.182,17.503
		l-2.786,0.957c-2.409-8.534-4.834-16.558-7.27-24.077C79.712,542.296,78.405,541.468,76.313,541.439z"/>
	<path d="M132.698,567.78c-3.571,0-6.475-1.247-8.709-3.745c-2.234-2.496-3.352-5.812-3.352-9.948c0-4.137,1.378-7.684,4.137-10.646
		c2.756-2.961,6.051-4.441,9.884-4.441c3.83,0,6.893,1.248,9.184,3.745c2.294,2.496,3.44,5.812,3.44,9.948
		c0,4.136-1.4,7.685-4.2,10.646C140.28,566.3,136.818,567.78,132.698,567.78z M124.381,553.195c0,3.542,0.9,6.487,2.701,8.838
		c1.799,2.351,4.099,3.527,6.901,3.527c2.8,0,5.072-1.051,6.814-3.157c1.742-2.104,2.611-4.92,2.611-8.447
		c0-3.526-0.921-6.465-2.764-8.816c-1.843-2.351-4.173-3.527-6.989-3.527c-2.816,0-5.064,1.046-6.748,3.136
		C125.223,546.838,124.381,549.654,124.381,553.195z"/>
	<path d="M170.706,541.178c1.567,1.219,2.351,2.801,2.351,4.745c0,3.803-2.133,6.677-6.401,8.621l4.79,7.576
		c0.842,1.393,1.663,2.358,2.461,2.896c0.796,0.537,1.777,0.805,2.936,0.805l0.175,0.174l-0.26,1.481l-3.702,0.48
		c-0.725,0-1.501-0.37-2.329-1.111c-0.826-0.74-1.589-1.747-2.286-3.025l-4.659-8.447h-3.612l-0.131,6.488
		c0,1.566,0.175,2.554,0.522,2.961c0.347,0.406,1.22,0.608,2.611,0.608l0.088,0.175l-0.391,1.828c0-0.029-1.539-0.073-4.615-0.13
		l-5.006,0.13l0.391-1.959c1.364-0.145,2.256-0.442,2.677-0.893c0.421-0.45,0.632-1.299,0.632-2.547l0.044-18.286
		c0-0.928-0.109-1.553-0.325-1.871c-0.219-0.32-0.648-0.48-1.285-0.48l-1.479,0.087l-0.087-0.174l0.303-1.916
		c2.119,0.087,3.729,0.131,4.834,0.131l5.354-0.175C167.007,539.349,169.14,539.958,170.706,541.178z M169.443,546.969
		c0-3.832-2.655-5.747-7.967-5.747c-0.29,0-0.487,0.065-0.588,0.195c-0.101,0.131-0.167,0.399-0.194,0.805
		c-0.263,4.442-0.407,8.011-0.438,10.711l4.487,0.435c1.072-0.261,2.103-0.898,3.09-1.915c0.407-0.435,0.776-1.051,1.11-1.85
		C169.276,548.805,169.443,547.926,169.443,546.969z"/>
	<path d="M203.317,560.945v-17.633c0-1.248-0.478-1.873-1.438-1.873l-1.654,0.044l-0.087-0.174l0.394-1.96
		c1.769,0.116,3.046,0.175,3.831,0.175c1.277,0,2.816-0.116,4.615-0.349l-0.219,2.003c-1.014,0.145-1.755,0.429-2.22,0.849
		c-0.465,0.421-0.711,1.053-0.741,1.893l-0.61,24.47l-1.26,0.61c-5.255-8.156-10.652-16.154-16.198-23.99h-0.219l-0.216,18.591
		c0,0.639,0.101,1.088,0.304,1.35c0.202,0.261,0.552,0.392,1.044,0.392l2.22-0.044l0.087,0.174l-0.391,1.959
		c-1.829-0.116-3.177-0.174-4.049-0.174c-1.392,0-2.931,0.116-4.615,0.349l0.219-2.003c1.769-0.204,2.669-1.117,2.698-2.744
		l0.566-19.026c0-0.9-0.268-1.538-0.807-1.917c-0.536-0.376-1.531-0.637-2.98-0.783l-0.131-0.217l0.347-1.61
		c1.684,0.145,2.931,0.217,3.746,0.217l2.917-0.175c4.295,6.677,9.171,13.875,14.628,21.596H203.317z"/>
	<path d="M232.836,560.205v-18.984c-1.364,0.059-2.343,0.101-2.939,0.13c-0.593,0.03-1.233,0.131-1.914,0.305
		c-0.683,0.175-1.118,0.335-1.307,0.48c-0.189,0.145-0.421,0.472-0.697,0.979c-0.276,0.508-0.449,0.98-0.522,1.415
		c-0.071,0.436-0.18,1.162-0.325,2.178l-2.048,0.174c0.35-2.554,0.566-5.065,0.653-7.533l0.391-0.347l3.615,0.479h13.499
		l3.699-0.479l0.391,0.347c0.06,1.888,0.276,4.341,0.653,7.359l-2.045,0.174c-0.175-1.016-0.306-1.755-0.391-2.22
		c-0.088-0.465-0.263-0.958-0.522-1.481c-0.262-0.522-0.495-0.856-0.697-1.001c-0.205-0.145-0.618-0.312-1.241-0.502
		c-0.626-0.189-1.228-0.297-1.808-0.327c-0.58-0.029-1.479-0.071-2.698-0.13c-0.465,4.644-0.697,11.698-0.697,21.16
		c0,1.075,0.188,1.836,0.566,2.286c0.377,0.45,1.014,0.675,1.917,0.675l2.392-0.131l0.131,0.175l-0.391,2.003
		c-2.904-0.088-5.036-0.131-6.401-0.131l-5.963,0.174l0.347-1.871c2.032-0.174,3.265-0.529,3.699-1.066
		C232.619,563.957,232.836,562.528,232.836,560.205z"/>
	<path d="M262.007,567.78c-3.571,0-6.475-1.247-8.708-3.745c-2.234-2.496-3.352-5.812-3.352-9.948c0-4.137,1.378-7.684,4.137-10.646
		c2.756-2.961,6.051-4.441,9.884-4.441c3.831,0,6.893,1.248,9.184,3.745c2.294,2.496,3.44,5.812,3.44,9.948
		c0,4.136-1.4,7.685-4.2,10.646C269.589,566.3,266.127,567.78,262.007,567.78z M253.689,553.195c0,3.542,0.9,6.487,2.702,8.838
		c1.799,2.351,4.098,3.527,6.901,3.527c2.8,0,5.072-1.051,6.814-3.157c1.742-2.104,2.611-4.92,2.611-8.447
		c0-3.526-0.921-6.465-2.764-8.816c-1.843-2.351-4.172-3.527-6.989-3.527c-2.816,0-5.064,1.046-6.748,3.136
		C254.531,546.838,253.689,549.654,253.689,553.195z"/>
	<path d="M311.119,567.651c-5.05-0.261-8.504-0.392-10.363-0.392c-2.816,0-5.209,0.145-7.183,0.435l0.26-2.003
		c1.132-0.174,1.909-0.514,2.33-1.023c0.421-0.507,0.631-1.386,0.631-2.634l0.044-18.286c0-0.928-0.109-1.553-0.325-1.871
		c-0.219-0.32-0.648-0.48-1.285-0.48l-1.479,0.087l-0.087-0.174l0.304-1.916c2.149,0.087,3.642,0.131,4.484,0.131
		c1.162,0,2.846-0.131,5.053-0.392l-0.175,1.959c-0.32,0.059-0.604,0.109-0.85,0.153c-0.246,0.044-0.465,0.108-0.654,0.195
		c-0.188,0.088-0.347,0.153-0.478,0.195c-0.129,0.044-0.246,0.16-0.347,0.349c-0.101,0.19-0.175,0.32-0.219,0.392
		c-0.044,0.073-0.088,0.246-0.131,0.522c-0.041,0.276-0.079,0.472-0.107,0.588c-0.06,0.581-0.087,1.132-0.087,1.654
		c-0.35,4.848-0.522,10.45-0.522,16.807c0,1.479,0.211,2.409,0.631,2.786c0.419,0.377,1.668,0.566,3.743,0.566
		c2.075,0,3.511-0.362,4.312-1.088c0.796-0.726,1.444-2.424,1.936-5.095l1.917-0.217l0.131,0.217
		c-0.522,2.642-0.943,5.4-1.263,8.274L311.119,567.651z"/>
	<path d="M328.752,567.693l-0.131-0.304l0.175-1.699c1.479-0.115,2.496-0.29,3.049-0.522c0.55-0.231,0.826-0.623,0.826-1.176
		c0-0.551-0.131-1.233-0.391-2.045l-1.438-4.747c-0.695-0.029-1.974-0.044-3.831-0.044s-3.672,0.116-5.441,0.349l-1.613,4.528
		c-0.26,0.783-0.391,1.351-0.391,1.698c0,1.191,0.872,1.785,2.611,1.785h2.483l0.087,0.174l-0.262,1.873
		c-2.119-0.204-4.134-0.305-6.051-0.305l-4.79,0.131l0.35-2.047c0.812-0.087,1.466-0.37,1.958-0.849
		c0.495-0.48,0.974-1.314,1.438-2.504l8.49-22.248l2.742-0.74h0.35c2.436,9.027,4.744,16.806,6.923,23.337
		c0.347,1.075,0.812,1.829,1.392,2.264c0.58,0.436,1.509,0.712,2.786,0.827l0.087,0.175l-0.303,1.785
		c-2.091-0.088-3.883-0.131-5.378-0.131S331.073,567.403,328.752,567.693z M326.181,555.371c1.047,0,2.395-0.071,4.049-0.217
		l-3.44-11.407h-0.303l-4.137,11.625H326.181z"/>
	<path d="M365.543,560.945v-17.633c0-1.248-0.478-1.873-1.438-1.873l-1.654,0.044l-0.087-0.174l0.394-1.96
		c1.769,0.116,3.046,0.175,3.831,0.175c1.277,0,2.816-0.116,4.615-0.349l-0.219,2.003c-1.014,0.145-1.755,0.429-2.22,0.849
		c-0.465,0.421-0.711,1.053-0.741,1.893l-0.61,24.47l-1.26,0.61c-5.255-8.156-10.652-16.154-16.198-23.99h-0.219l-0.216,18.591
		c0,0.639,0.101,1.088,0.303,1.35c0.202,0.261,0.552,0.392,1.044,0.392l2.22-0.044l0.087,0.174l-0.391,1.959
		c-1.829-0.116-3.177-0.174-4.049-0.174c-1.392,0-2.931,0.116-4.615,0.349l0.219-2.003c1.769-0.204,2.669-1.117,2.699-2.744
		l0.566-19.026c0-0.9-0.268-1.538-0.807-1.917c-0.536-0.376-1.531-0.637-2.98-0.783l-0.131-0.217l0.347-1.61
		c1.684,0.145,2.931,0.217,3.746,0.217l2.917-0.175c4.296,6.677,9.171,13.875,14.628,21.596H365.543z"/>
	<path d="M398.589,560.945v-17.633c0-1.248-0.479-1.873-1.438-1.873l-1.654,0.044l-0.088-0.174l0.394-1.96
		c1.769,0.116,3.046,0.175,3.831,0.175c1.277,0,2.816-0.116,4.615-0.349l-0.219,2.003c-1.014,0.145-1.755,0.429-2.22,0.849
		c-0.465,0.421-0.711,1.053-0.741,1.893l-0.61,24.47l-1.26,0.61c-5.255-8.156-10.652-16.154-16.197-23.99h-0.219l-0.216,18.591
		c0,0.639,0.101,1.088,0.303,1.35c0.202,0.261,0.552,0.392,1.045,0.392l2.22-0.044l0.088,0.174l-0.391,1.959
		c-1.829-0.116-3.177-0.174-4.049-0.174c-1.392,0-2.931,0.116-4.615,0.349l0.219-2.003c1.769-0.204,2.669-1.117,2.699-2.744
		l0.566-19.026c0-0.9-0.268-1.538-0.807-1.917c-0.536-0.376-1.531-0.637-2.98-0.783l-0.131-0.217l0.347-1.61
		c1.684,0.145,2.931,0.217,3.746,0.217l2.917-0.175c4.295,6.677,9.171,13.875,14.628,21.596H398.589z"/>
	<path d="M416.703,562.382c0,1.191,0.131,1.981,0.391,2.373c0.263,0.391,0.769,0.588,1.523,0.588l2.308-0.131l0.088,0.175
		l-0.391,2.003c-2.439-0.088-4.164-0.131-5.181-0.131c-1.684,0-3.541,0.174-5.572,0.522l0.26-2.003
		c1.364-0.261,2.286-0.645,2.764-1.154c0.481-0.507,0.719-1.371,0.719-2.591l0.044-18.286c0-0.928-0.109-1.553-0.325-1.871
		c-0.219-0.32-0.648-0.48-1.285-0.48l-1.829,0.087l-0.087-0.174l0.306-1.916c2.264,0.087,3.844,0.131,4.744,0.131
		c1.219,0,3.035-0.131,5.444-0.392l-0.175,1.959c-1.219,0.146-2.032,0.385-2.436,0.719c-0.407,0.334-0.64,0.921-0.697,1.764
		C416.905,551.99,416.703,558.26,416.703,562.382z"/>
	<path d="M434.42,567.78c-1.219,0-2.392-0.123-3.524-0.37c-1.134-0.246-2.237-0.615-3.311-1.11l-0.216-0.435
		c0.347-2.235,0.522-4.76,0.522-7.576l1.958-0.217c0,3.135,0.356,5.181,1.066,6.139c0.711,0.957,2.113,1.437,4.202,1.437
		c2.092,0,3.686-0.428,4.79-1.285c1.102-0.856,1.654-2.025,1.654-3.505c0-1.277-0.654-2.409-1.96-3.396
		c-0.957-0.725-1.914-1.334-2.874-1.828c-0.957-0.493-1.457-0.748-1.501-0.763c-0.044-0.014-0.088-0.036-0.131-0.066
		c-0.044-0.027-0.355-0.195-0.935-0.5c-0.582-0.305-1.197-0.653-1.851-1.044c-0.653-0.392-1.372-0.921-2.154-1.59
		c-1.539-1.277-2.308-2.8-2.308-4.572c0-2.293,0.965-4.215,2.895-5.769c1.93-1.552,4.304-2.328,7.117-2.328
		c2.207,0,4.427,0.362,6.663,1.088l0.131,0.261c-0.465,2.235-0.785,4.688-0.96,7.358l-1.698,0.175l-0.26-0.219
		c0.085-0.61,0.129-1.363,0.129-2.264c0-1.538-0.377-2.598-1.132-3.179c-0.755-0.58-2.018-0.871-3.787-0.871
		c-1.772,0-3.172,0.4-4.203,1.198c-1.031,0.799-1.545,1.785-1.545,2.961c0,1.176,0.5,2.191,1.501,3.047
		c1.003,0.857,2.707,1.91,5.116,3.157c2.409,1.248,4.079,2.279,5.009,3.091c1.566,1.336,2.351,2.831,2.351,4.486
		c0,2.496-1.003,4.535-3.005,6.117C440.168,566.99,437.584,567.78,434.42,567.78z"/>
	<path d="M459.848,560.205v-18.984c-1.364,0.059-2.343,0.101-2.939,0.13c-0.593,0.03-1.233,0.131-1.914,0.305
		c-0.683,0.175-1.118,0.335-1.307,0.48c-0.188,0.145-0.421,0.472-0.697,0.979c-0.276,0.508-0.448,0.98-0.522,1.415
		c-0.071,0.436-0.181,1.162-0.325,2.178l-2.048,0.174c0.35-2.554,0.566-5.065,0.653-7.533l0.391-0.347l3.615,0.479h13.499
		l3.699-0.479l0.391,0.347c0.06,1.888,0.276,4.341,0.653,7.359l-2.045,0.174c-0.175-1.016-0.306-1.755-0.391-2.22
		c-0.087-0.465-0.262-0.958-0.522-1.481c-0.263-0.522-0.495-0.856-0.697-1.001c-0.205-0.145-0.618-0.312-1.241-0.502
		c-0.626-0.189-1.228-0.297-1.807-0.327c-0.58-0.029-1.479-0.071-2.699-0.13c-0.465,4.644-0.697,11.698-0.697,21.16
		c0,1.075,0.189,1.836,0.566,2.286c0.377,0.45,1.014,0.675,1.917,0.675l2.392-0.131l0.131,0.175l-0.391,2.003
		c-2.904-0.088-5.036-0.131-6.401-0.131l-5.963,0.174l0.347-1.871c2.031-0.174,3.265-0.529,3.699-1.066
		C459.633,563.957,459.848,562.528,459.848,560.205z"/>
	<path d="M484.752,551.845l4.487,0.044l5.31-0.48l0.175,0.219l-0.61,2.569c-2.496-0.088-4.405-0.131-5.725-0.131
		s-2.562,0.102-3.721,0.305c-0.118,4.179-0.175,6.908-0.175,8.185c0,1.278,0.181,2.055,0.544,2.329
		c0.361,0.276,1.545,0.414,3.549,0.414c2.002,0,3.511-0.123,4.528-0.37c1.014-0.246,1.747-0.711,2.198-1.393
		c0.448-0.682,0.79-1.865,1.023-3.549l1.917-0.217l0.131,0.217c-0.525,2.41-0.916,4.848-1.176,7.315l-0.219,0.261
		c-6.037-0.204-9.985-0.305-11.842-0.305c-2.846,0-5.313,0.145-7.402,0.435l0.26-2.003c1.307-0.174,2.198-0.514,2.677-1.023
		c0.481-0.507,0.719-1.386,0.719-2.634l0.044-18.286c0-0.928-0.109-1.553-0.325-1.871c-0.219-0.32-0.648-0.48-1.285-0.48
		l-1.479,0.087l-0.087-0.174l0.303-1.916c2.294,0.087,5.414,0.131,9.362,0.131c3.945,0,7.199-0.175,9.753-0.522l0.131,0.261
		c-0.495,2.148-0.828,4.556-1.003,7.226l-2.089,0.175c0.057-0.842,0.087-1.465,0.087-1.873c0-1.422-0.342-2.293-1.023-2.611
		c-0.683-0.32-2.149-0.48-4.399-0.48s-3.519,0.081-3.809,0.239c-0.29,0.16-0.451,0.647-0.479,1.459L484.752,551.845z"/>
	<path d="M522.631,541.178c1.567,1.219,2.351,2.801,2.351,4.745c0,3.803-2.133,6.677-6.401,8.621l4.79,7.576
		c0.842,1.393,1.663,2.358,2.461,2.896c0.796,0.537,1.777,0.805,2.937,0.805l0.175,0.174l-0.26,1.481l-3.702,0.48
		c-0.725,0-1.501-0.37-2.329-1.111c-0.826-0.74-1.589-1.747-2.286-3.025l-4.659-8.447h-3.612l-0.131,6.488
		c0,1.566,0.175,2.554,0.522,2.961c0.347,0.406,1.22,0.608,2.611,0.608l0.088,0.175l-0.391,1.828c0-0.029-1.539-0.073-4.615-0.13
		l-5.006,0.13l0.391-1.959c1.364-0.145,2.256-0.442,2.677-0.893c0.421-0.45,0.632-1.299,0.632-2.547l0.044-18.286
		c0-0.928-0.109-1.553-0.325-1.871c-0.219-0.32-0.648-0.48-1.285-0.48l-1.479,0.087l-0.087-0.174l0.303-1.916
		c2.119,0.087,3.729,0.131,4.834,0.131l5.354-0.175C518.932,539.349,521.065,539.958,522.631,541.178z M521.368,546.969
		c0-3.832-2.655-5.747-7.967-5.747c-0.29,0-0.487,0.065-0.588,0.195c-0.101,0.131-0.167,0.399-0.194,0.805
		c-0.262,4.442-0.407,8.011-0.437,10.711l4.487,0.435c1.072-0.261,2.103-0.898,3.09-1.915c0.407-0.435,0.776-1.051,1.11-1.85
		C521.201,548.805,521.368,547.926,521.368,546.969z"/>
</g>
<g id="Layer_4">
	<path fill-rule="evenodd" clip-rule="evenodd" d="M366.646,158.699c-2.396-2.426-5.205-3.94-8.82-3.661
		c-3.372,0.257-6.061,1.755-8.365,4.084c-3.886,3.935-4.415,8.391-1.621,13.118c2.018,3.424,3.981,6.888,6.052,10.283
		c0.757,1.243,1.092,2.54,1.172,3.944c0.068,1.183-0.283,2.221-1.403,2.758c-1.148,0.546-2.32,0.418-3.283-0.449
		c-0.702-0.637-1.341-1.354-1.975-2.055c-2.541-2.827-4.867-5.825-7.83-8.279c-3.089-2.555-6.448-4.664-10.392-5.104
		c-6.544-0.72-13.152-1.254-19.53,1.257c-3.058,1.204-6.187,2.224-9.19,3.547c-2.47,1.083-4.766,2.535-7.193,3.718
		c-4.63,2.255-9.346,4.338-13.93,6.685c-2.467,1.26-5.024,1.457-7.67,1.457c-2.609,0-4.215-1.309-4.938-3.808
		c-0.132-0.468-0.542-0.848-0.751-1.301c-0.129-0.271-0.274-0.755-0.147-0.891c0.603-0.628,1.209-1.374,1.975-1.692
		c1.775-0.751,3.615-1.406,5.485-1.881c5.279-1.338,9.433-4.233,12.399-8.791c0.341-0.534,0.544-1.214,0.612-1.846
		c0.055-0.389-0.206-1.135-0.427-1.169c-0.548-0.097-1.169,0.074-1.729,0.238c-0.181,0.054-0.283,0.402-0.418,0.62
		c-0.495,0.838-1.141,1.214-2.101,0.712c-1.037-0.549-1.818-0.299-2.36,0.755c-0.172,0.322-0.338,0.718-0.615,0.889
		c-0.412,0.248-0.981,0.528-1.387,0.416c-1.68-0.451-2.108-0.303-2.855,1.369c-0.357,0.789-0.858,1.022-1.658,0.559
		c-1.717-0.991-2.261-0.751-2.732,1.145c-0.286,1.151-0.766,1.412-1.883,1.221c-0.446-0.08-1.03,0.004-1.415,0.235
		c-2.258,1.392-5.645,0.758-7.058-1.501c-0.354-0.566-0.384-1.469-0.261-2.16c0.148-0.799,0.944-0.929,1.689-0.885
		c0.923,0.06,1.581-0.254,2.077-1.095c0.612-1.027,1.501-1.032,2.249-0.211c0.289,0.323,0.834,0.769,1.114,0.68
		c0.68-0.205,1.169-0.728,0.911-1.604c-0.203-0.694,0.034-1.24,0.72-1.514c0.751-0.303,1.252,0.034,1.652,0.675
		c0.181,0.292,0.618,0.784,0.671,0.755c0.717-0.446,1.474-0.886,2.052-1.487c0.502-0.525-0.086-0.895-0.477-1.228
		c-0.514-0.44-0.828-1.042-0.111-1.423c0.48-0.255,1.246-0.278,1.744-0.078c0.36,0.14,0.498,0.834,0.708,1.297
		c0.117,0.266,0.185,0.554,0.271,0.837c0.314-0.139,0.778-0.192,0.911-0.431c0.548-0.977,1.154-1.952,0.538-3.186
		c-0.434-0.891-0.04-1.561,0.944-1.597c0.698-0.026,1.409,0.418,2.101,0.38c0.655-0.035,1.32-0.368,1.91-0.7
		c0.114-0.063,0-0.754-0.163-1.063c-0.425-0.778-0.194-1.258,0.544-1.584c0.981-0.432,2.055-0.138,2.831,0.806
		c0.354,0.417,0.778,0.935,1.212,0.346c0.508-0.668,1.092-1.557,1.025-2.29c-0.055-0.515-1.111-0.979-1.772-1.375
		c-0.289-0.169-0.717-0.197-1.068-0.169c-1.387,0.112-2.769,0.231-4.138,0.418c-2.323,0.323-4.621,0.877-6.953,0.986
		c-1.56,0.078-3.283-0.123-4.695-0.751c-3.043-1.357-5.741-3.455-9.06-4.329c-1.289-0.344-1.332-1.121-0.584-2.29
		c0.464-0.715,0.778-1.544,1.037-2.364c0.914-2.907,0.307-5.804-0.181-8.693c-0.065-0.349-0.379-0.655-0.576-0.978
		c-0.261,0.271-0.6,0.498-0.748,0.812c-0.978,2.117-2.218,4.027-4.018,5.559c-1.36,1.162-2.695,2.357-3.932,3.647
		c-0.465,0.485-0.769,1.249-0.861,1.917c-0.172,1.198-0.72,1.967-1.846,2.347c-0.794,0.271-1.624,0.471-2.393,0.791
		c-1.412,0.583-1.818,1.277-1.797,2.809c0.009,0.62,0.046,1.247-0.043,1.858c-0.203,1.383-1.591,2.618-2.898,2.515
		c-0.471-0.04-0.917-0.446-1.363-0.681c0.296-0.406,0.554-0.843,0.892-1.201c0.443-0.462,1.289-0.815,1.354-1.288
		c0.148-1.189,0.323-2.6-0.163-3.61c-1.966-4.147-5.015-7.35-9.236-9.287c-0.492-0.226-1.154-0.097-1.732-0.131
		c0.092,0.571,0.059,1.2,0.301,1.697c0.655,1.38,1.689,2.632,2.101,4.07c0.751,2.632,1.12,5.364,1.711,8.039
		c0.212,0.943,0.569,1.867,0.972,2.744c0.628,1.353,1.701,2.597,1.95,3.996c0.606,3.335,1.194,6.645,2.969,9.582
		c1.674,2.781,3.39,5.542,5.264,8.191c0.732,1.034,1.218,2.02,1.046,3.22c-0.28,1.95-0.631,3.901-1.046,5.83
		c-0.754,3.556-0.948,7.19-0.141,10.682c0.523,2.287,1.003,4.655,2.221,6.842c1.095,1.96,1.975,4.032,3.384,5.821
		c1.83,2.321,3.953,4.31,6.378,5.978c0.295,0.201,0.803,0.105,1.209,0.149c-0.031-0.368,0.034-0.777-0.114-1.083
		c-0.508-1.055-1.252-2.02-1.621-3.11c-1.089-3.297-2.043-6.611-1.698-10.193c0.283-3.059,1.117-5.804,3.2-8.096
		c2.166-2.392,5.012-3.267,8.091-3.229c1.031,0.017,2.228,0.628,3.018,1.332c0.658,0.58,0.944,1.666,1.188,2.581
		c0.089,0.349-0.308,1.057-0.658,1.214c-0.335,0.147-0.938-0.118-1.338-0.34c-0.332-0.187-0.548-0.584-0.818-0.886
		c-1.501-1.683-3.667-1.894-5.495-0.519c-2.443,1.851-3.55,4.443-3.864,7.368c-0.292,2.746-0.009,5.412,0.929,8.101
		c0.852,2.441,1.858,4.676,3.698,6.487c1.194,1.171,1.575,2.523,1.403,4.19c-0.077,0.75,0.342,1.597,0.686,2.33
		c0.265,0.561,0.877,1.174,0.225,1.617c-0.449,0.306-1.363,0.311-1.883,0.061c-0.972-0.457-1.252-1.469-1.218-2.518
		c0.012-0.435,0.132-0.868,0.191-1.305c0.228-1.518-0.157-1.97-1.673-1.906c-2.12,0.095-4.243,0.195-6.362,0.335
		c-3.996,0.254-7.974,0.131-11.924-0.62c-1.554-0.295-2.892,0.154-4.104,1.083c-0.52,0.406-0.96,0.912-1.495,1.295
		c-2.114,1.551-3.753,3.744-6.316,4.669c-2.061,0.734-4.12,1.451-6.199,2.126c-0.812,0.266-1.631,0.428-2,1.349
		c-0.591,1.471,0.203,4.192,1.492,5.082c0.526,0.368,0.883,0.254,1.095-0.34c0.086-0.235,0.077-0.532,0.212-0.732
		c0.215-0.311,0.492-0.765,0.781-0.791c0.351-0.031,0.855,0.226,1.083,0.52c0.465,0.601,0.723,1.369,1.187,1.972
		c0.462,0.592,1.037,1.109,1.634,1.57c0.194,0.149,0.704,0.126,0.895-0.021c0.181-0.154,0.197-0.576,0.203-0.886
		c0.012-0.206-0.123-0.411-0.185-0.624c-0.2-0.677-0.418-1.4,0.305-1.898c0.742-0.501,1.271,0.048,1.852,0.454
		c0.794,0.563,1.612,1.145,2.501,1.506c0.406,0.175,1.015-0.148,1.529-0.243c-0.191-0.429-0.305-0.919-0.594-1.266
		c-1.227-1.515-1.065-4.115,0.372-5.145c2.56-1.837,5.876-0.441,6.338,2.64c0.052,0.375,0.394,0.708,0.612,1.057
		c0.335-0.271,0.794-0.475,1-0.829c0.828-1.385,1.132-2.768,0.237-4.338c-0.643-1.122-0.147-1.872,1.163-1.872
		c1.163,0,2.326,0.218,3.473,0.41c1.735,0.279,3.458,0.628,5.178,0.943c0.757,0.143,1.529,0.226,2.267,0.428
		c4.562,1.252,9.214,1.927,13.946,2.021c1.726,0.037,2.314-0.734,1.877-2.41c-0.139-0.523-0.431-1.008-0.6-1.531
		c-0.258-0.76-0.544-1.515-0.668-2.304c-0.261-1.549-0.44-3.115-0.597-4.678c-0.083-0.834-0.135-1.684-0.059-2.513
		c0.157-1.675,0.351-3.352,0.655-5.006c0.489-2.617,1.923-4.689,4.199-5.999c2.634-1.528,5.516,0.769,5.208,3.169
		c-0.08,0.611-0.105,1.243-0.071,1.858c0.08,1.317-0.474,2.343-1.351,3.236c-0.456,0.463-1.065,0.982-1.572,0.363
		c-0.28-0.322-0.147-1.139,0.025-1.654c0.246-0.743,0.846-1.388,1.024-2.134c0.271-1.195-0.323-2.155-1.286-2.504
		c-0.812-0.289-2.261,0.129-2.707,0.991c-0.6,1.191-1.338,2.461-1.452,3.744c-0.265,2.944-0.2,5.924-0.231,8.882
		c-0.006,1.027,0.618,1.647,1.603,1.534c1.4-0.157,2.877-0.28,4.15-0.829c2.433-1.049,4.806-2.287,7.103-3.635
		c2.883-1.694,5.969-3.252,8.424-5.468c4.55-4.113,8.694-8.675,13.029-13.038c1.631-1.644,3.077-3.533,5.513-4.163
		c2.043-0.531,4.033-1.352,6.101-1.671c1.043-0.162,2.415,0.221,3.286,0.851c2.713,1.963,5.23,4.193,7.876,6.248
		c1.584,1.235,3.166,2.532,4.919,3.469c3.286,1.754,6.645,3.43,10.51,3.513c0.544,0.009,1.098,0.117,1.618,0.288
		c0.412,0.131,0.766,0.432,1.148,0.654c-0.375,0.277-0.711,0.703-1.126,0.812c-1.981,0.498-2.317,0.894-2.19,2.959
		c0.132,2.011,0.267,4.016,0.403,6.035c-0.065,0-0.12,0-0.175,0c0,2.232,0.074,4.467-0.018,6.702
		c-0.089,1.972-0.443,3.852-1.554,5.632c-1.551,2.493-3.563,3.91-6.531,3.84c-1.388-0.029-2.778-0.135-4.166-0.165
		c-0.864-0.018-1.581,0.332-1.627,1.274c-0.089,1.864-0.197,3.769,1.166,5.315c0.329,0.374,0.828,0.603,1.243,0.898
		c0.228-0.431,0.566-0.841,0.668-1.3c0.191-0.868,0.501-1.571,1.511-1.575c1.049-0.009,1.353,0.763,1.437,1.615
		c0.141,1.321,0.729,2.387,1.791,3.146c0.391,0.283,0.96,0.328,1.449,0.48c0.009-0.433,0.074-0.881,0.009-1.305
		c-0.105-0.734-0.369-1.566,0.468-1.951c0.821-0.375,1.363,0.288,1.828,0.865c0.181,0.221,0.271,0.537,0.452,0.746
		c0.508,0.58,1.003,1.174,1.581,1.661c0.221,0.185,0.757,0.228,0.988,0.078c0.206-0.131,0.267-0.628,0.243-0.943
		c-0.055-0.502-0.283-0.984-0.36-1.49c-0.237-1.568,0.603-2.824,2.12-3.243c2.141-0.58,3.421,0.023,4.445,2.086
		c0.468,0.96,0.828,1.017,1.492,0.221c1.517-1.828,1.593-2.841,0.077-4.761c-1.427-1.806-1.994-3.69-1.249-5.929
		c0.203-0.581,0.212-1.221,0.305-1.837c0.36-2.501,0.554-5.036,1.138-7.485c0.609-2.609,1.507-5.161,2.424-7.688
		c0.532-1.464,1.249-2.88,2.034-4.236c0.837-1.44,0.865-1.92-0.394-3.003c-2.526-2.158-4.707-4.615-6.356-7.499
		c-1.76-3.081-3.452-6.198-5.101-9.334c-0.194-0.378,0.062-0.995,0.101-1.506c0.385,0.187,0.855,0.283,1.142,0.567
		c1.28,1.228,2.698,2.003,4.529,1.742c1.089-0.152,2.187-0.28,3.24-0.568c1.652-0.449,3.295-1.152,3.886-2.87
		c0.778-2.23,0.483-4.63-0.536-6.641c-1.877-3.715-4.135-7.224-6.218-10.827c-1.326-2.292-2.48-4.638-2.698-7.348
		c-0.2-2.535,0.803-4.442,2.932-5.655c3.027-1.734,5.818-1.221,8.491,0.728c1.108,0.812,1.326,1.924,0.557,3.069
		c-0.781,1.16-0.757,2.289-0.197,3.526c1.425,3.132,4.077,5.121,6.658,7.164c0.751,0.599,1.341,0.323,1.443-0.654
		c0.157-1.529,0.135-3.072,0.225-4.604C371.405,165.405,369.661,161.757,366.646,158.699z M252.577,150.492
		c1.557-1.764,3.178-3.475,4.821-5.164c0.197-0.205,0.748-0.309,0.96-0.181c0.32,0.2,0.477,0.654,0.824,1.174
		c-0.424,0.549-0.744,1.1-1.194,1.501c-0.452,0.401-1.049,0.652-1.578,0.967c-0.855,0.497-1.6,0.994-1.169,2.234
		c0.08,0.232-0.517,0.971-0.855,1.012c-0.658,0.084-1.366-0.135-2.024-0.326C252.307,151.69,252.331,150.766,252.577,150.492z
		 M254.823,168.434c-1.507-0.062-3.178-1.86-3.15-3.4c0.025-1.708,1.492-2.877,3.514-2.806c1.935,0.065,2.698,0.963,2.63,3.094
		C257.752,167.164,256.466,168.499,254.823,168.434z M258.651,160.671c-2.163-1.692-5.879-2.15-8.03-0.134
		c-0.234,0.217-0.541,0.388-0.843,0.469c-0.209,0.062-0.572,0.006-0.674-0.138c-0.098-0.135-0.04-0.56,0.089-0.663
		c1.037-0.825,1.929-1.965,3.507-1.589c1.209-0.14,2.409-0.288,3.615-0.416c0.326-0.034,0.723-0.103,0.978,0.036
		c1.655,0.912,3.683,1.187,4.947,2.77c0.228,0.289,0.234,0.751,0.345,1.135c-0.471,0.083-1.052,0.385-1.403,0.209
		C260.284,161.906,259.447,161.295,258.651,160.671z M329.423,228.153c2.135-3.635,3.72-7.645,6.815-10.682
		c0.88-0.864,0.68-1.681-0.221-2.563c-0.778-0.772-1.606-1.53-2.184-2.447c-1.532-2.397-2.753-5.023-4.962-6.913
		c-1.621-1.391-3.255-2.852-5.104-3.886c-1.24-0.691-2.889-0.581-4.304-1.004c-1.658-0.492-2.947,0.283-4.215,1.051
		c-0.314,0.192-0.517,1.114-0.332,1.48c1.775,3.478,3.695,6.895,6.224,9.883c1.212,1.435,2.76,2.583,4.141,3.87
		c1.461,1.361,2.274,1.361,3.824,0.061c0.341-0.288,0.815-0.487,1.258-0.589c0.265-0.057,0.717,0.086,0.84,0.288
		c0.123,0.209,0.04,0.651-0.108,0.898c-0.809,1.397-3.129,2.169-4.658,1.598c-1.532-0.577-2.698,0.131-3.046,1.74
		c-0.409,1.886-0.877,3.758-1.345,5.625c-1.058,4.17-2.661,8.121-4.766,11.877c-0.748,1.345-1.797,2.072-3.36,2.015
		c-2.147-0.078-3.935-1.038-5.569-2.333c-0.975-0.777-2.23-0.925-2.689-0.026c-0.828,1.632-2.104,3.146-1.797,5.102
		c0,0.338-0.049,0.609,0.009,0.849c0.16,0.575,0.36,1.135,0.542,1.703c0.376-0.389,0.702-0.844,1.132-1.152
		c0.498-0.366,1.114-0.861,1.624-0.817c0.385,0.029,0.803,0.786,1.04,1.3c0.305,0.691,0.314,1.541,0.711,2.157
		c0.338,0.523,1.04,0.811,1.581,1.203c0.221-0.576,0.462-1.143,0.671-1.723c0.065-0.197,0.043-0.431,0.092-0.651
		c0.169-0.82,0.717-1.151,1.517-1.1c0.957,0.054,1.175,0.755,1.467,1.524c0.329,0.895,0.751,1.823,1.369,2.526
		c0.72,0.817,1.351,0.523,1.526-0.572c0.64-3.787,3.15-4.293,5.929-3.652c0.655,0.149,1.191,0.943,1.726,1.484
		c0.342,0.336,0.597,0.772,0.883,1.16c0.418-0.375,0.951-0.675,1.227-1.138c0.52-0.881,0.465-1.841-0.181-2.675
		c-0.428-0.544-0.984-0.995-1.363-1.561c-0.363-0.555-0.772-1.206-0.8-1.821c-0.037-0.894,0.086-1.863,0.446-2.673
		C326.402,234.387,327.679,231.132,329.423,228.153z M225.421,219.137c-0.055-0.437-0.123-0.869-0.16-1.309
		c-0.071-0.763-0.372-1.637-0.114-2.272c0.671-1.664,2.218-2.427,3.8-2.157c1.264,0.214,1.92,1.204,2.233,3.146
		c0.071,0.432,0.409,1.034,0.766,1.152c0.36,0.118,1.065-0.123,1.311-0.446c0.523-0.706,0.938-1.535,1.249-2.369
		c0.4-1.117,1.012-1.514,2.08-1.007c2.273,1.078,4.473,2.335,6.796,3.307c1.981,0.829,4.07,1.397,6.138,1.989
		c0.363,0.106,0.957-0.12,1.228-0.409c0.138-0.145-0.123-0.786-0.326-1.134c-1.166-1.974-2.597-3.832-3.498-5.918
		c-0.837-1.929-2.067-2.492-3.99-2.532c-1.443-0.029-2.969-0.182-4.289-0.702c-2.237-0.874-4.338-2.077-6.479-3.167
		c-0.772-0.397-1.492-0.401-2.138,0.169c-0.714,0.629-1.323,1.378-2.086,1.943c-3.498,2.587-7.196,4.716-11.722,4.895
		c-0.791,0.027-1.603,0.237-2.36,0.485c-0.498,0.161-1.03,0.451-1.369,0.838c-1.861,2.126-0.898,6.851,1.618,8.099
		c0.702,0.347,1.068,0.057,1.058-0.672c0-0.554-0.098-1.1-0.166-1.811c0.043-0.311,0.043-0.798,0.175-1.249
		c0.311-1.112,1.052-1.286,1.806-0.411c0.523,0.612,0.951,1.301,1.48,1.912c0.351,0.401,0.772,0.772,1.225,1.038
		c0.228,0.131,0.711,0.097,0.898-0.065c0.16-0.149,0.071-0.577,0.095-0.881c0.034-0.494-0.04-1.38,0.114-1.423
		c0.572-0.166,1.258-0.157,1.837,0.012c0.486,0.145,0.852,0.711,1.341,0.9C224.406,219.245,224.932,219.132,225.421,219.137z"/>
	<path fill-rule="evenodd" clip-rule="evenodd" d="M366.646,398.815c-2.396-2.426-5.205-3.941-8.82-3.661
		c-3.372,0.262-6.061,1.755-8.365,4.084c-3.886,3.935-4.415,8.391-1.621,13.12c2.018,3.421,3.981,6.891,6.052,10.286
		c0.757,1.238,1.092,2.54,1.172,3.946c0.068,1.181-0.283,2.22-1.403,2.752c-1.148,0.551-2.32,0.423-3.283-0.449
		c-0.702-0.632-1.341-1.353-1.975-2.055c-2.541-2.823-4.867-5.825-7.83-8.277c-3.089-2.557-6.448-4.666-10.392-5.101
		c-6.544-0.725-13.152-1.257-19.53,1.257c-3.058,1.205-6.187,2.226-9.19,3.543c-2.47,1.083-4.766,2.54-7.193,3.722
		c-4.63,2.255-9.346,4.338-13.93,6.685c-2.467,1.26-5.024,1.452-7.67,1.452c-2.609,0-4.215-1.309-4.938-3.81
		c-0.132-0.462-0.542-0.841-0.751-1.295c-0.129-0.269-0.274-0.76-0.147-0.895c0.603-0.623,1.209-1.369,1.975-1.687
		c1.775-0.751,3.615-1.406,5.485-1.877c5.279-1.343,9.433-4.238,12.399-8.801c0.341-0.532,0.544-1.209,0.612-1.846
		c0.055-0.389-0.206-1.131-0.427-1.165c-0.548-0.101-1.169,0.078-1.729,0.234c-0.181,0.054-0.283,0.406-0.418,0.624
		c-0.495,0.837-1.141,1.214-2.101,0.708c-1.037-0.544-1.818-0.294-2.36,0.755c-0.172,0.321-0.338,0.727-0.615,0.894
		c-0.412,0.244-0.981,0.527-1.387,0.415c-1.68-0.451-2.108-0.303-2.855,1.366c-0.357,0.792-0.858,1.02-1.658,0.561
		c-1.717-0.991-2.261-0.754-2.732,1.14c-0.286,1.155-0.766,1.412-1.883,1.22c-0.446-0.077-1.03,0.011-1.415,0.242
		c-2.258,1.391-5.645,0.758-7.058-1.501c-0.354-0.566-0.384-1.471-0.261-2.164c0.148-0.794,0.944-0.924,1.689-0.881
		c0.923,0.057,1.581-0.252,2.077-1.1c0.612-1.026,1.501-1.026,2.249-0.204c0.289,0.323,0.834,0.769,1.114,0.675
		c0.68-0.2,1.169-0.727,0.911-1.604c-0.203-0.689,0.034-1.24,0.72-1.509c0.751-0.303,1.252,0.029,1.652,0.671
		c0.181,0.297,0.618,0.789,0.671,0.755c0.717-0.442,1.474-0.886,2.052-1.488c0.502-0.525-0.086-0.891-0.477-1.226
		c-0.514-0.437-0.828-1.038-0.111-1.42c0.48-0.257,1.246-0.283,1.744-0.078c0.36,0.135,0.498,0.834,0.708,1.292
		c0.117,0.266,0.185,0.563,0.271,0.841c0.314-0.138,0.778-0.195,0.911-0.431c0.548-0.977,1.154-1.952,0.538-3.19
		c-0.434-0.886-0.04-1.561,0.944-1.592c0.698-0.026,1.409,0.418,2.101,0.385c0.655-0.04,1.32-0.377,1.91-0.704
		c0.114-0.065,0-0.759-0.163-1.068c-0.425-0.772-0.194-1.252,0.544-1.58c0.981-0.437,2.055-0.14,2.831,0.801
		c0.354,0.422,0.778,0.94,1.212,0.355c0.508-0.68,1.092-1.566,1.025-2.295c-0.055-0.515-1.111-0.978-1.772-1.375
		c-0.289-0.175-0.717-0.202-1.068-0.171c-1.387,0.109-2.769,0.232-4.138,0.42c-2.323,0.321-4.621,0.872-6.953,0.986
		c-1.56,0.078-3.283-0.128-4.695-0.755c-3.043-1.352-5.741-3.45-9.06-4.329c-1.289-0.34-1.332-1.117-0.584-2.286
		c0.464-0.715,0.778-1.549,1.037-2.366c0.914-2.906,0.307-5.807-0.181-8.696c-0.065-0.345-0.379-0.651-0.576-0.979
		c-0.261,0.271-0.6,0.503-0.748,0.817c-0.978,2.115-2.218,4.023-4.018,5.555c-1.36,1.16-2.695,2.364-3.932,3.652
		c-0.465,0.484-0.769,1.244-0.861,1.917c-0.172,1.198-0.72,1.967-1.846,2.343c-0.794,0.274-1.624,0.471-2.393,0.794
		c-1.412,0.58-1.818,1.278-1.797,2.81c0.009,0.62,0.046,1.248-0.043,1.858c-0.203,1.378-1.591,2.614-2.898,2.515
		c-0.471-0.042-0.917-0.446-1.363-0.686c0.296-0.402,0.554-0.843,0.892-1.2c0.443-0.454,1.289-0.812,1.354-1.288
		c0.148-1.191,0.323-2.601-0.163-3.609c-1.966-4.146-5.015-7.348-9.236-9.285c-0.492-0.226-1.154-0.095-1.732-0.128
		c0.092,0.563,0.059,1.191,0.301,1.689c0.655,1.384,1.689,2.635,2.101,4.072c0.751,2.635,1.12,5.363,1.711,8.042
		c0.212,0.937,0.569,1.867,0.972,2.74c0.628,1.354,1.701,2.597,1.95,3.997c0.606,3.338,1.194,6.65,2.969,9.586
		c1.674,2.781,3.39,5.547,5.264,8.191c0.732,1.034,1.218,2.021,1.046,3.215c-0.28,1.957-0.631,3.901-1.046,5.835
		c-0.754,3.555-0.948,7.19-0.141,10.677c0.523,2.292,1.003,4.659,2.221,6.842c1.095,1.965,1.975,4.032,3.384,5.824
		c1.83,2.318,3.953,4.312,6.378,5.979c0.295,0.202,0.803,0.105,1.209,0.148c-0.031-0.365,0.034-0.777-0.114-1.086
		c-0.508-1.05-1.252-2.017-1.621-3.106c-1.089-3.3-2.043-6.611-1.698-10.197c0.283-3.055,1.117-5.804,3.2-8.096
		c2.166-2.392,5.012-3.267,8.091-3.224c1.031,0.017,2.228,0.628,3.018,1.332c0.658,0.578,0.944,1.666,1.188,2.586
		c0.089,0.34-0.308,1.048-0.658,1.209c-0.335,0.147-0.938-0.118-1.338-0.34c-0.332-0.188-0.548-0.585-0.818-0.886
		c-1.501-1.689-3.667-1.895-5.495-0.518c-2.443,1.851-3.55,4.436-3.864,7.364c-0.292,2.744-0.009,5.411,0.929,8.105
		c0.852,2.438,1.858,4.672,3.698,6.487c1.194,1.171,1.575,2.518,1.403,4.19c-0.077,0.746,0.342,1.597,0.686,2.33
		c0.265,0.561,0.877,1.177,0.225,1.612c-0.449,0.311-1.363,0.315-1.883,0.066c-0.972-0.457-1.252-1.473-1.218-2.518
		c0.012-0.435,0.132-0.868,0.191-1.304c0.228-1.523-0.157-1.971-1.673-1.906c-2.12,0.095-4.243,0.195-6.362,0.331
		c-3.996,0.258-7.974,0.131-11.924-0.62c-1.554-0.291-2.892,0.154-4.104,1.091c-0.52,0.398-0.96,0.903-1.495,1.292
		c-2.114,1.551-3.753,3.744-6.316,4.664c-2.061,0.738-4.12,1.45-6.199,2.129c-0.812,0.263-1.631,0.429-2,1.349
		c-0.591,1.472,0.203,4.193,1.492,5.079c0.526,0.368,0.883,0.257,1.095-0.332c0.086-0.238,0.077-0.535,0.212-0.735
		c0.215-0.311,0.492-0.769,0.781-0.795c0.351-0.026,0.855,0.226,1.083,0.525c0.465,0.601,0.723,1.366,1.187,1.966
		c0.462,0.599,1.037,1.114,1.634,1.577c0.194,0.149,0.704,0.126,0.895-0.026c0.181-0.152,0.197-0.572,0.203-0.883
		c0.012-0.2-0.123-0.409-0.185-0.623c-0.2-0.681-0.418-1.404,0.305-1.898c0.742-0.506,1.271,0.045,1.852,0.454
		c0.794,0.563,1.612,1.14,2.501,1.511c0.406,0.166,1.015-0.154,1.529-0.254c-0.191-0.423-0.305-0.912-0.594-1.261
		c-1.227-1.518-1.065-4.113,0.372-5.149c2.56-1.837,5.876-0.441,6.338,2.644c0.052,0.372,0.394,0.703,0.612,1.057
		c0.335-0.276,0.794-0.48,1-0.829c0.828-1.389,1.132-2.772,0.237-4.342c-0.643-1.122-0.147-1.872,1.163-1.872
		c1.163,0.005,2.326,0.223,3.473,0.415c1.735,0.278,3.458,0.623,5.178,0.943c0.757,0.143,1.529,0.226,2.267,0.427
		c4.562,1.251,9.214,1.927,13.946,2.018c1.726,0.037,2.314-0.731,1.877-2.407c-0.139-0.528-0.431-1.014-0.6-1.531
		c-0.258-0.76-0.544-1.52-0.668-2.306c-0.261-1.547-0.44-3.114-0.597-4.681c-0.083-0.829-0.135-1.68-0.059-2.514
		c0.157-1.671,0.351-3.352,0.655-5.006c0.489-2.612,1.923-4.69,4.199-5.999c2.634-1.518,5.516,0.774,5.208,3.174
		c-0.08,0.611-0.105,1.243-0.071,1.858c0.08,1.317-0.474,2.343-1.351,3.237c-0.456,0.463-1.065,0.978-1.572,0.361
		c-0.28-0.322-0.147-1.132,0.025-1.652c0.246-0.746,0.846-1.387,1.024-2.138c0.271-1.195-0.323-2.15-1.286-2.501
		c-0.812-0.292-2.261,0.126-2.707,0.988c-0.6,1.194-1.338,2.461-1.452,3.752c-0.265,2.938-0.2,5.916-0.231,8.881
		c-0.006,1.02,0.618,1.64,1.603,1.527c1.4-0.152,2.877-0.28,4.15-0.824c2.433-1.049,4.806-2.284,7.103-3.635
		c2.883-1.698,5.969-3.252,8.424-5.472c4.55-4.11,8.694-8.676,13.029-13.035c1.631-1.645,3.077-3.539,5.513-4.167
		c2.043-0.526,4.033-1.351,6.101-1.666c1.043-0.161,2.415,0.221,3.286,0.849c2.713,1.964,5.23,4.19,7.876,6.25
		c1.584,1.235,3.166,2.527,4.919,3.469c3.286,1.754,6.645,3.429,10.51,3.514c0.544,0.008,1.098,0.117,1.618,0.283
		c0.412,0.131,0.766,0.432,1.148,0.66c-0.375,0.275-0.711,0.697-1.126,0.806c-1.981,0.498-2.317,0.898-2.19,2.963
		c0.132,2.007,0.267,4.018,0.403,6.031c-0.065,0-0.12,0-0.175,0.003c0,2.234,0.074,4.473-0.018,6.699
		c-0.089,1.977-0.443,3.852-1.554,5.632c-1.551,2.492-3.563,3.915-6.531,3.844c-1.388-0.034-2.778-0.139-4.166-0.165
		c-0.864-0.023-1.581,0.332-1.627,1.269c-0.089,1.869-0.197,3.778,1.166,5.319c0.329,0.376,0.828,0.606,1.243,0.898
		c0.228-0.431,0.566-0.841,0.668-1.3c0.191-0.869,0.501-1.57,1.511-1.58c1.049-0.004,1.353,0.768,1.437,1.62
		c0.141,1.321,0.729,2.386,1.791,3.146c0.391,0.279,0.96,0.326,1.449,0.48c0.009-0.437,0.074-0.881,0.009-1.309
		c-0.105-0.734-0.369-1.561,0.468-1.95c0.821-0.375,1.363,0.291,1.828,0.868c0.181,0.223,0.271,0.534,0.452,0.751
		c0.508,0.577,1.003,1.166,1.581,1.658c0.221,0.18,0.757,0.226,0.988,0.078c0.206-0.135,0.267-0.628,0.243-0.943
		c-0.055-0.506-0.283-0.989-0.36-1.497c-0.237-1.564,0.603-2.823,2.12-3.236c2.141-0.585,3.421,0.021,4.445,2.086
		c0.468,0.96,0.828,1.015,1.492,0.221c1.517-1.832,1.593-2.841,0.077-4.761c-1.427-1.806-1.994-3.692-1.249-5.929
		c0.203-0.581,0.212-1.223,0.305-1.841c0.36-2.497,0.554-5.032,1.138-7.485c0.609-2.609,1.507-5.156,2.424-7.684
		c0.532-1.464,1.249-2.883,2.034-4.236c0.837-1.444,0.865-1.92-0.394-3.003c-2.526-2.158-4.707-4.617-6.356-7.499
		c-1.76-3.081-3.452-6.201-5.101-9.336c-0.194-0.378,0.062-0.997,0.101-1.504c0.385,0.183,0.855,0.284,1.142,0.565
		c1.28,1.231,2.698,2.006,4.529,1.744c1.089-0.157,2.187-0.28,3.24-0.568c1.652-0.449,3.295-1.152,3.886-2.87
		c0.778-2.235,0.483-4.63-0.536-6.641c-1.877-3.713-4.135-7.224-6.218-10.833c-1.326-2.286-2.48-4.633-2.698-7.347
		c-0.2-2.531,0.803-4.438,2.932-5.655c3.027-1.733,5.818-1.218,8.491,0.737c1.108,0.808,1.326,1.92,0.557,3.058
		c-0.781,1.166-0.757,2.297-0.197,3.532c1.425,3.127,4.077,5.121,6.658,7.168c0.751,0.589,1.341,0.318,1.443-0.658
		c0.157-1.529,0.135-3.067,0.225-4.604C371.405,405.527,369.661,401.878,366.646,398.815z M252.577,390.609
		c1.557-1.76,3.178-3.473,4.821-5.164c0.197-0.2,0.748-0.307,0.96-0.177c0.32,0.2,0.477,0.654,0.824,1.173
		c-0.424,0.549-0.744,1.099-1.194,1.497c-0.452,0.402-1.049,0.654-1.578,0.968c-0.855,0.501-1.6,0.995-1.169,2.24
		c0.08,0.226-0.517,0.967-0.855,1.011c-0.658,0.085-1.366-0.135-2.024-0.328C252.307,391.812,252.331,390.887,252.577,390.609z
		 M254.823,408.554c-1.507-0.06-3.178-1.863-3.15-3.403c0.025-1.708,1.492-2.867,3.514-2.803c1.935,0.061,2.698,0.964,2.63,3.093
		C257.752,407.284,256.466,408.625,254.823,408.554z M258.651,400.79c-2.163-1.695-5.879-2.154-8.03-0.132
		c-0.234,0.212-0.541,0.386-0.843,0.469c-0.209,0.061-0.572,0.004-0.674-0.14c-0.098-0.138-0.04-0.561,0.089-0.666
		c1.037-0.824,1.929-1.964,3.507-1.586c1.209-0.139,2.409-0.286,3.615-0.414c0.326-0.034,0.723-0.105,0.978,0.036
		c1.655,0.912,3.683,1.183,4.947,2.77c0.228,0.289,0.234,0.75,0.345,1.13c-0.471,0.088-1.052,0.385-1.403,0.219
		C260.284,402.027,259.447,401.417,258.651,400.79z M329.423,468.274c2.135-3.641,3.72-7.645,6.815-10.688
		c0.88-0.858,0.68-1.675-0.221-2.557c-0.778-0.772-1.606-1.535-2.184-2.447c-1.532-2.401-2.753-5.018-4.962-6.913
		c-1.621-1.391-3.255-2.856-5.104-3.892c-1.24-0.689-2.889-0.58-4.304-1.003c-1.658-0.492-2.947,0.288-4.215,1.055
		c-0.314,0.188-0.517,1.112-0.332,1.475c1.775,3.483,3.695,6.895,6.224,9.888c1.212,1.431,2.76,2.578,4.141,3.87
		c1.461,1.362,2.274,1.362,3.824,0.062c0.341-0.294,0.815-0.492,1.258-0.589c0.265-0.057,0.717,0.086,0.84,0.288
		c0.123,0.209,0.04,0.646-0.108,0.894c-0.809,1.401-3.129,2.173-4.658,1.598c-1.532-0.572-2.698,0.131-3.046,1.744
		c-0.409,1.886-0.877,3.757-1.345,5.619c-1.058,4.176-2.661,8.122-4.766,11.883c-0.748,1.344-1.797,2.072-3.36,2.015
		c-2.147-0.078-3.935-1.038-5.569-2.333c-0.975-0.782-2.23-0.92-2.689-0.026c-0.828,1.632-2.104,3.146-1.797,5.096
		c0,0.344-0.049,0.615,0.009,0.851c0.16,0.575,0.36,1.138,0.542,1.708c0.376-0.394,0.702-0.843,1.132-1.157
		c0.498-0.366,1.114-0.862,1.624-0.817c0.385,0.034,0.803,0.789,1.04,1.3c0.305,0.691,0.314,1.54,0.711,2.16
		c0.338,0.52,1.04,0.808,1.581,1.202c0.221-0.572,0.462-1.14,0.671-1.725c0.065-0.195,0.043-0.431,0.092-0.64
		c0.169-0.826,0.717-1.157,1.517-1.111c0.957,0.054,1.175,0.76,1.467,1.524c0.329,0.895,0.751,1.823,1.369,2.53
		c0.72,0.811,1.351,0.523,1.526-0.577c0.64-3.783,3.15-4.289,5.929-3.647c0.655,0.147,1.191,0.938,1.726,1.483
		c0.342,0.335,0.597,0.769,0.883,1.156c0.418-0.37,0.951-0.677,1.227-1.133c0.52-0.881,0.465-1.837-0.181-2.68
		c-0.428-0.545-0.984-0.995-1.363-1.561c-0.363-0.551-0.772-1.202-0.8-1.817c-0.037-0.894,0.086-1.863,0.446-2.678
		C326.402,474.509,327.679,471.252,329.423,468.274z M225.421,459.258c-0.055-0.435-0.123-0.874-0.16-1.314
		c-0.071-0.758-0.372-1.632-0.114-2.269c0.671-1.663,2.218-2.426,3.8-2.155c1.264,0.214,1.92,1.204,2.233,3.146
		c0.071,0.431,0.409,1.034,0.766,1.152c0.36,0.118,1.065-0.123,1.311-0.446c0.523-0.706,0.938-1.535,1.249-2.372
		c0.4-1.115,1.012-1.51,2.08-1.009c2.273,1.083,4.473,2.338,6.796,3.312c1.981,0.828,4.07,1.392,6.138,1.989
		c0.363,0.106,0.957-0.125,1.228-0.414c0.138-0.14-0.123-0.784-0.326-1.131c-1.166-1.977-2.597-3.835-3.498-5.921
		c-0.837-1.924-2.067-2.492-3.99-2.527c-1.443-0.034-2.969-0.177-4.289-0.702c-2.237-0.874-4.338-2.077-6.479-3.172
		c-0.772-0.394-1.492-0.397-2.138,0.174c-0.714,0.623-1.323,1.378-2.086,1.938c-3.498,2.591-7.196,4.721-11.722,4.895
		c-0.791,0.032-1.603,0.242-2.36,0.485c-0.498,0.166-1.03,0.454-1.369,0.837c-1.861,2.131-0.898,6.853,1.618,8.104
		c0.702,0.349,1.068,0.059,1.058-0.675c0-0.551-0.098-1.1-0.166-1.806c0.043-0.315,0.043-0.8,0.175-1.249
		c0.311-1.117,1.052-1.286,1.806-0.41c0.523,0.611,0.951,1.304,1.48,1.907c0.351,0.406,0.772,0.777,1.225,1.045
		c0.228,0.129,0.711,0.094,0.898-0.072c0.16-0.143,0.071-0.571,0.095-0.88c0.034-0.494-0.04-1.374,0.114-1.418
		c0.572-0.168,1.258-0.161,1.837,0.012c0.486,0.145,0.852,0.711,1.341,0.895C224.406,459.368,224.932,459.258,225.421,459.258z"/>
	<path fill-rule="evenodd" clip-rule="evenodd" d="M211.546,289.416c0.086,1.526,0.065,3.072,0.219,4.598
		c0.105,0.977,0.695,1.252,1.449,0.66c2.581-2.047,5.23-4.032,6.655-7.17c0.563-1.235,0.588-2.366-0.197-3.53
		c-0.769-1.139-0.551-2.246,0.557-3.063c2.677-1.95,5.464-2.457,8.491-0.725c2.132,1.214,3.135,3.121,2.935,5.652
		c-0.224,2.709-1.369,5.061-2.698,7.351c-2.08,3.601-4.344,7.117-6.215,10.822c-1.021,2.017-1.317,4.412-0.548,6.645
		c0.6,1.718,2.243,2.418,3.892,2.867c1.052,0.288,2.156,0.414,3.243,0.572c1.827,0.26,3.249-0.52,4.525-1.751
		c0.289-0.28,0.757-0.377,1.141-0.558c0.043,0.506,0.298,1.124,0.105,1.501c-1.649,3.141-3.344,6.256-5.098,9.333
		c-1.655,2.884-3.839,5.341-6.362,7.505c-1.255,1.074-1.231,1.558-0.397,3.003c0.788,1.354,1.507,2.766,2.04,4.236
		c0.917,2.528,1.812,5.075,2.427,7.688c0.572,2.444,0.772,4.984,1.135,7.484c0.092,0.611,0.102,1.257,0.301,1.837
		c0.754,2.24,0.182,4.127-1.249,5.926c-1.52,1.924-1.44,2.929,0.083,4.764c0.662,0.795,1.019,0.738,1.495-0.226
		c1.015-2.058,2.298-2.666,4.436-2.08c1.52,0.409,2.357,1.666,2.123,3.241c-0.08,0.502-0.308,0.984-0.36,1.488
		c-0.031,0.324,0.034,0.812,0.246,0.947c0.225,0.145,0.76,0.1,0.984-0.084c0.575-0.488,1.074-1.08,1.575-1.657
		c0.188-0.214,0.277-0.519,0.458-0.748c0.462-0.575,1.003-1.243,1.818-0.861c0.843,0.386,0.582,1.21,0.477,1.944
		c-0.062,0.428,0,0.874,0.009,1.309c0.489-0.152,1.055-0.202,1.446-0.485c1.067-0.751,1.649-1.823,1.79-3.141
		c0.089-0.851,0.388-1.627,1.44-1.618c1.009,0.012,1.317,0.711,1.507,1.58c0.105,0.457,0.44,0.868,0.668,1.295
		c0.418-0.297,0.914-0.528,1.246-0.9c1.363-1.54,1.258-3.446,1.166-5.309c-0.049-0.943-0.763-1.292-1.627-1.283
		c-1.387,0.035-2.781,0.143-4.169,0.171c-2.963,0.069-4.978-1.349-6.532-3.841c-1.107-1.781-1.461-3.661-1.544-5.638
		c-0.101-2.224-0.025-4.464-0.025-6.698c-0.059,0-0.114,0-0.179-0.004c0.135-2.008,0.271-4.015,0.397-6.027
		c0.129-2.068-0.194-2.465-2.181-2.961c-0.422-0.106-0.754-0.532-1.129-0.812c0.376-0.221,0.735-0.525,1.154-0.66
		c0.508-0.164,1.071-0.271,1.612-0.283c3.87-0.074,7.223-1.763,10.509-3.512c1.753-0.938,3.335-2.235,4.922-3.466
		c2.646-2.06,5.162-4.284,7.876-6.247c0.868-0.629,2.243-1.013,3.283-0.857c2.07,0.32,4.061,1.14,6.101,1.672
		c2.437,0.628,3.883,2.518,5.522,4.163c4.332,4.358,8.47,8.919,13.026,13.038c2.452,2.221,5.532,3.77,8.417,5.476
		c2.292,1.34,4.673,2.578,7.11,3.63c1.268,0.545,2.744,0.672,4.141,0.829c0.988,0.105,1.615-0.506,1.606-1.532
		c-0.027-2.966,0.037-5.939-0.224-8.883c-0.114-1.283-0.858-2.549-1.465-3.749c-0.431-0.86-1.889-1.281-2.701-0.986
		c-0.963,0.349-1.554,1.309-1.283,2.5c0.175,0.751,0.775,1.394,1.025,2.14c0.169,0.514,0.304,1.326,0.021,1.654
		c-0.505,0.618-1.117,0.098-1.563-0.359c-0.883-0.898-1.44-1.927-1.36-3.238c0.034-0.62,0.009-1.252-0.068-1.868
		c-0.311-2.395,2.572-4.69,5.212-3.172c2.274,1.317,3.707,3.39,4.193,6.008c0.305,1.65,0.498,3.329,0.655,5.006
		c0.08,0.82,0.028,1.678-0.058,2.507c-0.157,1.57-0.338,3.129-0.597,4.684c-0.123,0.783-0.409,1.543-0.668,2.303
		c-0.169,0.52-0.462,1.003-0.597,1.528c-0.437,1.675,0.147,2.443,1.877,2.412c4.728-0.091,9.377-0.771,13.946-2.02
		c0.732-0.206,1.511-0.289,2.264-0.427c1.726-0.319,3.442-0.658,5.181-0.943c1.148-0.191,2.31-0.411,3.467-0.411
		c1.314-0.003,1.812,0.743,1.166,1.874c-0.889,1.566-0.594,2.949,0.237,4.336c0.206,0.349,0.664,0.554,1.006,0.829
		c0.212-0.354,0.554-0.682,0.612-1.06c0.458-3.081,3.772-4.478,6.331-2.64c1.437,1.029,1.6,3.629,0.376,5.144
		c-0.289,0.349-0.4,0.843-0.594,1.266c0.514,0.099,1.114,0.418,1.526,0.254c0.892-0.372,1.707-0.948,2.507-1.511
		c0.578-0.406,1.107-0.961,1.846-0.454c0.726,0.492,0.505,1.214,0.308,1.898c-0.062,0.209-0.197,0.415-0.194,0.623
		c0.019,0.306,0.028,0.725,0.212,0.883c0.191,0.152,0.698,0.174,0.889,0.025c0.6-0.463,1.178-0.981,1.64-1.57
		c0.461-0.603,0.717-1.371,1.184-1.977c0.225-0.292,0.735-0.549,1.086-0.518c0.289,0.026,0.566,0.485,0.775,0.794
		c0.138,0.2,0.129,0.492,0.218,0.734c0.209,0.594,0.566,0.701,1.095,0.335c1.286-0.891,2.083-3.613,1.492-5.082
		c-0.372-0.921-1.191-1.083-2.003-1.349c-2.076-0.668-4.135-1.387-6.196-2.124c-2.566-0.926-4.205-3.121-6.316-4.666
		c-0.532-0.389-0.972-0.898-1.492-1.3c-1.215-0.931-2.56-1.38-4.107-1.083c-3.95,0.755-7.928,0.878-11.924,0.624
		c-2.123-0.135-4.246-0.241-6.368-0.337c-1.517-0.074-1.898,0.385-1.671,1.908c0.061,0.435,0.175,0.864,0.191,1.297
		c0.034,1.051-0.237,2.067-1.221,2.526c-0.514,0.243-1.425,0.24-1.874-0.065c-0.655-0.443-0.046-1.058,0.215-1.615
		c0.351-0.738,0.769-1.589,0.689-2.335c-0.172-1.671,0.212-3.015,1.409-4.189c1.84-1.812,2.843-4.044,3.698-6.484
		c0.932-2.692,1.215-5.358,0.923-8.103c-0.314-2.923-1.421-5.519-3.864-7.365c-1.824-1.375-3.987-1.169-5.498,0.52
		c-0.267,0.3-0.483,0.698-0.812,0.882c-0.403,0.226-1.003,0.492-1.344,0.345c-0.348-0.163-0.742-0.869-0.656-1.214
		c0.246-0.917,0.529-2.007,1.188-2.583c0.794-0.703,1.99-1.318,3.015-1.331c3.086-0.044,5.938,0.837,8.095,3.224
		c2.083,2.29,2.913,5.039,3.206,8.094c0.332,3.592-0.612,6.899-1.704,10.197c-0.366,1.091-1.107,2.06-1.621,3.107
		c-0.141,0.309-0.08,0.72-0.111,1.077c0.406-0.038,0.911,0.062,1.206-0.14c2.425-1.671,4.55-3.659,6.378-5.981
		c1.409-1.789,2.292-3.863,3.384-5.821c1.221-2.183,1.698-4.556,2.224-6.842c0.803-3.49,0.603-7.12-0.145-10.677
		c-0.409-1.929-0.766-3.88-1.046-5.83c-0.172-1.204,0.317-2.186,1.049-3.221c1.871-2.647,3.587-5.41,5.261-8.19
		c1.778-2.936,2.369-6.25,2.969-9.586c0.252-1.402,1.329-2.644,1.95-3.993c0.406-0.881,0.76-1.806,0.972-2.749
		c0.597-2.67,0.96-5.405,1.711-8.033c0.412-1.44,1.449-2.692,2.104-4.072c0.24-0.502,0.209-1.124,0.298-1.696
		c-0.578,0.031-1.243-0.1-1.729,0.131c-4.224,1.938-7.27,5.141-9.239,9.282c-0.483,1.017-0.311,2.421-0.157,3.617
		c0.061,0.472,0.904,0.824,1.347,1.284c0.345,0.362,0.597,0.792,0.892,1.198c-0.455,0.237-0.892,0.641-1.36,0.681
		c-1.311,0.105-2.695-1.126-2.901-2.511c-0.086-0.609-0.052-1.243-0.043-1.863c0.028-1.526-0.385-2.229-1.788-2.809
		c-0.778-0.319-1.606-0.515-2.4-0.781c-1.129-0.385-1.677-1.155-1.846-2.352c-0.098-0.671-0.397-1.435-0.858-1.917
		c-1.24-1.289-2.575-2.49-3.938-3.65c-1.797-1.532-3.037-3.443-4.012-5.552c-0.147-0.323-0.495-0.549-0.754-0.82
		c-0.194,0.328-0.517,0.628-0.575,0.981c-0.489,2.884-1.092,5.787-0.179,8.688c0.255,0.824,0.572,1.649,1.034,2.37
		c0.75,1.169,0.708,1.94-0.588,2.281c-3.313,0.881-6.008,2.976-9.057,4.333c-1.412,0.628-3.132,0.834-4.695,0.754
		c-2.329-0.108-4.627-0.666-6.95-0.986c-1.372-0.192-2.753-0.309-4.141-0.418c-0.348-0.026-0.775-0.009-1.064,0.164
		c-0.662,0.398-1.72,0.864-1.769,1.381c-0.074,0.731,0.511,1.617,1.018,2.289c0.437,0.591,0.862,0.071,1.215-0.353
		c0.775-0.943,1.846-1.231,2.827-0.8c0.742,0.323,0.969,0.808,0.548,1.58c-0.163,0.315-0.277,1.004-0.163,1.066
		c0.591,0.331,1.255,0.663,1.908,0.701c0.689,0.04,1.409-0.406,2.101-0.383c0.991,0.038,1.385,0.71,0.948,1.601
		c-0.618,1.234-0.009,2.207,0.542,3.179c0.129,0.242,0.591,0.299,0.904,0.434c0.089-0.28,0.148-0.569,0.271-0.844
		c0.212-0.457,0.351-1.151,0.701-1.291c0.505-0.2,1.274-0.179,1.751,0.08c0.717,0.383,0.403,0.984-0.108,1.421
		c-0.391,0.33-0.981,0.703-0.477,1.226c0.578,0.606,1.332,1.043,2.052,1.488c0.052,0.035,0.486-0.463,0.674-0.755
		c0.391-0.64,0.895-0.972,1.649-0.675c0.689,0.275,0.917,0.824,0.717,1.513c-0.255,0.877,0.234,1.402,0.914,1.611
		c0.28,0.088,0.824-0.362,1.114-0.685c0.744-0.82,1.637-0.817,2.24,0.209c0.505,0.841,1.166,1.157,2.086,1.1
		c0.738-0.049,1.541,0.086,1.692,0.881c0.12,0.689,0.086,1.592-0.264,2.158c-1.412,2.261-4.8,2.895-7.064,1.501
		c-0.382-0.235-0.966-0.312-1.409-0.238c-1.117,0.192-1.597-0.061-1.886-1.218c-0.465-1.894-1.012-2.129-2.732-1.145
		c-0.791,0.463-1.298,0.237-1.658-0.557c-0.748-1.667-1.172-1.815-2.852-1.366c-0.406,0.105-0.978-0.169-1.387-0.415
		c-0.28-0.169-0.455-0.571-0.615-0.894c-0.544-1.043-1.326-1.3-2.366-0.755c-0.957,0.502-1.6,0.128-2.101-0.711
		c-0.138-0.218-0.234-0.567-0.415-0.62c-0.563-0.162-1.178-0.331-1.729-0.24c-0.215,0.04-0.48,0.786-0.431,1.169
		c0.074,0.638,0.274,1.314,0.624,1.846c2.957,4.561,7.113,7.458,12.389,8.797c1.871,0.475,3.71,1.126,5.489,1.875
		c0.763,0.324,1.375,1.071,1.975,1.698c0.126,0.131-0.019,0.615-0.148,0.895c-0.212,0.449-0.622,0.827-0.754,1.29
		c-0.723,2.5-2.329,3.81-4.941,3.815c-2.64,0-5.203-0.197-7.667-1.463c-4.581-2.343-9.304-4.424-13.931-6.679
		c-2.424-1.185-4.722-2.641-7.19-3.724c-3-1.322-6.135-2.338-9.186-3.541c-6.381-2.513-12.986-1.981-19.533-1.258
		c-3.95,0.437-7.307,2.549-10.393,5.102c-2.959,2.451-5.292,5.449-7.833,8.273c-0.634,0.711-1.274,1.421-1.975,2.06
		c-0.963,0.871-2.126,0.994-3.28,0.448c-1.123-0.532-1.471-1.57-1.409-2.757c0.083-1.401,0.418-2.703,1.178-3.946
		c2.074-3.394,4.03-6.855,6.052-10.283c2.787-4.726,2.258-9.182-1.627-13.114c-2.304-2.333-4.987-3.827-8.359-4.087
		c-3.612-0.279-6.424,1.235-8.818,3.656C213.026,281.338,211.284,284.986,211.546,289.416z M330.321,271.284
		c-0.652,0.197-1.366,0.416-2.018,0.328c-0.341-0.04-0.935-0.781-0.855-1.007c0.434-1.243-0.317-1.74-1.169-2.243
		c-0.538-0.309-1.126-0.563-1.581-0.965c-0.452-0.397-0.766-0.952-1.185-1.497c0.339-0.527,0.496-0.973,0.815-1.173
		c0.209-0.131,0.763-0.021,0.966,0.178c1.64,1.689,3.258,3.398,4.821,5.162C330.355,270.346,330.38,271.272,330.321,271.284z
		 M324.873,284.899c-0.074-2.126,0.695-3.029,2.627-3.093c2.024-0.066,3.489,1.098,3.516,2.806c0.028,1.543-1.643,3.343-3.147,3.403
		C326.217,288.079,324.934,286.745,324.873,284.899z M321.501,281.932c-0.348,0.174-0.926-0.126-1.4-0.209
		c0.114-0.385,0.12-0.852,0.345-1.135c1.265-1.583,3.292-1.863,4.953-2.775c0.249-0.14,0.646-0.066,0.972-0.035
		c1.206,0.128,2.412,0.28,3.615,0.42c1.581-0.376,2.461,0.758,3.507,1.583c0.135,0.109,0.191,0.529,0.089,0.668
		c-0.105,0.145-0.462,0.197-0.671,0.14c-0.304-0.086-0.612-0.259-0.849-0.475c-2.144-2.017-5.861-1.559-8.026,0.14
		C323.242,280.875,322.405,281.486,321.501,281.932z M257.678,357.145c0.354,0.806,0.48,1.789,0.443,2.675
		c-0.028,0.623-0.437,1.26-0.8,1.814c-0.382,0.577-0.938,1.021-1.366,1.571c-0.646,0.834-0.704,1.789-0.178,2.675
		c0.277,0.458,0.812,0.763,1.227,1.14c0.289-0.394,0.535-0.824,0.877-1.166c0.538-0.545,1.074-1.329,1.732-1.483
		c2.775-0.637,5.289-0.135,5.919,3.652c0.188,1.1,0.812,1.387,1.532,0.572c0.621-0.703,1.04-1.632,1.369-2.527
		c0.296-0.768,0.508-1.469,1.468-1.523c0.8-0.048,1.351,0.284,1.523,1.1c0.037,0.218,0.018,0.449,0.092,0.654
		c0.203,0.582,0.446,1.148,0.668,1.721c0.541-0.389,1.243-0.681,1.575-1.206c0.4-0.615,0.4-1.465,0.717-2.154
		c0.234-0.512,0.652-1.271,1.037-1.303c0.517-0.043,1.126,0.455,1.624,0.817c0.431,0.314,0.76,0.765,1.132,1.157
		c0.188-0.568,0.385-1.131,0.538-1.708c0.068-0.238,0.012-0.509,0.012-0.845c0.308-1.957-0.969-3.475-1.797-5.107
		c-0.452-0.894-1.711-0.751-2.695,0.032c-1.624,1.295-3.415,2.252-5.559,2.329c-1.566,0.057-2.609-0.668-3.363-2.017
		c-2.101-3.761-3.707-7.704-4.756-11.872c-0.473-1.87-0.938-3.744-1.351-5.624c-0.351-1.615-1.517-2.317-3.046-1.742
		c-1.532,0.568-3.848-0.201-4.661-1.601c-0.147-0.249-0.224-0.689-0.105-0.898c0.12-0.202,0.576-0.34,0.84-0.283
		c0.443,0.095,0.911,0.292,1.255,0.583c1.551,1.305,2.363,1.301,3.827-0.057c1.381-1.292,2.926-2.438,4.141-3.869
		c2.532-2.99,4.445-6.407,6.224-9.889c0.185-0.362-0.025-1.288-0.336-1.478c-1.267-0.765-2.557-1.544-4.215-1.047
		c-1.412,0.425-3.061,0.315-4.301,1.004c-1.852,1.029-3.483,2.497-5.104,3.887c-2.212,1.885-3.434,4.512-4.962,6.913
		c-0.582,0.906-1.409,1.673-2.188,2.443c-0.898,0.88-1.095,1.701-0.221,2.557c3.095,3.046,4.683,7.051,6.811,10.691
		C255.008,350.709,256.291,353.967,257.678,357.145z M358.711,338.666c0.495-0.185,0.849-0.751,1.347-0.898
		c0.572-0.172,1.261-0.175,1.834-0.015c0.157,0.049,0.08,0.926,0.114,1.427c0.025,0.302-0.065,0.734,0.101,0.877
		c0.179,0.166,0.668,0.202,0.892,0.071c0.456-0.263,0.874-0.641,1.231-1.043c0.523-0.603,0.948-1.3,1.474-1.908
		c0.757-0.881,1.498-0.706,1.806,0.406c0.129,0.452,0.132,0.938,0.172,1.247c-0.065,0.715-0.163,1.26-0.166,1.806
		c-0.006,0.738,0.363,1.021,1.061,0.677c2.52-1.243,3.48-5.965,1.621-8.094c-0.341-0.392-0.874-0.68-1.369-0.841
		c-0.763-0.244-1.572-0.454-2.363-0.489c-4.525-0.171-8.223-2.299-11.728-4.892c-0.754-0.563-1.366-1.309-2.077-1.937
		c-0.649-0.577-1.363-0.572-2.141-0.175c-2.141,1.095-4.246,2.292-6.476,3.169c-1.317,0.523-2.852,0.675-4.295,0.703
		c-1.92,0.037-3.153,0.606-3.987,2.53c-0.898,2.084-2.332,3.943-3.495,5.921c-0.206,0.345-0.467,0.986-0.329,1.135
		c0.271,0.278,0.868,0.509,1.228,0.409c2.064-0.594,4.159-1.164,6.141-1.989c2.32-0.974,4.516-2.23,6.799-3.309
		c1.065-0.509,1.671-0.112,2.077,1.005c0.308,0.832,0.717,1.666,1.246,2.373c0.24,0.323,0.951,0.563,1.311,0.44
		c0.357-0.112,0.698-0.718,0.766-1.152c0.317-1.941,0.966-2.926,2.236-3.146c1.578-0.265,3.123,0.494,3.806,2.156
		c0.255,0.637-0.055,1.509-0.12,2.272c-0.04,0.439-0.108,0.878-0.163,1.318C357.755,338.708,358.284,338.826,358.711,338.666z"/>
</g>
</svg>
