<?xml version="1.0" encoding="utf-8"?>
<!-- Generator: Adobe Illustrator 18.0.0, SVG Export Plug-In . SVG Version: 6.00 Build 0)  -->
<!DOCTYPE svg PUBLIC "-//W3C//DTD SVG 1.1//EN" "http://www.w3.org/Graphics/SVG/1.1/DTD/svg11.dtd">
<svg version="1.1" id="Layer_1" xmlns="http://www.w3.org/2000/svg" xmlns:xlink="http://www.w3.org/1999/xlink" x="0px" y="0px"
	 viewBox="0 0 434 56" enable-background="new 0 0 434 56" xml:space="preserve">
<g id="Layer_2">
	<path d="M47.5,31.7c-0.9,0.5-1.4,1.5-1.4,2.8V52c0,0,0,0.1-0.1,0.2c-1.1,0.8-2.3,1.5-3.6,2c-1.3,0.5-2.7,0.9-4.1,1.1
		c-1.4,0.3-2.8,0.4-4.2,0.5C32.6,56,31.2,56,29.9,56c-2,0-4.1-0.1-6.2-0.2c-3.6-0.3-6.9-1.2-9.9-2.8c-2.9-1.6-5.4-3.6-7.5-6.1
		c-2.1-2.5-3.6-5.4-4.7-8.6C0.6,35,0,31.6,0,28.1c0-4.1,0.7-7.8,2.2-10.9c1.5-3.2,3.5-5.8,6-8c2.6-2.2,5.5-3.8,9-4.9
		c3.4-1.1,7.1-1.6,10.9-1.6c2.1,0,4.2,0.1,6.3,0.3c2.1,0.2,4.2,0.5,6.2,0.8c0.9,0.1,1.8,0.3,2.7,0.4c0.9,0.1,1.8,0.3,2.7,0.3
		c0.2,0,0.3,0.1,0.3,0.3c-0.1,1.7-0.3,3.3-0.5,4.9c-0.2,1.6-0.5,3.2-0.7,4.8c0,0.3-0.1,0.6-0.1,0.9c0,0.3-0.1,0.6-0.1,0.9
		c0,0.1-0.1,0.2-0.2,0.2c-0.2,0-0.3,0-0.3-0.2c-0.4-2-1-3.7-2-5.1c-1-1.4-2.2-2.6-3.6-3.6c-1.4-0.9-3-1.6-4.7-2.1
		C32.3,5.2,30.4,5,28.5,5c-3.2,0-6.1,0.5-8.9,1.6c-2.7,1.1-5.1,2.6-7.2,4.5c-2,1.9-3.6,4.2-4.8,6.9c-1.2,2.7-1.8,5.7-1.8,8.9
		c0,3.5,0.6,6.8,1.9,10c1.3,3.1,3.1,5.9,5.3,8.2c2.2,2.3,4.9,4.2,7.9,5.6c3.1,1.4,6.4,2,9.9,2c1.5,0,3.1-0.2,4.6-0.5
		c1.6-0.3,2.9-1.1,4-2.3V34.3c0-1.1-0.3-1.9-1-2.3c-0.7-0.4-1.5-0.7-2.4-1c-0.4-0.1-0.7-0.2-1.1-0.3c-0.4-0.1-0.7-0.3-1.1-0.6
		c-0.1-0.1-0.2-0.2-0.1-0.3c0-0.1,0.1-0.2,0.3-0.2c2.8,0,5.5,0,8.2,0.1c2.7,0,5.4,0.1,8.2,0.3l0.1,0.6
		C49.5,30.7,48.4,31.1,47.5,31.7z"/>
	<path d="M84.1,50.1c-0.6,0-1.2-0.1-1.8-0.1c-0.4,0-0.7-0.1-1.1-0.1c-0.4,0-0.8,0-1.2,0c-1.1,0-2.1,0-3.2,0.1
		c-1.1,0.1-2.1,0.2-3.2,0.3c-0.1,0-0.2-0.1-0.3-0.2c0-0.1,0-0.3,0.1-0.3l2.7-1.3c-0.8-2.2-1.6-4.3-2.5-6.4c-0.9-2.1-1.7-4.3-2.5-6.5
		H60.5c-0.2,0.6-0.6,1.5-1,2.7c-0.4,1.2-0.9,2.4-1.3,3.7c-0.4,1.3-0.8,2.5-1.1,3.6c-0.3,1.1-0.5,2-0.5,2.5c0,0.7,0.3,1.1,0.9,1.4
		c0.6,0.2,1.2,0.4,1.7,0.5v0.6c-0.9-0.1-1.8-0.2-2.7-0.2c-0.9-0.1-1.8-0.1-2.8-0.1c-0.9,0-1.8,0-2.8,0.1c-0.9,0.1-1.8,0.2-2.8,0.2
		c-0.1,0-0.2,0-0.2-0.2c0-0.2,0-0.3,0.2-0.3c2.5-0.3,4.3-1.7,5.3-4v0.1c1.3-3.4,2.6-6.8,3.9-10.1c1.2-3.4,2.5-6.8,3.7-10.2
		c0.8-2.3,1.6-4.6,2.4-6.9c0.8-2.3,1.6-4.6,2.5-6.9c0-0.1,0.1-0.2,0.3-0.2s0.2,0.1,0.3,0.2c0.2,0.6,0.5,1.3,0.7,1.9
		c0.3,0.6,0.5,1.3,0.7,1.9c1.9,5.2,3.9,10.4,5.9,15.6c2,5.2,4.4,10.3,7,15.3c0.6,1.1,1.3,1.8,2.1,2.3c0.9,0.5,1.8,0.7,2.9,0.8V50
		C85.3,50.1,84.7,50.1,84.1,50.1z M65.9,18.7c-0.8,2.5-1.5,4.9-2.2,7.2c-0.7,2.3-1.5,4.8-2.4,7.3h8.9L65.9,18.7z"/>
	<path d="M135.8,50.2c-1.8,0-3.7,0-5.6,0c-1.8,0-3.7,0-5.5-0.1c-0.3,0-0.4-0.1-0.3-0.3c0-0.1,0.1-0.2,0.1-0.3c0-0.1,0.1-0.2,0.1-0.3
		c0.1-0.4,0.3-0.8,0.4-1.3c0.1-0.4,0.2-0.8,0.2-1.2c0-2.6-0.1-5.2-0.4-7.8c-0.3-2.6-0.5-5.1-0.9-7.7c-0.2-1.6-0.4-3-0.5-4.2
		c-0.2-1.2-0.3-2.6-0.4-4.3c-1.8,3.4-3.4,6.8-5,10.1c-1.6,3.4-3.2,6.8-4.8,10.3c-0.6,1.2-1.1,2.3-1.6,3.4c-0.5,1.1-1.1,2.3-1.6,3.4
		c0,0.1-0.1,0.1-0.2,0.1c-0.1,0-0.2,0-0.3-0.1c-2.1-3-4-6-5.5-9.1c-1.5-3.1-3-6.2-4.4-9.3c-0.7-1.6-1.4-3.1-2-4.4
		c-0.6-1.3-1.3-2.8-2-4.3c-0.1,1.2-0.3,2.3-0.4,3.4c-0.1,1.1-0.3,2.2-0.4,3.2c-0.4,2.9-0.7,5.7-1,8.5c-0.3,2.8-0.4,5.7-0.4,8.6
		c0,0.8,0.2,1.4,0.6,1.7c0.4,0.3,0.9,0.6,1.5,0.8c0.2,0.1,0.4,0.2,0.8,0.3c0.3,0.1,0.5,0.2,0.6,0.2c0.1,0.1,0.2,0.2,0.1,0.3
		c0,0.1-0.1,0.2-0.3,0.2c-0.6,0-1.3,0-1.9,0c-0.6,0-1.3-0.1-1.9-0.1c-0.6,0-1.3-0.1-1.9-0.1c-0.6,0-1.3,0-1.9,0c-0.5,0-0.9,0-1.4,0
		c-0.4,0-0.9,0-1.4,0.1c-0.1,0-0.2,0-0.3-0.2c0-0.2,0-0.3,0.1-0.3c0.4-0.1,0.6-0.1,0.8-0.1c0.5-0.1,0.9-0.2,1.3-0.3
		c0.4-0.1,0.7-0.4,1-0.9c0.1-0.1,0.2-0.7,0.4-1.8c0.2-1.1,0.3-2.4,0.6-4.1c0.2-1.6,0.4-3.5,0.7-5.6c0.3-2.1,0.5-4.2,0.7-6.4
		c0.2-2.2,0.5-4.3,0.7-6.4c0.2-2.1,0.4-4,0.6-5.8c0.2-1.5,0.3-2.9,0.4-4.1c0.1-1.2,0.2-2,0.3-2.5c0-0.1,0.1-0.2,0.2-0.2
		c0.1,0,0.2,0,0.3,0.1c0.6,0.6,1.3,1.8,2.4,3.6c1,1.8,2.1,3.9,3.3,6.2c1.2,2.4,2.4,4.9,3.7,7.5c1.3,2.6,2.4,5.1,3.5,7.4
		c0.8,1.6,1.4,3,1.9,4.2c0.5,1.2,1,2.1,1.4,2.9c0.7-1.5,1.5-3.1,2.2-4.8c0.8-1.7,1.5-3.5,2.2-5.2c1.6-3.7,3.3-7.5,5.1-11.4
		c1.8-3.8,3.7-7.3,5.7-10.3c0.1-0.1,0.2-0.1,0.3-0.1c0.1,0,0.1,0.1,0.1,0.2c0.1,0.6,0.2,1.3,0.2,2.3c0.1,1,0.2,2.1,0.3,3.4
		c0.1,1.7,0.3,3.6,0.5,5.6c0.2,2,0.4,4.1,0.7,6.2c0.2,2.1,0.5,4.2,0.7,6.2c0.2,2,0.5,3.9,0.7,5.5c0.3,1.7,0.5,3.1,0.7,4.2
		c0.2,1.1,0.5,1.8,0.7,2.1c0.5,0.7,1,1.2,1.5,1.4c0.5,0.2,1,0.4,1.7,0.5c0.3,0.1,0.7,0.2,1,0.2c0.3,0,0.7,0.1,1.1,0.3L135.8,50.2z"
		/>
	<path d="M158,46.7c-0.1,1-0.3,2-0.4,3.1c0,0.1-0.1,0.2-0.3,0.2l-0.1,0.1c-0.4,0.1-0.7,0.2-0.9,0.2c-1.1,0-2.1,0-3.2,0
		c-1.1,0-2.2,0-3.2,0c-0.9,0-1.8,0-2.7,0c-0.9,0-1.8,0-2.7,0c-1.2,0-2.5,0-3.8,0c-1.3,0-2.5,0.1-3.8,0.1v-0.6c0.7,0,1.3-0.1,1.7-0.5
		c0.4-0.3,0.8-0.7,1-1.1c0.2-0.5,0.4-1,0.5-1.6c0.1-0.6,0.1-1.2,0.1-1.8V15.9c0-0.9-0.2-1.5-0.7-1.8c-0.4-0.3-0.9-0.5-1.4-0.7
		c-0.3-0.1-0.6-0.2-0.9-0.3c-0.3-0.1-0.7-0.3-1.1-0.5c-0.1-0.1-0.1-0.2-0.1-0.3c0-0.1,0.1-0.2,0.2-0.2H156c0.2-0.1,0.4-0.2,0.6-0.2
		c0.2-0.1,0.4-0.1,0.6-0.2c0.2-0.1,0.3,0,0.3,0.3c-0.1,1.2-0.3,2.3-0.5,3.4c-0.2,1-0.4,2.1-0.7,3.2c0,0.1-0.2,0.2-0.3,0.2
		c-0.2,0-0.2-0.1-0.2-0.2c-0.1-1.6-0.6-2.7-1.7-3.2c-1-0.5-2.3-0.8-3.7-0.8h-5.5v14.2h8c0.2,0,0.5-0.1,0.9-0.2
		c0.4-0.1,0.7-0.3,1.1-0.4c0.5-0.3,1-0.5,1.5-0.6c0.2-0.1,0.3,0,0.3,0.3c0,0.6-0.1,1.2-0.2,1.8c-0.1,0.6-0.2,1.2-0.2,1.8
		c-0.1,0.6-0.2,1.1-0.2,1.7c0,0.6-0.1,1.2-0.2,1.7c0,0.1-0.1,0.2-0.2,0.3c-0.1,0-0.2,0-0.3-0.1c-0.2-0.2-0.4-0.5-0.4-0.7
		c-0.1-0.2-0.2-0.5-0.2-0.8c-0.1-0.3-0.2-0.6-0.3-0.8c-0.1-0.3-0.3-0.5-0.5-0.8c-0.2-0.2-0.7-0.4-1.3-0.5c-0.6-0.1-1.3-0.2-2-0.3
		c-0.7-0.1-1.4-0.1-2.1-0.1s-1.2,0-1.6,0H145v14.3c0.7,1,1.7,1.8,2.9,2.3c1.3,0.5,2.5,0.8,3.7,0.8c1.6,0,3-0.4,4.1-1.3
		c1.1-0.9,1.9-2.1,2.2-3.6l0.6,0.1C158.3,44.6,158.1,45.7,158,46.7z"/>
</g>
<g id="Layer_3">
	<path d="M200.4,25.8c0,0.1-0.1,0.1-0.2,0.1c-0.1,0-0.1-0.1-0.1-0.1c0-0.9-0.2-1.5-0.7-1.9c-0.5-0.4-1.1-0.5-2-0.5
		c-0.4,0-0.7,0-1.1,0.1c-0.3,0-0.7,0.1-1.1,0.1c-0.3,0.1-0.6,0.1-0.9,0.1c-0.3,0-0.6,0-0.9,0v7.8h5.4c0.2,0,0.4-0.1,0.6-0.2
		c0.2-0.2,0.4-0.3,0.6-0.5c0.1-0.1,0.1-0.1,0.2,0c0.1,0,0.1,0.1,0.1,0.2c-0.1,0.7-0.1,1.5-0.2,2.2c-0.1,0.7-0.2,1.4-0.3,2.1
		c0,0.1-0.1,0.1-0.2,0.1c-0.1,0-0.1-0.1-0.1-0.1c0-0.9-0.2-1.5-0.7-1.8c-0.5-0.3-1.1-0.5-2-0.5h-3.3v8c0,0.3,0.1,0.7,0.2,1
		c0.1,0.3,0.3,0.7,0.6,0.9c0.2,0.3,0.5,0.5,0.8,0.6c0.3,0.2,0.7,0.2,1,0.2v0.3h-0.3c-0.3,0-0.6,0-0.8,0c-0.3,0-0.5-0.1-0.8-0.1
		c-0.3,0-0.6,0-0.8-0.1s-0.5,0-0.8,0s-0.5,0-0.8,0c-0.3,0-0.5,0.1-0.8,0.1c-0.3,0-0.6,0-0.9,0.1c-0.3,0-0.6,0-0.9,0h-0.2
		c-0.1,0-0.1,0-0.1-0.1c0-0.1,0-0.2,0.1-0.2c0.5-0.1,0.8-0.2,1.1-0.3s0.5-0.3,0.6-0.5c0.1-0.2,0.2-0.5,0.2-0.8c0-0.3,0-0.7,0-1.2
		V24.3c0-0.6-0.1-1-0.4-1.1c-0.2-0.1-0.5-0.3-0.8-0.3c-0.1-0.1-0.3-0.1-0.5-0.2c-0.2-0.1-0.4-0.2-0.6-0.3c-0.1-0.1-0.1-0.1-0.1-0.2
		c0-0.1,0.1-0.1,0.2-0.1c1.7,0.1,3.3,0.1,5,0.1h2.8c0.1,0,0.3,0,0.4,0c0.1,0,0.3,0,0.5,0c0.6,0,1.2,0,1.9,0c0.6,0,1.2-0.2,1.7-0.4
		c0.1-0.1,0.1-0.1,0.2,0c0.1,0.1,0.1,0.1,0.1,0.2L200.4,25.8z"/>
	<path d="M187,38.1c-0.6,1.3-1.4,2.4-2.5,3.4c-1,0.9-2.2,1.7-3.6,2.2c-1.4,0.5-2.8,0.8-4.3,0.8c-1.2,0-2.5-0.3-3.8-0.9
		c-1.3-0.6-2.5-1.4-3.6-2.4c-1.1-1-2-2.1-2.7-3.3c-0.7-1.2-1.1-2.5-1.1-3.7c0-1.9,0.2-3.6,0.5-5c0.4-1.4,0.9-2.6,1.7-3.5
		c0.8-1,1.8-1.7,3.1-2.4c1.3-0.6,2.9-1.1,4.7-1.5l0.5,0c1.7-0.1,3.2,0.1,4.7,0.7c1.4,0.6,2.7,1.5,3.8,2.6c1.1,1.1,1.9,2.4,2.5,4
		c0.6,1.5,0.9,3.1,0.9,4.8C187.9,35.4,187.6,36.8,187,38.1z M176.3,23.1c-0.3,0-0.7,0-1,0.1V43c0.3,0.1,0.6,0.1,1,0.1V23.1z
		 M178.7,43.1c0.7-0.1,1.3-0.3,1.9-0.6c1-0.5,1.9-1.2,2.6-2.1c0.7-0.9,1.2-1.8,1.6-3c0.4-1.1,0.5-2.3,0.5-3.6c0-1.3-0.2-2.6-0.6-3.9
		c-0.4-1.3-0.9-2.4-1.7-3.5c-0.7-1-1.7-1.9-2.8-2.5c-0.5-0.3-1-0.5-1.6-0.7L178.7,43.1L178.7,43.1z M178,23.2
		c-0.3-0.1-0.6-0.1-1-0.1v20.2c0,0,0,0,0.1,0c0.3,0,0.6,0,0.9,0V23.2z M174.7,23.2c-0.6,0.1-1.2,0.3-1.7,0.6c-1,0.5-1.9,1.2-2.6,2
		c-0.7,0.9-1.3,1.8-1.6,3c-0.4,1.1-0.6,2.3-0.6,3.6c0,1.3,0.2,2.6,0.6,3.9c0.4,1.3,1,2.5,1.7,3.5c0.8,1,1.7,1.9,2.8,2.5
		c0.4,0.3,0.9,0.5,1.4,0.6L174.7,23.2z"/>
</g>
<g id="Layer_4">
	<path d="M416.5,6.2c0,1.6-0.3,3.1-0.7,4.4c0,0.1-0.1,0.2-0.3,0.2c-0.1,0-0.2-0.1-0.3-0.2c-0.2-1.2-0.6-2.2-1.1-3
		c-0.5-0.8-1.2-1.4-1.9-1.8c-0.8-0.4-1.6-0.7-2.6-0.9c-1-0.2-2-0.3-3.1-0.3H222.2v42.6c0,1.9,0.6,3.6,1.9,5c1.2,1.4,2.8,2.2,4.6,2.5
		c0.1,0,0.2,0.2,0.2,0.3c0,0.2-0.1,0.3-0.3,0.3c-1.7-0.1-3.4-0.3-5.1-0.4c-1.7-0.1-3.5-0.1-5.2-0.1c-1.3,0-2.5,0-3.7,0.1
		c-1.2,0.1-2.5,0.2-3.7,0.3c-0.1,0-0.2-0.1-0.3-0.3c0-0.2,0-0.3,0.2-0.3c1.2-0.2,2.1-0.5,2.7-0.8c0.7-0.3,1.1-0.7,1.5-1.2
		c0.3-0.5,0.5-1.1,0.6-1.9c0.1-0.8,0.1-1.7,0.1-2.9V4.8h-12c-1.6,0-2.9,0.5-4.1,1.6c-1.2,1.1-2.1,2.3-2.7,3.7
		c-0.1,0.1-0.2,0.2-0.3,0.2c-0.1,0-0.2-0.1-0.2-0.3c-0.1-0.5-0.1-0.9-0.1-1.3c0-1,0.1-1.9,0.4-2.8c0.2-0.9,0.5-1.9,0.8-2.8
		c0.1-0.5,0.3-1,0.4-1.4c0.1-0.5,0.3-0.9,0.4-1.4c0.1-0.3,0.2-0.3,0.4-0.1c1,0.6,2,1,3,1.2c1,0.2,2.1,0.3,3.3,0.3H412
		c0.4,0,0.8-0.1,1.3-0.2c0.5-0.1,0.9-0.2,1.3-0.3c0.2,0,0.5-0.1,0.8-0.1c0.3,0,0.6-0.1,1-0.1c0.1,0,0.2,0.1,0.2,0.3v0.6
		C416.6,3.1,416.6,4.6,416.5,6.2z"/>
	<path d="M266.7,50.4c-2.4-0.1-4.9-0.2-7.3-0.2c-0.9,0-1.7,0-2.6,0c-0.9,0-1.7,0.1-2.7,0.1c-0.1,0-0.2-0.1-0.2-0.2
		c0-0.2,0-0.3,0.2-0.3c1.4-0.4,2.3-1,2.8-1.7c0.4-0.7,0.6-1.8,0.6-3.3V30.4h-21.2V45c0,2.9,1.5,4.5,4.5,4.8c0.1,0,0.2,0.1,0.2,0.3
		c0,0.2-0.1,0.3-0.2,0.3c-0.7,0-1.5,0-2.1,0c-0.6,0-1.3,0-2.1,0.1c-0.5,0-1.1,0-1.8,0c-0.7,0-1.3,0-1.8,0c-0.6,0-1.1,0-1.7,0
		s-1.2,0-1.8-0.1c-0.2,0-0.4,0-0.7,0c-0.3,0-0.5,0-0.7,0c-0.1,0-0.2-0.1-0.2-0.2c0-0.2,0-0.3,0.2-0.3c0.7-0.1,1.3-0.3,1.8-0.5
		c0.5-0.2,0.8-0.4,1-0.7c0.2-0.3,0.4-0.7,0.4-1.1c0.1-0.5,0.1-1.1,0.1-1.8V16.1c0-1-0.4-1.8-1.2-2.3c-0.8-0.5-1.7-0.8-2.6-0.8v-0.6
		c1.9,0.1,3.8,0.2,5.7,0.2c0.8,0,1.6,0,2.4,0c0.8,0,1.6,0,2.3,0h1.5c0.1,0,0.2,0.1,0.2,0.3c0,0.2-0.1,0.3-0.2,0.3
		c-0.8,0-1.6,0.3-2.2,0.8c-0.7,0.5-1,1.2-1,2.2v12.1h21.2V16.3c0-1.1-0.3-1.8-0.9-2.1c-0.6-0.3-1.3-0.6-2.1-0.8
		c-0.2,0-0.4-0.1-0.5-0.1c-0.2,0-0.3-0.1-0.5-0.1c-0.1,0-0.2-0.1-0.2-0.3c0-0.2,0.1-0.2,0.2-0.2c2.2,0.1,4.4,0.2,6.4,0.2
		c0.9,0,1.9,0,2.8,0c0.9,0,1.9-0.1,2.8-0.1c0.1,0,0.2,0.1,0.2,0.2c0,0.2,0,0.3-0.2,0.3c-1,0.2-1.8,0.5-2.4,0.8
		c-0.6,0.3-0.9,1.1-0.9,2.3v28.5c0,1.6,0.3,2.8,1,3.5c0.7,0.8,1.8,1.3,3.4,1.6L266.7,50.4z"/>
	<path d="M303.8,50.9c-0.9,0.2-1.7,0.3-2.5,0.3c-1.4,0-2.6-0.3-3.7-0.8c-1.1-0.5-2.1-1.2-3-1.9c-0.9-0.8-1.7-1.7-2.5-2.7
		c-0.8-1-1.5-2.1-2.2-3.1c-0.6-1-1.3-1.9-2-2.9c-0.7-0.9-1.5-1.8-2.4-2.6c-0.9-0.8-1.8-1.4-2.8-1.8c-1-0.5-2.1-0.7-3.4-0.7
		c-0.4,0-0.7,0-1.1,0c-0.3,0-0.7,0-1,0.1v9.9c0,1.3,0.4,2.5,1.2,3.4c0.8,0.9,1.9,1.5,3.2,1.6v0.6c-1.1-0.1-2.1-0.2-3.1-0.2
		c-1-0.1-2.1-0.1-3.1-0.1c-1.1,0-2.1,0-3.1,0.1c-1,0.1-2,0.2-3.1,0.3c-0.1,0-0.2,0-0.3-0.2c-0.1-0.2,0-0.3,0.1-0.4
		c1-0.5,1.8-1.2,2.4-2.1c0.6-0.9,1-1.9,1-3V17.1c0-1.1-0.4-2-1.1-2.8c-0.8-0.8-1.7-1.4-2.7-1.6c-0.1,0-0.2-0.1-0.2-0.3
		c0-0.2,0.1-0.2,0.2-0.2h13.6c1.4,0,2.8,0.2,4.2,0.5c1.4,0.3,2.6,0.9,3.7,1.6c1.1,0.7,1.9,1.7,2.6,2.9c0.6,1.2,1,2.6,1,4.3
		c0,2.2-0.6,4.3-1.8,6.3c-1.2,2-2.6,3.7-4.1,5.1c0.5,0.6,1.1,1.3,1.7,2.1c0.6,0.9,1.2,1.7,1.9,2.7c1,1.4,2.1,2.8,3.2,4.3
		c1.1,1.5,2.3,2.8,3.6,4c1.2,1.2,2.5,2.1,3.9,2.8c1.3,0.7,2.7,0.9,4.1,0.7l0.2,0.6C305.5,50.4,304.7,50.7,303.8,50.9z M288.3,20.4
		c-0.3-1.2-0.9-2.3-1.6-3.3c-0.7-1-1.5-1.8-2.6-2.4c-1-0.6-2.2-0.9-3.5-0.9c-0.6,0-1.1,0-1.7,0.1c-0.6,0.1-1.1,0.2-1.6,0.5v17.3
		c0.8,0.1,1.5,0.2,2.3,0.3c0.7,0,1.5,0.1,2.3,0.1c2.6,0,4.4-0.7,5.4-2.1c1-1.4,1.5-3.4,1.5-5.9C288.8,22.9,288.6,21.6,288.3,20.4z"
		/>
	<path d="M338.7,39.9c-1.1,2.3-2.5,4.3-4.3,5.9c-1.8,1.7-3.9,3-6.3,3.9c-2.4,0.9-4.9,1.4-7.5,1.4c-2.2,0-4.4-0.5-6.7-1.6
		c-2.3-1.1-4.5-2.5-6.4-4.2c-1.9-1.7-3.5-3.7-4.8-5.8c-1.3-2.2-1.9-4.4-1.9-6.6c0-3.4,0.3-6.3,0.9-8.7c0.6-2.4,1.6-4.5,3-6.2
		c1.4-1.7,3.2-3.1,5.5-4.2c2.3-1.1,5-2,8.3-2.7l0.9-0.1c2.9-0.2,5.7,0.2,8.2,1.3c2.5,1.1,4.7,2.6,6.6,4.6c1.9,2,3.4,4.3,4.5,7
		c1.1,2.7,1.6,5.5,1.6,8.5C340.3,35.1,339.8,37.6,338.7,39.9z M319.9,13.4c-0.6,0-1.2,0-1.7,0.1v35.1c0.6,0.1,1.1,0.2,1.7,0.3V13.4z
		 M324,48.6c1.2-0.2,2.4-0.6,3.4-1.1c1.8-0.9,3.3-2.1,4.5-3.6c1.2-1.5,2.1-3.3,2.8-5.2c0.6-2,0.9-4.1,0.9-6.3c0-2.3-0.3-4.5-1-6.8
		c-0.7-2.3-1.7-4.3-3-6.1c-1.3-1.8-2.9-3.3-4.8-4.4c-0.9-0.5-1.8-0.9-2.8-1.2L324,48.6L324,48.6z M322.8,13.6
		c-0.6-0.1-1.1-0.2-1.7-0.2v35.5c0,0,0.1,0,0.1,0c0.6,0,1.1,0,1.6-0.1L322.8,13.6z M317,13.7c-1.1,0.2-2.1,0.5-3,1
		c-1.8,0.9-3.4,2-4.6,3.5c-1.2,1.5-2.2,3.2-2.9,5.2c-0.7,2-1,4.1-1,6.3c0,2.3,0.3,4.6,1,6.9c0.7,2.3,1.7,4.3,3.1,6.1
		c1.4,1.8,3,3.3,4.9,4.4c0.8,0.4,1.6,0.8,2.4,1.1V13.7z"/>
	<path d="M381.3,12.9c0,0-0.1,0-0.2,0c-0.6,0.2-1.3,0.4-2,0.7c-0.7,0.3-1.1,0.8-1.1,1.5l0.1,16.7v2.8c0,2.7,0,5.3-0.1,8
		c-0.1,2.6-0.3,5.2-0.5,7.9c0,0.1-0.1,0.2-0.2,0.2c-0.1,0.1-0.2,0.1-0.3,0c-2.2-1.9-4.4-3.9-6.6-6.1c-2.2-2.2-4.4-4.4-6.5-6.7
		c-2.1-2.3-4.3-4.6-6.3-6.9c-2.1-2.3-4.1-4.6-5.9-6.8c-0.6-0.7-1.2-1.4-1.7-2c-0.5-0.6-1.1-1.3-1.7-2c-0.1,1.2-0.2,2.5-0.2,3.6
		c0,1.8,0,3.5,0.1,5.3c0,1.8,0.1,3.5,0.2,5.3c0.1,1.8,0.2,3.5,0.2,5.3c0,1.8,0.1,3.5,0.1,5.3c0,0.8,0.1,1.4,0.2,1.9
		c0.1,0.5,0.3,0.9,0.5,1.1c0.2,0.3,0.5,0.5,0.8,0.6c0.3,0.1,0.6,0.2,0.9,0.2c0.4,0.1,0.7,0.2,1.1,0.3c0.4,0.1,0.8,0.4,1.3,0.7
		c0.1,0.1,0.1,0.2,0.1,0.3c0,0.1-0.1,0.2-0.2,0.2c-0.5,0-0.9-0.1-1.3-0.1c-0.4,0-0.9-0.1-1.3-0.1c-0.6-0.1-1.3-0.2-2-0.2
		c-0.7,0-1.3-0.1-2-0.1c-0.8,0-1.7,0.1-2.6,0.2c-0.9,0.1-1.8,0.2-2.6,0.4c-0.1,0-0.2,0-0.3-0.1c-0.1-0.1-0.1-0.3,0-0.3
		c0.4-0.3,0.7-0.6,1-0.8c0.3-0.2,0.6-0.3,0.9-0.5c0.6-0.3,1-0.7,1.5-1.1c0.4-0.5,0.7-1.3,0.7-2.3V12.6l0.6-1.1
		c0-0.1,0.1-0.2,0.2-0.2c0.1,0,0.2,0,0.2,0.1c5,5.2,9.9,10.4,14.6,15.5c4.7,5.1,9.5,10.3,14.3,15.7v-0.2c0-2.1,0-4.2,0-6.3
		c0-2.1-0.1-4.2-0.1-6.4c0-2-0.1-4.1-0.1-6.4c0-2.2-0.1-4.4-0.1-6.4c0-0.8-0.1-1.4-0.2-1.9c-0.2-0.5-0.4-0.9-0.7-1.1
		c-0.3-0.3-0.6-0.4-0.9-0.5c-0.3-0.1-0.6-0.2-1-0.2c-0.4,0-0.7-0.1-1-0.2c-0.3-0.1-0.6-0.2-0.8-0.5c-0.1-0.1-0.1-0.2,0-0.3
		c0.1-0.1,0.1-0.2,0.2-0.1c1.1,0.1,2,0.2,3,0.2c1,0,1.9,0,2.9,0c0.6,0,1.2,0,1.8,0c0.6,0,1.3,0,1.9,0c0.2,0,0.5,0,0.8,0
		c0.3,0,0.5,0,0.8,0l0.1,0.6C381.4,12.9,381.3,12.9,381.3,12.9z"/>
	<path d="M407.2,46.7c-0.1,1-0.3,2-0.4,3.1c0,0.1-0.1,0.2-0.3,0.2l-0.1,0.1c-0.4,0.1-0.7,0.2-0.9,0.2c-1.1,0-2.1,0-3.2,0
		c-1.1,0-2.2,0-3.2,0c-0.9,0-1.8,0-2.7,0c-0.9,0-1.8,0-2.7,0c-1.2,0-2.5,0-3.8,0c-1.3,0-2.5,0.1-3.8,0.1v-0.6c0.7,0,1.3-0.1,1.7-0.5
		c0.4-0.3,0.8-0.7,1-1.1c0.2-0.5,0.4-1,0.5-1.6c0.1-0.6,0.1-1.2,0.1-1.8V15.9c0-0.9-0.2-1.5-0.7-1.8c-0.4-0.3-0.9-0.5-1.4-0.7
		c-0.3-0.1-0.6-0.2-0.9-0.3c-0.3-0.1-0.7-0.3-1.1-0.5c-0.1-0.1-0.1-0.2-0.1-0.3c0-0.1,0.1-0.2,0.2-0.2h19.7c0.2-0.1,0.4-0.2,0.6-0.2
		c0.2-0.1,0.4-0.1,0.6-0.2c0.2-0.1,0.3,0,0.3,0.3c-0.1,1.2-0.3,2.3-0.5,3.4c-0.2,1-0.4,2.1-0.7,3.2c0,0.1-0.2,0.2-0.3,0.2
		c-0.2,0-0.2-0.1-0.2-0.2c-0.1-1.6-0.6-2.7-1.7-3.2c-1-0.5-2.3-0.8-3.7-0.8h-5.5v14.2h8c0.2,0,0.5-0.1,0.9-0.2
		c0.4-0.1,0.7-0.3,1.1-0.4c0.5-0.3,1-0.5,1.5-0.6c0.2-0.1,0.3,0,0.3,0.3c0,0.6-0.1,1.2-0.2,1.8c-0.1,0.6-0.2,1.2-0.2,1.8
		c-0.1,0.6-0.2,1.1-0.2,1.7c0,0.6-0.1,1.2-0.2,1.7c0,0.1-0.1,0.2-0.2,0.3c-0.1,0-0.2,0-0.3-0.1c-0.2-0.2-0.4-0.5-0.4-0.7
		c-0.1-0.2-0.1-0.5-0.2-0.8c-0.1-0.3-0.2-0.6-0.3-0.8c-0.1-0.3-0.3-0.5-0.5-0.8c-0.2-0.2-0.7-0.4-1.3-0.5c-0.6-0.1-1.3-0.2-2-0.3
		c-0.7-0.1-1.4-0.1-2.1-0.1c-0.7,0-1.2,0-1.6,0h-2.1v14.3c0.7,1,1.7,1.8,2.9,2.3c1.3,0.5,2.5,0.8,3.7,0.8c1.6,0,3-0.4,4.1-1.3
		c1.1-0.9,1.9-2.1,2.2-3.6l0.6,0.1C407.5,44.6,407.4,45.7,407.2,46.7z"/>
	<path d="M432.7,44.6c-0.9,1.3-1.9,2.5-3.2,3.4c-1.3,0.9-2.8,1.7-4.4,2.2c-1.6,0.5-3.1,0.8-4.5,0.8c-0.7,0-1.4-0.1-2.2-0.2
		c-0.8-0.2-1.5-0.4-2.1-0.8c-0.6-0.4-1.1-0.8-1.5-1.4c-0.4-0.6-0.6-1.3-0.6-2.2c0-0.6,0.1-1.1,0.2-1.7c0.1-0.6,0.2-1.1,0.3-1.6
		l0.3-1.7c0-0.1,0.1-0.2,0.3-0.2c0.2,0,0.3,0.1,0.3,0.2v1c0,1,0.2,1.8,0.6,2.6c0.4,0.7,0.9,1.4,1.6,1.9c0.6,0.5,1.4,0.9,2.2,1.2
		c0.9,0.3,1.7,0.4,2.6,0.4c0.8,0,1.7-0.1,2.6-0.4c0.9-0.3,1.7-0.7,2.4-1.2c0.7-0.5,1.3-1.2,1.8-1.9c0.5-0.8,0.7-1.6,0.7-2.5
		c0-0.9-0.2-1.7-0.6-2.6c-0.4-0.9-1-1.7-1.7-2.6c-0.7-0.9-1.5-1.8-2.4-2.6c-0.9-0.9-1.8-1.8-2.7-2.6c-1-0.9-1.9-1.9-2.9-2.8
		c-1-0.9-1.8-1.9-2.6-2.9c-0.7-1-1.3-2-1.8-3c-0.5-1-0.7-2.1-0.7-3.1c0-1.6,0.4-2.9,1.3-4.1c0.9-1.1,2-2.1,3.2-2.8
		c1.3-0.7,2.7-1.3,4.2-1.6c1.5-0.3,2.9-0.5,4.2-0.5c1.8,0,3.5,0.2,5,0.7c0.1,0.1,0.2,0.2,0.2,0.3c-0.2,2.3-0.5,4.6-0.8,7
		c0,0.1-0.1,0.2-0.3,0.2c-0.1,0-0.2-0.1-0.3-0.2c-0.4-1.6-1.1-3-2.1-4.2c-1-1.2-2.4-1.7-4.1-1.7c-1.8,0-3.2,0.6-4.4,1.7
		c-1.2,1.1-1.8,2.6-1.8,4.3c0,0.9,0.2,1.8,0.6,2.6c0.4,0.8,0.9,1.6,1.5,2.3c0.6,0.7,1.3,1.5,2.2,2.2c0.8,0.7,1.7,1.4,2.6,2.2
		c1,0.8,1.9,1.6,2.9,2.5c0.9,0.9,1.8,1.8,2.5,2.7c0.7,0.9,1.3,2,1.8,3c0.5,1.1,0.7,2.2,0.7,3.5C434,41.8,433.6,43.3,432.7,44.6z"/>
</g>
</svg>
