<?xml version="1.0" encoding="utf-8"?>
<!-- Generator: Adobe Illustrator 21.0.0, SVG Export Plug-In . SVG Version: 6.00 Build 0)  -->
<svg version="1.1" xmlns="http://www.w3.org/2000/svg" xmlns:xlink="http://www.w3.org/1999/xlink" x="0px" y="0px"
	 viewBox="0 0 576 576" enable-background="new 0 0 576 576" xml:space="preserve">
<g id="Layer_2">
	<path d="M34.729,23.894c-2.741,33.795-4.113,51.839-4.113,54.138c0,2.299,1.25,3.449,3.751,3.449l4.96-0.121l0.242,0.483
		l-1.089,5.445c-5.163-0.324-8.752-0.485-10.767-0.485c-3.551,0-7.341,0.322-11.373,0.968l0.604-5.565
		c2.581-0.322,4.436-1.149,5.565-2.48c1.129-1.331,1.855-3.609,2.178-6.835c3.549-32.342,5.324-49.663,5.324-51.962
		s-0.829-3.972-2.481-5.021c-1.652-1.047-4.336-1.694-8.045-1.937l-0.363-0.604l0.969-4.234c6.21,0.404,10.604,0.604,13.187,0.604
		l8.226-0.483c6.854,22.018,13.671,42.022,20.447,60.007h0.604c6.292-16.775,13.267-36.698,20.931-59.766
		c3.87,0.163,6.533,0.242,7.983,0.242l13.067-0.725l0.242,0.483l-0.606,4.476c-3.468,0.405-5.929,1.11-7.379,2.118
		c-1.452,1.01-2.177,2.522-2.177,4.536c0,6.213,1.047,22.666,3.145,49.361c0.562,4.761,1.21,7.864,1.936,9.316
		c0.725,1.451,2.056,2.178,3.992,2.178l3.387-0.242l0.242,0.485l-1.089,5.444c-4.759-0.242-8.589-0.364-11.492-0.364l-12.583,0.968
		l0.483-5.565c4.759-0.564,7.139-2.58,7.139-6.048l-4.113-52.264h-0.606l-23.35,64.362l-2.903,0.846L35.335,23.894H34.729z"/>
	<path d="M183.899,56.377c0,9.155-3.145,16.897-9.437,23.228c-6.291,6.332-13.873,9.497-22.744,9.497
		c-8.874,0-15.87-2.68-20.991-8.045c-5.122-5.363-7.681-12.621-7.681-21.777c0-9.153,3.103-16.877,9.315-23.167
		c6.21-6.292,13.772-9.437,22.684-9.437c8.911,0,15.949,2.662,21.112,7.985C181.316,39.984,183.899,47.224,183.899,56.377z
		 M133.327,57.344c0,7.542,1.876,13.752,5.627,18.631c3.749,4.882,8.629,7.319,14.639,7.319c6.006,0,10.827-2.116,14.457-6.352
		c3.63-4.234,5.444-10.121,5.444-17.663c0-7.539-1.935-13.731-5.807-18.57c-3.87-4.84-8.812-7.26-14.82-7.26
		c-6.01,0-10.767,2.098-14.276,6.291C135.082,43.936,133.327,49.804,133.327,57.344z"/>
	<path d="M241.728,31.09c3.709,2.704,5.565,6.151,5.565,10.345c0,8.307-4.761,14.599-14.276,18.873L243.3,75.794
		c1.937,2.903,3.791,4.96,5.565,6.17c1.774,1.21,3.911,1.814,6.413,1.814l0.483,0.606l-0.604,3.751l-9.316,0.968
		c-3.791,0-7.3-2.944-10.525-8.832l-10.163-17.785h-7.864l-0.242,12.945c0,3.308,0.381,5.384,1.149,6.231
		c0.766,0.846,2.762,1.312,5.99,1.391l0.241,0.363l-0.968,4.598c0-0.163-3.711-0.242-11.13-0.242l-12.098,0.363l0.847-4.961
		c2.984-0.402,4.961-1.089,5.928-2.057c0.968-0.968,1.452-2.783,1.452-5.444l0.121-38.594c0-1.936-0.242-3.246-0.727-3.932
		c-0.483-0.684-1.412-1.028-2.782-1.028l-3.387,0.121l-0.364-0.485l0.725-4.598c5.082,0.163,8.872,0.242,11.373,0.242l12.946-0.363
		C232.897,27.037,238.018,28.389,241.728,31.09z M227.332,57.162c6.775-2.74,10.163-7.137,10.163-13.187
		c0-7.822-5.769-11.734-17.301-11.734c-1.131,0-1.693,0.725-1.693,2.178c-0.648,9.841-0.968,17.1-0.968,21.776L227.332,57.162z"/>
	<path d="M342.625,87.652c-3.953-0.163-6.756-0.242-8.408-0.242c-1.654,0-5.867,0.242-12.642,0.726l0.485-4.96
		c2.095-0.242,3.586-0.727,4.475-1.452c0.887-0.725,1.331-1.814,1.331-3.266l-3.024-37.868h-0.604
		c-4.761,12.18-10.81,28.11-18.148,47.788l-3.509,0.725c-8.148-22.098-14.237-38.27-18.269-48.513h-0.604
		c-2.018,24.438-3.024,37.546-3.024,39.32c0,1.775,1.047,2.661,3.145,2.661h3.871l0.242,0.363l-0.847,4.84
		c-4.598-0.242-8.027-0.364-10.284-0.364l-8.832,0.726l0.485-4.96c2.095-0.242,3.588-0.866,4.476-1.875
		c0.885-1.008,1.491-2.762,1.814-5.263c2.822-22.582,4.234-35.85,4.234-39.803c0-1.612-0.625-2.801-1.875-3.568
		c-1.25-0.766-3.407-1.229-6.471-1.392l-0.363-0.604l0.847-3.992c5.323,0.323,9.074,0.483,11.251,0.483l7.864-0.363
		c5.323,16.616,10.526,31.334,15.607,44.16h0.606c4.918-12.583,10.283-27.222,16.09-43.917h1.814l6.171,0.121l10.525-0.604
		l0.242,0.362l-0.604,4.236c-2.825,0.323-4.799,0.867-5.929,1.633c-1.131,0.767-1.693,1.956-1.693,3.569
		c0,5.565,0.847,18.026,2.54,37.383c0.404,3.63,0.927,6.009,1.573,7.138c0.644,1.131,1.733,1.693,3.266,1.693l2.782-0.121
		l0.242,0.364L342.625,87.652z"/>
	<path d="M419.692,56.377c0,9.155-3.145,16.897-9.437,23.228c-6.291,6.332-13.873,9.497-22.744,9.497
		c-8.874,0-15.87-2.68-20.991-8.045c-5.123-5.363-7.681-12.621-7.681-21.777c0-9.153,3.103-16.877,9.315-23.167
		c6.21-6.292,13.772-9.437,22.684-9.437c8.911,0,15.949,2.662,21.112,7.985C417.109,39.984,419.692,47.224,419.692,56.377z
		 M369.12,57.344c0,7.542,1.875,13.752,5.626,18.631c3.749,4.882,8.63,7.319,14.639,7.319c6.007,0,10.827-2.116,14.457-6.352
		c3.63-4.234,5.444-10.121,5.444-17.663c0-7.539-1.935-13.731-5.807-18.57c-3.871-4.84-8.812-7.26-14.82-7.26
		c-6.009,0-10.767,2.098-14.276,6.291C370.875,43.936,369.12,49.804,369.12,57.344z"/>
	<path d="M481.996,30.305h-3.63l-0.242-0.485l0.848-4.719c4.434,0.242,7.862,0.363,10.282,0.363l10.284-0.725l-0.485,4.959
		c-4.355,0.565-6.573,2.583-6.654,6.05l-1.451,52.022l-4.719,1.331c-12.421-18.066-24.075-34.317-34.964-48.756h-0.604
		l-0.363,36.658c0,1.533,0.242,2.582,0.727,3.145c0.483,0.565,1.289,0.847,2.418,0.847l4.84-0.121l0.363,0.363l-0.968,4.84
		c-4.518-0.242-8.187-0.364-11.009-0.364l-10.042,0.726l0.604-4.96c3.952-0.485,5.968-2.46,6.05-5.928l1.33-39.924
		c0-2.015-0.585-3.407-1.754-4.174c-1.17-0.766-3.407-1.349-6.714-1.754l-0.485-0.604l0.848-4.113
		c3.95,0.323,7.016,0.483,9.194,0.483l7.381-0.363c9.758,14.358,20.326,29.078,31.697,44.16h0.606l-0.121-34.965
		C485.262,31.637,484.173,30.305,481.996,30.305z"/>
	<path d="M532.687,73.253V33.208c-6.453,0.242-10.525,0.806-12.219,1.693c-1.856,0.889-3.226,4.355-4.113,10.405l-5.686,0.364
		c0.806-6.129,1.289-11.979,1.452-17.544l0.968-0.847l8.589,0.968h30.851l8.832-0.968l0.968,0.847
		c0.16,5.888,0.604,11.615,1.331,17.18l-5.565,0.364c-0.324-2.178-0.606-3.892-0.848-5.142c-0.241-1.25-0.706-2.378-1.391-3.387
		c-0.687-1.008-1.21-1.713-1.573-2.118c-0.362-0.402-1.312-0.766-2.842-1.089c-1.695-0.322-4.64-0.564-8.833-0.725
		c-1.048,9.759-1.572,24.48-1.572,44.158c0,2.341,0.443,3.993,1.331,4.961c0.885,0.968,2.337,1.451,4.355,1.451l5.323-0.241
		l0.364,0.362l-0.848,5.082c-7.016-0.242-12.098-0.364-15.243-0.364l-14.397,0.485l0.846-4.84c4.598-0.322,7.399-1.089,8.409-2.299
		C532.183,80.754,532.687,77.851,532.687,73.253z"/>
</g>
<g id="Layer_3">
	<path d="M53.939,552.096c0,1.846,0.201,3.071,0.609,3.68c0.405,0.606,1.191,0.911,2.361,0.911l3.037-0.203l0.136,0.271
		l-0.609,3.105c-3.554-0.136-6.323-0.204-8.303-0.204l-7.762,0.136l0.606-3.037c2.115-0.045,3.499-0.517,4.152-1.418
		c0.651-0.901,0.979-2.836,0.979-5.806v-10.194c-4.771-0.044-8.193-0.068-10.261-0.068l-11.207,0.742l-0.269,12.084
		c0,1.846,0.201,3.071,0.606,3.68c0.405,0.606,1.193,0.911,2.363,0.911l3.037-0.203l0.135,0.271l-0.608,3.105
		c0-0.136-1.452-0.204-4.354-0.204c-2.902,0-5.56,0.089-7.966,0.269c-2.408,0.18-3.635,0.36-3.68,0.54l0.405-3.105
		c2.071-0.405,3.466-1.001,4.187-1.789c0.718-0.787,1.079-2.126,1.079-4.017l0.068-28.353c0-1.439-0.167-2.408-0.507-2.902
		c-0.337-0.496-1-0.744-1.99-0.744l-2.296,0.136l-0.135-0.27l0.473-2.971c3.285,0.135,5.557,0.204,6.819,0.204
		c1.844,0,4.477-0.204,7.898-0.609l-0.269,3.037c-1.935,0.316-3.14,0.801-3.612,1.452c-0.473,0.653-0.755,2.194-0.844,4.625
		l-0.405,10.936l11.34,0.068c2.88,0,6.21-0.225,9.992-0.676l0.068-12.285c0-1.439-0.17-2.408-0.507-2.902
		c-0.339-0.496-1.003-0.744-1.993-0.744l-2.296,0.136l-0.134-0.27l0.473-2.971c0,0.135,1.35,0.204,4.049,0.204
		c3.15,0,6.707-0.204,10.666-0.609l-0.269,3.037c-1.666,0.227-2.779,0.598-3.34,1.115c-0.564,0.517-0.89,1.429-0.979,2.734
		C54.253,536.076,53.939,545.796,53.939,552.096z"/>
	<path d="M81.414,535.76l6.953,0.068l8.237-0.744l0.269,0.339l-0.945,3.983c-3.871-0.136-6.829-0.204-8.877-0.204
		c-2.048,0-3.973,0.159-5.772,0.473c-0.18,6.48-0.269,10.711-0.269,12.69c0,1.982,0.28,3.186,0.843,3.612
		c0.562,0.428,2.395,0.642,5.501,0.642c3.105,0,5.445-0.191,7.023-0.574c1.575-0.382,2.709-1.102,3.408-2.16
		c0.698-1.057,1.225-2.891,1.586-5.503l2.971-0.337l0.201,0.337c-0.81,3.737-1.418,7.517-1.823,11.342l-0.337,0.405
		c-9.361-0.316-15.482-0.473-18.363-0.473c-4.411,0-8.235,0.225-11.476,0.674l0.405-3.105c2.026-0.27,3.41-0.797,4.152-1.586
		c0.742-0.786,1.113-2.149,1.113-4.085l0.068-28.353c0-1.439-0.168-2.408-0.507-2.902c-0.337-0.496-1.001-0.744-1.99-0.744
		l-2.296,0.136l-0.136-0.27l0.473-2.971c3.555,0.135,8.394,0.204,14.516,0.204c6.12,0,11.16-0.271,15.122-0.81l0.201,0.405
		c-0.765,3.33-1.282,7.065-1.552,11.204l-3.241,0.271c0.089-1.305,0.135-2.272,0.135-2.904c0-2.204-0.53-3.555-1.588-4.049
		c-1.058-0.496-3.33-0.744-6.817-0.744c-3.489,0-5.458,0.125-5.908,0.371c-0.451,0.248-0.699,1.003-0.742,2.262L81.414,535.76z"/>
	<path d="M140.144,519.22c2.431,1.891,3.646,4.343,3.646,7.357c0,5.897-3.307,10.353-9.922,13.367l7.425,11.747
		c1.304,2.16,2.576,3.656,3.813,4.489c1.238,0.833,2.758,1.249,4.557,1.249l0.269,0.269l-0.405,2.296l-5.738,0.744
		c-1.126,0-2.329-0.574-3.612-1.723c-1.283-1.147-2.463-2.709-3.544-4.691l-7.221-13.097h-5.604l-0.201,10.06
		c0,2.429,0.269,3.959,0.81,4.591c0.54,0.629,1.891,0.943,4.051,0.943l0.134,0.271l-0.606,2.834c0-0.044-2.387-0.112-7.156-0.201
		l-7.764,0.201l0.608-3.037c2.115-0.224,3.5-0.685,4.153-1.384c0.651-0.698,0.977-2.014,0.977-3.949l0.068-28.353
		c0-1.439-0.168-2.408-0.507-2.902c-0.337-0.496-1.001-0.744-1.99-0.744l-2.296,0.136l-0.136-0.27l0.473-2.971
		c3.286,0.135,5.783,0.204,7.493,0.204l8.305-0.271C134.407,516.384,137.715,517.329,140.144,519.22z M138.188,528.199
		c0-5.941-4.119-8.911-12.353-8.911c-0.452,0-0.755,0.102-0.912,0.303c-0.159,0.204-0.261,0.619-0.305,1.248
		c-0.405,6.887-0.629,12.421-0.674,16.608l6.953,0.674c1.664-0.405,3.262-1.393,4.793-2.97c0.632-0.674,1.204-1.63,1.723-2.868
		C137.927,531.046,138.188,529.683,138.188,528.199z"/>
	<path d="M167.959,535.76l6.952,0.068l8.237-0.744l0.269,0.339l-0.945,3.983c-3.871-0.136-6.829-0.204-8.877-0.204
		c-2.048,0-3.972,0.159-5.772,0.473c-0.18,6.48-0.269,10.711-0.269,12.69c0,1.982,0.28,3.186,0.843,3.612
		c0.562,0.428,2.395,0.642,5.501,0.642c3.106,0,5.445-0.191,7.023-0.574c1.575-0.382,2.709-1.102,3.409-2.16
		c0.697-1.057,1.225-2.891,1.585-5.503l2.972-0.337l0.201,0.337c-0.81,3.737-1.418,7.517-1.823,11.342l-0.337,0.405
		c-9.361-0.316-15.482-0.473-18.363-0.473c-4.411,0-8.235,0.225-11.476,0.674l0.405-3.105c2.026-0.27,3.411-0.797,4.153-1.586
		c0.742-0.786,1.113-2.149,1.113-4.085l0.068-28.353c0-1.439-0.167-2.408-0.507-2.902c-0.337-0.496-1-0.744-1.99-0.744l-2.296,0.136
		l-0.135-0.27l0.473-2.971c3.554,0.135,8.394,0.204,14.515,0.204c6.12,0,11.16-0.271,15.122-0.81l0.201,0.405
		c-0.765,3.33-1.282,7.065-1.552,11.204l-3.241,0.271c0.089-1.305,0.136-2.272,0.136-2.904c0-2.204-0.53-3.555-1.588-4.049
		c-1.057-0.496-3.33-0.744-6.817-0.744c-3.489,0-5.458,0.125-5.907,0.371c-0.451,0.248-0.7,1.003-0.742,2.262L167.959,535.76z"/>
	<path d="M211.702,519.625l-0.068-0.269l0.405-2.904c3.601,0.135,6.143,0.204,7.629,0.204c3.15,0,6.414-0.248,9.789-0.744
		l0.201,0.473l-0.27,2.632c-2.296,0.182-3.836,0.451-4.623,0.812c-0.788,0.36-1.183,0.967-1.183,1.823
		c0,1.755,2.768,12.241,8.303,31.458h0.407l9.517-25.924l-1.215-3.713c-0.451-1.304-1.149-2.249-2.092-2.834
		c-0.945-0.585-2.275-0.922-3.983-1.013l-0.136-0.269l0.473-2.904c3.599,0.135,6.075,0.204,7.425,0.204
		c2.88,0,6.21-0.248,9.992-0.744l0.201,0.473l-0.269,2.632c-2.34,0.182-3.904,0.451-4.693,0.812c-0.786,0.36-1.18,0.945-1.18,1.755
		c0,1.484,2.789,11.993,8.371,31.526h0.405c7.291-19.669,10.937-30.131,10.937-31.392c0-1.575-1.531-2.362-4.591-2.362h-3.375
		l-0.135-0.271l0.473-2.902c3.374,0.316,6.503,0.473,9.384,0.473l7.156-0.204l-0.473,3.173c-1.35,0.091-2.296,0.326-2.836,0.708
		c-0.54,0.384-1.037,1.227-1.486,2.533l-14.176,36.454l-4.184,1.484c-2.567-9.225-5.379-18.766-8.438-28.622h-0.405l-9.587,27.138
		l-4.32,1.484c-3.737-13.231-7.493-25.674-11.275-37.332C216.968,520.954,214.943,519.669,211.702,519.625z"/>
	<path d="M292.509,535.76l6.952,0.068l8.237-0.744l0.269,0.339l-0.945,3.983c-3.871-0.136-6.829-0.204-8.877-0.204
		c-2.048,0-3.972,0.159-5.772,0.473c-0.18,6.48-0.269,10.711-0.269,12.69c0,1.982,0.28,3.186,0.844,3.612
		c0.562,0.428,2.395,0.642,5.5,0.642c3.106,0,5.446-0.191,7.023-0.574c1.575-0.382,2.709-1.102,3.409-2.16
		c0.697-1.057,1.225-2.891,1.585-5.503l2.972-0.337l0.201,0.337c-0.81,3.737-1.418,7.517-1.823,11.342l-0.337,0.405
		c-9.36-0.316-15.482-0.473-18.363-0.473c-4.411,0-8.235,0.225-11.476,0.674l0.405-3.105c2.026-0.27,3.411-0.797,4.153-1.586
		c0.742-0.786,1.113-2.149,1.113-4.085l0.068-28.353c0-1.439-0.168-2.408-0.507-2.902c-0.337-0.496-1.001-0.744-1.99-0.744
		l-2.296,0.136l-0.136-0.27l0.473-2.971c3.554,0.135,8.394,0.204,14.515,0.204c6.12,0,11.16-0.271,15.122-0.81l0.201,0.405
		c-0.765,3.33-1.282,7.065-1.552,11.204l-3.241,0.271c0.089-1.305,0.136-2.272,0.136-2.904c0-2.204-0.53-3.555-1.588-4.049
		c-1.058-0.496-3.33-0.744-6.817-0.744c-3.489,0-5.458,0.125-5.907,0.371c-0.451,0.248-0.699,1.003-0.742,2.262L292.509,535.76z"/>
	<path d="M351.442,560.467c-1.891,0-3.714-0.191-5.469-0.574c-1.755-0.382-3.465-0.954-5.129-1.721l-0.339-0.674
		c0.54-3.466,0.812-7.381,0.812-11.747l3.038-0.337c0,4.86,0.549,8.033,1.653,9.519c1.102,1.484,3.275,2.228,6.514,2.228
		c3.241,0,5.715-0.663,7.427-1.993c1.709-1.327,2.565-3.139,2.565-5.435c0-1.98-1.013-3.735-3.037-5.265
		c-1.486-1.123-2.972-2.069-4.456-2.834c-1.486-0.765-2.262-1.159-2.329-1.183c-0.068-0.021-0.136-0.055-0.204-0.102
		c-0.066-0.043-0.551-0.303-1.45-0.776c-0.901-0.472-1.857-1.013-2.87-1.619c-1.013-0.608-2.126-1.429-3.341-2.465
		c-2.387-1.98-3.578-4.341-3.578-7.088c0-3.555,1.495-6.535,4.49-8.945c2.991-2.406,6.671-3.61,11.037-3.61
		c3.419,0,6.862,0.562,10.327,1.687l0.204,0.405c-0.721,3.465-1.215,7.268-1.486,11.408l-2.633,0.271l-0.405-0.339
		c0.135-0.945,0.203-2.114,0.203-3.51c0-2.385-0.585-4.028-1.755-4.928c-1.172-0.899-3.129-1.35-5.874-1.35
		c-2.745,0-4.918,0.621-6.514,1.857c-1.598,1.238-2.397,2.768-2.397,4.591c0,1.823,0.776,3.398,2.329,4.725
		c1.552,1.329,4.195,2.961,7.932,4.895c3.735,1.935,6.323,3.533,7.762,4.793c2.431,2.071,3.646,4.39,3.646,6.954
		c0,3.87-1.552,7.031-4.657,9.484C360.353,559.242,356.347,560.467,351.442,560.467z"/>
	<path d="M390.866,548.722v-29.434c-2.118,0.091-3.635,0.157-4.557,0.201c-0.924,0.046-1.914,0.204-2.97,0.473
		c-1.06,0.271-1.734,0.519-2.026,0.744c-0.293,0.224-0.653,0.731-1.079,1.518c-0.43,0.788-0.699,1.52-0.812,2.194
		c-0.112,0.676-0.282,1.802-0.507,3.377l-3.171,0.269c0.538-3.959,0.878-7.853,1.011-11.679l0.609-0.539l5.602,0.742h20.928
		l5.738-0.742l0.608,0.539c0.089,2.927,0.428,6.73,1.013,11.41l-3.173,0.269c-0.271-1.575-0.472-2.722-0.608-3.442
		c-0.134-0.721-0.405-1.486-0.81-2.296c-0.405-0.81-0.765-1.327-1.081-1.552c-0.314-0.225-0.956-0.483-1.923-0.778
		c-0.969-0.293-1.901-0.46-2.802-0.507c-0.901-0.045-2.296-0.11-4.184-0.201c-0.721,7.201-1.081,18.138-1.081,32.808
		c0,1.666,0.293,2.847,0.877,3.544c0.585,0.698,1.575,1.047,2.97,1.047l3.714-0.203l0.201,0.271l-0.606,3.105
		c-4.502-0.136-7.809-0.204-9.924-0.204l-9.248,0.269l0.54-2.902c3.15-0.269,5.062-0.82,5.738-1.654
		C390.527,554.538,390.866,552.323,390.866,548.722z"/>
	<path d="M436.903,560.331l-0.204-0.471l0.271-2.635c2.296-0.178,3.871-0.45,4.725-0.81c0.854-0.358,1.282-0.966,1.282-1.823
		c0-0.854-0.201-1.912-0.606-3.171l-2.228-7.359c-1.081-0.044-3.061-0.068-5.942-0.068c-2.881,0-5.693,0.18-8.438,0.54l-2.497,7.02
		c-0.405,1.215-0.609,2.094-0.609,2.632c0,1.846,1.351,2.768,4.051,2.768h3.848l0.135,0.27l-0.405,2.904
		c-3.286-0.316-6.414-0.473-9.384-0.473l-7.425,0.204l0.54-3.173c1.259-0.135,2.27-0.574,3.037-1.316
		c0.763-0.744,1.507-2.037,2.228-3.883l13.163-34.496l4.252-1.147h0.54c3.782,13.996,7.359,26.057,10.734,36.183
		c0.54,1.666,1.259,2.836,2.16,3.51c0.901,0.676,2.34,1.104,4.322,1.282l0.134,0.271l-0.473,2.768
		c-3.239-0.136-6.02-0.204-8.337-0.204C443.461,559.657,440.502,559.882,436.903,560.331z M432.92,541.227
		c1.62,0,3.714-0.11,6.279-0.337l-5.333-17.687h-0.473l-6.414,18.023H432.92z"/>
	<path d="M493.947,549.868v-27.339c0-1.935-0.744-2.904-2.228-2.904l-2.567,0.068l-0.133-0.27l0.606-3.039
		c2.745,0.18,4.727,0.271,5.942,0.271c1.98,0,4.364-0.181,7.156-0.541l-0.337,3.106c-1.577,0.224-2.724,0.665-3.445,1.316
		c-0.721,0.653-1.102,1.632-1.147,2.936l-0.945,37.94l-1.959,0.945c-8.146-12.646-16.517-25.046-25.112-37.196h-0.337l-0.339,28.826
		c0,0.99,0.159,1.687,0.473,2.092c0.316,0.405,0.854,0.608,1.621,0.608l3.443-0.068l0.135,0.269l-0.608,3.037
		c-2.836-0.18-4.928-0.269-6.279-0.269c-2.16,0-4.547,0.18-7.156,0.54l0.339-3.105c2.743-0.316,4.14-1.732,4.184-4.254l0.878-29.499
		c0-1.395-0.415-2.385-1.249-2.972c-0.833-0.583-2.374-0.988-4.625-1.215l-0.201-0.337l0.54-2.497
		c2.609,0.225,4.545,0.337,5.806,0.337l4.521-0.271c6.66,10.352,14.221,21.512,22.683,33.484H493.947z"/>
	<path d="M529.051,560.467c-4.186-0.54-7.088-0.81-8.71-0.81c-2.698,0-5.626,0.269-8.776,0.81l0.405-3.105
		c2.071-0.405,3.465-1.001,4.186-1.789c0.719-0.787,1.079-2.126,1.079-4.017l0.068-28.353c0-1.439-0.168-2.408-0.507-2.902
		c-0.337-0.496-1.001-0.744-1.99-0.744l-2.296,0.136l-0.136-0.27l0.473-2.971c3.016,0.135,5.378,0.204,7.088,0.204l10.261-0.271
		c6.571,0,11.915,1.869,16.033,5.604c4.118,3.735,6.176,8.776,6.176,15.122c0,6.344-2.251,11.826-6.751,16.438
		C541.157,558.161,535.622,560.467,529.051,560.467z M525.541,519.693c-0.945,0-1.577,0.102-1.891,0.303
		c-0.316,0.204-0.496,0.598-0.54,1.182c-0.674,17.327-1.013,27.217-1.013,29.669c0,2.453,0.564,4.095,1.69,4.928
		c1.123,0.833,3.398,1.249,6.817,1.249c4.86,0,8.686-1.677,11.478-5.03c2.79-3.351,4.184-7.976,4.184-13.873
		c0-5.895-1.789-10.44-5.367-13.636C537.32,521.291,532.201,519.693,525.541,519.693z"/>
</g>
<g id="Layer_4">
	<path fill-rule="evenodd" clip-rule="evenodd" d="M380.167,240.293c-0.326-0.239-2.187,0.247-2.719,0.54
		c-0.874,0.483-1.651,1.134-2.534,1.762c-1.104-1.466-0.281-2.571,0.41-3.83c0.347-0.633,0.969-1.759,0.996-2.567
		c-1.152-0.185-2.701,0.386-3.521,0.739c-0.903,0.389-2.226,1.404-3.063,1.953c-0.198-0.144,0.571-4.18,1.22-5.733
		c-2.121,0.528-4.585,2.187-6.195,4.007c-0.506-2.007-0.323-3.434,0-5.202c-0.634,0-3.916,2.122-3.778,4.111
		c0.063,0.914-0.009,2.139-0.557,2.734c-1.789,1.949-1.876,4.231-1.379,6.476c0.533,2.389,1.484,4.699,2.396,6.985
		c1.166,2.903,0.281,6.488-1.846,8.752c-1.899,2.018-4.367,1.967-6.691,2.385c-1.564,0.284-2.159-0.733-2.001-2.379
		c0.084-0.867-0.182-1.773-0.305-2.81c-2.025,0.9-3.676,1.636-5.576,2.486c-0.051-2.193,2.103-3.957,0.673-5.434
		c-1.834,0.346-3.248,0.873-4.618,0.781c-0.963-0.066-2.193-0.765-2.725-1.565c-0.82-1.223,0.781-1.588,1.376-2.311
		c0.069-0.084,0.057-0.241,0.111-0.505c-1.394-1.461-3.159-0.679-4.804-0.696c-0.999-0.013-2.184,0.108-2.944-0.374
		c-4.206-2.659-7.29-6.517-10.284-10.381c-2.788-3.597-5.259-7.441-7.945-11.12c-1.783-2.436-3.611-4.85-5.582-7.131
		c-2.543-2.943-5.121-5.876-7.927-8.558c-2.139-2.04-4.774-3.549-6.975-5.531c-2.638-2.377-5.097-4.952-7.538-7.537
		c-1.457-1.543-2.734-3.248-4.059-4.908c-2.043-2.556-1.615-5.697-1.998-8.645c-0.715-5.492,4.711-11.124,10.287-11.347
		c6.015-0.242,12.01-1.097,18.013-1.689c0.32-0.028,0.643-0.069,0.948-0.168c1.412-0.461,2.492-2.179,2.061-3.455
		c-0.446-1.291-0.871-2.665-1.669-3.727c-0.395-0.522-2.318-0.676-2.357-0.567c-0.658,1.826-2.411,2.019-3.778,2.293
		c-3.622,0.728-7.334,1.357-10.682-1.128c-1.894-1.403-2.937-4.251-1.983-5.885c1.597-2.74,3.593-5.019,6.617-6.368
		c3.47-1.548,6.398-0.633,7.957,2.777c0.134,0.286,0.347,1.14,0.455,1.442c0.227-0.112,1.056-2.677,1.068-3.604
		c0.012-1.161,0.829-1.509,1.645-0.615c0.691,0.763,1.128,1.756,1.675,2.65c0.2,0.325,0.386,0.66,0.82,1.409
		c0.278-1.289,0.359-2.122,0.652-2.88c0.23-0.591,0.61-1.337,1.122-1.569c2.264-1.032,3.679-3.145,3.799-5.622
		c0.132-2.828,0.5-5.571,2.54-7.88c0.727-0.826,0.867-2.224,1.119-3.392c0.251-1.171-0.443-1.889-1.556-1.989
		c-2.106-0.196-4.355-0.775-6.311-0.287c-5.297,1.319-10.317,0.136-15.372-1.011c-0.694-0.163-1.418-0.896-1.815-1.551
		c-1.035-1.708-1.816-3.573-2.869-5.269c-0.365-0.594-1.184-1.19-1.854-1.262c-2.74-0.304-5.498-0.395-8.253-0.586
		c-4.98-0.347-9.883-0.172-14.564,1.849c-1.858,0.802-2.402,0.528-2.273-1.484c0.215-3.38-5.465-6.503-8.064-5.863
		c-4.275,1.059-7.583,3.684-11.091,5.99c-3.389,2.239-3.413,7.031-0.47,9.334c0.721,0.564,1.645,0.872,2.683,1.401
		c-0.52,0.847-0.795,1.835-1.448,2.284c-4.185,2.888-8.151,5.981-11.504,9.871c-3.895,4.514-7.601,9.02-9.871,14.7
		c-3.036,7.616-4.597,15.448-4.783,23.572c-0.057,2.269-0.921,3.886-2.533,5.286c-2.946,2.563-4.873,5.842-5.297,9.635
		c-0.359,3.211,0.146,6.522,0.212,9.787c0.009,0.531-0.134,1.135-0.41,1.582c-1.783,2.906-4.52,4.07-7.807,3.851
		c-1.654-0.112-2.411,0.781-1.896,1.98c1.002,2.353,1.343,5.326,4.66,6.047c0.574,0.126,1.433,1.711,1.295,1.866
		c-1.283,1.493-1.337,3.93-3.715,4.616c-1.307,0.378-2.48,1.219-3.775,1.883c1.92,2.673,4.161,4.267,7.394,4.232
		c1.412-0.016,1.959,0.693,1.313,2.148c-0.844,1.904-1.451,3.92-2.39,5.773c-0.658,1.303-1.732,2.393-2.546,3.624
		c-0.38,0.57-0.84,1.283-0.772,1.875c0.057,0.516,0.733,1.246,1.256,1.369c1.355,0.314,2.776,0.465,4.167,0.458
		c2.48-0.012,2.931,0.683,2.016,3.029c-0.374,0.961-0.855,2.393-0.428,3.051c1.307,2.013,0.281,3.433-0.574,5.076
		c-0.395,0.76-0.389,1.723-0.568,2.596c0.981,0.057,2.049,0.392,2.914,0.111c1.292-0.417,2.444-1.268,4.098-2.179
		c1.364,2.685,2.719,5.238,3.975,7.836c1.938,3.995,3.057,8.329,2.459,12.646c-0.682,4.91-2.306,9.691-3.503,14.533
		c-0.84,3.402-2.055,6.775-2.375,10.231c-0.497,5.422-0.464,10.897-0.479,16.358c-0.006,2.118-0.891,3.538-2.246,5.052
		c-2.372,2.646-3.939,5.625-3.733,9.485c0.185,3.601-0.164,7.261-0.553,10.863c-0.126,1.161-0.972,2.356-1.759,3.311
		c-1.645,1.994-3.476,3.845-5.217,5.736c1.376,1.179,8.57,1.316,10.362,0.087c1.472-1.008,2.426-0.791,2.534,0.968
		c0.123,1.901-0.533,3.83-0.64,5.762c-0.069,1.203-0.15,2.721,0.485,3.578c1.113,1.505,1.217,2.714,0.119,4.117
		c0.912,1.298,2.163,2.647,0.317,3.953c-1.481,1.048-0.891,1.605,0.266,2.091c1.639,0.686,2.1,1.919,1.962,3.56
		c-0.132,1.537-0.263,3.078-0.272,4.62c-0.009,1.292,0.159,2.489,2.058,2.185c0.374-0.06,1.313,0.84,1.262,1.189
		c-0.146,1.003-0.712,1.935-1.032,2.925c-0.236,0.734-0.515,1.545-0.404,2.261c0.042,0.283,1.101,0.41,1.699,0.603
		c0.634,0.208,1.415,0.239,1.885,0.64c1.486,1.258,1.977,3,1.657,4.868c-0.619,3.605-3.488,5.076-6.395,6.443
		c-1.645,0.776-3.335,1.463-5.172,2.259c3.141,3.694,7.741,3.362,11.744,5.122c-1.122,0.915-1.855,1.807-2.797,2.206
		c-1.253,0.528-2.659,0.694-4.011,0.962c-0.655,0.132-1.334,0.132-2.004,0.188c0.278,0.832,0.353,1.82,0.858,2.471
		c1.633,2.1,3.871,3.1,6.521,3.522c0.832,0.133,1.481,1.418,2.211,2.174c-0.655,0.395-1.37,0.723-1.953,1.207
		c-0.451,0.377-1.14,1.065-1.035,1.406c0.201,0.648,0.787,1.418,1.397,1.651c1.295,0.495,2.779,0.527,4.056,1.059
		c0.565,0.236,0.823,1.219,1.214,1.86c-0.619,0.278-1.238,0.557-1.86,0.835c-0.523,0.235-1.478,0.462-1.481,0.703
		c-0.009,0.681,0.168,1.669,0.643,1.989c1.167,0.794,2.558,1.252,3.823,1.91c1.071,0.555,2.213,1.07,3.075,1.871
		c0.422,0.39,0.374,1.4,0.317,2.109c-0.012,0.157-0.972,0.319-1.496,0.324c-0.619,0.009-1.241-0.142-2.519-0.311
		c0.924,1.507,1.331,3.013,2.291,3.576c2.57,1.5,5.339,2.68,8.094,3.832c3.386,1.421,6.123,3.609,7.035,7.168
		c0.951,3.706,1.176,7.59,1.87,11.37c0.338,1.838,0.721,3.778,1.615,5.374c1.729,3.094,6.234,3.651,8.741,1.184
		c3.182-3.135,6.108-6.537,9.369-9.581c3.287-3.055,6.652-6.106,11.088-7.526c2.177-0.695,4.31-1.597,6.539-2.068
		c3.601-0.763,7.266-1.228,10.897-1.852c1.531-0.262,3.338-0.199,4.514-1.014c2.133-1.476,5.618-3.413,8.83-1.977
		c-0.404-2.404-1.81-4.231-4.49-4.592c-1.645-0.224-1.259-1.703-0.933-2.554c1.08-2.813,5.435-2.398,5.435-2.398
		c-1.843-3.175-3.73-4.143-5.677-4.08c1.208-4.022,5.54-2.568,6.877-2.764c-2.504-2.828-4.517-4.738-8.292-4.068
		c-1.077,0.191-1.702-0.812-1.702-1.932c0-1.844,2.486-4.143,4.143-4.469c-1.059-0.781-4.2-1.075-5.363-0.776
		c-0.901,0.232-1.798,0.743-2.522,1.342c-0.87,0.715-1.4,1.988-2.348,2.442c-4.406,2.097-6.748,6.364-10.245,9.388
		c-2.435,2.109-4.9,4.239-7.607,5.957c-1.092,0.691-2.767,0.809-4.185-0.606c-3.826-3.823-5.211-8.791-6.353-13.706
		c-1.248-5.318-1.071-10.833-0.338-16.295c0.15-1.087-0.523-2.264-0.697-3.414c-0.225-1.508-0.912-3.328-0.341-4.485
		c0.763-1.535,2.468-1.931,4.451-0.936c1.463,0.734,3.356,0.649,5.07,0.794c0.497,0.039,1.032-0.39,1.687-0.664
		c-3.437-3.008-3.242-4.457,0.569-6.292c2.405-1.161,2.647-1.929,1.355-4.174c-0.21-0.372-0.299-0.818-0.473-1.325
		c1.86-1.14,4.968-0.23,5.453-3.489c-1.169-0.377-2.345-0.758-3.523-1.141c0.012-0.195,0.024-0.39,0.033-0.585
		c1.484-0.696,3.021-1.292,4.439-2.103c2.306-1.322,3.153-2.393,1.977-4.478c-0.849-1.494-1.457-3.127-2.273-4.636
		c-2.611-4.844-0.401-10.185,5.049-12.07c4.768-1.645,12.21,0.678,15.357,4.651c1.941,2.456,3.775,4.959,5.528,7.566
		c1.959,2.902,2.91,6.08,4.047,9.182c1.46,3.996,2.184,8.256,3.273,12.391c0.61,2.314,2.384,3.512,4.774,3.887
		c2.65,0.411,4.568-1.084,6.47-2.308c4.415-2.839,6.078-7.774,8.633-12.029c1.322-2.194,2.519-4.655,4.388-6.279
		c3.32-2.886,7.152-5.179,10.688-7.831c1.292-0.963,2.336-2.267,3.527-3.382c0.451-0.419,0.981-0.781,1.513-1.105
		c2.043-1.236,3.464-2.608,5.863-2.227c1.235,0.198,2.351,0.308,2.351,0.308c-0.419-1.623-2.097-4.508-4.323-4.788
		c-0.356-0.04-0.658-0.465-1.588-1.159c2.686-1.089,4.893-1.982,7.613-3.085c-1.845-1.11-3.326-2.104-4.908-2.893
		c-0.581-0.292-1.409-0.106-2.121-0.099c-0.416,0.002-0.861,0.208-1.206,0.082c-0.173-0.057-0.308-0.716-0.194-0.995
		c0.251-0.603,0.544-1.333,1.05-1.651c1.409-0.894,2.935-1.609,4.415-2.392c-1.373-2.414-4.296-3.703-6.943-2.879
		c-1.6,0.501-1.878-0.22-1.765-1.455c0.054-0.579,0.296-1.238,0.667-1.683c1.193-1.416,2.489-2.748,4.08-4.475
		c-1.597-0.139-2.952-0.197-4.298-0.381c-3.563-0.495-6.051,2.727-7.391,5.084c-0.5,0.869-1.367,1.879-2.249,2.11
		c-2.055,0.538-2.737,1.726-2.507,3.642c0.548,4.617-2.462,7.58-5.321,10.236c-3.55,3.29-12.437,2.882-16.221-0.32
		c-1.558-1.317-3.192-2.771-4.134-4.512c-0.924-1.705-1.534-3.902-1.361-5.799c0.359-3.92,3.362-5.656,7.28-5.187
		c1.759,0.209,3.647-0.181,5.387-0.628c0.613-0.156,0.981-1.303,1.46-1.998c-0.619-0.319-1.218-0.682-1.857-0.944
		c-0.607-0.25-1.248-0.404-1.87-0.595c0.024-0.224,0.048-0.443,0.075-0.658c0.52-0.126,1.056-0.202,1.558-0.382
		c0.673-0.247,1.319-0.573,1.974-0.866c-0.428-0.718-0.78-1.497-1.304-2.136c-1.083-1.325-2.432-2.462-3.347-3.88
		c-0.942-1.466-0.117-2.637,1.636-3.213c2.288-0.742,4.792-1.169,6.395-3.245c0.278-0.359,0.47-1.174,0.263-1.436
		c-0.317-0.401-1.011-0.688-1.55-0.693c-0.993-0.016-2.246,0.642-2.937,0.242c-1.971-1.138-3.963-2.447-5.495-4.102
		c-2.551-2.753-4.586-5.988-7.167-8.711c-1.298-1.376-3.204-2.496-5.034-2.984c-5.95-1.587-11.636-0.368-17.041,2.396
		c-1.66,0.85-3.254,0.359-3.586-1.46c-0.389-2.124-0.389-4.321-0.41-6.49c-0.006-0.547,0.467-1.169,0.865-1.633
		c1.69-1.961,3.518-3.806,5.148-5.815c3.159-3.893,5.95-7.942,5.492-13.392c-0.149-1.786,1.894-2.879,3.186-1.82
		c0.745,0.612,1.367,1.532,1.726,2.433c0.607,1.54,3.494,3.912,5.145,3.912c0.338-0.004,0.676-0.212,1.173-0.38
		c-0.323-0.498-0.559-0.849-0.784-1.211c-0.96-1.552-0.766-4.011,0.383-4.932c1.753-1.399,2.794-1.391,4.618,0.526
		c0.649,0.684,0.942,1.913,0.987,2.905c0.093,1.937,0.553,2.414,2.285,1.566c1.78-0.875,2.665-2.42,2.839-4.434
		c0.129-1.512,1.816-2.399,2.65-1.4c0.957,1.137,2.067,2.448,1.304,4.156c-0.757,1.7,0.188,2.031,1.478,1.817
		c0.889-0.148,1.747-0.652,2.555-1.107c0.906-0.513,1.744-1.153,2.892-1.922c0.38,1.59,0.67,2.771,1.014,4.229
		c1.597-0.93,2.902-1.853,4.334-2.474c1.965-0.852,3.979-1.747,6.063-2.146c3.972-0.757,7.23,1.324,10.347,3.362
		c2.824,1.849,5.842,2.115,9.039,1.766c3.126-0.338,5.833-3.467,5.821-6.392c-0.012-3.317-0.739-6.641-0.652-9.947
		c0.087-3.216,0.437-6.532,1.37-9.589c0.697-2.288,2.713-4.138,3.751-6.361c0.73-1.56,1.173-3.438,1.101-5.148
		c-0.129-3.16-1.337-6.294,0.254-9.449C380.041,241.804,380.167,240.293,380.167,240.293z M280.059,141.783
		c0.186-3.451,2.797-6.011,5.983-5.749c2.139,0.178,5.991,3.446,5.641,6.268c-0.377,3.036-3.266,5.522-6.581,5.375
		C281.776,147.529,279.868,145.296,280.059,141.783z"/>
	<path fill-rule="evenodd" clip-rule="evenodd" d="M316.529,194.167c-1.28,0.977-2.267,2.329-3.44,3.465
		c-0.386,0.371-0.936,0.76-1.433,0.793c-2.582,0.166-5.028,0.631-7.475,1.639c-2.441,1.005-5.16,1.345-7.753,1.991
		c-0.096,0.023-0.156,0.189-0.464,0.582c0.784,1.201,1.442,2.683,2.507,3.761c2.351,2.375,4.747,4.769,7.43,6.733
		c2.169,1.584,4.798,2.54,7.218,3.789c1.256,0.643,1.597,1.687,1.882,3.081c0.485,2.37,1.253,4.756,2.339,6.913
		c1.415,2.812,3.742,4.902,6.368,6.7c2.202,1.51,2.115,1.645,3.138-0.785c1.95-4.623,4.143-5.088,7.998-1.789
		c0.275,0.236,1.203,0.097,1.537-0.197c2.285-1.982,1.822-4.765,1.902-7.335c0.075-2.388,0.799-3.042,3.03-2.225
		c1.433,0.523,2.061-0.25,2.417-1.389c0.209-0.661,0.119-1.415,0.293-2.094c0.29-1.131,1.011-1.491,1.98-0.73
		c1.594,1.258,1.897,1.176,2.869-0.582c0.362-0.646,0.984-1.448,1.615-1.581c2.956-0.639,2.997-0.597,2.698-3.773
		c-0.314-3.4,1.612-4.994,4.897-4.044c1.253,0.366,2.294-0.357,1.911-1.488c-0.613-1.805-0.158-3.233,0.622-4.901
		c1.717-3.685,4.702-5.688,8.259-7.129c2.046-0.82,4.128-1.594,4.026-4.381c-0.069-1.84,0.027-3.706-0.287-5.502
		c-0.413-2.417-1.367-4.753-1.684-7.173c-0.305-2.344-0.138-4.75-0.09-7.124c0.021-1.146-0.06-2.439,0.428-3.403
		c1.567-3.079,2.773-6.25,3.545-9.621c0.416-1.808,0.419-3.446-0.081-5.269c-0.365-1.342-0.544-2.948-0.158-4.339
		c0.362-1.277,0.96-2.7,2.363-3.628c-1.917-1.223-3.219-0.858-4.469,0.962c-0.425,0.616-1.361,0.89-2.061,1.318
		c-0.619-0.534-0.927-1.409-0.9-2.09c0.039-0.896,0.224-1.698,0.383-2.605c0.156-0.89,0.622-1.711,1.262-2.65
		c-0.604,0.054-2.139-0.25-2.567,0.055c-1.343,0.961-3.18,2.148-3.159,5.523c-0.296,0.033-0.595,0.066-0.897,0.097
		c-0.808-0.97-1.208-1.862-1.552-3.272c-0.195-0.796,0.051-2.381,0.499-3.343c-0.799,0.269-2.342,0.346-2.922,0.852
		c-0.67,0.592-1.065,1.538-1.46,2.382c-0.359,0.75-0.464,1.618-0.852,2.344c-0.206,0.383-0.796,0.778-1.185,0.773
		c-0.742-0.012-1.466-2.079-1.708-2.936c-0.185-0.659,0.174-2.109,0.619-2.801c-1.316,0.149-2.609,1.044-3.027,1.708
		c-0.38,0.598-0.419,1.486-0.41,2.24c0.048,3.397,0.147,6.795,0.281,10.187c0.024,0.627,0.293,1.243,0.467,1.86
		c0.338,1.221,0.79,2.427,1.008,3.664c0.326,1.897,0.41,3.836,0.748,5.733c1.166,6.576,0.344,12.882-2.701,18.81
		c-1.567,3.053-4.573,4.792-7.403,6.374c-2.271,1.273-5.022,1.691-7.58,2.439c-5.815,1.702-11.758,2.421-17.816,2.453
		C318.521,193.214,317.324,193.558,316.529,194.167z"/>
	<path fill-rule="evenodd" clip-rule="evenodd" d="M303.298,160.5c-4.005-0.146-6.949,1.575-9.276,5.024
		c0.841-0.175,1.789-0.154,2.501-0.557c2.949-1.679,5.95-2.869,9.458-2.354c3.033,0.444,6.09,0.795,9.147,1.036
		c1.31,0.106,2.77,0.133,3.951-0.335c1.798-0.713,3.419-1.871,5.091-2.885c0.227-0.138,0.518-0.589,0.449-0.716
		c-0.147-0.28-0.527-0.637-0.787-0.616c-0.622,0.047-1.241,0.26-1.843,0.464c-1.044,0.356-2.076,1.072-3.117,1.083
		C313.681,160.707,308.485,160.693,303.298,160.5z"/>
	<path fill-rule="evenodd" clip-rule="evenodd" d="M285.868,145.387c1.218-0.033,3.428-2.403,3.455-3.704
		c0.036-1.363-2.112-3.377-3.613-3.386c-1.361-0.005-3.536,2.052-3.545,3.358C282.15,142.952,284.597,145.419,285.868,145.387z"/>
</g>
</svg>
