<?xml version="1.0" encoding="utf-8"?>
<!-- Generator: Adobe Illustrator 21.0.0, SVG Export Plug-In . SVG Version: 6.00 Build 0)  -->
<svg version="1.1" xmlns="http://www.w3.org/2000/svg" xmlns:xlink="http://www.w3.org/1999/xlink" x="0px" y="0px"
	 viewBox="0 0 576 576" enable-background="new 0 0 576 576" xml:space="preserve">
<g id="Layer_2">
	<path d="M63.499,99.606c-13.172-0.681-22.181-1.022-27.024-1.022c-7.344,0-13.588,0.378-18.736,1.136l0.682-5.223
		c2.953-0.455,4.977-1.343,6.075-2.668c1.095-1.324,1.645-3.614,1.645-6.87l0.115-47.689c0-2.423-0.284-4.05-0.854-4.883
		c-0.567-0.831-1.685-1.248-3.349-1.248l-3.86,0.226l-0.227-0.453l0.794-4.996c5.601,0.226,9.5,0.34,11.696,0.34
		c3.026,0,7.417-0.34,13.172-1.022l-0.455,5.109c-0.834,0.153-1.572,0.285-2.215,0.397c-0.643,0.114-1.21,0.285-1.701,0.511
		c-0.494,0.227-0.91,0.398-1.249,0.511c-0.34,0.114-0.646,0.418-0.91,0.91c-0.266,0.493-0.452,0.834-0.567,1.022
		c-0.112,0.189-0.227,0.643-0.34,1.361c-0.115,0.72-0.21,1.231-0.283,1.533c-0.154,1.516-0.227,2.953-0.227,4.315
		c-0.91,12.643-1.364,27.251-1.364,43.829c0,3.861,0.55,6.284,1.648,7.267c1.095,0.985,4.352,1.477,9.764,1.477
		s9.158-0.946,11.241-2.838c2.083-1.892,3.764-6.32,5.053-13.286l4.997-0.567l0.34,0.567c-1.361,6.889-2.459,14.08-3.293,21.575
		L63.499,99.606z"/>
	<path d="M128.784,99.152c-4.618-0.153-8.06-0.227-10.331-0.227c-3.56,0-8.329,0.264-14.306,0.795l-0.343-0.567l0.343-4.088
		c3.178-0.227,5.317-0.568,6.415-1.022c1.095-0.455,1.645-1.249,1.645-2.385s-0.264-2.385-0.795-3.746l-2.726-8.744
		c-1.513-0.074-4.012-0.114-7.493-0.114c-3.481,0-7.38,0.227-11.695,0.681c-2.65,7.041-3.973,10.901-3.973,11.582
		c0,2.271,1.777,3.407,5.337,3.407h4.882l0.34,0.455l-0.682,4.314c-4.618-0.379-8.97-0.567-13.057-0.567l-10.446,0.227l0.682-4.656
		c1.665-0.227,2.99-0.813,3.973-1.76c0.982-0.945,1.968-2.555,2.953-4.824l17.827-45.078l8.063-1.477l0.794,0.114
		c5.298,19.076,10.104,34.707,14.419,46.894c0.758,2.197,1.721,3.729,2.897,4.598c1.171,0.872,3.046,1.419,5.62,1.646l0.227,0.455
		L128.784,99.152z M99.037,74.398c2.647,0,5.41-0.15,8.288-0.453l-6.926-22.028h-0.795l-8.29,22.481H99.037z"/>
	<path d="M183.399,44.536h-3.405l-0.227-0.455l0.794-4.429c4.164,0.227,7.381,0.341,9.652,0.341l9.652-0.681l-0.455,4.655
		c-4.088,0.531-6.171,2.424-6.244,5.678l-1.364,48.825l-4.427,1.249c-11.659-16.955-22.597-32.208-32.816-45.759h-0.567
		l-0.34,34.404c0,1.439,0.227,2.423,0.679,2.952c0.455,0.531,1.21,0.795,2.271,0.795l4.542-0.114l0.34,0.341l-0.907,4.542
		c-4.242-0.227-7.684-0.341-10.334-0.341l-9.424,0.681l0.57-4.655c3.706-0.455,5.601-2.309,5.676-5.564l1.249-37.47
		c0-1.891-0.55-3.198-1.648-3.918c-1.098-0.719-3.198-1.266-6.3-1.647l-0.455-0.567l0.795-3.86c3.708,0.303,6.586,0.453,8.63,0.453
		l6.926-0.341c9.158,13.475,19.076,27.291,29.75,41.445h0.567l-0.115-32.815C186.465,45.785,185.443,44.536,183.399,44.536z"/>
	<path d="M257.66,44.536h-3.405l-0.227-0.455l0.795-4.429c4.163,0.227,7.381,0.341,9.652,0.341l9.652-0.681l-0.455,4.655
		c-4.088,0.531-6.171,2.424-6.244,5.678l-1.364,48.825l-4.427,1.249c-11.659-16.955-22.597-32.208-32.816-45.759h-0.567
		l-0.34,34.404c0,1.439,0.227,2.423,0.679,2.952c0.455,0.531,1.21,0.795,2.271,0.795l4.542-0.114l0.34,0.341l-0.907,4.542
		c-4.242-0.227-7.684-0.341-10.334-0.341l-9.424,0.681l0.57-4.655c3.706-0.455,5.601-2.309,5.676-5.564l1.249-37.47
		c0-1.891-0.55-3.198-1.648-3.918c-1.098-0.719-3.198-1.266-6.3-1.647l-0.455-0.567l0.795-3.86c3.708,0.303,6.586,0.453,8.63,0.453
		l6.926-0.341c9.158,13.475,19.076,27.291,29.75,41.445h0.567l-0.115-32.815C260.726,45.785,259.704,44.536,257.66,44.536z"/>
	<path d="M289.793,41.924l11.583,0.227l11.353-0.795l-0.455,4.655c-2.496,0.304-4.163,0.778-4.994,1.42
		c-0.834,0.643-1.325,1.836-1.477,3.576c-0.834,14.837-1.249,27.214-1.249,37.129c0,2.424,0.264,4.051,0.794,4.882
		c0.528,0.834,1.589,1.249,3.181,1.249l4.655-0.34l0.227,0.453l-0.794,4.542c-5.528-0.153-9.388-0.227-11.583-0.227
		c-4.012,0-8.139,0.341-12.375,1.022l0.567-4.656c2.875-0.528,4.806-1.305,5.792-2.327c0.983-1.022,1.474-2.782,1.474-5.279
		l0.115-36.109c0-1.891-0.227-3.16-0.682-3.804c-0.455-0.642-1.361-0.964-2.726-0.964l-3.745,0.114l-0.227-0.455L289.793,41.924z"/>
	<path d="M345.09,99.719c-2.65,0-5.242-0.247-7.776-0.739c-2.538-0.491-4.98-1.266-7.325-2.327l-0.567-1.022
		c0.831-4.768,1.249-9.879,1.249-15.328l5.11-0.455c0,5.904,0.755,9.785,2.268,11.638c1.516,1.856,4.354,2.782,8.518,2.782
		c4.161,0,7.361-0.795,9.596-2.383c2.232-1.59,3.349-3.709,3.349-6.359c0-2.499-1.364-4.693-4.088-6.586
		c-1.592-1.06-2.802-1.817-3.636-2.271c-2.12-0.983-4.276-2.024-6.471-3.122c-2.195-1.098-4.012-2.062-5.449-2.896
		c-1.44-0.833-2.993-1.891-4.658-3.179c-3.178-2.573-4.767-5.752-4.767-9.538c0-4.843,2.117-8.856,6.359-12.035
		c4.237-3.179,9.537-4.77,15.895-4.77c5.298,0,10.18,0.72,14.646,2.158l0.455,0.795c-1.061,4.618-1.78,9.615-2.156,14.988
		l-4.43,0.455l-0.68-0.455c0.149-1.136,0.227-2.838,0.227-5.109s-0.778-3.992-2.33-5.167c-1.55-1.172-4.107-1.76-7.664-1.76
		c-3.557,0-6.379,0.739-8.459,2.215c-2.083,1.475-3.122,3.349-3.122,5.62c0,2.271,1.039,4.201,3.122,5.79
		c2.08,1.59,4.75,3.163,8.007,4.712c3.254,1.553,5.393,2.574,6.415,3.066c1.022,0.494,2.479,1.327,4.371,2.499
		c1.892,1.175,3.254,2.253,4.088,3.236c2.423,2.574,3.633,5.3,3.633,8.176c0,5.149-2.195,9.33-6.586,12.546
		C357.844,98.112,352.131,99.719,345.09,99.719z"/>
	<path d="M402.658,84.845V47.261c-6.059,0.227-9.879,0.757-11.468,1.589c-1.744,0.834-3.029,4.088-3.86,9.766l-5.337,0.341
		c0.755-5.752,1.21-11.242,1.361-16.465l0.907-0.795l8.063,0.908h28.955l8.287-0.908l0.91,0.795
		c0.152,5.526,0.567,10.901,1.249,16.124l-5.225,0.341c-0.303-2.044-0.567-3.652-0.795-4.826c-0.227-1.173-0.662-2.232-1.305-3.179
		c-0.643-0.946-1.134-1.607-1.476-1.988c-0.34-0.378-1.23-0.719-2.667-1.022c-1.589-0.302-4.354-0.529-8.29-0.681
		c-0.985,9.159-1.476,22.976-1.476,41.444c0,2.197,0.415,3.748,1.249,4.656c0.834,0.908,2.195,1.361,4.088,1.361l4.997-0.226
		l0.34,0.34l-0.795,4.77c-6.586-0.227-11.353-0.341-14.307-0.341l-13.512,0.455l0.795-4.542c4.315-0.302,6.945-1.022,7.892-2.157
		C402.184,91.884,402.658,89.16,402.658,84.845z"/>
	<path d="M460.906,67.018l9.312,0.114l11.241-0.908l0.455,0.568l-1.364,5.904c-5.222-0.15-9.177-0.227-11.864-0.227
		c-2.689,0-5.357,0.19-8.006,0.569c-0.227,5.754-0.34,10.389-0.34,13.909c0,3.519,0.359,5.564,1.078,6.131
		c0.719,0.567,3.105,0.852,7.153,0.852c4.048,0,7.114-0.246,9.197-0.739c2.083-0.491,3.576-1.419,4.486-2.782
		c0.91-1.363,1.628-3.747,2.156-7.153l4.997-0.455l0.455,0.568c-1.137,4.996-1.971,10.144-2.498,15.442l-0.682,0.567
		c-12.566-0.379-21.005-0.567-25.32-0.567c-6.359,0-11.962,0.302-16.805,0.908l0.567-4.768c2.802-0.302,4.694-0.984,5.679-2.044
		c0.983-1.06,1.474-2.876,1.474-5.451l0.115-35.995c0-1.891-0.227-3.16-0.682-3.804c-0.455-0.642-1.362-0.964-2.726-0.964
		l-3.066,0.114l-0.225-0.455l0.679-4.315c5.373,0.153,12.207,0.227,20.497,0.227c8.287,0,15.46-0.341,21.516-1.022l0.34,0.569
		c-1.058,4.694-1.777,9.764-2.156,15.215l-5.449,0.455c0.149-1.665,0.225-2.914,0.225-3.748c0-2.799-0.719-4.523-2.156-5.166
		c-1.44-0.643-4.41-0.966-8.913-0.966c-4.506,0-7.061,0.17-7.664,0.511c-0.606,0.341-0.949,1.269-1.022,2.782L460.906,67.018z"/>
	<path d="M545.725,45.273c3.481,2.538,5.222,5.773,5.222,9.709c0,7.796-4.467,13.701-13.397,17.713l9.652,14.534
		c1.817,2.725,3.557,4.655,5.222,5.79c1.665,1.136,3.672,1.703,6.019,1.703l0.455,0.568l-0.57,3.52l-8.742,0.908
		c-3.56,0-6.853-2.762-9.879-8.289l-9.537-16.691h-7.381l-0.227,12.149c0,3.105,0.359,5.053,1.078,5.848
		c0.719,0.795,2.594,1.231,5.62,1.305l0.227,0.341l-0.907,4.315c0-0.153-3.484-0.227-10.446-0.227l-11.356,0.341l0.795-4.656
		c2.799-0.378,4.655-1.022,5.564-1.93c0.91-0.908,1.362-2.612,1.362-5.109l0.115-36.222c0-1.817-0.227-3.046-0.682-3.69
		c-0.455-0.642-1.325-0.964-2.611-0.964l-3.181,0.114l-0.34-0.455l0.682-4.315c4.767,0.153,8.327,0.227,10.674,0.227l12.148-0.341
		C537.435,41.469,542.241,42.738,545.725,45.273z M532.213,69.742c6.359-2.571,9.536-6.698,9.536-12.376
		c0-7.341-5.413-11.013-16.235-11.013c-1.061,0-1.592,0.681-1.592,2.044c-0.607,9.236-0.907,16.048-0.907,20.438L532.213,69.742z"/>
</g>
<g id="Layer_3">
	<path d="M58.644,534.108c0,2.042,0.225,3.396,0.671,4.069c0.45,0.67,1.317,1.008,2.616,1.008l3.356-0.225l0.15,0.3l-0.67,3.434
		c-3.933-0.15-6.994-0.225-9.183-0.225l-8.583,0.15l0.671-3.359c2.339-0.049,3.867-0.572,4.589-1.568s1.083-3.136,1.083-6.42V520
		c-5.274-0.049-9.057-0.075-11.344-0.075l-12.389,0.82l-0.3,13.362c0,2.042,0.225,3.396,0.67,4.069
		c0.45,0.67,1.317,1.008,2.611,1.008l3.361-0.225l0.15,0.3l-0.67,3.434c0-0.15-1.608-0.225-4.819-0.225
		c-3.207,0-6.146,0.098-8.808,0.298c-2.663,0.199-4.017,0.398-4.064,0.598l0.445-3.434c2.288-0.448,3.83-1.106,4.627-1.978
		c0.797-0.87,1.195-2.351,1.195-4.442l0.075-31.352c0-1.591-0.188-2.662-0.558-3.208c-0.375-0.549-1.111-0.823-2.203-0.823
		l-2.536,0.15l-0.15-0.298l0.52-3.286c3.633,0.15,6.146,0.225,7.538,0.225c2.043,0,4.955-0.225,8.738-0.673l-0.3,3.359
		c-2.142,0.349-3.474,0.886-3.994,1.606c-0.525,0.722-0.834,2.426-0.933,5.114l-0.45,12.092l12.544,0.075
		c3.183,0,6.868-0.249,11.044-0.748l0.075-13.585c0-1.591-0.187-2.662-0.558-3.208c-0.375-0.549-1.111-0.823-2.203-0.823
		l-2.536,0.15l-0.15-0.298l0.52-3.286c0,0.15,1.495,0.225,4.481,0.225c3.483,0,7.411-0.225,11.794-0.673l-0.3,3.359
		c-1.842,0.251-3.075,0.661-3.694,1.233c-0.624,0.572-0.985,1.58-1.083,3.024C58.991,516.393,58.644,527.142,58.644,534.108z"/>
	<path d="M89.025,516.044l7.692,0.075l9.104-0.822l0.3,0.375l-1.045,4.404c-4.28-0.15-7.552-0.225-9.816-0.225
		c-2.264,0-4.392,0.176-6.38,0.523c-0.202,7.165-0.3,11.844-0.3,14.033c0,2.192,0.31,3.523,0.933,3.994
		c0.619,0.474,2.648,0.71,6.084,0.71c3.432,0,6.019-0.211,7.763-0.635c1.739-0.422,2.996-1.219,3.769-2.389
		c0.769-1.169,1.355-3.197,1.753-6.085l3.286-0.372l0.225,0.372c-0.9,4.133-1.571,8.312-2.016,12.542l-0.375,0.448
		c-10.35-0.349-17.12-0.523-20.303-0.523c-4.88,0-9.108,0.249-12.689,0.745l0.445-3.434c2.241-0.298,3.769-0.881,4.59-1.753
		c0.825-0.869,1.233-2.377,1.233-4.516l0.075-31.352c0-1.591-0.188-2.662-0.558-3.208c-0.375-0.549-1.111-0.823-2.203-0.823
		l-2.536,0.15l-0.15-0.298l0.52-3.286c3.933,0.15,9.282,0.225,16.051,0.225c6.764,0,12.343-0.3,16.721-0.895l0.225,0.448
		c-0.848,3.682-1.42,7.812-1.72,12.389l-3.581,0.3c0.098-1.443,0.15-2.512,0.15-3.211c0-2.438-0.586-3.931-1.754-4.477
		c-1.172-0.549-3.684-0.823-7.542-0.823c-3.858,0-6.033,0.138-6.53,0.41c-0.497,0.275-0.773,1.109-0.82,2.501L89.025,516.044z"/>
	<path d="M144.34,543.214l-0.225-0.52l0.3-2.914c2.536-0.197,4.28-0.497,5.226-0.895c0.942-0.396,1.416-1.069,1.416-2.016
		c0-0.945-0.225-2.114-0.671-3.507l-2.466-8.138c-1.19-0.049-3.384-0.075-6.567-0.075s-6.296,0.199-9.329,0.598l-2.766,7.763
		c-0.445,1.343-0.67,2.316-0.67,2.911c0,2.042,1.495,3.061,4.477,3.061h4.256l0.15,0.298l-0.45,3.211
		c-3.633-0.349-7.088-0.523-10.374-0.523l-8.213,0.225l0.6-3.509c1.392-0.15,2.512-0.635,3.356-1.455
		c0.848-0.823,1.669-2.252,2.465-4.294l14.556-38.144l4.702-1.268h0.6c4.177,15.476,8.133,28.813,11.869,40.01
		c0.595,1.842,1.393,3.136,2.386,3.881c0.994,0.747,2.588,1.221,4.777,1.418l0.15,0.3l-0.52,3.061
		c-3.586-0.15-6.657-0.225-9.221-0.225C151.592,542.469,148.32,542.717,144.34,543.214z M139.934,522.089
		c1.795,0,4.106-0.122,6.943-0.372l-5.898-19.558h-0.52l-7.092,19.93H139.934z"/>
	<path d="M200.096,497.755c2.686,2.09,4.031,4.802,4.031,8.135c0,6.521-3.656,11.447-10.974,14.78l8.213,12.989
		c1.444,2.389,2.85,4.043,4.219,4.964c1.364,0.921,3.047,1.381,5.035,1.381l0.3,0.298l-0.445,2.538l-6.347,0.823
		c-1.242,0-2.573-0.635-3.994-1.905c-1.416-1.268-2.724-2.996-3.919-5.187l-7.988-14.483h-6.192l-0.225,11.124
		c0,2.686,0.3,4.378,0.895,5.077c0.596,0.696,2.091,1.043,4.477,1.043l0.15,0.3l-0.671,3.134c0-0.049-2.639-0.124-7.913-0.223
		l-8.583,0.223l0.671-3.359c2.339-0.249,3.867-0.757,4.589-1.53c0.722-0.771,1.083-2.227,1.083-4.367l0.075-31.352
		c0-1.591-0.187-2.662-0.558-3.208c-0.375-0.549-1.111-0.823-2.203-0.823l-2.536,0.15l-0.15-0.298l0.52-3.286
		c3.633,0.15,6.394,0.225,8.288,0.225l9.179-0.3C193.754,494.618,197.41,495.664,200.096,497.755z M197.93,507.683
		c0-6.57-4.552-9.853-13.66-9.853c-0.497,0-0.834,0.112-1.008,0.335c-0.173,0.225-0.286,0.685-0.333,1.381
		c-0.45,7.615-0.698,13.735-0.75,18.364l7.692,0.745c1.838-0.448,3.605-1.54,5.297-3.284c0.698-0.745,1.332-1.802,1.903-3.172
		C197.644,510.831,197.93,509.324,197.93,507.683z"/>
	<path d="M247.348,503.652c-1.692,20.853-2.536,31.986-2.536,33.405c0,1.418,0.769,2.128,2.311,2.128l3.061-0.075l0.15,0.298
		l-0.671,3.359c-3.187-0.199-5.4-0.298-6.647-0.298c-2.189,0-4.529,0.199-7.013,0.598l0.371-3.434
		c1.594-0.199,2.738-0.71,3.436-1.531c0.694-0.82,1.144-2.226,1.341-4.219c2.189-19.953,3.286-30.641,3.286-32.059
		s-0.511-2.451-1.533-3.099c-1.017-0.647-2.672-1.046-4.96-1.195l-0.225-0.373l0.595-2.611c3.834,0.249,6.544,0.372,8.138,0.372
		l5.077-0.3c4.229,13.588,8.434,25.93,12.615,37.026h0.371c3.886-10.35,8.19-22.642,12.915-36.876
		c2.391,0.101,4.032,0.15,4.927,0.15l8.063-0.447l0.15,0.298l-0.375,2.761c-2.138,0.251-3.656,0.687-4.552,1.308
		c-0.896,0.624-1.346,1.557-1.346,2.799c0,3.832,0.647,13.986,1.941,30.456c0.351,2.937,0.75,4.852,1.195,5.747
		c0.45,0.898,1.271,1.346,2.466,1.346l2.091-0.15l0.145,0.298l-0.67,3.361c-2.935-0.15-5.302-0.225-7.093-0.225l-7.763,0.598
		l0.3-3.434c2.935-0.349,4.402-1.592,4.402-3.734l-2.536-32.246H278.4l-14.406,39.712l-1.79,0.523l-14.48-40.235H247.348z"/>
	<path d="M315.128,516.044l7.693,0.075l9.104-0.822l0.3,0.375l-1.046,4.404c-4.28-0.15-7.552-0.225-9.816-0.225
		s-4.393,0.176-6.38,0.523c-0.202,7.165-0.3,11.844-0.3,14.033c0,2.192,0.309,3.523,0.933,3.994c0.619,0.474,2.649,0.71,6.085,0.71
		c3.431,0,6.019-0.211,7.763-0.635c1.739-0.422,2.995-1.219,3.769-2.389c0.769-1.169,1.355-3.197,1.754-6.085l3.286-0.372
		l0.225,0.372c-0.9,4.133-1.57,8.312-2.016,12.542l-0.375,0.448c-10.351-0.349-17.12-0.523-20.303-0.523
		c-4.88,0-9.108,0.249-12.69,0.745l0.445-3.434c2.241-0.298,3.769-0.881,4.589-1.753c0.825-0.869,1.233-2.377,1.233-4.516
		l0.075-31.352c0-1.591-0.188-2.662-0.558-3.208c-0.375-0.549-1.111-0.823-2.203-0.823l-2.536,0.15l-0.15-0.298l0.52-3.286
		c3.933,0.15,9.282,0.225,16.051,0.225c6.764,0,12.343-0.3,16.721-0.895l0.225,0.448c-0.849,3.682-1.42,7.812-1.72,12.389
		l-3.581,0.3c0.098-1.443,0.15-2.512,0.15-3.211c0-2.438-0.586-3.931-1.753-4.477c-1.172-0.549-3.685-0.823-7.543-0.823
		s-6.033,0.138-6.53,0.41c-0.497,0.275-0.773,1.109-0.82,2.501L315.128,516.044z"/>
	<path d="M398.133,497.755c2.686,2.09,4.032,4.802,4.032,8.135c0,6.521-3.656,11.447-10.974,14.78l8.213,12.989
		c1.444,2.389,2.85,4.043,4.219,4.964c1.364,0.921,3.047,1.381,5.034,1.381l0.3,0.298l-0.445,2.538l-6.347,0.823
		c-1.242,0-2.574-0.635-3.994-1.905c-1.416-1.268-2.723-2.996-3.919-5.187l-7.988-14.483h-6.193l-0.225,11.124
		c0,2.686,0.3,4.378,0.895,5.077c0.595,0.696,2.091,1.043,4.477,1.043l0.15,0.3l-0.671,3.134c0-0.049-2.639-0.124-7.913-0.223
		l-8.583,0.223l0.67-3.359c2.339-0.249,3.868-0.757,4.59-1.53c0.722-0.771,1.083-2.227,1.083-4.367l0.075-31.352
		c0-1.591-0.188-2.662-0.558-3.208c-0.375-0.549-1.111-0.823-2.203-0.823l-2.536,0.15l-0.15-0.298l0.52-3.286
		c3.633,0.15,6.394,0.225,8.288,0.225l9.178-0.3C391.791,494.618,395.448,495.664,398.133,497.755z M395.968,507.683
		c0-6.57-4.552-9.853-13.66-9.853c-0.497,0-0.835,0.112-1.008,0.335c-0.173,0.225-0.286,0.685-0.333,1.381
		c-0.45,7.615-0.698,13.735-0.75,18.364l7.693,0.745c1.838-0.448,3.604-1.54,5.297-3.284c0.698-0.745,1.331-1.802,1.903-3.172
		C395.682,510.831,395.968,509.324,395.968,507.683z"/>
	<path d="M436.207,543.364c-6.122,0-11.101-2.138-14.931-6.42c-3.83-4.28-5.747-9.964-5.747-17.056s2.362-13.175,7.092-18.251
		c4.725-5.077,10.374-7.613,16.946-7.613c6.567,0,11.818,2.14,15.746,6.42c3.933,4.28,5.898,9.964,5.898,17.056
		c0,7.09-2.4,13.175-7.2,18.252C449.207,540.825,443.272,543.364,436.207,543.364z M421.947,518.357
		c0,6.073,1.542,11.121,4.631,15.153c3.085,4.031,7.027,6.047,11.832,6.047c4.8,0,8.696-1.802,11.682-5.412
		c2.986-3.607,4.477-8.435,4.477-14.483c0-6.045-1.58-11.084-4.739-15.115c-3.16-4.031-7.154-6.047-11.982-6.047
		c-4.829,0-8.682,1.793-11.57,5.377C423.391,507.458,421.947,512.287,421.947,518.357z"/>
	<path d="M491.743,543.214l-0.225-0.52l0.3-2.914c2.536-0.197,4.28-0.497,5.227-0.895c0.942-0.396,1.416-1.069,1.416-2.016
		c0-0.945-0.225-2.114-0.67-3.507l-2.466-8.138c-1.19-0.049-3.385-0.075-6.568-0.075c-3.183,0-6.296,0.199-9.328,0.598l-2.766,7.763
		c-0.445,1.343-0.67,2.316-0.67,2.911c0,2.042,1.495,3.061,4.477,3.061h4.256l0.15,0.298l-0.45,3.211
		c-3.633-0.349-7.088-0.523-10.374-0.523l-8.213,0.225l0.6-3.509c1.393-0.15,2.513-0.635,3.356-1.455
		c0.849-0.823,1.669-2.252,2.466-4.294l14.555-38.144l4.702-1.268h0.6c4.177,15.476,8.134,28.813,11.87,40.01
		c0.595,1.842,1.392,3.136,2.386,3.881c0.994,0.747,2.587,1.221,4.777,1.418l0.15,0.3l-0.52,3.061
		c-3.586-0.15-6.656-0.225-9.221-0.225C498.995,542.469,495.723,542.717,491.743,543.214z M487.336,522.089
		c1.796,0,4.107-0.122,6.943-0.372l-5.897-19.558h-0.52l-7.092,19.93H487.336z"/>
	<path d="M547.503,497.755c2.686,2.09,4.032,4.802,4.032,8.135c0,6.521-3.657,11.447-10.974,14.78l8.213,12.989
		c1.444,2.389,2.85,4.043,4.219,4.964c1.364,0.921,3.047,1.381,5.034,1.381l0.3,0.298l-0.445,2.538l-6.347,0.823
		c-1.242,0-2.574-0.635-3.994-1.905c-1.416-1.268-2.723-2.996-3.919-5.187l-7.988-14.483h-6.193l-0.225,11.124
		c0,2.686,0.3,4.378,0.895,5.077c0.595,0.696,2.091,1.043,4.477,1.043l0.15,0.3l-0.67,3.134c0-0.049-2.639-0.124-7.913-0.223
		l-8.583,0.223l0.67-3.359c2.339-0.249,3.868-0.757,4.59-1.53c0.722-0.771,1.083-2.227,1.083-4.367l0.075-31.352
		c0-1.591-0.188-2.662-0.558-3.208c-0.375-0.549-1.111-0.823-2.203-0.823l-2.536,0.15l-0.15-0.298l0.52-3.286
		c3.633,0.15,6.394,0.225,8.288,0.225l9.179-0.3C541.161,494.618,544.818,495.664,547.503,497.755z M545.338,507.683
		c0-6.57-4.552-9.853-13.66-9.853c-0.497,0-0.834,0.112-1.008,0.335c-0.173,0.225-0.286,0.685-0.333,1.381
		c-0.45,7.615-0.699,13.735-0.75,18.364l7.692,0.745c1.838-0.448,3.605-1.54,5.297-3.284c0.698-0.745,1.331-1.802,1.903-3.172
		C545.052,510.831,545.338,509.324,545.338,507.683z"/>
</g>
<g id="Layer_4">
	<path fill-rule="evenodd" clip-rule="evenodd" d="M424.884,192.114c1.87-1.756,1.926-3.89,2.274-6.158
		c-2.305,0.285-2.487,0.461-2.67,2.264c-0.205,2.111-2.42,4.038-4.548,3.954c-1.171-0.046-2.364-0.258-3.509-0.119
		c-3.886,0.482-7.139-2.364-7.852-6.061c-0.121-0.62-0.915-1.296-1.561-1.603c-1.499-0.706-3.116-1.151-4.646-1.808
		c-0.659-0.288-1.215-0.824-1.819-1.242c0.634-0.721,1.146-1.875,1.909-2.07c2.431-0.625,3.759-1.896,4.722-4.319
		c1.752-4.378,1.923-4.78-1.19-8.104c-0.14,0.159-0.362,0.303-0.393,0.48c-0.884,4.569-3.054,6.595-7.566,7.052
		c-0.654,0.067-1.334,0.136-1.934,0.375c-2.15,0.852-4.262,1.776-6.395,2.671c-3.083,1.307-5.449-0.948-7.774-2.062
		c-2.676-1.29-5.519-1.715-8.217-2.198c-4.77-0.848-9.422,0.386-13.992,2.337c-2.875,1.231-5.255,2.866-7.701,4.69
		c-4.54,3.377-8.273,7.392-11.055,12.296c-0.629,1.119-1.098,2.322-1.648,3.477c-1.373,2.893-2.877,5.73-2.695,9.102
		c0.059,1.083-0.196,2.187-0.362,3.265c-0.286,1.819-0.797,3.623-0.89,5.451c-0.135,2.768,0.576,5.491,0.907,8.207
		c0.528,4.375,0.957,8.739,2.08,13.024c0.62,2.39,1.03,4.865,1.861,7.183c1.303,3.64,2.914,7.163,4.34,10.759
		c0.651,1.637,1.171,3.321,1.937,5.526c-6.064,0.097-12.773-1.441-16.089,5.296c-3.916,7.983-3.908,12.212-0.508,17.153
		c0.064-1.083,0.059-1.847,0.174-2.597c0.191-1.221,0.174-2.594,0.747-3.619c1.581-2.792,5.438-4.132,8.61-3.272
		c2.381,0.649,3.568,2.859,2.389,4.367c-0.82,1.053-1.561,2.166-2.294,3.278c-1.999,3.042-1.609,5.323,1.283,7.417
		c0.098-0.438,0.241-0.863,0.286-1.29c0.461-4.551,3.543-6.872,8.052-5.981c0.702,0.14,1.325,0.646,1.99,0.98
		c-0.43,0.734-0.736,1.586-1.311,2.178c-2.336,2.421-2.979,4.607-1.364,7.423c0.724-1.632,1.376-3.537,2.364-5.248
		c0.932-1.609,2.392-2.485,4.447-1.919c2.229,0.609,4.508,0.987,6.718,1.62c0.603,0.171,1.224,0.804,1.519,1.39
		c0.722,1.406,1.199,2.934,1.87,4.368c0.884,1.884,2.03,3.666,2.72,5.613c0.244,0.701-0.27,2.044-0.884,2.586
		c-0.898,0.804-2.168,1.232-3.335,1.672c-3.759,1.44-4.859,4.928-6.317,8.127c-0.21,0.469,0.022,1.138,0.056,1.882
		c4.163-2.309,4.41-2.35,6.058-1.027c-2.586,3.273-5.794,5.344-10.067,5.53c-3.296,0.147-6.606,0.921-9.624-1.433
		c-1.566-1.218-2.754-4.634-1.873-6.406c0.494-1,0.609-2.187,0.901-3.289c-0.345-0.115-0.688-0.223-1.027-0.338
		c-0.741,1.676-1.62,3.313-2.19,5.049c-0.514,1.576-0.837,3.248-0.994,4.91c-0.132,1.475-0.005,2.998,0.157,4.482
		c0.11,0.919,0.646,1.792,0.758,2.712c0.32,2.688,2.044,5.054,4.691,5.164c3.557,0.16,7.204,0.06,10.694-0.578
		c5.022-0.922,9.913,0.626,12.51,4.784c1.687,2.699,1.353,8.226-0.98,10.63c-3.296,3.405-7.802,4.958-12.15,5.779
		c-6.263,1.182-12.597,1.404-18.579-2.454c-3.377-2.17-5.121-4.733-5.918-8.381c-0.553-2.558-1.047-5.152-1.898-7.618
		c-0.733-2.129-1.929-4.109-2.92-6.155c-0.584-1.203-1.134-2.424-1.749-3.612c-0.839-1.613-1.853-3.15-2.555-4.822
		c-0.795-1.871-1.244-3.891-1.999-5.782c-0.856-2.149-2.049-4.18-2.807-6.363c-1.005-2.859-1.799-5.802-2.552-8.74
		c-1.311-5.105-2.594-10.213-3.751-15.349c-0.57-2.536-0.842-5.14-1.157-7.117c1.437-1.958,3.189-3.546,3.916-5.505
		c1.165-3.15,1.238-6.406-0.966-9.463c-1.019-1.415-1.648-3.279-1.926-5.027c-0.724-4.467,0.143-5.101,4.298-3.547
		c3.338,1.245,7.583,0.478,9.548-2.183c0.559-0.757,2.956-1.477,1.586-2.864c-1.393,0.691-2.546,1.665-3.781,1.777
		c-3.832,0.345-7.44-4.017-6.974-8.039c0.461-3.965,1.833-7.921,0.093-11.921c-0.216-0.494-0.16-1.199,0.017-1.72
		c0.081-0.239,1.016-0.498,1.137-0.366c0.789,0.865,1.393,1.895,2.184,2.751c0.668,0.733,1.423,1.433,2.277,1.919
		c1.558,0.895,3.2,1.682,4.857,2.393c0.595,0.254,1.331,0.171,2.005,0.247c-0.295-0.626-0.505-1.292-0.876-1.86
		c-0.677-1.03-1.99-1.971-2.061-3.01c-0.244-3.95-0.095-7.921-0.095-11.874c0.693-0.239,1.232-0.431,1.78-0.618
		c3.658-1.246,5.253-3.902,4.891-7.771c-0.3-3.136-2.361-5.205-4.113-7.486c-0.362-0.475-0.64-1.004-0.966-1.51
		c0.668-0.167,1.331-0.394,2.007-0.482c0.941-0.119,1.895-0.131,2.844-0.187c0-0.243,0-0.483,0-0.726
		c-0.472-0.285-1.173-0.458-1.378-0.876c-1.715-3.519-3.661-6.972-3.742-11.064c-0.02-1.326,0.494-1.686,1.766-1.909
		c1.786-0.319,3.492-1.063,5.233-1.624c0.017-0.226,0.031-0.449,0.059-0.672c-2.751,0.039-5.53-0.641-6.451-3.057
		c-0.817-2.163-3.967-3.322-3.108-6.033c2.193,0.18,4.068,0.33,5.952,0.482c0.101-0.239,0.197-0.477,0.3-0.717
		c-0.494-0.651-0.932-1.366-1.496-1.95c-0.71-0.737-1.564-1.343-2.293-2.07c-1.412-1.398-2.555-3.317-4.237-4.136
		c-1.875-0.921-2.03-1.892-1.617-3.549c0.404-1.65,0.592-3.309-0.354-4.269c-1.844,1.425-3.551,2.736-5.25,4.05
		c-0.191-0.175-0.376-0.35-0.57-0.522c0.351-1.819,1.061-3.66,0.949-5.447c-0.112-1.721-1.075-3.39-1.668-5.081
		c-0.197,0.077-0.393,0.156-0.587,0.231c-0.3,1.672-0.222,3.551-1.005,4.952c-0.739,1.328-2.378,2.159-3.622,3.199
		c-0.326-0.232-0.643-0.463-0.966-0.698c0.393-1.084,0.862-2.146,1.165-3.254c0.185-0.685,0.295-1.485,0.118-2.145
		c-0.278-1.04-0.707-2.092-1.305-2.983c-0.564-0.852-1.424-1.505-2.156-2.246c-0.16,0.828-0.273,1.673-0.486,2.485
		c-0.312,1.199-0.342,2.744-1.12,3.499c-2.122,2.079-4.896,2.174-7.774,1.927c-4.374-0.369-8.77-0.542-13.158-0.65
		c-1.732-0.038-3.004,0.758-4.079,2.39c-0.898,1.362-2.538,2.628-4.099,3.089c-2.849,0.85-5.896,1.112-8.863,1.545
		c-1.451,0.215-3.018-0.004-4.349,0.475c-1.235,0.445-3.195,0.442-3.234,2.483c-0.031,2.02-0.11,4.082,0.216,6.069
		c0.404,2.504,1.201,4.941,1.822,7.413c0.154,0.602,0.264,1.215,0.446,2.07c-0.547,0.132-1.342,0.383-2.147,0.497
		c-3.038,0.431-5.839-0.458-8.664-1.44c-1.249-0.435-2.659-0.498-2.886-2.142c-0.213-1.569-0.503-3.182,1.188-4.293
		c0.295-0.195,0.511-1.136,0.376-1.239c-0.912-0.703-1.861-1.635-2.925-1.835c-3.431-0.633-6.628,0.236-8.998,2.851
		c-1,1.106-1.819,2.807-1.859,4.26c-0.062,3.007,3.658,6.586,6.648,6.993c0.719,0.094,1.406,0.456,2.131,0.536
		c1.8,0.2,3.678,0.657,5.421,0.383c3.476-0.542,6.842-1.777,10.314-2.218c3.695-0.479,7.468-0.42,11.204-0.507
		c2.319-0.055,3.622,2.365,2.341,4.377c-0.255,0.402-1.266,0.789-1.581,0.602c-1.089-0.654-2.032-1.562-3.088-2.421
		c-0.028,0.018-0.07,0.048-0.112,0.068c-2.555,1.071-3.156,2.138-5.225-0.674c-0.124-0.166-1.286,0.045-1.463,0.362
		c-0.691,1.235-1.168,2.584-1.744,3.883c-0.907,2.047-1.822,4.09-2.925,6.558c5.112,0.598,9.876-0.851,14.433,0.582
		c-1.075,6.752-5.716,8.436-10.632,7.378c-1.76-0.379-3.411-1.255-5.171-1.591c-5.048-0.959-9.337,0.806-12.906,4.262
		c-1.353,1.311-2.293,1.138-3.161-0.179c-2.181-3.301-4.691-6.325-7.499-9.111c-1.176-1.171-2.454-2.285-3.436-3.612
		c-1.457-1.975-2.673-4.124-4.028-6.175c-0.851-1.291-1.553-3.265-2.723-3.627c-1.912-0.598-2.1-2.163-2.981-3.314
		c-1.308-1.691-2.482-3.487-3.678-5.268c-0.503-0.743-1.297-1.544-1.297-2.325c-0.011-3.815,0.129-7.64,0.351-11.451
		c0.225-3.846,0.634-7.685,0.915-11.535c0.042-0.553-0.132-1.15-0.298-1.696c-0.977-3.098-1.988-6.183-2.956-9.289
		c-0.143-0.469-0.261-1.035-0.129-1.489c0.438-1.533,0.25-2.883-1.016-3.922c-0.893-0.732-1.867-1.353-2.768-2.003
		c-1.825,1.788-0.095,2.449,0.828,3.297c-1.143,1.074-6.005,1.409-7.013,0.475c-0.267-0.256-0.306-0.778-0.401-1.192
		c-0.724-3.265-3.032-4.172-6.174-2.413c0.727,0.681,1.791,1.231,2.103,2.07c0.368,0.984,0.41,2.354,0,3.306
		c-0.404,0.935-1.735,1.436-2.299,2.35c-1.083,1.743-2.411,1.067-3.576,0.46c-1.401-0.727-2.645-1.771-3.596-2.428
		c-1.597,0.832-2.799,1.458-4.379,2.282c1.724,1.052,3.155,1.915,4.568,2.77c0,1.805,0.16,3.704-0.039,5.559
		c-0.289,2.812,0.772,5.137,3.315,6.572c3.593,2.03,4.037,3.313,2.785,7.337c-0.326,1.051-0.253,2.226-0.388,3.655
		c-1.151,0-2.544,0-4.245,0c0.124-1.084,0.292-2.131,0.343-3.181c0.022-0.459-0.059-1.025-0.329-1.355
		c-0.143-0.18-0.806-0.041-1.179,0.091c-2.732,0.969-4.049,4.895-2.709,7.459c0.618,1.178,0.839,2.591,1.106,3.926
		c0.247,1.202-0.146,2.949,0.536,3.558c1.637,1.453,2.431,3.699,4.792,4.579c0.966,0.364,2.947,1.617,1.819,3.56
		c-2.17-0.239-4.273-0.609-6.384-0.64c-1.314-0.025-3.498,3.057-3.349,4.391c0.286-0.041,0.576-0.044,0.851-0.119
		c1.3-0.375,2.375-1.592,3.989-0.525c2.327,1.545,4.899,2.732,7.17,4.343c0.758,0.542,1.535,1.856,0.146,2.979
		c-0.525,0.427-0.977,1.071-1.199,1.711c-1.274,3.645,0.028,6.679,3.557,8.192c1.03,0.442,2.392,0.312,2.246-1.103
		c-0.345-3.34,2.21-2.949,4.001-3.217c2.181-0.33,2.788,0.637,2.681,2.844c-0.062,1.388-0.053,3.046,0.623,4.156
		c1.132,1.851,1.291,3.44,0.34,5.324c-0.34,0.664-0.707,1.687-0.421,2.205c0.901,1.669,2.094,3.178,3.425,5.097
		c0.472-1.429,0.747-2.253,1.005-3.042c3.032-0.455,3.032-0.455,3.038,2.459c0,0.813,0.078,1.634-0.037,2.426
		c-0.079,0.522-0.329,1.134-0.71,1.474c-1.639,1.453-3.223,3.057-5.101,4.136c-1.095,0.625-2.796,0.685-4.054,0.359
		c-0.71-0.188-1.171-1.658-1.538-2.629c-0.289-0.757-0.27-1.635-0.382-2.465c-0.152,0.028-0.303,0.06-0.449,0.093
		c-0.534,0.999-1.064,1.999-1.637,3.085c0.168,0.319,0.55,0.809,0.716,1.366c0.854,2.827,2.479,4.297,5.469,3.989
		c2.462-0.254,5.303-0.598,7.164-1.986c1.797-1.338,3.186-0.977,5.051-0.945c-0.053,0.999-0.098,1.844-0.143,2.664
		c-1.179,0.421-2.201,0.791-3.22,1.162c-1.642,0.587-1.752,1.359-0.477,2.621c2.824,2.806,6.297,3.228,10.036,2.934
		c0.601-0.048,1.238,0.375,1.859,0.582c-0.505,0.397-0.963,1.026-1.536,1.154c-2.6,0.588-5.233,1.04-7.852,1.537
		c-0.084,1.27-0.143,2.194-0.205,3.15c1.749,0,3.304,0,5.101,0c-0.146,1.078,0.025,2.142-0.421,2.736
		c-2.796,3.71-7.372,3.859-11.165,0.529c-0.269-0.244-0.792-0.204-1.193-0.295c-0.042,0.394-0.267,0.996-0.095,1.147
		c0.837,0.728,1.704,1.74,2.681,1.902c2.229,0.376,2.041,1.578,1.625,3.158c-2.653,0.371-5.522-0.46-7.614,1.951
		c-0.32,0.375-1.252,0.247-1.903,0.314c-0.854,0.097-1.71,0.152-2.558,0.22c-0.151,0.928-0.264,1.628-0.382,2.329
		c-1.145,0.156-2.162,0.438-3.164,0.406c-2.855-0.104-5.747-0.089-8.537-0.594c-2.322-0.425-4.461-1.863-6.78-2.246
		c-3.403-0.562-6.651-1.278-9.509-3.335c-1.022-0.737-2.105-1.658-3.273-1.856c-2.367-0.394-4.801-0.379-7.206-0.479
		c-1.384-0.06-3.122,0.531-4.093-0.107c-2.858-1.88-5.011-0.897-7.108,1.034c-0.587,0.542-0.887,1.386-1.314,2.092
		c0.755,0.011,1.527-0.049,2.266,0.059c0.825,0.112,1.631,0.379,2.437,0.577c-0.309,0.7-0.444,1.632-0.971,2.055
		c-1.297,1.023-2.774,1.812-4.18,2.692c-1.74,1.094-1.968,4.761-0.289,6.258c0.241-0.469,0.351-1.134,0.707-1.314
		c0.727-0.362,1.581-0.58,2.4-0.625c0.32-0.011,1.002,0.658,0.954,0.908c-0.253,1.353-0.536,2.744-1.098,3.985
		c-0.564,1.27-1.822,2.298-2.142,3.588c-0.556,2.239,0.373,4.132,2.546,5.363c0.124-0.366,0.32-0.757,0.402-1.171
		c0.589-2.966,1.415-3.547,4.256-2.89c1.993,0.458,3.897,0.622,5.474-1.051c0.183-0.191,0.505-0.375,0.761-0.367
		c3.678,0.143,7.282-0.091,10.719-1.656c0.39-0.176,1.724,0.596,1.698,0.848c-0.07,0.761-0.413,1.7-0.985,2.15
		c-0.553,0.442-1.519,0.379-2.375,0.545c-0.668,4.5-4.057,2.574-6.875,2.608c0.219,1.012,0.25,1.895,0.609,2.621
		c0.817,1.633,3.11,2.437,4.301,1.899c1.224-0.557,2.642-1.218,3.894-1.095c3.265,0.326,6.322-0.295,8.933-2.018
		c2.134-1.407,3.804-3.509,5.679-5.3c1.465,2.593,1.039,5.803-1.407,7.382c-1.412,0.916-1.002,1.569-0.609,2.588
		c2.041-0.54,4.085-0.731,5.752-1.621c1.651-0.883,2.92-2.472,4.697-4.057c-0.053,3.074,1.154,5.041,3.784,5.494
		c2.381,0.418,4.854,0.324,7.467,0.467c-0.202-0.689-0.213-0.837-0.289-0.943c-0.081-0.116-0.244-0.173-0.337-0.277
		c-1.524-1.652-3.411-3.122-2.726-5.824c0.356-1.435,0.985-2.614,2.676-1.857c1.036,0.467,1.827,1.443,2.802,2.084
		c1.864,1.238,3.681,2.631,5.71,3.511c1.148,0.499,2.676,0.093,3.498,0.093c0-2.792,0-5.153,0-7.462
		c3.998-0.821,5.444-0.585,6.185,1.058c1.524,3.397-0.093,5.693-3.127,7.546c0.674,0.315,1.044,0.505,1.432,0.668
		c4.253,1.804,4.635,1.398,7.145-2.492c0.918-1.43,0.988-2.633,1.218-4.042c0.081-0.497,0.62-1.158,1.092-1.31
		c0.941-0.306,2.249-0.752,2.922-0.347c1.241,0.752,2.137,2.083,3.456,3.46c0.143-1.119,0.09-2.281,0.466-3.285
		c0.432-1.142,1.069-2.362,1.976-3.122c0.503-0.423,1.738,0.02,2.644,0.067c-0.166,0.804-0.272,1.624-0.517,2.406
		c-0.213,0.664-0.595,1.277-0.901,1.915c0.152,0.182,0.312,0.369,0.469,0.553c1.213-0.382,2.423-0.753,3.593-1.115
		c2.945,4.408,5.96,8.995,9.051,13.53c2.344,3.441,5.042,6.632,8.217,9.309c5.971,5.036,12.063,9.934,16.802,16.217
		c2.08,2.768,4.183,5.567,5.053,9.079c0.418,1.668,0.949,3.543,2.049,4.75c1.687,1.847,0.699,3.525,0.825,5.726
		c-3.097-2.149-5.775-3.957-8.391-5.846c-1.586-1.138-2.987-2.523-4.618-3.567c-1.308-0.831-2.813-1.787-4.279-1.864
		c-5.859-0.317-11.741-0.254-17.613-0.461c-1.701-0.064-3.386-0.626-5.09-0.841c-1.019-0.126-2.066-0.024-3.652-0.024
		c1.148,0.936,1.78,1.453,2.72,2.218c-2.906,0.792-5.292,1.6-7.743,2.064c-2.417,0.458-5.031-0.498-7.816,0.696
		c1.157,0.637,1.867,1.03,2.65,1.464c-0.3,0.392-0.39,0.643-0.559,0.706c-4.349,1.719-7.749,4.642-10.806,8.123
		c-2.465,2.803-5.129,5.311-9.467,5.008c-4.166-0.291-4.183-0.06-5.713-3.803c-0.722,0.434-1.449,0.86-2.254,1.334
		c0.421,0.455,0.862,0.769,1.081,1.192c1.437,2.771,3.164,5.108,6.272,6.357c0.845,0.344,2.796,1.522,1.598,3.182
		c-2.187,3.015-4.643,5.801-8.745,6.207c-0.517,0.053-1.019,0.255-1.527,0.387c5.735,1.856,11.389,2.619,17.074-0.566
		c-0.326,2.834,2.805,4.471,1.157,7.239c-1.246,2.078-2.044,4.425-3.074,6.74c0.915,0.282,1.572,0.486,2.588,0.8
		c-0.758,1.335-1.401,2.469-1.842,3.249c0.578,0.931,1.401,1.668,1.429,2.433c0.022,0.948-0.618,1.911-1,2.951
		c0.32,0.035,0.854,0.275,1.145,0.1c1.833-1.084,3.619-2.263,5.592-3.523c0.264,0.632,0.413,1.269,0.758,1.774
		c2.204,3.214,1.188,7.145-2.428,8.362c-2.207,0.741-4.573,1.258-6.889,1.366c-4.977,0.225-9.781,1.079-14.065,3.648
		c-2.117,1.274-3.998,3.061-5.702,4.878c-1.715,1.823-2.88,4.173-4.632,5.96c-2.644,2.703-2.979,4.631-0.663,7.829
		c0.96-1.478,1.915-2.931,2.864-4.388c0.752,1.561,1.485,2.855-0.143,4.03c-0.497,0.362-0.741,1.386-0.713,2.093
		c0.042,1.067,0.415,2.126,0.654,3.206c0.795,0.1,1.493,0.192,2.193,0.275c0.163-0.7,0.152-1.359,0.452-1.812
		c0.621-0.954,1.272-2.32,2.165-2.545c0.805-0.206,2.268,0.633,2.852,1.441c0.747,1.04,0.971,2.485,1.311,3.787
		c0.216,0.831,0.104,1.763,0.388,2.561c0.705,2.003,2.81,2.918,4.458,1.884c-1.867-0.967-1.544-2.366-0.466-3.532
		c0.733-0.793,1.831-1.489,2.875-1.721c2.44-0.535,4.127-2.003,5.71-3.755c1.564-1.724,3.161-3.421,4.803-5.064
		c0.328-0.336,0.924-0.403,1.395-0.594c0.107,0.519,0.427,1.103,0.284,1.545c-0.598,1.907-0.674,3.742-0.104,5.709
		c0.202,0.681-0.3,1.908-0.89,2.41c-1.036,0.887-2.378,1.418-3.86,2.242c1.244,0.629,2.347,1.628,3.447,1.62
		c1.272-0.003,3.184-0.549,3.678-1.474c1.373-2.583,4.102-2.823,6.162-3.964c3.116-1.74,4.169-4.643,5.606-7.392
		c0.882-1.691,1.246-3.662,2.153-5.334c0.682-1.255,1.771-2.35,2.875-3.286c0.581-0.505,1.581-0.521,2.395-0.759
		c0.205,0.72,0.584,1.44,0.567,2.155c-0.034,1.527-0.438,3.057-0.371,4.575c0.07,1.687,0.494,3.356,0.769,5.036
		c0.323,0.06,0.651,0.124,0.977,0.184c0.011-4.29,2.88-5.862,6.064-7.252c0.896-0.394,1.758-1.203,2.277-2.038
		c0.96-1.549,1.662-3.257,2.676-5.307c1.288,0.783,2.875,1.754,4.73,2.893c-0.48-2.229-1.176-3.918-1.151-5.585
		c0.098-5.205-2.49-8.27-7.077-10.233c-1.892-0.809-3.568-2.19-5.267-3.405c-0.253-0.175-0.3-0.983-0.107-1.31
		c0.143-0.239,0.876-0.334,1.241-0.204c0.525,0.192,0.946,0.65,1.429,0.98c2.513,1.708,5.135,2.868,7.849,1.884
		c-0.584-1.406-1.401-2.643-1.544-3.963c-0.174-1.639,0.289-3.332,0.323-5.008c0.017-0.466-0.494-0.943-0.764-1.416
		c-0.929-1.634-1.999-3.21-2.701-4.939c-0.174-0.428,0.749-1.854,1.305-1.938c2.001-0.31,3.911,1.689,3.927,3.791
		c0,1.047,0,2.094,0,3.443c0.797-0.378,1.235-0.484,1.527-0.748c1.833-1.668,3.338-3.476,3.08-6.218
		c-0.051-0.566,0.323-1.654,0.595-1.684c0.739-0.089,1.634,0.091,2.26,0.497c0.455,0.291,0.576,1.099,0.842,1.677
		c0.292-0.205,0.59-0.407,0.879-0.613c0.031-0.531,0.104-1.064,0.081-1.591c-0.154-3.331,1.362-4.979,4.649-4.836
		c0.679,0.031,1.873,0.497,1.912,0.868c0.095,0.82-0.264,1.778-0.668,2.556c-0.693,1.357-1.69,2.569-2.341,3.942
		c-0.977,2.043-1.968,4.114-2.591,6.279c-0.772,2.716-2.431,5.276-1.698,8.331c0.171,0.707,0.11,1.516-0.034,2.25
		c-0.475,2.448-1.039,4.876-1.578,7.38c0.539,0.26,1.182,0.566,2.246,1.068c-0.831,2.402-1.738,4.726-2.4,7.118
		c-0.166,0.626,0.34,1.482,0.64,2.187c0.295,0.688,1.103,1.377,1.019,1.967c-0.247,1.645-0.837,3.237-1.143,4.305
		c0.124,1.752,0.671,3.272,0.202,4.347c-0.893,2.051-2.369,3.846-3.593,5.73c1.278,0.707,2.288,1.277,3.203,1.788
		c0.567-0.816,1.083-1.916,1.901-2.692c2.757-2.595,6.468-4.104,8.414-7.649c0.547-1.012,3.085-0.82,3.436,0.182
		c0.595,1.717,0.334,3.923,2.864,4.368c0.123,0.02,0.283,0.406,0.244,0.577c-0.598,2.58,1.196,2.59,2.855,2.569
		c0.267,1.115,0.503,2.087,0.688,2.886c1.005,0.119,2.319-0.007,2.462,0.347c1.025,2.509,4.722,2.612,5.034,5.697
		c0.022,0.225,0.617,0.344,0.82,0.609c0.814,1.068,1.696,2.111,2.333,3.28c1.35,2.473,0.831,5.126,0.239,7.646
		c-0.511,2.19-1.14,4.477-2.288,6.378c-3.127,5.209-8.61,7.748-13.369,11.091c-2.266,1.592-4.644,3.021-6.931,4.582
		c-1.833,1.242-3.164,2.796-3.493,5.165c-0.149,1.094-0.82,2.197-1.485,3.133c-1.957,2.751-2.145,4.667-0.466,7.49
		c1.435-1.274,0.57-4.392,3.781-4.5c0,2.927-0.031,5.747,0.011,8.565c0.028,2.166,2.291,4.08,4.641,3.948
		c0-0.716,0.121-1.468-0.02-2.16c-0.306-1.489-0.337-2.879,1.429-3.349c1.701-0.45,3.72,0.912,3.891,2.617
		c0.505,5.135,5.834,6.505,9.618,4.05c-0.705-0.176-1.333-0.375-1.979-0.498c-1.671-0.307-2.434-2.198-1.303-3.508
		c0.806-0.928,1.878-1.621,2.712-2.536c1.218-1.342,2.535-2.668,3.422-4.225c0.783-1.374,1.421-2.524,3.164-2.795
		c2.092-0.315,4.84-3.536,4.843-5.643c0.005-3.144,1.771-5.125,4.365-6.792c0.197,0.976,0.357,2.07-0.112,2.719
		c-1.378,1.94-1.614,3.64,0.208,5.396c0.27,0.264,0.354,0.776,0.399,1.194c0.25,2.277,0.388,4.535-2.223,6.025
		c1.033,0.219,2.086,0.402,2.692-0.024c1.061-0.765,2.007-1.8,2.732-2.903c1.21-1.856,1.839-4.253,3.394-5.682
		c2.268-2.082,3.293-4.343,3.119-7.284c-0.048-0.87-0.376-1.756-0.292-2.603c0.07-0.629,0.609-1.203,0.937-1.804
		c0.722,0.409,1.617,0.67,2.12,1.266c0.716,0.859,1.064,2.019,1.727,2.929c0.233,0.319,1.252,0.551,1.376,0.403
		c1.668-2.125,3.498-4.19,4.711-6.567c0.446-0.876-0.576-2.539-1.022-3.814c-0.373-1.091-0.884-2.138-1.328-3.198
		c-0.682-1.596-0.025-3.005,1.322-3.471c0.775-0.272,2.235,0.498,2.967,1.23c2.117,2.091,2.428,4.468,0.435,6.924
		c-0.118,0.146,0.039,0.522,0.14,1.398c0.64-0.741,0.845-1.203,1.176-1.324c3.394-1.232,4.851-3.665,4.73-7.209
		c-0.014-0.498,0.438-1.134,0.854-1.505c1.656-1.463,3.408-2.807,5.064-4.27c1.589-1.404,2.31-3.224,2.139-5.349
		c-0.034-0.388-0.188-0.928-0.466-1.088c-0.233-0.132-0.884,0.08-1.069,0.335c-1.623,2.257-3.944,1.19-5.876,1.006
		c-0.893-0.089-1.999-1.589-2.364-2.664c-0.578-1.684,1.328-3.575,3.366-3.742c0.882-0.072,1.758-0.199,2.636-0.307
		c0.051-0.199,0.104-0.393,0.152-0.592c-1.103-0.872-2.35-1.613-3.296-2.632c-2.471-2.668-5.233-4.448-9.068-4.007
		c-1.665,0.188-3.077-0.313-4.183-1.742c-0.893-1.151-1.07-3.126,0.011-4.142c1.283-1.21,2.588-0.999,3.857,0.128
		c0.943,0.845,1.934,1.624,2.911,2.437c0.267-0.147,0.536-0.289,0.809-0.434c-0.407-1.544-0.531-3.241-1.272-4.603
		c-1.317-2.444-3.658-3.105-6.387-3.174c-1.277-0.028-2.563-0.928-3.776-1.572c-0.16-0.084-0.078-1.16,0.213-1.459
		c1.188-1.206,2.617-2.185,3.728-3.451c0.677-0.775,0.707-2.181,1.449-2.83c1.21-1.064,0.879-1.912,0.446-2.772
		c-2.013,0.86-3.824,2.055-5.781,2.385c-4.977,0.845-8.7-2.962-8.7-8.113c-0.006-1.61,2.024-3.215,4.093-3.139
		c1.617,0.063,3.052,0.514,2.883,2.68c-0.034,0.445,0.382,0.924,0.649,1.526c2.341-2.832,3.507-3.904,1.157-7.115
		c-0.693-0.958-1-2.327,0.825-3.199c1.555-0.747,2.726-2.145,1.732-3.914c-1.013,0.47-2.266,0.653-2.74,1.359
		c-1.3,1.938-1.979-0.153-2.774-0.371c-2.19-0.602-2.642-3.349-1.317-5.225c1.553-2.186,2.934-4.511,4.191-6.884
		c1.098-2.092,2.42-2.907,3.917-2.007c2.15,1.29,4.211,2.795,6.477,3.831c4.68,2.13,9.685,3.523,14.795,3.587
		c6.165,0.077,11.609-2.36,16.735-5.884c4.916-3.38,8.341-7.856,11.378-12.765c1.575,0.18,3.175,0.601,4.739,0.477
		c2.226-0.17,4.455-0.637,6.625-1.203c0.735-0.191,1.783-0.987,1.859-1.616c0.356-2.796,2.479-4.224,4.273-5.845
		c0.806-0.728,1.053-0.964,0.174-1.712c-0.382-0.33-0.702-0.921-0.741-1.415c-0.095-1.464-0.031-2.942-0.05-4.41
		c-0.039-4.076-1.246-7.562-4.593-10.237c-1.35-1.082-2.706-2.616-3.2-4.21c-1.224-3.909-3.854-6.481-7.352-7.875
		c-2.532-1.008-3.411-2.764-4.245-4.921c-0.786-2.02-1.687-4-2.507-6.013c-1.325-3.268-3.057-6.45-3.829-9.85
		c-0.752-3.353-0.797-6.941,1.418-10.116c0.323-0.467-0.337-2.414-0.741-2.486c-3.72-0.646-3.798-4.145-5.132-6.502
		c-0.752-1.335,0.2-2.959,0.806-4.555c1.196-3.165,4.172-3.41,6.294-4.966c0.427-0.31,1.566,0.288,2.352,0.542
		c0.449,0.143,0.825,0.522,1.283,0.649c1.766,0.494,3.352,2.545,3.579,4.424c0.404,3.293-1.317,5.543-3.913,7.879
		c0.842,0.142,1.463,0.446,1.791,0.255c3.852-2.218,6.429-5.39,6.452-9.998c0-1.531-0.66-3.14-1.297-4.586
		c-0.617-1.422-1.384-2.879-2.445-3.986c-2.058-2.155-4.865-2.907-7.597-4.013c-3.691-1.496-6.718,0.115-9.621,1.102
		c-2.816,0.962-5,3.735-7.572,5.554c-1.3,0.914-1.895,3.577-4.166,2.122c-0.834-2.428-1.656-4.67-2.389-6.943
		c-0.96-3.035-2.052-6.042-2.74-9.142c-0.671-3.07-1.011-6.224-1.311-9.365c-1.053-10.91-0.269-21.45,5.542-31.221
		c1.959-3.293,4.25-5.876,7.501-7.885c4.961-3.052,10.138-4.742,16.005-3.972c2.633,0.345,3.585,2.433,2.195,4.789
		c-0.57,0.967-1.134,2.07-1.244,3.158c-0.317,3.181-2.105,5.47-4.349,7.406c-1.889,1.637-4.764,1.7-6.452,0.427
		c-0.612-0.467-1.067-1.155-1.856-2.04c-0.328,3.122,1.567,5.806,4.169,6.621c4.896,1.539,10.564-0.999,13.998-6.486
		c0.657,0.42,1.634,0.693,1.92,1.298c0.747,1.581,1.522,3.269,1.701,4.973c0.317,3.074,0.994,6.048-0.977,9.205
		c-1.286,2.051-2.81,2.736-4.663,3.25c-2.013,0.557-4.556-1.27-3.765-4.085c0.25-0.877,0.359-1.804,0.525-2.705
		c-0.214-0.146-0.413-0.291-0.629-0.438c-0.825,0.88-1.681,1.736-2.479,2.649c-1.662,1.906-2.925,4.132-1.707,6.582
		c1.342,2.684,2.855,5.509,6.701,5.236c1.794-0.128,3.599-0.025,5.98-0.025c-0.755,1.55-1.696,2.649-1.783,3.817
		c-0.23,3.07-0.107,6.162-0.073,9.245c0.005,0.39,0.236,0.893,0.531,1.147c2.22,1.891,4.433,3.798,6.771,5.547
		c0.576,0.429,1.586,0.278,2.4,0.389c0.034-0.234,0.064-0.465,0.104-0.7c-0.59-0.223-1.308-0.299-1.741-0.688
		c-2.743-2.473-2.625-8.788,0.32-11.097c4.062-3.182,6.347-7.12,6.053-12.392c-0.036-0.616,0.177-1.259,0.326-2.222
		c1,0.435,1.976,0.559,2.445,1.116c1.1,1.305,2.159,2.722,2.875,4.26c1.856,3.974,1.426,9.083-4.649,9.517
		c-0.749,0.051-1.482,0.177-2.22,0.278c0.022,0.18,0.045,0.366,0.076,0.549c3.31,0.41,6.895,1.788,9.646-1.234
		c1.917-2.122,5.264-2.556,6.283-5.723c0.517-1.607,1.847-2.966,2.319-4.581c0.331-1.136-0.079-2.528-0.306-3.787
		c-0.351-1.863-0.89-3.699-1.198-5.571c-0.048-0.27,0.713-0.775,1.185-1.011c1.581-0.796,3.203-1.52,4.969-2.341
		c0.008,0.005,3.916,9.58,4.155,10.929c0.999-1.123,2.471-2.006,2.586-3.045c0.418-3.711,1.482-7.625-1.381-10.97
		c-0.702-0.817-1.53-1.589-1.982-2.532c-0.343-0.706-0.542-1.892-0.166-2.45C421.976,195.363,423.318,193.592,424.884,192.114z
		 M271.27,172.473c-0.124,0.213-0.43,0.469-0.651,0.469c-1.903-0.016-3.801-0.094-6.157-0.17c0.901-1.526,1.434-2.274,1.811-3.098
		c0.817-1.752,2.091-2.317,3.627-1.529C271.104,168.761,271.944,171.355,271.27,172.473z M282.963,156.613
		c-1.603,0.156-3.234,0.06-5.306,0.06c0.424-0.883,0.519-1.138,0.66-1.37c1.771-3.05,1.794-3.098,5.003-1.613
		c0.533,0.243,1.016,1.159,1.027,1.771C284.355,155.858,283.488,156.565,282.963,156.613z"/>
	<path fill-rule="evenodd" clip-rule="evenodd" d="M266.812,178.219c0,0,0,0.008,0.005,0.008
		C266.871,178.182,266.888,178.158,266.812,178.219z"/>
	<path fill-rule="evenodd" clip-rule="evenodd" d="M417.33,178.732c-0.225,0.111-0.379,0.15-0.477,0.247
		c-0.098,0.095-0.168,0.243-0.191,0.377c-0.491,2.844-2.142,4.533-4.938,5.26c-0.637,0.171-1.12,0.943-2.022,1.748
		C415.457,186.851,419.112,182.98,417.33,178.732z"/>
	<path fill-rule="evenodd" clip-rule="evenodd" d="M228.418,314.896c2.956,1.457,3.998,1.388,5.323,0
		C231.908,314.896,230.164,314.896,228.418,314.896z"/>
</g>
</svg>
