<?xml version="1.0" encoding="utf-8"?>
<!-- Generator: Adobe Illustrator 21.0.0, SVG Export Plug-In . SVG Version: 6.00 Build 0)  -->
<svg version="1.1" xmlns="http://www.w3.org/2000/svg" xmlns:xlink="http://www.w3.org/1999/xlink" x="0px" y="0px"
	 viewBox="0 0 576 576" enable-background="new 0 0 576 576" xml:space="preserve">
<g id="Layer_2">
	<path d="M117.251,79.219V23.517c-4.006,0.171-6.88,0.297-8.624,0.382c-1.747,0.085-3.622,0.382-5.623,0.894
		c-2.001,0.512-3.279,0.979-3.832,1.406c-0.556,0.427-1.237,1.384-2.045,2.875c-0.81,1.491-1.32,2.875-1.532,4.151
		c-0.215,1.279-0.534,3.408-0.959,6.39l-6.005,0.508c1.022-7.493,1.662-14.862,1.916-22.102l1.15-1.02l10.604,1.405h39.607
		L152.767,17l1.15,1.02c0.171,5.537,0.809,12.736,1.917,21.594l-6.005,0.508c-0.512-2.979-0.894-5.152-1.15-6.514
		c-0.256-1.361-0.766-2.811-1.534-4.343c-0.766-1.535-1.448-2.511-2.044-2.941c-0.597-0.423-1.81-0.913-3.641-1.469
		c-1.834-0.553-3.599-0.872-5.302-0.957c-1.706-0.085-4.345-0.212-7.922-0.382c-1.363,13.627-2.044,34.324-2.044,62.09
		c0,3.152,0.553,5.389,1.662,6.706c1.106,1.324,2.98,1.981,5.621,1.981l7.027-0.382l0.384,0.512l-1.15,5.875
		c-8.519-0.256-14.778-0.382-18.781-0.382l-17.505,0.512l1.023-5.493c5.961-0.512,9.581-1.554,10.858-3.13
		C116.611,90.228,117.251,86.033,117.251,79.219z"/>
	<path d="M200.932,35.015l12.266,0.638l9.965-0.382l0.384,0.764l-0.639,4.346c-3.238,0.683-5.556,1.766-6.962,3.257
		c-1.406,1.491-3.6,4.707-6.58,9.647l-10.348,17.629c-0.938,1.621-1.491,3.408-1.662,5.367c-0.341,2.897-0.51,6.131-0.51,9.71
		c0,3.576,0.319,5.834,0.957,6.769c0.64,0.938,1.896,1.406,3.77,1.406l5.109-0.256l0.256,0.385l-1.022,5.364
		c-6.305-0.256-10.69-0.382-13.16-0.382c-4.516,0-9.243,0.382-14.182,1.15l0.768-5.237c3.746-0.597,6.089-1.535,7.027-2.812
		c0.935-1.279,1.404-3.79,1.404-7.537v-3.961c0-3.579-1.022-7.24-3.065-10.986c-7.921-15.162-12.266-23.338-13.032-24.532
		c-1.875-2.812-5.027-4.429-9.455-4.855l-0.256-0.512l0.768-4.599c4.855,0.174,8.857,0.256,12.008,0.256l15.332-0.768l0.384,0.768
		l-0.384,4.217c-2.897,0.171-4.876,0.49-5.94,0.957c-1.066,0.471-1.597,1.343-1.597,2.619c0,1.279,3.661,9.243,10.986,23.893h0.639
		l10.988-19.676c1.106-1.958,1.66-3.579,1.66-4.855c0-1.617-2.088-2.555-6.261-2.811l-0.254-0.382L200.932,35.015z"/>
	<path d="M278.866,39.169c3.917,2.852,5.877,6.495,5.877,10.923c0,8.772-5.027,15.415-15.075,19.929l10.858,16.353
		c2.046,3.067,4.004,5.24,5.877,6.517c1.873,1.279,4.13,1.918,6.773,1.918l0.51,0.638l-0.638,3.961l-9.838,1.02
		c-4.004,0-7.709-3.108-11.114-9.325l-10.732-18.783h-8.305l-0.256,13.672c0,3.494,0.403,5.686,1.213,6.58
		c0.809,0.894,2.917,1.387,6.326,1.469l0.254,0.382l-1.022,4.855c0-0.17-3.918-0.256-11.754-0.256l-12.776,0.386l0.894-5.238
		c3.151-0.426,5.239-1.15,6.261-2.173c1.022-1.023,1.534-2.938,1.534-5.749l0.128-40.755c0-2.044-0.256-3.427-0.768-4.154
		c-0.51-0.723-1.491-1.087-2.938-1.087l-3.578,0.129l-0.384-0.512l0.766-4.855c5.367,0.174,9.369,0.256,12.01,0.256l13.671-0.382
		C269.54,34.889,274.948,36.316,278.866,39.169z M263.663,66.701c7.155-2.897,10.732-7.54,10.732-13.927
		c0-8.26-6.092-12.392-18.271-12.392c-1.194,0-1.788,0.768-1.788,2.3c-0.684,10.392-1.022,18.059-1.022,22.996L263.663,66.701z"/>
	<path d="M326.135,63.631l10.478,0.129l12.648-1.023l0.51,0.638l-1.532,6.646c-5.877-0.171-10.329-0.256-13.351-0.256
		c-3.025,0-6.027,0.212-9.008,0.638c-0.256,6.473-0.384,11.691-0.384,15.649c0,3.961,0.403,6.261,1.213,6.899
		c0.809,0.641,3.492,0.96,8.05,0.96c4.555,0,8.004-0.275,10.348-0.831c2.341-0.553,4.025-1.599,5.046-3.13
		c1.022-1.532,1.831-4.217,2.428-8.049l5.621-0.512l0.512,0.638c-1.278,5.623-2.216,11.416-2.811,17.377l-0.766,0.638
		c-14.14-0.426-23.636-0.638-28.491-0.638c-7.155,0-13.458,0.338-18.909,1.023l0.64-5.367c3.149-0.341,5.28-1.106,6.387-2.3
		c1.106-1.191,1.662-3.238,1.662-6.134l0.128-40.499c0-2.129-0.256-3.554-0.768-4.28c-0.51-0.723-1.532-1.087-3.065-1.087
		l-3.45,0.129l-0.256-0.512l0.766-4.855c6.048,0.174,13.735,0.256,23.061,0.256c9.326,0,17.396-0.382,24.211-1.15l0.384,0.638
		c-1.194,5.282-2.003,10.99-2.428,17.121l-6.133,0.512c0.17-1.873,0.256-3.279,0.256-4.217c0-3.149-0.81-5.089-2.428-5.812
		c-1.619-0.723-4.963-1.087-10.029-1.087c-5.068,0-7.943,0.193-8.624,0.575c-0.682,0.382-1.066,1.428-1.15,3.13L326.135,63.631z"/>
	<path d="M379.666,35.523l12.394,0.256l12.392-0.894l-0.51,5.367c-3.577,0.427-5.665,1.361-6.261,2.808
		c-0.341,0.685-0.788,4.666-1.341,11.947c-0.556,7.284-0.831,17.866-0.831,31.749c0,3.067,0.49,5.026,1.469,5.875
		c0.979,0.853,3.811,1.279,8.497,1.279c4.683,0,7.962-0.85,9.837-2.555c1.873-1.703,3.364-5.705,4.471-12.01l5.623-0.638
		l0.382,0.764c-1.194,6.39-2.172,13.078-2.938,20.059l-0.64,0.768c-12.008-0.597-20.357-0.894-25.04-0.894
		c-7.071,0-13.247,0.338-18.527,1.023l0.768-5.367c2.725-0.427,4.577-1.213,5.556-2.363s1.47-3.174,1.47-6.071l0.128-40.499
		c0-2.129-0.256-3.554-0.768-4.28c-0.51-0.723-1.532-1.087-3.065-1.087l-3.449,0.129l-0.384-0.512L379.666,35.523z"/>
	<path d="M441.246,35.523l12.394,0.256l12.392-0.894l-0.51,5.367c-3.577,0.427-5.665,1.361-6.261,2.808
		c-0.341,0.685-0.788,4.666-1.341,11.947c-0.556,7.284-0.831,17.866-0.831,31.749c0,3.067,0.49,5.026,1.469,5.875
		c0.979,0.853,3.811,1.279,8.497,1.279c4.683,0,7.962-0.85,9.837-2.555c1.873-1.703,3.364-5.705,4.471-12.01l5.623-0.638
		l0.382,0.764c-1.194,6.39-2.172,13.078-2.938,20.059l-0.639,0.768c-12.008-0.597-20.357-0.894-25.04-0.894
		c-7.071,0-13.247,0.338-18.527,1.023l0.768-5.367c2.725-0.427,4.577-1.213,5.556-2.363s1.47-3.174,1.47-6.071l0.128-40.499
		c0-2.129-0.256-3.554-0.768-4.28c-0.51-0.723-1.532-1.087-3.066-1.087l-3.449,0.129l-0.384-0.512L441.246,35.523z"/>
</g>
<g id="Layer_3">
	<path d="M125.73,553.28c-0.184,0.915-0.275,2.302-0.275,4.161c0,1.857,0.098,3.209,0.296,4.052l-0.253,0.382
		c-1.212,0.507-2.74,0.957-4.583,1.35c-1.845,0.395-3.555,0.592-5.13,0.592c-3.774,0-6.772-1.175-8.996-3.527
		c-2.225-2.35-3.336-5.631-3.336-9.84c0-4.209,1.366-7.686,4.096-10.431c2.73-2.745,6.307-4.119,10.728-4.119
		c2.083,0,4.814,0.339,8.192,1.013l0.17,0.254c-0.564,2.111-0.93,4.464-1.099,7.052l-1.984,0.17c0.084-0.761,0.126-1.52,0.126-2.281
		c0-1.294-0.5-2.238-1.499-2.83c-1-0.591-2.627-0.886-4.879-0.886c-3.209,0-5.709,0.965-7.496,2.893
		c-1.789,1.928-2.681,4.694-2.681,8.299c0,3.604,0.879,6.524,2.639,8.763c1.76,2.239,4.089,3.358,6.99,3.358
		c1.013,0,1.998-0.133,2.956-0.401c0.957-0.268,1.902-0.668,2.83-1.204v-5.153c0-0.958-0.147-1.575-0.443-1.859
		c-0.296-0.281-0.923-0.422-1.879-0.422h-2.915l-0.085-0.17l0.38-2.111c1.915,0.114,3.702,0.17,5.364,0.17l3.632-0.212l0.168,0.931
		C126.257,551.697,125.913,552.365,125.73,553.28z"/>
	<path d="M150.962,538.014c1.521,1.18,2.281,2.716,2.281,4.602c0,3.689-2.069,6.476-6.207,8.362l4.645,7.349
		c0.815,1.353,1.611,2.289,2.386,2.809c0.774,0.52,1.725,0.782,2.851,0.782l0.168,0.167l-0.253,1.437l-3.59,0.464
		c-0.704,0-1.457-0.361-2.26-1.077c-0.802-0.719-1.541-1.697-2.217-2.936l-4.518-8.193h-3.506l-0.126,6.291
		c0,1.522,0.168,2.48,0.507,2.872c0.338,0.395,1.183,0.591,2.534,0.591l0.083,0.17l-0.379,1.774c0-0.029-1.493-0.072-4.477-0.127
		l-4.857,0.127l0.38-1.902c1.323-0.141,2.189-0.43,2.598-0.865c0.407-0.438,0.611-1.26,0.611-2.472l0.043-17.738
		c0-0.902-0.105-1.506-0.317-1.817c-0.211-0.308-0.626-0.464-1.245-0.464l-1.436,0.085l-0.085-0.17l0.296-1.857
		c2.055,0.082,3.617,0.125,4.688,0.125l5.196-0.167C147.372,536.24,149.442,536.831,150.962,538.014z M149.738,543.629
		c0-3.716-2.576-5.575-7.728-5.575c-0.282,0-0.472,0.064-0.57,0.191c-0.1,0.127-0.163,0.387-0.191,0.782
		c-0.253,4.307-0.394,7.771-0.421,10.388l4.349,0.422c1.041-0.252,2.041-0.873,2.998-1.857c0.395-0.424,0.753-1.021,1.078-1.796
		C149.575,545.411,149.738,544.56,149.738,543.629z"/>
	<path d="M172.502,563.817c-3.464,0-6.279-1.209-8.447-3.631c-2.168-2.421-3.252-5.639-3.252-9.651
		c0-4.013,1.337-7.455,4.012-10.325c2.675-2.872,5.87-4.31,9.588-4.31c3.717,0,6.686,1.212,8.911,3.633
		c2.224,2.421,3.336,5.639,3.336,9.648c0,4.013-1.359,7.455-4.075,10.328C179.856,562.382,176.498,563.817,172.502,563.817z
		 M164.435,549.67c0,3.435,0.873,6.291,2.618,8.572c1.747,2.281,3.977,3.421,6.694,3.421c2.717,0,4.921-1.021,6.61-3.063
		c1.69-2.04,2.533-4.771,2.533-8.193s-0.894-6.272-2.682-8.55c-1.788-2.281-4.047-3.421-6.779-3.421
		c-2.73,0-4.913,1.013-6.546,3.039C165.25,543.504,164.435,546.233,164.435,549.67z"/>
	<path d="M189.774,538.266l-0.042-0.17l0.253-1.814c2.253,0.082,3.843,0.125,4.772,0.125c1.971,0,4.013-0.154,6.124-0.464
		l0.126,0.297l-0.168,1.647c-1.436,0.111-2.4,0.281-2.892,0.507c-0.493,0.225-0.74,0.604-0.74,1.14
		c0,1.098,1.732,7.657,5.194,19.679h0.255l5.954-16.215l-0.76-2.323c-0.282-0.817-0.719-1.408-1.309-1.774
		c-0.591-0.366-1.423-0.578-2.492-0.634l-0.085-0.17l0.296-1.814c2.252,0.082,3.801,0.125,4.645,0.125
		c1.802,0,3.885-0.154,6.251-0.464l0.126,0.297l-0.168,1.647c-1.464,0.111-2.443,0.281-2.936,0.507
		c-0.492,0.225-0.738,0.591-0.738,1.098c0,0.928,1.745,7.503,5.237,19.721h0.253c4.562-12.303,6.843-18.849,6.843-19.637
		c0-0.986-0.958-1.48-2.872-1.48h-2.111l-0.085-0.167l0.295-1.817c2.111,0.196,4.069,0.294,5.871,0.294l4.477-0.125l-0.296,1.984
		c-0.845,0.056-1.436,0.204-1.774,0.443c-0.338,0.241-0.649,0.769-0.93,1.583l-8.869,22.806l-2.618,0.931
		c-1.606-5.771-3.365-11.741-5.279-17.907h-0.253l-5.998,16.977l-2.702,0.931c-2.338-8.277-4.688-16.064-7.053-23.355
		C193.068,539.096,191.801,538.295,189.774,538.266z"/>
	<path d="M240.074,558.582c0,1.154,0.126,1.92,0.379,2.299c0.253,0.382,0.747,0.57,1.478,0.57l2.238-0.125l0.085,0.167l-0.381,1.944
		c-2.366-0.085-4.041-0.127-5.026-0.127c-1.634,0-3.436,0.17-5.406,0.507l0.255-1.941c1.322-0.255,2.217-0.629,2.681-1.119
		c0.464-0.493,0.696-1.332,0.696-2.514l0.042-17.738c0-0.902-0.105-1.506-0.317-1.817c-0.211-0.308-0.626-0.464-1.245-0.464
		l-1.774,0.085l-0.083-0.17l0.295-1.857c2.196,0.082,3.73,0.125,4.603,0.125c1.183,0,2.941-0.125,5.279-0.379l-0.168,1.902
		c-1.183,0.14-1.972,0.371-2.366,0.695c-0.394,0.326-0.619,0.896-0.675,1.711C240.271,548.501,240.074,554.582,240.074,558.582z"/>
	<path d="M271.494,557.187v-17.104c0-1.212-0.465-1.817-1.394-1.817l-1.606,0.042l-0.083-0.17l0.379-1.899
		c1.717,0.111,2.957,0.167,3.717,0.167c1.238,0,2.73-0.111,4.477-0.337l-0.211,1.944c-0.987,0.141-1.704,0.414-2.155,0.822
		c-0.451,0.408-0.69,1.021-0.717,1.838l-0.591,23.734L272.085,565c-5.096-7.911-10.333-15.669-15.71-23.27h-0.211l-0.212,18.032
		c0,0.621,0.099,1.056,0.296,1.31c0.197,0.254,0.534,0.379,1.014,0.379l2.154-0.042l0.085,0.17l-0.38,1.902
		c-1.774-0.114-3.083-0.17-3.928-0.17c-1.351,0-2.845,0.111-4.477,0.337l0.212-1.941c1.716-0.196,2.59-1.085,2.618-2.66
		l0.549-18.456c0-0.873-0.26-1.493-0.781-1.859s-1.485-0.618-2.893-0.759l-0.126-0.212l0.338-1.562
		c1.633,0.14,2.843,0.209,3.632,0.209l2.829-0.167c4.167,6.477,8.897,13.457,14.19,20.947H271.494z"/>
	<path d="M304.035,553.28c-0.184,0.915-0.275,2.302-0.275,4.161c0,1.857,0.098,3.209,0.296,4.052l-0.253,0.382
		c-1.212,0.507-2.74,0.957-4.583,1.35c-1.845,0.395-3.555,0.592-5.13,0.592c-3.774,0-6.772-1.175-8.996-3.527
		c-2.225-2.35-3.337-5.631-3.337-9.84c0-4.209,1.366-7.686,4.096-10.431c2.73-2.745,6.307-4.119,10.728-4.119
		c2.083,0,4.814,0.339,8.193,1.013l0.17,0.254c-0.564,2.111-0.929,4.464-1.099,7.052l-1.984,0.17
		c0.084-0.761,0.126-1.52,0.126-2.281c0-1.294-0.5-2.238-1.499-2.83c-1-0.591-2.627-0.886-4.879-0.886
		c-3.209,0-5.709,0.965-7.496,2.893c-1.789,1.928-2.681,4.694-2.681,8.299c0,3.604,0.879,6.524,2.639,8.763
		c1.76,2.239,4.089,3.358,6.99,3.358c1.013,0,1.998-0.133,2.956-0.401c0.957-0.268,1.902-0.668,2.83-1.204v-5.153
		c0-0.958-0.147-1.575-0.443-1.859c-0.296-0.281-0.923-0.422-1.879-0.422h-2.915l-0.085-0.17l0.38-2.111
		c1.915,0.114,3.702,0.17,5.364,0.17l3.632-0.212l0.168,0.931C304.563,551.697,304.218,552.365,304.035,553.28z"/>
	<path d="M329.395,563.817c-1.183,0-2.323-0.119-3.421-0.358s-2.168-0.599-3.209-1.077l-0.212-0.424
		c0.338-2.167,0.508-4.617,0.508-7.346l1.901-0.212c0,3.042,0.343,5.026,1.034,5.954c0.69,0.931,2.049,1.395,4.075,1.395
		c2.028,0,3.575-0.416,4.646-1.247c1.069-0.83,1.605-1.962,1.605-3.4c0-1.239-0.634-2.337-1.901-3.294
		c-0.929-0.703-1.859-1.294-2.787-1.775c-0.93-0.477-1.415-0.724-1.457-0.737c-0.043-0.016-0.085-0.037-0.127-0.064
		c-0.041-0.029-0.345-0.191-0.907-0.485c-0.564-0.297-1.162-0.634-1.795-1.016c-0.634-0.379-1.33-0.891-2.09-1.541
		c-1.493-1.238-2.238-2.716-2.238-4.434c0-2.223,0.935-4.09,2.809-5.596c1.871-1.506,4.173-2.26,6.905-2.26
		c2.139,0,4.292,0.353,6.461,1.056l0.127,0.254c-0.451,2.17-0.76,4.548-0.93,7.137l-1.647,0.17l-0.253-0.212
		c0.085-0.591,0.127-1.323,0.127-2.196c0-1.49-0.366-2.519-1.098-3.082c-0.733-0.565-1.957-0.846-3.674-0.846
		c-1.717,0-3.076,0.387-4.075,1.162c-1,0.775-1.5,1.732-1.5,2.872s0.485,2.127,1.457,2.957c0.971,0.83,2.624,1.851,4.962,3.06
		c2.336,1.212,3.956,2.212,4.856,3c1.521,1.294,2.281,2.745,2.281,4.35c0,2.421-0.971,4.4-2.914,5.933
		C334.97,563.051,332.463,563.817,329.395,563.817z"/>
	<path d="M354.06,556.468v-18.414c-1.325,0.058-2.274,0.101-2.851,0.127c-0.578,0.029-1.197,0.127-1.858,0.297
		c-0.663,0.167-1.085,0.324-1.268,0.464c-0.183,0.141-0.408,0.459-0.675,0.949c-0.269,0.493-0.438,0.95-0.508,1.374
		c-0.07,0.422-0.177,1.125-0.317,2.111l-1.984,0.17c0.337-2.477,0.549-4.914,0.633-7.307l0.38-0.339l3.505,0.464h13.092l3.589-0.464
		l0.381,0.339c0.056,1.83,0.268,4.209,0.634,7.137l-1.985,0.17c-0.17-0.986-0.296-1.705-0.38-2.156
		c-0.084-0.448-0.253-0.928-0.506-1.435c-0.253-0.507-0.479-0.83-0.677-0.971c-0.196-0.141-0.598-0.303-1.203-0.486
		c-0.606-0.183-1.19-0.289-1.753-0.318c-0.564-0.027-1.436-0.069-2.618-0.127c-0.451,4.506-0.676,11.349-0.676,20.528
		c0,1.04,0.183,1.78,0.549,2.217c0.366,0.435,0.985,0.652,1.858,0.652l2.323-0.125l0.126,0.167l-0.379,1.944
		c-2.817-0.085-4.885-0.127-6.209-0.127l-5.786,0.17l0.338-1.817c1.971-0.17,3.167-0.514,3.59-1.034
		C353.848,560.109,354.06,558.722,354.06,556.468z"/>
	<path d="M388.309,538.014c1.521,1.18,2.281,2.716,2.281,4.602c0,3.689-2.069,6.476-6.208,8.362l4.645,7.349
		c0.816,1.353,1.611,2.289,2.386,2.809c0.775,0.52,1.725,0.782,2.851,0.782l0.168,0.167l-0.253,1.437l-3.59,0.464
		c-0.704,0-1.457-0.361-2.26-1.077c-0.802-0.719-1.541-1.697-2.217-2.936l-4.518-8.193h-3.506l-0.126,6.291
		c0,1.522,0.168,2.48,0.507,2.872c0.338,0.395,1.183,0.591,2.534,0.591l0.084,0.17l-0.379,1.774c0-0.029-1.493-0.072-4.477-0.127
		l-4.857,0.127l0.381-1.902c1.323-0.141,2.189-0.43,2.598-0.865c0.407-0.438,0.611-1.26,0.611-2.472l0.042-17.738
		c0-0.902-0.105-1.506-0.317-1.817c-0.211-0.308-0.626-0.464-1.245-0.464l-1.436,0.085l-0.085-0.17l0.296-1.857
		c2.056,0.082,3.618,0.125,4.688,0.125l5.196-0.167C384.719,536.24,386.789,536.831,388.309,538.014z M387.085,543.629
		c0-3.716-2.577-5.575-7.729-5.575c-0.282,0-0.472,0.064-0.57,0.191c-0.099,0.127-0.163,0.387-0.191,0.782
		c-0.253,4.307-0.394,7.771-0.422,10.388l4.35,0.422c1.041-0.252,2.041-0.873,2.998-1.857c0.395-0.424,0.753-1.021,1.078-1.796
		C386.922,545.411,387.085,544.56,387.085,543.629z"/>
	<path d="M409.848,563.817c-3.464,0-6.279-1.209-8.447-3.631c-2.168-2.421-3.251-5.639-3.251-9.651
		c0-4.013,1.337-7.455,4.011-10.325c2.675-2.872,5.87-4.31,9.588-4.31c3.717,0,6.686,1.212,8.911,3.633
		c2.224,2.421,3.337,5.639,3.337,9.648c0,4.013-1.359,7.455-4.075,10.328C417.202,562.382,413.845,563.817,409.848,563.817z
		 M401.782,549.67c0,3.435,0.873,6.291,2.617,8.572c1.747,2.281,3.977,3.421,6.694,3.421s4.921-1.021,6.611-3.063
		c1.689-2.04,2.533-4.771,2.533-8.193s-0.894-6.272-2.681-8.55c-1.788-2.281-4.047-3.421-6.779-3.421
		c-2.73,0-4.913,1.013-6.546,3.039C402.597,543.504,401.782,546.233,401.782,549.67z"/>
	<path d="M450.856,557.187v-17.104c0-1.212-0.465-1.817-1.394-1.817l-1.606,0.042l-0.084-0.17l0.379-1.899
		c1.717,0.111,2.957,0.167,3.717,0.167c1.239,0,2.73-0.111,4.477-0.337l-0.211,1.944c-0.986,0.141-1.704,0.414-2.155,0.822
		c-0.451,0.408-0.689,1.021-0.717,1.838l-0.591,23.734L451.446,565c-5.096-7.911-10.333-15.669-15.71-23.27h-0.211l-0.212,18.032
		c0,0.621,0.099,1.056,0.295,1.31c0.198,0.254,0.535,0.379,1.015,0.379l2.153-0.042l0.085,0.17l-0.381,1.902
		c-1.775-0.114-3.083-0.17-3.928-0.17c-1.351,0-2.845,0.111-4.477,0.337l0.212-1.941c1.716-0.196,2.59-1.085,2.617-2.66
		l0.549-18.456c0-0.873-0.26-1.493-0.781-1.859c-0.521-0.366-1.485-0.618-2.894-0.759l-0.126-0.212l0.338-1.562
		c1.632,0.14,2.843,0.209,3.632,0.209l2.829-0.167c4.167,6.477,8.897,13.457,14.19,20.947H450.856z"/>
	<path d="M483.396,553.28c-0.184,0.915-0.274,2.302-0.274,4.161c0,1.857,0.098,3.209,0.296,4.052l-0.253,0.382
		c-1.212,0.507-2.74,0.957-4.583,1.35c-1.845,0.395-3.555,0.592-5.131,0.592c-3.774,0-6.772-1.175-8.996-3.527
		c-2.225-2.35-3.336-5.631-3.336-9.84c0-4.209,1.366-7.686,4.096-10.431c2.731-2.745,6.307-4.119,10.728-4.119
		c2.083,0,4.814,0.339,8.192,1.013l0.17,0.254c-0.564,2.111-0.93,4.464-1.099,7.052l-1.984,0.17c0.084-0.761,0.126-1.52,0.126-2.281
		c0-1.294-0.5-2.238-1.498-2.83c-1-0.591-2.627-0.886-4.879-0.886c-3.209,0-5.709,0.965-7.496,2.893
		c-1.789,1.928-2.681,4.694-2.681,8.299c0,3.604,0.879,6.524,2.639,8.763c1.76,2.239,4.09,3.358,6.99,3.358
		c1.013,0,1.999-0.133,2.956-0.401c0.958-0.268,1.902-0.668,2.83-1.204v-5.153c0-0.958-0.147-1.575-0.443-1.859
		c-0.296-0.281-0.923-0.422-1.879-0.422h-2.915l-0.085-0.17l0.381-2.111c1.915,0.114,3.702,0.17,5.364,0.17l3.632-0.212l0.168,0.931
		C483.924,551.697,483.579,552.365,483.396,553.28z"/>
</g>
<g id="Layer_4">
	<path fill-rule="evenodd" clip-rule="evenodd" d="M367.983,461.926c-0.101-1.087,0.25-2.022,1.438-2.319
		c1.469-0.366,1.295-1.121,0.534-2.018c-0.426-0.515-0.856-1.043-1.355-1.469c-3.5-2.982-7.057-5.914-10.535-8.936
		c-3.465-3.007-7.155-5.838-10.216-9.227c-3.535-3.914-4.081-8.801-2.271-13.744c2.334-6.419,5.913-11.944,11.356-16.274
		c5.196-4.138,10.702-7.085,17.57-6.542c0.338,0.038,0.67,0,1.008,0.013c4.037,0.123,7.509,1.816,10.566,4.245
		c5.351,4.23,8.2,10.244,10.86,16.284c1.804,4.094,3.127,8.393,4.735,12.578c0.332,0.859,0.872,1.677,1.478,2.382
		c0.265,0.31,0.966,0.439,1.415,0.351c1.172-0.234,2.303-0.695,3.475-0.938c2.088-0.433,3.99-1.115,5.711-2.496
		c5.91-4.741,8.491-11.485,11.176-18.166c1.254-3.121,2.6-6.242,2.672-9.704c0.009-0.417,0.354-0.812,0.471-1.241
		c0.344-1.263,0.913-2.533,0.935-3.816c0.183-7.85,0.881-15.681-1.4-23.454c-0.884-3.02-1.004-6.308-2.176-9.344
		c-1.188-3.051-0.313-5.43,2.23-7.641c3.595-3.108,7.127-6.387,10.232-9.992c5.256-6.137,9.976-12.597,12.582-20.513
		c1.409-4.258,2.183-8.595,2.919-12.9c1.415-8.273,0.022-16.325-4.147-23.751c-0.506-0.913-0.859-1.946,0.237-2.663
		c1.065-0.695,2.012-0.221,2.796,0.648c0.49,0.547,0.97,1.103,1.583,1.801c0.351-2.341-0.765-4.893-2.495-5.591
		c-0.72-0.291-1.835-0.262-2.492,0.107c-1.39,0.777-2.701,1.772-3.867,2.868c-5.253,4.918-10.408,9.953-15.674,14.859
		c-3.345,3.115-7.341,5.297-11.726,6.375c-5.332,1.308-10.648,1.011-15.687-1.696c-2.777-1.497-4.956-3.569-6.833-5.976
		c-4.185-5.383-7.493-11.132-7.151-18.29c0.047-0.945,0.06-1.889-0.003-2.837c-0.227-3.408,0.49-6.542,2.12-9.6
		c2.29-4.28,5.626-7.388,9.852-9.584c5.244-2.733,11.211-2.401,16.792-3.74c3.484-0.831,7.284-0.486,10.945-0.461
		c2.995,0.025,5.774-0.281,8.425-1.936c1.981-1.245,3.105-2.66,3.184-5.042c0.133-3.784-1.734-6.927-3.105-10.222
		c-0.565-1.355-1.545-2.527-2.331-3.787c-0.18,0.092-0.36,0.183-0.537,0.278c0.031,0.414,0.082,0.815,0.104,1.229
		c0.24,4.255,0.603,8.504,0.635,12.758c0.006,1.175-0.84,2.439-1.557,3.487c-0.297,0.439-1.434,0.761-1.886,0.537
		c-0.55-0.271-1.055-1.175-1.09-1.826c-0.06-1.14,0.12-2.341,0.442-3.443c0.945-3.178,1.327-6.292-0.3-9.382
		c-0.224-0.42-0.256-0.97-0.281-1.466c-0.187-2.95-1.548-5.487-3.295-7.682c-3.263-4.103-7.398-7.196-11.786-10.127
		c-3.885-2.587-8.181-3.914-12.411-5.313c-3.75-1.235-7.486-3.108-11.732-2.571c-1.384,0.17-2.846-0.398-4.274-0.569
		c-2.909-0.354-5.818-0.701-8.734-1.001c-1.099-0.114-2.221-0.032-3.317-0.174c-1.286-0.161-1.993-0.96-2.391-2.224
		c-1.282-4.103-2.413-8.27-4.04-12.231c-2.417-5.879-6.548-10.699-10.813-15.257c-4.754-5.067-10.86-8.371-17.13-11.274
		c-1.949-0.903-3.949-1.75-5.995-2.41c-1.788-0.581-3.648-0.941-5.503-1.248c-1.163-0.186-2.442-0.303-3.573-0.035
		c-3.374,0.805-5.667,2.862-6.634,6.318c-0.442,1.564-1.137,3.004-2.748,3.787c-0.281,0.139-0.591,0.638-0.559,0.938
		c0.259,2.404,0.411,4.852,0.96,7.193c0.925,3.955,2.192,7.834,3.159,11.779c0.373,1.542,0.259,3.209,0.493,4.802
		c0.692,4.625-0.929,8.598-3.765,12.01c-4.1,4.947-9.893,6.826-15.98,7.59c-3.44,0.43-6.987,0.107-10.484,0.057
		c-0.932-0.013-1.902-0.101-2.783-0.401c-2.723-0.913-5.399-1.961-8.109-2.909c-4.625-1.605-8.175-4.552-10.876-8.589
		c-3.017-4.514-3.98-9.246-2.059-14.521c1.283-3.532,2.173-7.202,3.272-10.81c0.919-3.01,1.601-6.141,2.909-8.977
		c1.153-2.521,1.377-5.042,1.074-7.622c-0.13-1.049-0.916-2.328-1.797-2.941c-2.619-1.766-5.613-1.32-8.532-0.802
		c-0.433,0.079-0.923,0.483-1.178,0.868c-1.567,2.334-3.866,3.207-6.532,3.44c-0.546,0.044-1.106,0.193-1.608,0.401
		c-4.653,1.937-9.464,3.567-13.889,5.923c-3.933,2.101-7.784,4.615-11.034,7.638c-5.651,5.256-10.052,11.637-13.988,18.277
		c-1.687,2.849-2.915,5.967-4.637,8.788c-0.982,1.599-2.322,3.209-3.901,4.151c-2.012,1.182-4.422,1.687-6.672,2.464
		c-2.236,0.781-4.505,1.472-6.713,2.312c-3.036,1.159-6.024,2.42-9.022,3.658c-1.902,0.768-3.851,1.45-5.661,2.395
		c-3.724,1.955-7.376,4.056-11.056,6.081c-4.593,2.54-8.437,5.938-11.577,10.114c-1.084,1.444-2.06,3.061-2.663,4.76
		c-1.049,2.947-1.715,6.03-2.672,9.022c-0.193,0.6-1.03,1.431-1.513,1.396c-0.657-0.05-1.463-0.717-1.82-1.346
		c-0.313-0.534-0.259-1.431-0.076-2.085c0.834-2.915,1.599-5.869,2.717-8.683c2.022-5.079,5.582-9.195,9.868-12.348
		c4.523-3.317,9.622-5.869,14.515-8.668c1.617-0.925,3.38-1.633,5.095-2.385c2.884-1.251,5.768-2.492,8.693-3.667
		c2.464-0.986,4.972-1.854,7.455-2.789c2.53-0.954,4.997-2.123,7.59-2.846c1.772-0.493,2.906-1.38,3.756-2.944
		c1.668-3.061,3.402-6.097,5.152-9.12c4.407-7.572,9.679-14.486,16.199-20.371c2.328-2.098,5.022-3.794,7.537-5.686
		c0.565-0.427,1.084-0.923,1.624-1.387c-0.098-0.148-0.196-0.303-0.294-0.455c-0.581,0.212-1.178,0.395-1.753,0.632
		c-0.765,0.313-1.504,0.692-2.278,0.989c-4.186,1.586-8.371,3.162-12.559,4.738c-1.649,0.619-3.377,1.087-4.941,1.863
		c-2.571,1.289-5.13,2.635-7.521,4.211c-7.366,4.858-14.869,9.527-21.903,14.831c-8.794,6.615-16.53,14.442-23.697,22.823
		c-5.673,6.64-10.734,13.729-14.676,21.54c-1.677,3.323-3.374,6.693-2.992,10.737c0.325,3.402,1.959,5.582,5.092,6.981
		c4.296,1.905,8.93,2.265,13.4,3.118c5.086,0.963,10.374,1.033,15.387,2.552c2.29,0.688,4.748,1.44,6.621,2.849
		c5.664,4.236,8.696,10.07,9.091,17.184c0.079,1.438-0.196,2.881-0.174,4.322c0.044,4.182-1.251,8.014-3.345,11.504
		c-1.501,2.492-3.392,4.82-5.446,6.886c-1.532,1.535-3.459,2.969-5.471,3.642c-3.927,1.317-8.02,2.464-12.133,0.414
		c-0.294-0.139-0.648-0.218-0.973-0.218c-2.808-0.054-5.039-1.677-7.338-2.906c-6.346-3.412-12.506-7.145-18.877-10.497
		c-1.665-0.869-3.826-0.992-5.768-1.068c-1.668-0.063-3.13,1.668-3.295,3.434c1.428,0.13,3.023,0.218,2.865,2.293
		c-0.054,0.698-0.31,1.387-0.496,2.079c-0.445,1.649-1.039,3.269-1.324,4.947c-0.979,5.796-0.847,11.608,0.082,17.399
		c0.183,1.147,0.174,2.363,0.563,3.43c0.96,2.71,2.075,5.354,3.152,8.02c1.886,4.605,4.574,8.779,7.783,12.522
		c4.426,5.158,8.772,10.481,14.569,14.272c2.603,1.696,3.089,4.091,3.011,7.051c-0.243,9.347-2.06,18.628-0.951,28.009
		c0.645,5.471,0.366,10.971,2.158,16.397c1.823,5.531,4.672,10.017,9.278,13.353c2.17,1.579,4.738,2.584,7.038,3.983
		c0.651,0.392,0.998,1.279,1.478,1.939c-0.682,0.455-1.396,1.317-2.04,1.276c-1.377-0.11-2.742-0.632-4.081-1.077
		c-0.84-0.287-1.62-0.761-2.423-1.147c-0.104,0.155-0.205,0.303-0.316,0.465c0.382,0.42,0.685,0.951,1.14,1.238
		c1.118,0.717,2.394,1.191,3.437,1.987c3.743,2.874,8.267,0.707,10.481-2.053c1.817-2.256,3.115-4.963,4.445-7.568
		c1.759-3.469,3.244-7.063,5-10.519c1.693-3.361,3.456-6.693,5.398-9.912c2.249-3.709,5.297-6.776,9.666-7.616
		c5.904-1.159,11.738-0.278,17.086,2.511c2.922,1.523,5.762,3.377,8.251,5.544c5.591,4.855,10.715,10.039,12.105,17.911
		c0.91,5.14-0.341,9.394-3.636,13.21c-4.603,5.332-10.329,9.366-15.706,13.833c-2.233,1.854-4.239,4.043-6.119,6.273
		c-1.434,1.696-1.106,2.638,0.619,3.98c0.594,0.452,1.099,1.083,1.535,1.709c4.562,6.596,10.844,10.607,18.792,11.113
		c7.49,0.484,15.011,0.698,22.447-1.459c6.495-1.886,13.037-3.497,18.947-6.927c2.729-1.589,5.68-2.887,8.147-4.808
		c2.755-2.148,5.424-1.788,8.08-0.496c4.125,2.006,8.014,4.514,12.162,6.46c5.307,2.499,10.731,4.789,16.691,5.288
		c0.717,0.06,1.459,0.142,2.132,0.382c3.093,1.093,6.185,0.926,9.341,0.243c2.543-0.553,5.256-0.546,7.67-1.415
		c4.479-1.595,8.88-3.453,13.131-5.566C365.447,469.596,368.432,466.835,367.983,461.926z M337.15,401.176
		c-5.929,4.012-12.206,7.411-19.635,7.967c-2.518,0.186-4.991,0.995-7.502,1.453c-0.863,0.148-1.753,0.148-2.635,0.139
		c-1.927-0.022-2.669,0.727-2.496,2.616c0.041,0.442,0.139,0.881,0.227,1.311c0.585,2.966,0.417,2.966-2.085,4.634
		c-1.163,0.777-1.946,2.205-2.716,3.446c-0.661,1.077-1.159,2.189-2.669,2.113c-1.472-0.06-1.921-1.137-2.562-2.249
		c-0.629-1.099-1.573-2.129-2.609-2.856c-1.437-1.004-2.116-2.053-1.845-3.882c0.483-3.342-1.286-5.098-4.599-4.672
		c-2.306,0.3-4.605,1.115-6.886,1.03c-4.922-0.174-9.776-1.023-14.451-2.682c-2.199-0.78-4.473-1.403-6.52-2.473
		c-4.208-2.205-8.428-4.454-12.392-7.07c-9.714-6.397-17.282-15.017-24.27-24.184c-1.541-2.025-3.026-4.097-4.429-6.22
		c-0.436-0.654-0.569-1.532-0.746-2.334c-0.281-1.264-1.033-1.652-2.205-1.264c-0.575,0.196-1.115,0.49-1.671,0.752
		c-2.085,0.967-3.971,0.894-5.926-0.55c-0.951-0.698-2.334-0.945-3.563-1.102c-3.064-0.398-4.104-2.518-2.18-4.963
		c1.02-1.289,1.788-2.552,2.16-4.201c0.171-0.774,1.216-1.494,2.025-1.936c1.163-0.635,2.505-0.923,3.702-1.494
		c1.627-0.783,1.996-1.93,1.257-3.57c-0.967-2.176-2.044-4.312-2.922-6.523c-0.467-1.165-0.692-2.448-0.878-3.693
		c-0.976-6.757-0.515-13.51,0.013-20.267c0.404-5.142,1.911-10.001,3.516-14.837c1.023-3.083,1.959-6.248,3.39-9.151
		c2.003-4.069,4.365-7.96,6.678-11.861c1.415-2.385,2.906-4.741,4.571-6.949c1.797-2.379,3.807-4.606,5.812-6.823
		c0.531-0.581,1.355-0.935,2.075-1.333c1.548-0.866,1.81-2.047,0.628-3.383c-0.587-0.651-1.254-1.263-1.936-1.816
		c-1.118-0.923-1.371-2.034-0.682-3.26c1.086-1.949,1.244-3.794,0.038-5.809c-0.347-0.581-0.174-1.86,0.268-2.41
		c0.449-0.55,1.554-0.884,2.319-0.802c2.448,0.275,4.893,0.72,7.303,1.26c0.742,0.161,1.437,0.746,2.025,1.289
		c0.638,0.6,1.055,1.434,1.68,2.053c1.617,1.602,2.587,1.298,4.328-0.151c3.216-2.679,6.264-5.626,10.244-7.278
		c5.174-2.148,10.478-3.797,16.003-4.78c5.446-0.963,10.851-2.107,16.312-2.969c3.854-0.613,7.742-0.449,11.568,0.521
		c1.185,0.294,2.407,0.398,3.592,0.689c1.981,0.474,3.939,1.02,5.913,1.541c0.426,0.114,0.837,0.3,1.276,0.376
		c5.73,1.033,10.961,3.415,16.078,6.059c0.657,0.347,1.194,0.973,1.68,1.557c1.062,1.292,1.908,1.396,2.957,0.117
		c0.73-0.897,1.295-1.933,1.902-2.922c0.787-1.261,1.832-1.703,3.349-1.699c1.203,0.006,2.464-0.461,3.595-0.964
		c1.244-0.553,2.549-1.835,3.775-0.761c0.894,0.783,1.102,2.331,1.617,3.532c-0.259,0.107-0.524,0.215-0.79,0.312
		c0.461,1.264,1.043,2.492,1.327,3.791c0.218,1.001,0.272,2.145,0.019,3.121c-0.224,0.872-0.884,1.668-1.503,2.372
		c-1.128,1.292-0.749,2.195,0.442,3.19c2.549,2.132,5.067,4.312,7.505,6.573c7.098,6.573,13.037,14.089,17.481,22.684
		c1.662,3.222,2.884,6.678,4.176,10.08c0.945,2.467,1.674,5.016,2.499,7.528c1.744,5.326,1.721,10.797,1.425,16.306
		c-0.145,2.596-0.013,5.225-0.095,7.821c-0.069,2.527-0.448,4.985-2.015,7.098c-0.723,0.976-0.471,1.873,0.528,2.366
		c0.97,0.471,2.063,0.771,3.137,0.97c1.548,0.268,2.366,1.08,2.9,2.578c0.445,1.248,1.355,2.319,2.101,3.453
		c0.417,0.635,1.074,1.163,1.365,1.841c0.727,1.722,0.028,3.064-1.81,3.272c-1.75,0.196-3.152,0.815-4.394,2.066
		c-1.15,1.169-2.619,1.339-4.179,0.856c-1.109-0.341-2.227-0.717-3.364-0.916c-1.403-0.259-2.218,0.351-2.306,1.861
		c-0.243,4.305-1.883,8.112-3.917,11.868c-4.028,7.439-9.818,13.352-15.668,19.294C348.023,392.795,342.836,397.328,337.15,401.176z
		"/>
	<path fill-rule="evenodd" clip-rule="evenodd" d="M226.205,450.668c1.276-2.631,2.16-5.455,3.235-8.172
		c0.768-1.942,1.804-3.547,4.204-3.731c0.54-0.038,1.333-0.584,1.494-1.071c0.847-2.549,1.652-5.143,2.224-7.771
		c0.354-1.652,0.78-2.941,2.682-3.298c1.352-0.246,1.677-1.267,1.077-2.413c-1.68-3.209-3.68-6.198-6.482-8.554
		c-1.147-0.954-2.426-1.08-3.693-0.231c-4.277,2.884-7.91,6.166-7.727,11.95c0.032,1.099-0.098,2.227-0.325,3.304
		c-0.452,2.104-0.581,4.464-1.639,6.217c-2.47,4.103-6.071,7.205-10.497,9.113c-4.334,1.879-7.556,4.473-8.102,9.587
		c-0.237,2.24-0.774,4.593-1.819,6.548c-1.033,1.914-2.758,3.535-4.416,5.032c-0.992,0.884-2.3,0.082-2.221-1.286
		c0.044-0.704,0.382-1.554,0.891-2.031c1.996-1.911,2.774-4.28,3.295-6.908c0.505-2.533,1.295-5.038,2.255-7.43
		c1.371-3.421,4.413-5.24,7.647-6.409c2.54-0.91,4.634-2.366,6.63-4.015c2.72-2.252,4.359-5.067,4.145-8.813
		c-0.104-1.81-0.013-3.699,0.382-5.461c0.575-2.572,1.112-5.247,3.168-7.193c1.523-1.431,3.124-2.808,4.656-4.245
		c0.752-0.707,1.614-1.649,0.367-2.464c-2.221-1.459-4.565-2.783-7.376-2.758c-1.744-0.01-2.483,0.723-2.233,2.239
		c0.426,2.622-0.171,3.488-2.505,4.703c-3.13,1.643-6.16,3.484-9.208,5.279c-1.036,0.6-1.289,1.324-0.521,2.454
		c1.143,1.665,0.572,3.459-1.339,4.169c-3.608,1.339-6.65,3.652-9.306,6.242c-2.799,2.714-4.994,6.046-7.417,9.148
		c-1.137,1.463-1.014,1.971,0.524,3.112c0.626,0.464,1.267,0.903,1.921,1.323c1.387,0.891,1.968,2.202,1.529,3.728
		c-0.667,2.319-1.415,4.627-2.42,6.82c-0.641,1.425-1.744,2.66-2.726,3.923c-0.704,0.903-0.73,1.488,0.133,2.401
		c0.562,0.609,0.938,1.804,0.777,2.6c-0.591,2.928-1.488,5.799-2.161,8.709c-0.158,0.682-0.133,1.649,0.256,2.145
		c0.288,0.37,1.428,0.465,1.943,0.196c2.934-1.529,5.841-3.118,8.655-4.849c1.023-0.629,1.841-1.014,2.846-0.224
		c1.301,1.011,2.195,0.531,3.035-0.663c1.959-2.786,4.233-5.259,7.129-7.132c2.016-1.298,3.071-1.308,4.912,0.268
		c0.332,0.287,0.667,0.581,1.02,0.85c0.711,0.53,1.099,0.278,1.564-0.445c1.898-2.966,3.892-5.875,5.844-8.807
		C223.767,454.471,225.223,452.68,226.205,450.668z"/>
	<path fill-rule="evenodd" clip-rule="evenodd" d="M276.829,195.118c0.212,0.859,0.117,2.271-0.43,2.755
		c-2.3,2.037-1.51,4.167-0.556,6.365c0.685,1.573,1.44,3.115,2.189,4.666c0.635,1.311,0.584,2.499-0.262,3.753
		c-0.989,1.462-0.72,2.496,0.752,3.31c2.236,1.229,4.479,2.338,7.158,2.423c2.581,0.092,2.995-0.259,3.058-2.786
		c0.111-3.901-0.306-7.894,1.769-11.523c0.36-0.635,0.316-1.507,0.464-2.265c0.85-4.422-1.323-8.118-2.991-11.871
		c-1.813-4.106-1.743-8.147-0.436-12.297c0.477-1.523,0.938-3.061,1.409-4.59c0.354-1.163,0.736-2.322,1.055-3.491
		c0.262-0.957,0.635-1.927,0.651-2.893c0.051-3.415,0.395-6.848-1.286-10.108c-0.875-1.693-0.335-3.567,0.761-3.822
		c1.861-0.433,2.489,1.15,2.906,2.354c0.569,1.645,0.837,3.443,0.967,5.196c0.36,4.811,0.581,9.587-1.617,14.186
		c-1.03,2.167-1.406,4.644-2,6.994c-0.174,0.682-0.24,1.491-0.069,2.148c0.651,2.404,1.346,4.792,2.151,7.149
		c0.859,2.502,1.949,4.937,2.78,7.445c0.3,0.907,0.395,2.028,0.161,2.944c-0.663,2.619-1.311,5.285-2.398,7.745
		c-1.472,3.301-1.27,6.296,0.477,9.363c0.752,1.317,1.769,1.835,3.168,1.513c2.322-0.521,4.672-1.011,6.921-1.778
		c2.344-0.799,2.903-4.027,1.128-5.648c-1.516-1.374-1.624-2.811-0.704-4.786c1.542-3.323,2.941-6.7,4.381-10.061
		c0.581-1.355,0.306-2.297-1.21-2.868c-1.643-0.619-2.079-1.595-1.586-3.298c0.24-0.847,0.632-1.658,1.023-2.448
		c1.513-3.048,2.9-6.119,2.856-9.631c-0.025-1.662-0.003-3.32-0.003-4.982h-0.009c0-1.728-0.041-3.44,0.009-5.158
		c0.063-2.483-0.663-3.14-3.064-2.663c-2.319,0.464-4.245-0.692-5.19-2.843c-1.443-3.279-2.52-6.611-2.262-10.269
		c0.089-1.14-0.455-1.914-1.699-2.031c-1.393-0.129-1.87-1.065-2.293-2.268c-0.973-2.751-2.019-5.5-3.229-8.153
		c-0.948-2.097-1.971-2.145-3.032-0.117c-1.207,2.293-2.211,4.719-3.13,7.142c-0.663,1.737-1.403,3.206-3.31,3.885
		c-0.506,0.183-0.992,1.008-1.099,1.608c-0.588,3.374-0.935,6.792-1.646,10.134c-0.237,1.147-1.099,2.347-2.025,3.108
		c-1.302,1.052-1.785,2.167-1.826,3.816c-0.085,3.364-0.117,6.731-1.687,9.922c-0.543,1.09-0.341,2.745-0.038,4.037
		C274.795,188.021,275.954,191.527,276.829,195.118z"/>
	<path fill-rule="evenodd" clip-rule="evenodd" d="M406.019,460.356c1.491-1.027,1.008-1.889,0.089-2.972
		c-1.058-1.273-2.218-2.552-2.903-4.025c-1.279-2.748-2.571-5.563-1.267-8.772c0.234-0.581-0.066-1.535-0.398-2.18
		c-1.431-2.739-3.023-5.358-3.882-8.412c-0.502-1.782-1.699-3.547-3.032-4.865c-2.799-2.77-5.948-5.162-8.823-7.85
		c-0.648-0.603-1.185-1.879-1.017-2.697c0.366-1.81-0.294-2.884-1.693-3.759c-1.69-1.062-3.336-2.208-5.098-3.13
		c-1.807-0.951-2.805-2.17-2.751-4.312c0.041-1.753-0.739-2.347-2.622-2.366c-0.152,0.01-0.452-0.035-0.704,0.06
		c-3.629,1.339-7.297,2.593-10.853,4.116c-1.438,0.613-1.962,2.161-1.463,3.702c0.316,0.973,0.913,1.883,1.526,2.726
		c2.9,3.949,7.284,6.075,11.103,8.886c4.874,3.604,8.355,8.181,10.399,13.89c1.02,2.859,2.113,5.698,3.237,8.51
		c0.455,1.131,0.856,2.404,1.665,3.235c2.42,2.492,5.038,4.805,7.566,7.208c0.682,0.635,1.459,1.229,1.942,1.996
		c0.284,0.458,0.322,1.406,0.028,1.807c-0.31,0.408-1.251,0.724-1.728,0.559c-0.957-0.348-1.829-0.979-2.65-1.605
		c-0.704-0.531-1.207-1.352-1.949-1.804c-3.349-2.022-5.698-5.08-7.49-8.327c-2.183-3.942-3.838-8.229-5.269-12.512
		c-1.541-4.603-4.621-7.752-8.368-10.443c-2.202-1.592-4.675-2.827-6.722-4.574c-2.123-1.816-3.923-4.018-5.771-6.131
		c-0.79-0.913-1.665-1.703-2.6-0.689c-1.519,1.649-3.045,3.424-3.228,5.85c-0.123,1.649,0.448,2.299,2.066,2.205
		c1.441-0.092,2.202,0.531,2.483,1.873c0.711,3.352,1.447,6.703,2.12,10.055c0.471,2.357,1.374,3.238,3.768,3.314
		c1.45,0.048,2.271,0.746,2.556,2.116c0.139,0.648,0.167,1.327,0.316,1.978c0.761,3.257,1.722,6.264,4.473,8.658
		c2.843,2.477,5.888,4.956,7.306,8.718c0.398,1.058,1.314,0.796,2.252,0.771c1.671-0.047,3.592-0.268,4.972,0.43
		c2.947,1.491,5.775,3.371,7.297,6.549c0.689,1.428,1.684,2.034,3.222,1.38c1.406-0.581,2.502-0.164,3.664,0.746
		c2.003,1.564,4.072,3.07,6.242,4.4c1.832,1.115,3.02,0.408,2.802-1.699c-0.325-3.067-0.907-6.122-1.519-9.151
		C405.036,462.495,404.749,461.231,406.019,460.356z"/>
	<path fill-rule="evenodd" clip-rule="evenodd" d="M464.963,260.579c-2.938-0.145-5.891-0.041-8.823-0.243
		c-1.074-0.072-2.473-0.426-3.083-1.175c-1.087-1.342-2.088-1.298-3.471-0.786c-1.917,0.698-3.838,1.45-5.825,1.854
		c-4.713,0.967-9.461,1.753-14.199,2.606c-0.161,0.028-0.316,0.088-0.48,0.107c-2.619,0.382-5.225,0.906-7.856,1.087
		c-2.322,0.161-4.306,0.805-6.071,2.325c-1.548,1.339-3.178,2.628-4.922,3.677c-0.799,0.486-2.135,0.774-2.934,0.439
		c-1.826-0.761-3.133-0.215-4.365,0.986c-1.623,1.586-3.111,3.323-4.827,4.82c-0.802,0.698-2.003,1.4-2.985,1.346
		c-2.395-0.148-3.664,0.508-3.835,2.928c-0.161,2.278-0.199,4.571,0.022,6.83c0.29,2.903,2.707,4.384,5.522,3.708
		c1.721-0.414,3.478-0.663,5.187-1.083c0.907-0.224,1.895-0.477,2.596-1.033c3.153-2.518,6.179-5.196,9.335-7.711
		c2.205-1.753,4.324-4.009,6.87-4.821c3.187-1.011,6.766-0.755,10.184-1.068c2.572-0.243,5.149-0.486,7.711-0.777
		c3.13-0.351,5.348-2.584,7.998-3.929c2.543-1.289,4.969-3.127,8.033-2.77c0.764,0.092,2,0.926,2.012,1.44
		c0.022,0.783-0.755,1.655-1.352,2.36c-0.265,0.307-0.916,0.307-1.409,0.395c-2.991,0.546-5.645,1.693-8.118,3.585
		c-2.158,1.668-4.653,3.07-7.559,3.146c-3.936,0.117-7.872,0.249-11.808,0.205c-3.191-0.038-5.879,1.153-8.204,3.118
		c-2.454,2.082-4.634,4.482-7.091,6.536c-1.971,1.662-4.025,3.421-6.352,4.407c-2.546,1.077-5.443,1.333-8.188,1.933
		c-1.996,0.452-2.565,1.5-1.428,3.2c1.134,1.693,2.508,3.228,3.829,4.792c1.058,1.254,2.499,1.526,4.075,1.434
		c1.185-0.07,1.895-0.423,1.725-1.816c-0.186-1.551,0.755-2.214,2.164-2.356c0.493-0.054,0.995,0.016,1.494,0.025
		c3.768,0.048,7.546,0.107,11.321,0.142c1.143,0.01,2.047-0.297,2.239-1.693c0.36-2.568,0.812-2.912,3.421-2.947
		c0.723-0.01,1.443,0,2.164,0c0.006,0.041,0.009,0.085,0.016,0.126c1.712-0.142,3.424-0.262,5.133-0.43
		c1.87-0.186,3.257-1.203,4.549-2.511c2.331-2.366,4.785-4.606,7.161-6.934c0.986-0.967,2.003-1.936,2.814-3.048
		c2.436-3.31,5.149-6.232,9.284-7.445c1.443-0.42,2.265-1.406,1.977-3.001c-0.268-1.478,0.449-2.312,1.541-3.2
		c2.148-1.737,4.198-3.611,6.166-5.547c0.553-0.556,0.676-1.557,0.992-2.35C466.529,261.151,465.756,260.623,464.963,260.579z"/>
	<path fill-rule="evenodd" clip-rule="evenodd" d="M134.555,293.283c-1.03,2.205-0.768,2.83,1.725,2.878
		c3.516,0.076,6.39,1.595,9.278,3.292c0.935,0.553,1.999,1.134,3.045,1.197c4.264,0.275,8.475,0.742,12.648,1.763
		c1.418,0.354,2.521,0.799,2.938,2.293c0.351,1.273,1.232,1.772,2.483,1.741c2.331-0.06,4.662-0.085,6.984-0.199
		c1.497-0.07,2.865,0.066,3.986,1.219c1.589,1.643,2.028,1.643,3.705,0.196c0.42-0.363,0.85-0.714,1.257-1.09
		c2.748-2.59,4.473-5.737,4.997-9.489c0.177-1.191-0.006-2.41-1.241-2.796c-3.579-1.087-6.946-3.083-10.885-2.653
		c-2.48,0.256-4.95,0.638-7.439,0.78c-2.635,0.148-5.364,0.521-7.904,0.025c-5.275-1.014-9.385-4.337-13.34-7.783
		c-2.849-2.48-6.046-4.078-9.928-3.936c-1.719,0.066-3.44,0.262-5.152,0.205c-1.813-0.06-3.655-0.186-5.408-0.606
		c-1.181-0.297-2.3-1.238-1.905-2.697c0.373-1.406,1.706-1.159,2.808-1.068c0.49,0.038,0.979,0.234,1.472,0.256
		c1.595,0.047,3.228,0.275,4.779,0.019c4.767-0.783,8.993,0.581,12.945,3.004c1.788,1.093,3.434,2.448,5.016,3.838
		c3.841,3.364,8.134,5.234,13.365,4.782c3.484-0.294,6.984-0.338,10.481-0.398c3.326-0.06,6.656-0.06,9.71,1.703
		c0.768,0.442,1.838,0.619,2.723,0.524c0.553-0.057,1.51-0.945,1.444-1.327c-0.291-1.782-0.796-3.547-1.409-5.26
		c-0.145-0.392-0.992-0.771-1.507-0.758c-1.497,0.032-2.442-0.739-3.418-1.734c-2.48-2.537-5.045-4.994-7.603-7.455
		c-0.809-0.764-1.674-1.238-2.777-0.294c-2.088,1.782-3.598,1.582-5.285-0.648c-2.06-2.704-4.675-4.078-8.144-4.508
		c-3.762-0.464-7.474-1.529-11.119-2.631c-1.355-0.414-2.236-0.537-3.257,0.477c-1.911,1.914-4.277,2.594-6.889,2.003
		c-2.372-0.537-4.704-1.264-7.022-1.987c-0.992-0.316-1.867-0.543-2.432,0.569c-0.906,1.788-2.451,2.066-4.226,1.914
		c-1.488-0.136-2.985-0.227-4.1-0.3c-1.551,0.073-2.72,0.066-3.879,0.199c-2.034,0.231-2.476,1.21-1.099,2.72
		c1.892,2.088,3.869,4.119,5.989,5.983c1.175,1.036,1.905,2.006,1.772,3.655c-0.164,2.019,0.426,2.66,2.423,3.099
		c3.418,0.758,6.153,2.723,8.661,5.023C135.092,290.19,135.313,291.659,134.555,293.283z"/>
	<path fill-rule="evenodd" clip-rule="evenodd" d="M458.01,316.38c-0.231,0-0.465,0-0.689,0c-0.158,1.124-0.227,2.271-0.477,3.367
		c-0.919,3.911-1.557,7.945-2.938,11.697c-1.381,3.753-3.405,7.31-5.373,10.825c-3.184,5.702-7.253,10.753-12.023,15.222
		c-2.148,2.006-4.41,3.892-6.602,5.853c-0.976,0.878-1.447,1.832-0.926,3.244c0.54,1.485,0.777,3.08,1.15,4.631
		c0.332,1.333,0.648,2.672,0.986,4.005c0.281,1.128,0.843,2.255,0.821,3.377c-0.12,6.495,2.622,12.913,0.622,19.471
		c-0.152,0.518-0.095,1.112-0.057,1.658c0.341,4.991-2.091,9.455-2.723,14.256c-0.016,0.161-0.133,0.3-0.202,0.455
		c-1.118,2.511-2.442,4.959-3.31,7.553c-1.441,4.286-3.626,8.105-6.754,11.331c-3.488,3.591-6.984,7.303-12.768,6.517
		c-0.389-0.054-1.254,0.578-1.219,0.755c0.133,0.638,0.395,1.497,0.894,1.775c1.699,0.97,3.573,0.888,5.272,0.009
		c1.567-0.812,3.168-1.703,4.457-2.875c7.231-6.611,13.735-13.889,19.25-21.998c2.736-4.021,5.389-8.134,7.745-12.392
		c2.338-4.198,4.283-8.614,6.315-12.974c0.884-1.902,1.665-3.863,2.296-5.863c0.929-2.893,1.697-5.85,2.492-8.785
		c1.09-4.056,2.369-8.077,3.143-12.193c0.844-4.47,1.365-8.993,1.756-13.529c0.916-10.63,1.26-21.275-0.408-31.882
		C458.56,318.711,458.257,317.549,458.01,316.38z"/>
	<path fill-rule="evenodd" clip-rule="evenodd" d="M156.657,414.866c-0.019-0.6-0.256-1.191-0.338-1.794
		c-0.43-3.118-1.143-6.236-1.204-9.366c-0.183-9.252-0.543-18.527,1.425-27.665c0.553-2.546-0.36-4.293-2.385-5.875
		c-5.926-4.637-11.16-10.004-15.712-15.98c-3.674-4.821-6.678-10.051-8.788-15.766c-0.67-1.807-1.462-3.56-2.202-5.345
		c-0.18-0.003-0.366-0.009-0.543-0.016c0,0.78-0.06,1.567,0.006,2.344c0.439,5.361,1.115,10.712,1.32,16.078
		c0.256,6.833,2.132,13.349,3.525,19.945c1.238,5.869,3.418,11.539,5.158,17.301c1.914,6.353,4.893,12.225,7.995,18.05
		c4.198,7.884,9.47,14.998,15.169,21.818c0.316,0.382,0.768,0.654,1.147,0.976c0.136-0.101,0.265-0.192,0.392-0.287
		c-0.411-0.998-0.768-2.022-1.251-2.991C158.584,422.668,156.774,419.051,156.657,414.866z"/>
	<path fill-rule="evenodd" clip-rule="evenodd" d="M356.962,179.173c3.421,3.307,7.126,6.368,9.461,10.655
		c1.453,2.669,3.137,5.231,4.387,7.982c1.409,3.108,2.594,6.337,3.595,9.587c0.474,1.532,1.147,2.334,2.698,2.385
		c1.162,0.028,2.341,0.126,3.493,0.044c6.451-0.483,12.585,1.462,18.681,2.893c7.382,1.737,14.307,4.991,20.542,9.489
		c1.744,1.254,3.547,2.439,5.319,3.655c0.104-0.07,0.209-0.148,0.316-0.215c-0.281-0.445-0.546-0.913-0.847-1.343
		c-2.041-2.833-3.939-5.79-6.169-8.469c-3.547-4.255-7.003-8.684-11.078-12.398c-5.964-5.443-12.297-10.522-19.389-14.527
		c-4.103-2.328-8.014-4.991-12.212-7.111c-6.564-3.314-13.292-6.311-19.97-9.41c-1.652-0.777-3.349-1.472-5.054-2.107
		c-3.879-1.434-7.78-2.805-11.675-4.211c-1.153-0.414-2.315-0.866-3.819,0.221c2.549,1.077,4.855,1.889,7.003,2.988
		C347.536,171.999,352.654,175.012,356.962,179.173z"/>
	<path fill-rule="evenodd" clip-rule="evenodd" d="M346.048,481.397c-5.446,1.819-10.974,1.567-16.461,0.708
		c-6.523-1.023-12.711-3.383-18.726-6.011c-4.299-1.876-8.323-4.391-12.442-6.691c-1.646-0.913-2.682-0.818-4.28,0.262
		c-2.606,1.769-5.218,3.595-8.017,5.007c-3.541,1.782-7.256,3.219-10.93,4.691c-4.593,1.845-9.296,3.241-14.278,3.56
		c-1.538,0.085-3.061,0.49-4.596,0.733c-4.498,0.717-8.999,1.374-13.485-0.161c-0.619-0.218-1.342-0.114-2.016-0.151
		c-0.047,0.151-0.098,0.294-0.142,0.442c0.919,0.569,1.772,1.311,2.764,1.668c5.43,1.902,10.854,3.885,16.656,4.372
		c1.772,0.152,3.544,0.275,5.313,0.373c6.646,0.366,13.295,1.074,19.932,0.992c7.926-0.089,15.845-0.853,23.761-1.333
		c1.993-0.126,4.084,0.044,5.951-0.512c6.154-1.819,12.686-1.004,18.83-3.137c4.505-1.557,9.458-1.718,13.788-4.024
		c0.563-0.294,1.308-0.205,1.94-0.392c0.799-0.224,1.567-0.559,2.354-0.85c-0.073-0.164-0.145-0.335-0.212-0.496
		C349.845,480.747,347.855,480.794,346.048,481.397z"/>
	<path fill-rule="evenodd" clip-rule="evenodd" d="M325.525,164.124c-2.372-1.352-7.502-0.727-9.448,0.891
		c-2.091,1.734-3.696,6.485-2.739,9.167C315.853,168.708,319.552,165.157,325.525,164.124z"/>
	<path fill-rule="evenodd" clip-rule="evenodd" d="M364.992,474.577c7.859-2.47,10.251-8.699,7.679-12.591
		C371.518,467.16,369.038,471.352,364.992,474.577z"/>
	<path fill-rule="evenodd" clip-rule="evenodd" d="M337.857,378.754c2.868-0.404,5.576-1.065,8.317-2.041
		c3.408-1.203,6.747-2.258,9.856-4.346c2.562-1.719,4.34-3.898,5.986-6.289c2.96-4.312,2.931-5.316,0.698-8.576
		c-0.707-1.03-1.567-1.497-2.78-1.469c-1.5,0.028-3.001,0-4.501,0c0-0.016,0-0.048,0-0.073c-1.661,0-3.351,0.186-4.985-0.054
		c-1.488-0.215-3.171-0.559-4.318-1.431c-2.919-2.214-4.593-5.206-4.192-9.078c0.129-1.21,0.101-2.445,0.009-3.658
		c-0.256-3.26,0.701-6.22,2.496-8.807c1.554-2.246,3.892-3.415,6.526-4.473c4.018-1.614,7.423-0.095,10.866,1.077
		c2.297,0.78,4.293,2.457,6.384,3.79c2.36,1.513,4.369,0.85,4.596-1.946c0.202-2.426-0.288-4.925-0.632-7.363
		c-0.171-1.185-0.563-2.398-1.096-3.478c-1.567-3.143-2.802-6.621-5.022-9.249c-2.464-2.903-5.794-5.114-8.895-7.436
		c-2.432-1.81-2.938-3.566-1.772-6.434c1.835-4.517,1.276-9.262,0.888-13.959c-0.016-0.208-0.164-0.414-0.253-0.603
		c-1.077-2.461-2.439-4.823-3.156-7.382c-1.102-3.905-3.901-6.024-7.158-7.837c-0.973-0.537-1.816-0.243-1.75,0.844
		c0.164,2.669-0.148,5.158-1.677,7.417c-0.054,0.089-0.047,0.215-0.063,0.322c-0.524,3.352-1.576,6.255-4.321,8.681
		c-2.009,1.775-3.936,2.976-6.558,3.048c-1.655,0.044-3.351,0.234-4.981,0c-1.371-0.205-2.849-0.663-3.955-1.469
		c-2.23-1.614-4.287-3.478-6.321-5.335c-1.987-1.81-2.789-4.119-2.878-6.842c-0.095-2.814,0.67-5.196,2.356-7.395
		c1.845-2.391,3.392-5.032,5.989-6.776c2.372-1.595,2.723-3.045,0.932-5.228c-0.951-1.172-2.729-1.703-3.629-2.906
		c-1.305-1.737-2.761-1.962-4.656-1.576c-0.676,0.139-1.431-0.174-2.142-0.107c-3.124,0.278-6.488,0-9.303,1.112
		c-3.696,1.453-6.984,3.968-10.393,6.113c-1.627,1.03-3.275,1.497-5.003,0.534c-2.271-1.261-4.404-2.764-6.691-3.993
		c-1.333-0.707-2.84-1.409-4.296-1.469c-3.866-0.161-7.752,0-11.628,0.136c-0.777,0.025-1.557,0.474-2.3,0.799
		c-1.033,0.464-2.091,0.919-3.058,1.51c-0.733,0.452-1.712,0.995-1.949,1.702c-0.844,2.562-0.048,4.561,2.148,6.091
		c3.573,2.483,6.924,5.136,9.047,9.107c1.305,2.429,1.58,5.045,0.177,7.123c-3.333,4.953-6.068,10.886-13.412,11.088
		c-0.05,0.006-0.107,0.031-0.158,0.057c-3.923,1.819-7.625,1.842-11.239-0.929c-1.668-1.282-3.14-2.565-3.986-4.549
		c-0.916-2.154-0.818-4.729-2.66-6.517c-0.231-0.227-0.253-0.745-0.231-1.121c0.07-1.845-1.027-2.982-2.353-3.968
		c-1.09-0.818-1.87-0.528-2.502,0.714c-0.79,1.564-1.57,3.162-2.581,4.587c-3.25,4.545-4.896,9.65-5.301,15.143
		c-0.215,2.868-0.016,5.771,0.126,8.652c0.057,1.118,0.312,2.29,0.758,3.311c0.616,1.415,0.91,2.78,0.092,4.132
		c-2.094,3.449-4.268,6.845-6.359,10.304c-0.742,1.219-1.383,2.508-1.971,3.813c-1.033,2.28-2,4.602-2.973,6.902
		c-0.104,0.253-0.101,0.55-0.104,0.825c-0.006,2.116-0.316,4.287,0.085,6.318c0.344,1.75,1.403,3.415,2.378,4.985
		c0.231,0.366,1.542,0.474,2.079,0.196c2.202-1.163,4.505-2.284,6.4-3.86c4.356-3.639,9.034-2.332,13.75-1.371
		c0.253,0.038,0.493,0.259,0.689,0.455c2.966,3.01,5.541,6.327,7.578,10.045c0.243,0.458,0.319,1.084,0.281,1.608
		c-0.095,1.387-0.307,2.767-0.461,4.138c-0.474,4.277-7.227,10.705-12.658,9.865c-0.843-0.136-1.769,0.025-2.616,0.218
		c-1.987,0.464-3.936,1.061-5.913,1.532c-1.096,0.265-1.747,0.881-1.074,1.867c2.145,3.111,3.14,7.041,6.372,9.391
		c1.601,1.162,3.282,2.262,5.032,3.168c3.102,1.611,6.267,3.004,9.941,2.71c1.579-0.117,3.228,0.133,4.795,0.439
		c2.647,0.528,5.105,1.415,6.643,3.964c0.957,1.601,2.167,3.064,3.317,4.539c1.867,2.394,3.718,4.795,5.686,7.088
		c1.371,1.589,2.72,3.345,4.448,4.435c3.244,2.034,6.943,2.435,10.734,1.769c1.535-0.275,2.075-1.109,1.652-2.612
		c-0.24-0.85-0.512-1.693-0.711-2.556c-0.467-1.971-0.844-3.967-1.368-5.923c-0.673-2.527-1.702-5.032-0.581-7.641
		c1.829-4.23,4.732-7.212,9.357-8.614c5.512-1.662,10.715-1.996,15.81,1.222c2.274,1.44,4.685,3.02,5.057,5.654
		c0.587,4.173,1.014,8.484-1.027,12.544c-0.48,0.954-0.619,2.132-0.689,3.225c-0.161,2.366,0.477,3.01,2.808,3.07
		c1.055,0.031,2.113-0.038,3.162,0.022c1.857,0.098,3.465-0.395,4.972-1.523c2.957-2.224,5.945-4.274,8.216-7.376
		c2.596-3.541,5.253-6.908,6.188-11.353C334.711,381.193,335.665,379.054,337.857,378.754z M321.343,326.201
		c-0.038,0-0.073,0-0.114,0c0,0.891-0.072,1.782,0.013,2.663c0.436,4.277-1.368,7.796-3.838,11.015
		c-2.116,2.758-4.17,5.67-6.779,7.91c-4.208,3.614-9.022,6.274-14.907,5.996c-1.44-0.073-2.893-0.089-4.331,0.009
		c-4.315,0.253-7.872-1.627-11.577-3.538c-3.506-1.807-6.084-4.486-8.311-7.47c-3.396-4.549-6.286-9.413-5.85-15.497
		c0.129-1.873-0.161-3.791,0.079-5.648c0.221-1.709,0.805-3.402,1.381-5.032c0.862-2.454,1.845-4.839,3.639-6.829
		c5.06-5.635,10.743-10.364,18.511-11.476c6.618-0.96,13.094,0.107,18.637,3.907c3.532,2.417,7.23,4.934,9.179,9.139
		c1.103,2.372,2.543,4.609,3.74,6.953c0.341,0.663,0.477,1.488,0.499,2.24C321.388,322.42,321.343,324.312,321.343,326.201z"/>
	<path fill-rule="evenodd" clip-rule="evenodd" d="M362.057,300.683c2.145,1.469,4.312,2.91,6.387,4.483
		c0.714,0.534,1.276,1.342,1.747,2.123c1.387,2.293,2.679,4.653,4.047,6.968c0.168,0.284,0.524,0.461,0.844,0.714
		c2.022-5.954-8.036-30.255-13.823-33.973c0.237,1.178,0.55,2.211,0.629,3.254c0.136,1.936,0.3,3.885,0.151,5.815
		c-0.18,2.347-0.505,4.713-1.065,7C360.592,298.624,360.699,299.761,362.057,300.683z"/>
	<path fill-rule="evenodd" clip-rule="evenodd" d="M239.239,268.865c1.181,2.319,2.552,4.536,3.904,6.757
		c0.449,0.736,1.023,1.434,1.665,2.018c1.257,1.143,2.619,2.192,3.914,3.304c1.463,1.254,2.887,2.543,4.353,3.803
		c0.888,0.746,1.804,0.758,2.71-0.013c0.878-0.742,0.995-1.551,0.55-2.653c-1.38-3.449-3.993-5.632-7.186-7.256
		c-2.148-1.09-4.106-2.423-4.283-5.057c-0.177-2.777-1.317-4.729-3.866-5.894c-0.644-0.284-1.172-0.831-1.753-1.254
		c-2.498-1.826-2.524-2.973-0.152-5.054c0.158-0.133,0.246-0.351,0.48-0.676c-1.049-0.524-2.025-0.973-2.966-1.481
		c-1.485-0.805-2.038-0.521-2.05,1.147c-0.019,1.946,0.275,3.674,1.491,5.436C237.46,264.044,238.092,266.615,239.239,268.865z"/>
	<path fill-rule="evenodd" clip-rule="evenodd" d="M253.213,389.873c-0.341-0.508-0.998-0.954-1.583-1.08
		c-1.011-0.227-2.085-0.249-3.124-0.209c-2.818,0.098-5.68,0.578-8.124-1.425c-0.161-0.136-0.414-0.243-0.61-0.221
		c-0.518,0.016-1.043,0.117-1.557,0.19c0.17,0.48,0.212,1.099,0.537,1.431c0.821,0.815,1.763,1.513,2.669,2.243
		c3.092,2.48,6.153,4.997,9.315,7.398c1.298,0.995,2.783,1.772,4.239,2.527c2.271,1.172,4.375,2.874,7.711,2.498
		c-1.226-1.485-2.287-2.596-3.143-3.854C257.393,396.238,255.365,393.013,253.213,389.873z"/>
	<path fill-rule="evenodd" clip-rule="evenodd" d="M321.188,278.777c0.205,0.202,1.096,0.06,1.444-0.218
		c2.429-1.892,3.794-4.533,4.975-7.297c0.591-1.393,1.273-2.754,2.041-4.053c0.66-1.124,1.643-2.072,2.249-3.209
		c1.207-2.281,2.145-4.697,3.396-6.946c0.723-1.27,1.741-2.445,2.843-3.421c1.481-1.308,2.903-0.843,3.671,0.976
		c0.18,0.439,0.373,0.888,0.565,1.327c1.665-0.727,2.296-4.669,1.039-5.753c-0.161-0.136-0.414-0.297-0.587-0.271
		c-2.136,0.351-4.498,0.057-6.03,2.135c-0.913,1.238-1.731,2.603-2.83,3.664c-1.842,1.801-3.885,3.386-5.806,5.108
		c-1.535,1.381-2.404,3.099-2.773,5.165c-0.208,1.159-0.626,2.467-1.396,3.279c-2.123,2.221-2.123,5.297-3.459,7.815
		C320.332,277.447,320.784,278.35,321.188,278.777z"/>
	<path fill-rule="evenodd" clip-rule="evenodd" d="M231.85,358.658c0.392-0.385,1.121-0.584,1.687-0.591
		c2.328-0.01,4.087-1.238,5.888-2.454c1.513-1.033,1.794-2.505,1.44-4.11c-0.101-0.452-0.897-1.109-1.33-1.074
		c-2.884,0.227-5.578,1.042-8.134,2.54c-3.304,1.93-6.416,4.476-10.582,4.347c-2.897-0.092-5.187,1.146-7.18,3.124
		c-0.591,0.575-1.096,1.491-0.088,1.605c2.034,0.227,4.545,0.663,6.09-0.266c2.442-1.481,4.877-1.608,7.477-1.832
		C228.884,360.284,230.482,360.007,231.85,358.658z"/>
	<path fill-rule="evenodd" clip-rule="evenodd" d="M303.054,391.371c0.19-0.035,0.385-0.07,0.572-0.107
		c-0.43-2.426-0.733-4.89-1.368-7.259c-0.18-0.66-1.346-1.387-2.091-1.421c-0.518-0.028-1.57,1.049-1.579,1.639
		c-0.022,2.401-0.306,5.045,0.563,7.158c1.525,3.721,1.14,7.199,0.448,10.898c-0.483,2.578-0.714,5.25-0.689,7.866
		c0.019,2.23,0.806,4.498-2.154,5.537c-0.3,0.117-0.496,1.21-0.347,1.737c0.155,0.543,0.739,1.033,1.254,1.355
		c0.186,0.117,0.916-0.224,1.058-0.531c1.131-2.353,2.815-4.489,2.694-7.363c-0.038-0.925,0.471-2.085,1.109-2.773
		c0.862-0.925,1.131-1.772,0.957-2.979c-0.341-2.366-0.54-4.694,0.493-7.025c0.332-0.742,0.013-1.819-0.126-2.723
		C303.638,394.027,303.322,392.707,303.054,391.371z"/>
	<path fill-rule="evenodd" clip-rule="evenodd" d="M372.801,341.132c-2.59-1.346-5.196-2.653-7.815-3.942
		c-0.48-0.243-1.062-0.468-1.586-0.439c-2.158,0.139-4.16-0.486-5.774-1.753c-2.597-2.05-4.918-0.603-7.3,0.221
		c-0.404,0.139-0.6,0.903-0.894,1.377c0.496,0.092,1.052,0.36,1.481,0.224c1.342-0.395,2.151,0.054,2.956,1.15
		c1.194,1.639,2.856,3.38,4.858,2.998c2.814-0.534,5.405-0.382,8.071,0.395c0.408,0.117,0.888-0.022,1.324,0.035
		c0.487,0.072,1.023,0.126,1.431,0.369c2.069,1.235,4.138,2.486,6.153,3.813c1.712,1.125,1.766,2.069,0.559,3.718
		c-0.376,0.506-0.366,1.295-0.534,1.949c0.733-0.111,1.52-0.107,2.205-0.366c1.036-0.385,2.006-0.954,3.004-1.447
		c0.066,0.13,0.133,0.253,0.196,0.37c0.673-0.278,2.552,0.303,1.646-1.163c-1.008-1.643-2.865-2.805-4.47-4.018
		c-1.254-0.938-2.691-1.62-4.037-2.445C373.764,341.862,373.334,341.388,372.801,341.132z"/>
	<path fill-rule="evenodd" clip-rule="evenodd" d="M219.73,304.285c-0.508-2.293-0.809-4.637-1.178-6.956
		c-0.107-0.67-0.174-1.342-0.256-2.012c-0.18-0.038-0.351-0.082-0.521-0.111c-0.619,1.185-1.352,2.331-1.835,3.569
		c-1.074,2.77-2.423,5.455-2.457,8.545c-0.003,0.363-0.303,0.714-0.398,1.08c-0.486,1.854-1.042,3.68-1.399,5.556
		c-0.433,2.262-0.692,4.558-1.014,6.842c-0.136,0.951-0.24,1.898-0.354,2.859c0.192,0.063,0.388,0.126,0.578,0.19
		c0.357-0.528,0.736-1.049,1.068-1.595c2.268-3.809,4.337-7.752,6.867-11.381C220.365,308.669,220.248,306.632,219.73,304.285z"/>
	<path fill-rule="evenodd" clip-rule="evenodd" d="M288.807,252.022c0.66,0.275,1.763,0.025,2.451-0.37
		c1.924-1.09,3.683-2.473,5.607-3.566c1.371-0.78,2.919-1.257,4.365-1.927c0.692-0.316,1.32-0.758,1.981-1.14
		c-0.701-0.303-1.409-0.616-2.12-0.91c-0.101-0.041-0.224-0.009-0.332-0.009c-4.874,0.035-9.77-0.152-14.625,0.215
		c-2.571,0.196-5.07,1.361-7.6,2.085c-0.073,0.025-0.104,0.193-0.278,0.528c0.392,0.281,0.714,0.585,1.087,0.768
		C282.483,249.169,285.607,250.695,288.807,252.022z"/>
	<path fill-rule="evenodd" clip-rule="evenodd" d="M293.201,383.846c0.107-0.341-0.506-0.907-0.78-1.371
		c-0.468,0.294-1.021,0.518-1.381,0.913c-0.208,0.234-0.057,0.758-0.161,1.128c-0.477,1.75-0.774,3.585-1.567,5.19
		c-0.553,1.115-0.875,1.927-0.174,3.03c1.03,1.611,0.856,3.225-0.019,4.887c-0.48,0.903-0.714,1.93-1.058,2.906
		c0.085,0.035,0.168,0.057,0.253,0.082c0.098,1.551,0.19,3.102,0.291,4.65c0.07,1.03,0.452,2.034,1.57,1.981
		c0.866-0.025,2.06-0.414,2.499-1.055c2.682-3.974,2.66-8.532,1.535-12.816C293.368,390.164,292.133,387.201,293.201,383.846z"/>
	<path fill-rule="evenodd" clip-rule="evenodd" d="M351.516,381.007c-1.579,1.216-3.453,0.913-5.237,1.207
		c-4.296,0.717-7.815,1.873-8.26,6.687c-0.067,0.689-0.679,1.352-1.109,1.984c-1.674,2.451-3.371,4.874-5.048,7.316
		c-0.076,0.114-0.006,0.319-0.006,0.619c0.306,0,0.528,0.073,0.622-0.009c2.056-1.658,4.094-3.345,6.144-5.01
		c0.584-0.465,1.188-0.938,1.823-1.343c0.6-0.382,1.355-0.546,1.879-1.008c2.938-2.524,5.816-5.111,8.712-7.689
		c0.534-0.483,1.102-0.947,1.513-1.519c0.196-0.278,0.146-0.853-0.016-1.181C352.461,380.902,351.738,380.842,351.516,381.007z"/>
	<path fill-rule="evenodd" clip-rule="evenodd" d="M371.647,349.409c-0.24-0.139-0.518-0.205-0.761-0.332
		c-2.186-1.061-4.956-0.945-6.545-3.26c-0.183-0.268-0.809-0.31-1.235-0.322c-2.3-0.107-4.621-0.032-6.902-0.31
		c-1.165-0.139-2.262-0.881-3.38-1.365c-0.79-0.335-1.573-0.692-2.568-1.121c-0.803,0.449-1.561,0.878-2.322,1.298
		c0.594,0.591,1.159,1.203,1.791,1.737c0.707,0.613,1.545,1.074,2.217,1.702c1.295,1.229,2.682,2.079,4.558,2.063
		c0.793-0.009,1.592,0.395,2.388,0.591c1.794,0.458,3.582,0.932,5.395,1.317c1.178,0.249,2.423,0.224,3.582,0.54
		c1.519,0.401,2.726-0.145,3.873-0.97C372.459,350.457,372.418,349.886,371.647,349.409z"/>
	<path fill-rule="evenodd" clip-rule="evenodd" d="M249.537,267.02c0.262,1.523,1.387,3.434,2.685,4.17
		c3.44,1.943,6.172,4.448,8.33,7.692c0.243,0.37,0.831,0.502,1.264,0.755c0.003-0.556,0.17-1.172-0.019-1.649
		c-0.471-1.238-1.273-2.366-1.621-3.629c-0.467-1.703-1.207-3.023-2.862-3.835c-0.54-0.268-1.074-0.868-1.298-1.444
		c-1.298-3.332-3.822-5.768-6.036-8.431c-0.386-0.465-1.188-0.749-1.832-0.812c-1.036-0.085-2.107,0.089-3.222,0.148
		c0.221,0.243,0.464,0.61,0.783,0.869C247.692,262.477,249.072,264.313,249.537,267.02z"/>
	<path fill-rule="evenodd" clip-rule="evenodd" d="M341.873,258.93c0.186-0.107,0.151-0.578,0.221-0.872
		c-0.161-0.111-0.322-0.221-0.483-0.332c-0.49,0.609-1.045,1.181-1.447,1.838c-1.627,2.65-3.039,5.44-4.839,7.948
		c-2.154,3.004-3.033,6.495-4.242,9.865c-0.553,1.551-0.888,3.099-2.915,3.351c-0.36,0.044-0.96,0.736-0.894,0.976
		c0.12,0.439,0.591,0.913,1.03,1.131c0.875,0.41,1.577,0.016,1.75-0.916c0.224-1.207,0.906-1.737,2.053-2.063
		c2.252-0.641,3.791-2.016,4.012-4.542c0.047-0.537,0.174-1.147,0.483-1.576c1.523-2.091,1.38-4.479,1.377-6.88
		c-0.003-0.799,0.038-1.788,0.483-2.366C339.816,262.768,339.775,260.203,341.873,258.93z"/>
	<path fill-rule="evenodd" clip-rule="evenodd" d="M223.805,350.868c2.852-1.305,5.512-3.036,8.308-4.47
		c0.926-0.464,2.031-0.616,3.064-0.834c0.774-0.158,1.573-0.208,2.363-0.306c-0.01-0.231-0.022-0.458-0.028-0.685
		c-0.543-0.054-1.087-0.17-1.624-0.161c-1.516,0.044-3.048,0.044-4.539,0.259c-0.922,0.129-1.8,0.581-2.679,0.932
		c-1.096,0.439-2.158,0.976-3.27,1.361c-0.445,0.161-1.02-0.098-1.481,0.035c-3.086,0.881-6.204,1.69-9.198,2.834
		c-0.553,0.215-0.572,1.807-0.84,2.767c0.73-0.069,1.469-0.088,2.183-0.221c1.077-0.199,2.126-0.521,3.2-0.72
		C220.778,351.38,222.453,351.487,223.805,350.868z"/>
	<path fill-rule="evenodd" clip-rule="evenodd" d="M207.906,359.33c-0.985,0.559-1.819,1.371-2.922,2.256
		c1.687,0.878,2.909,0.575,3.98-0.07c0.325-0.193,0.528-1.137,0.341-1.501C209.1,359.634,208.178,359.173,207.906,359.33z"/>
	<path fill-rule="evenodd" clip-rule="evenodd" d="M316.005,320.486c-0.335-4.464-2.982-7.761-5.755-10.806
		c-4.375-4.811-10.194-6.782-16.565-6.836c-2.789-0.022-5.743,0.294-8.349,1.219c-5.502,1.943-9.739,5.651-12.525,10.857
		c-0.613,1.156-1.106,2.398-1.481,3.648c-0.423,1.425-0.537,2.947-0.992,4.356c-0.707,2.158-0.689,4.211,0.117,6.343
		c0.42,1.128,0.54,2.366,0.796,3.557c0.189,0.862,0.18,1.851,0.616,2.559c2.025,3.292,3.753,6.861,7.12,9.078
		c1.282,0.844,2.697,1.481,4.049,2.214c3.263,1.772,6.744,2.789,10.93,3.102c6.545-1.169,13.236-3.067,17.702-9.148
		c1.617-2.199,2.862-4.704,3.958-7.209c0.72-1.646,1.033-3.516,1.232-5.323c0.183-1.611,0.044-3.279-0.117-4.899
		C316.656,322.277,316.078,321.399,316.005,320.486z M293.865,342.687c-8.835,1.09-16.957-8.292-16.874-16.653
		c0.088-9.158,8.077-16.821,17.171-16.856c7.783-0.025,16.805,7.714,16.625,17.32C310.628,334.534,302.349,343.637,293.865,342.687z
		"/>
	<path fill-rule="evenodd" clip-rule="evenodd" d="M301.376,316.424c-2.429-1.978-4.956-2.218-7.812-2.372
		c-1.819,0.341-3.923,0.224-5.376,1.14c-1.962,1.232-3.547,3.146-5.042,4.972c-1.554,1.898-1.76,8.756-0.496,10.879
		c0.862,1.466,1.554,3.456,2.878,4.147c3.443,1.778,6.814,4.694,11.227,2.518c0.572-0.284,1.327-0.174,1.946-0.385
		c0.761-0.268,1.614-0.528,2.208-1.049c2.796-2.41,4.625-5.361,4.659-9.183C305.612,322.985,304.898,319.302,301.376,316.424z"/>
</g>
</svg>
