<?xml version="1.0" encoding="utf-8"?>
<!-- Generator: Adobe Illustrator 21.0.0, SVG Export Plug-In . SVG Version: 6.00 Build 0)  -->
<svg version="1.1" xmlns="http://www.w3.org/2000/svg" xmlns:xlink="http://www.w3.org/1999/xlink" x="0px" y="0px"
	 viewBox="0 0 576 576" enable-background="new 0 0 576 576" xml:space="preserve">
<g id="Layer_2">
	<path d="M95.035,110.454V34.296c-5.476,0.234-9.407,0.406-11.79,0.523c-2.389,0.116-4.954,0.522-7.688,1.222
		c-2.738,0.7-4.483,1.339-5.239,1.922c-0.76,0.583-1.688,1.892-2.794,3.93c-1.11,2.038-1.81,3.93-2.099,5.675
		c-0.29,1.749-0.726,4.66-1.309,8.737L55.907,57c1.399-10.244,2.272-20.32,2.622-30.219l1.572-1.395l14.498,1.922h54.149
		l14.848-1.922l1.572,1.395c0.229,7.571,1.106,17.413,2.617,29.524L139.575,57c-0.696-4.073-1.222-7.044-1.572-8.906
		c-0.345-1.861-1.045-3.844-2.094-5.938c-1.049-2.099-1.983-3.434-2.795-4.021c-0.816-0.579-2.474-1.248-4.979-2.008
		c-2.505-0.756-4.92-1.192-7.247-1.309c-2.332-0.117-5.938-0.289-10.832-0.523c-1.861,18.631-2.795,46.928-2.795,84.891
		c0,4.31,0.756,7.368,2.272,9.169c1.512,1.81,4.073,2.708,7.683,2.708l9.61-0.523l0.522,0.7l-1.572,8.033
		c-11.643-0.35-20.203-0.522-25.675-0.522l-23.93,0.7l1.395-7.511c8.15-0.7,13.103-2.125,14.848-4.28
		C94.163,125.505,95.035,119.77,95.035,110.454z"/>
	<path d="M208.572,130.368c14.909,0,22.359-7.16,22.359-21.486l-0.695-43.844c-0.237-3.144-0.643-5.153-1.227-6.025
		c-0.583-0.872-1.861-1.313-3.839-1.313l-5.938,0.177l-0.177-0.523l1.05-6.815c7.217,0.237,12.632,0.35,16.243,0.35l14.676-1.049
		l-0.527,6.988c-4.077,0.583-6.698,1.343-7.86,2.272c-1.166,0.933-1.745,2.682-1.745,5.239v44.717c0,9.67-3.118,17.15-9.346,22.449
		c-6.232,5.299-14.792,7.946-25.68,7.946c-10.888,0-19.037-2.561-24.453-7.688c-5.416-5.122-8.124-12.516-8.124-22.181V65.038
		c0-2.911-0.35-4.859-1.045-5.852c-0.7-0.989-2.099-1.486-4.194-1.486l-4.716,0.177l-0.35-0.523l1.049-6.815
		c7.45,0.237,13.216,0.35,17.293,0.35l15.543-1.049l-0.695,6.988c-3.381,0.467-5.649,1.222-6.815,2.272
		c-1.166,1.049-1.861,2.855-2.094,5.416l-1.049,40.001c0,8.27,1.922,14.645,5.766,19.128
		C195.823,128.127,201.351,130.368,208.572,130.368z"/>
	<path d="M276.175,50.711l16.942,0.35l16.943-1.222l-0.7,7.337c-4.889,0.583-7.744,1.861-8.556,3.84
		c-0.467,0.937-1.08,6.379-1.835,16.334c-0.76,9.959-1.136,24.427-1.136,43.408c0,4.193,0.67,6.871,2.008,8.033
		c1.339,1.166,5.213,1.749,11.618,1.749c6.4,0,10.888-1.162,13.449-3.494c2.561-2.328,4.599-7.8,6.115-16.42l7.683-0.873
		l0.527,1.045c-1.633,8.737-2.971,17.88-4.021,27.425l-0.873,1.049c-16.42-0.816-27.835-1.222-34.235-1.222
		c-9.67,0-18.109,0.462-25.33,1.399l1.049-7.338c3.723-0.583,6.258-1.658,7.596-3.231c1.339-1.572,2.008-4.34,2.008-8.301
		l0.177-55.371c0-2.911-0.35-4.859-1.049-5.852c-0.7-0.989-2.095-1.486-4.194-1.486l-4.716,0.177l-0.522-0.7L276.175,50.711z"/>
	<path d="M360.366,50.711l16.942,0.35l16.943-1.222l-0.7,7.337c-4.889,0.583-7.744,1.861-8.556,3.84
		c-0.467,0.937-1.079,6.379-1.835,16.334c-0.76,9.959-1.136,24.427-1.136,43.408c0,4.193,0.67,6.871,2.008,8.033
		c1.339,1.166,5.213,1.749,11.618,1.749c6.401,0,10.888-1.162,13.449-3.494c2.561-2.328,4.599-7.8,6.115-16.42l7.683-0.873
		l0.527,1.045c-1.633,8.737-2.971,17.88-4.021,27.425l-0.873,1.049c-16.42-0.816-27.835-1.222-34.235-1.222
		c-9.67,0-18.109,0.462-25.33,1.399l1.049-7.338c3.723-0.583,6.258-1.658,7.596-3.231c1.339-1.572,2.008-4.34,2.008-8.301
		l0.177-55.371c0-2.911-0.35-4.859-1.049-5.852c-0.7-0.989-2.095-1.486-4.194-1.486l-4.716,0.177l-0.522-0.7L360.366,50.711z"/>
	<path d="M485.257,50.017l16.766,0.872l13.626-0.522l0.522,1.045l-0.872,5.942c-4.427,0.933-7.597,2.414-9.519,4.453
		c-1.922,2.038-4.919,6.435-8.996,13.19L482.636,99.1c-1.283,2.216-2.038,4.66-2.271,7.338c-0.467,3.96-0.7,8.383-0.7,13.276
		c0,4.889,0.436,7.977,1.313,9.255c0.873,1.283,2.587,1.922,5.153,1.922l6.987-0.35l0.35,0.527l-1.4,7.333
		c-8.62-0.35-14.615-0.522-17.992-0.522c-6.172,0-12.637,0.522-19.387,1.572l1.045-7.16c5.122-0.816,8.327-2.099,9.61-3.844
		c1.278-1.749,1.922-5.182,1.922-10.304v-5.416c0-4.893-1.399-9.899-4.193-15.021c-10.832-20.73-16.77-31.908-17.815-33.54
		c-2.565-3.844-6.876-6.055-12.926-6.638l-0.35-0.7l1.045-6.288c6.638,0.237,12.11,0.35,16.42,0.35l20.964-1.049l0.522,1.049
		l-0.522,5.766c-3.96,0.234-6.668,0.67-8.124,1.309c-1.455,0.644-2.186,1.836-2.186,3.58c0,1.749,5.006,12.637,15.025,32.667h0.873
		l15.02-26.902c1.512-2.677,2.272-4.893,2.272-6.638c0-2.211-2.855-3.494-8.56-3.844l-0.35-0.523L485.257,50.017z"/>
</g>
<g id="Layer_3">
	<path d="M66.402,557.625c-2.528-0.108-4.298-0.16-5.308-0.16c-1.596,0-3.325,0.16-5.187,0.479l0.238-1.834
		c1.223-0.241,2.048-0.594,2.474-1.058c0.426-0.466,0.639-1.258,0.639-2.376l0.04-16.76c0-0.852-0.1-1.423-0.298-1.716
		c-0.2-0.291-0.594-0.439-1.178-0.439l-1.356,0.08l-0.08-0.16l0.278-1.754c2.102,0.078,4.862,0.118,8.28,0.118
		c3.418,0,6.247-0.158,8.48-0.479l0.12,0.241c-0.453,2.047-0.759,4.295-0.917,6.744l-1.917,0.16c0.055-0.852,0.08-1.463,0.08-1.837
		c0-1.303-0.278-2.1-0.837-2.393c-0.559-0.293-1.777-0.439-3.651-0.439c-1.877,0-2.947,0.073-3.213,0.218
		c-0.266,0.148-0.413,0.594-0.439,1.338l-0.321,8.42l4.112,0.04l4.19-0.441l0.158,0.2l-0.559,2.393
		c-2.022-0.078-3.591-0.118-4.709-0.118c-1.118,0-2.208,0.093-3.27,0.278l-0.16,6.626c0,1.09,0.12,1.814,0.358,2.173
		c0.24,0.361,0.704,0.539,1.396,0.539l2.834-0.118l0.08,0.158L66.402,557.625z"/>
	<path d="M88.748,557.863l-0.12-0.278l0.16-1.556c1.356-0.108,2.288-0.266,2.794-0.479c0.504-0.213,0.757-0.574,0.757-1.078
		c0-0.506-0.12-1.13-0.358-1.877l-1.318-4.348c-0.636-0.027-1.809-0.04-3.511-0.04c-1.702,0-3.366,0.105-4.987,0.318l-1.479,4.15
		c-0.238,0.719-0.358,1.238-0.358,1.556c0,1.093,0.799,1.636,2.393,1.636h2.275l0.08,0.16l-0.241,1.714
		c-1.942-0.186-3.789-0.278-5.546-0.278l-4.391,0.12l0.321-1.877c0.744-0.08,1.343-0.338,1.795-0.777
		c0.453-0.439,0.892-1.203,1.318-2.295l7.781-20.391l2.513-0.679h0.321c2.233,8.275,4.348,15.404,6.345,21.391
		c0.318,0.982,0.744,1.674,1.276,2.075c0.531,0.399,1.383,0.652,2.554,0.757l0.08,0.16l-0.278,1.636
		c-1.917-0.08-3.558-0.12-4.929-0.12C92.624,557.464,90.875,557.597,88.748,557.863z M86.392,546.571
		c0.96,0,2.195-0.068,3.711-0.201l-3.153-10.455h-0.278l-3.791,10.656H86.392z"/>
	<path d="M108.182,536.715c-0.905,11.147-1.356,17.098-1.356,17.858c0,0.757,0.411,1.135,1.236,1.135l1.636-0.04l0.08,0.16
		l-0.358,1.797c-1.704-0.108-2.887-0.16-3.554-0.16c-1.17,0-2.421,0.105-3.749,0.318l0.198-1.834
		c0.852-0.105,1.463-0.379,1.837-0.82c0.371-0.439,0.611-1.19,0.716-2.253c1.17-10.668,1.757-16.382,1.757-17.141
		c0-0.757-0.273-1.308-0.819-1.654c-0.544-0.346-1.429-0.559-2.651-0.639l-0.12-0.201l0.318-1.396
		c2.05,0.133,3.498,0.198,4.35,0.198l2.714-0.158c2.26,7.262,4.508,13.861,6.744,19.792h0.198
		c2.078-5.533,4.378-12.104,6.904-19.712c1.278,0.053,2.155,0.077,2.634,0.077l4.31-0.238l0.08,0.16l-0.201,1.476
		c-1.143,0.133-1.955,0.366-2.433,0.696c-0.479,0.333-0.719,0.832-0.719,1.499c0,2.048,0.346,7.475,1.037,16.282
		c0.188,1.569,0.401,2.594,0.639,3.072c0.24,0.479,0.679,0.717,1.318,0.717l1.118-0.08l0.077,0.16l-0.358,1.797
		c-1.569-0.08-2.834-0.12-3.791-0.12l-4.15,0.318l0.16-1.834c1.569-0.186,2.353-0.852,2.353-1.995l-1.356-17.239h-0.2l-7.701,21.228
		l-0.957,0.281l-7.741-21.509H108.182z"/>
	<path d="M144.175,552.996c0,1.09,0.12,1.814,0.358,2.173c0.24,0.361,0.704,0.539,1.396,0.539l2.115-0.118l0.08,0.158l-0.358,1.837
		c-2.235-0.08-3.817-0.12-4.749-0.12c-1.544,0-3.245,0.16-5.107,0.479l0.238-1.834c1.25-0.241,2.095-0.594,2.534-1.058
		c0.441-0.466,0.659-1.258,0.659-2.376l0.04-16.76c0-0.852-0.1-1.423-0.298-1.716c-0.201-0.291-0.594-0.439-1.178-0.439l-1.677,0.08
		l-0.08-0.16l0.281-1.754c2.075,0.078,3.523,0.118,4.348,0.118c1.118,0,2.782-0.118,4.989-0.358l-0.16,1.797
		c-1.118,0.133-1.862,0.351-2.233,0.656c-0.373,0.308-0.586,0.847-0.639,1.616C144.361,543.471,144.175,549.217,144.175,552.996z"/>
	<path d="M170.473,557.822c-4.629-0.238-7.794-0.358-9.498-0.358c-2.581,0-4.774,0.133-6.583,0.399l0.238-1.835
		c1.037-0.16,1.749-0.474,2.135-0.937c0.386-0.466,0.579-1.271,0.579-2.416l0.04-16.76c0-0.852-0.1-1.423-0.298-1.716
		c-0.2-0.291-0.594-0.439-1.178-0.439l-1.356,0.08l-0.08-0.16l0.278-1.754c1.97,0.078,3.338,0.118,4.11,0.118
		c1.065,0,2.609-0.118,4.631-0.358l-0.16,1.797c-0.293,0.053-0.554,0.098-0.779,0.138s-0.426,0.1-0.599,0.18
		c-0.173,0.08-0.318,0.14-0.439,0.18c-0.118,0.04-0.226,0.146-0.318,0.318c-0.093,0.173-0.16,0.293-0.2,0.358
		c-0.04,0.068-0.08,0.228-0.12,0.481c-0.037,0.253-0.073,0.431-0.098,0.536c-0.055,0.534-0.08,1.04-0.08,1.519
		c-0.321,4.443-0.479,9.575-0.479,15.402c0,1.358,0.193,2.211,0.579,2.554c0.383,0.346,1.529,0.519,3.431,0.519
		c1.902,0,3.218-0.331,3.952-0.997c0.729-0.664,1.323-2.22,1.774-4.669l1.757-0.198l0.12,0.198
		c-0.479,2.421-0.865,4.949-1.158,7.583L170.473,557.822z"/>
	<path d="M180.628,533.86c-0.411,0.201-0.616,0.499-0.616,0.897c0,0.398,0.371,1.456,1.115,3.173
		c0.747,1.716,1.484,3.345,2.215,4.889c0.732,1.544,1.11,2.313,1.138,2.313h0.2l4.548-8.458c0.426-0.772,0.639-1.438,0.639-1.997
		c0-0.692-0.84-1.09-2.514-1.195l-0.08-0.16l0.238-1.556c1.97,0.186,3.446,0.278,4.431,0.278l3.671-0.158l0.16,0.278l-0.241,1.476
		c-1.223,0.241-2.095,0.614-2.614,1.118c-0.519,0.506-1.258,1.624-2.215,3.353c-0.053,0.105-0.093,0.186-0.12,0.238l-4.268,7.503
		c-0.454,0.824-0.719,1.982-0.799,3.471c-0.053,1.093-0.08,2.243-0.08,3.453c0,1.21,0.12,2.002,0.361,2.373
		c0.238,0.374,0.704,0.559,1.396,0.559l1.955-0.118l0.08,0.158l-0.358,1.837c-2.21-0.08-3.751-0.12-4.629-0.12
		c-1.463,0-3.127,0.16-4.989,0.479l0.24-1.834c1.381-0.266,2.248-0.667,2.594-1.198c0.346-0.531,0.519-1.569,0.519-3.112v-1.757
		c0-1.464-0.386-2.965-1.158-4.508l-3.591-7.302c-0.905-1.862-1.544-2.995-1.917-3.393c-0.612-0.664-1.649-1.063-3.112-1.198
		l-0.08-0.158l0.241-1.556c1.702,0.078,3.165,0.118,4.39,0.118l5.666-0.318l0.12,0.278l-0.12,1.398
		C181.846,533.507,181.041,533.66,180.628,533.86z"/>
	<path d="M203.713,555.51c0,0.664-0.233,1.235-0.697,1.714c-0.466,0.481-1.065,0.719-1.797,0.719c-0.732,0-1.291-0.218-1.676-0.659
		c-0.386-0.439-0.579-0.99-0.579-1.656c0-0.664,0.228-1.236,0.679-1.714c0.453-0.479,1.045-0.719,1.777-0.719
		c0.732,0,1.296,0.221,1.697,0.659C203.515,554.292,203.713,554.843,203.713,555.51z"/>
	<path d="M229.971,557.943c-2.473-0.318-4.19-0.479-5.147-0.479c-1.596,0-3.325,0.16-5.187,0.479l0.238-1.834
		c1.223-0.241,2.047-0.594,2.473-1.058c0.426-0.466,0.639-1.258,0.639-2.376l0.04-16.76c0-0.852-0.1-1.423-0.298-1.716
		c-0.201-0.291-0.594-0.439-1.178-0.439l-1.356,0.08l-0.08-0.16l0.278-1.754c1.782,0.078,3.18,0.118,4.19,0.118l6.067-0.158
		c3.882,0,7.042,1.103,9.478,3.311c2.433,2.21,3.651,5.19,3.651,8.939c0,3.751-1.331,6.992-3.992,9.718
		C237.128,556.58,233.855,557.943,229.971,557.943z M227.896,533.84c-0.559,0-0.932,0.06-1.118,0.18
		c-0.186,0.118-0.293,0.351-0.318,0.697c-0.401,10.245-0.599,16.089-0.599,17.54s0.331,2.421,0.997,2.912
		c0.664,0.493,2.008,0.739,4.03,0.739c2.875,0,5.135-0.99,6.784-2.972c1.649-1.982,2.476-4.716,2.476-8.202
		c0-3.484-1.058-6.172-3.173-8.06C234.86,534.785,231.833,533.84,227.896,533.84z"/>
	<path d="M256.028,553.552c1.143,1.411,2.799,2.115,4.967,2.115c2.168,0,3.824-0.576,4.969-1.734
		c1.143-1.158,1.716-2.827,1.716-5.009l-0.24-13.009c-0.053-0.93-0.166-1.523-0.338-1.777c-0.173-0.25-0.554-0.378-1.138-0.378
		l-1.717,0.08l-0.08-0.16l0.281-1.754c1.995,0.078,3.378,0.118,4.15,0.118c1.09,0,2.501-0.118,4.23-0.358l-0.16,1.797
		c-1.17,0.158-1.922,0.371-2.255,0.636c-0.331,0.268-0.499,0.812-0.499,1.636v13.41c0,2.792-0.865,4.954-2.594,6.483
		c-1.729,1.531-4.077,2.295-7.042,2.295c-2.967,0-5.207-0.764-6.726-2.295c-1.516-1.529-2.273-3.704-2.273-6.523v-13.209
		c0-0.852-0.1-1.423-0.301-1.716c-0.198-0.291-0.591-0.439-1.175-0.439l-1.358,0.08l-0.08-0.16l0.281-1.754
		c1.995,0.078,3.378,0.118,4.15,0.118c1.062,0,2.578-0.118,4.548-0.358l-0.158,1.797c-0.985,0.133-1.644,0.351-1.977,0.656
		c-0.333,0.308-0.524,0.847-0.579,1.616l-0.318,11.733C254.312,550.122,254.883,552.144,256.028,553.552z"/>
	<path d="M285.04,550.999V533.6c-1.25,0.055-2.148,0.095-2.694,0.12c-0.544,0.027-1.13,0.12-1.754,0.28
		c-0.627,0.158-1.025,0.306-1.198,0.439c-0.173,0.133-0.386,0.434-0.639,0.897c-0.253,0.466-0.411,0.897-0.479,1.298
		c-0.065,0.398-0.165,1.063-0.298,1.995l-1.877,0.16c0.321-2.341,0.519-4.643,0.599-6.904l0.358-0.321l3.313,0.439h12.372
		l3.391-0.439l0.358,0.321c0.055,1.729,0.253,3.977,0.599,6.744l-1.875,0.16c-0.16-0.932-0.281-1.611-0.358-2.037
		c-0.08-0.423-0.241-0.877-0.479-1.356c-0.24-0.479-0.453-0.784-0.639-0.917c-0.188-0.133-0.566-0.286-1.138-0.459
		c-0.574-0.173-1.125-0.273-1.657-0.3c-0.531-0.025-1.356-0.065-2.473-0.12c-0.426,4.258-0.639,10.723-0.639,19.396
		c0,0.982,0.173,1.682,0.519,2.095c0.346,0.411,0.93,0.616,1.757,0.616l2.193-0.118l0.12,0.158l-0.358,1.837
		c-2.661-0.08-4.616-0.12-5.866-0.12l-5.466,0.16l0.318-1.717c1.862-0.16,2.992-0.486,3.391-0.977
		C284.842,554.439,285.04,553.129,285.04,550.999z"/>
	<path d="M306.248,533.86c-0.411,0.201-0.616,0.499-0.616,0.897c0,0.398,0.371,1.456,1.115,3.173
		c0.747,1.716,1.483,3.345,2.215,4.889c0.732,1.544,1.11,2.313,1.138,2.313h0.2l4.548-8.458c0.426-0.772,0.639-1.438,0.639-1.997
		c0-0.692-0.839-1.09-2.514-1.195l-0.08-0.16l0.238-1.556c1.97,0.186,3.446,0.278,4.43,0.278l3.671-0.158l0.16,0.278l-0.241,1.476
		c-1.223,0.241-2.095,0.614-2.614,1.118c-0.519,0.506-1.258,1.624-2.215,3.353c-0.053,0.105-0.093,0.186-0.12,0.238l-4.268,7.503
		c-0.453,0.824-0.719,1.982-0.799,3.471c-0.053,1.093-0.08,2.243-0.08,3.453c0,1.21,0.12,2.002,0.361,2.373
		c0.238,0.374,0.704,0.559,1.396,0.559l1.955-0.118l0.08,0.158l-0.358,1.837c-2.21-0.08-3.751-0.12-4.629-0.12
		c-1.463,0-3.127,0.16-4.989,0.479l0.241-1.834c1.381-0.266,2.248-0.667,2.594-1.198c0.346-0.531,0.519-1.569,0.519-3.112v-1.757
		c0-1.464-0.386-2.965-1.158-4.508l-3.591-7.302c-0.905-1.862-1.544-2.995-1.917-3.393c-0.612-0.664-1.649-1.063-3.112-1.198
		l-0.08-0.158l0.241-1.556c1.702,0.078,3.165,0.118,4.39,0.118l5.666-0.318l0.12,0.278l-0.12,1.398
		C307.466,533.507,306.662,533.66,306.248,533.86z"/>
	<path d="M329.334,555.51c0,0.664-0.233,1.235-0.697,1.714c-0.466,0.481-1.065,0.719-1.797,0.719c-0.732,0-1.291-0.218-1.676-0.659
		c-0.386-0.439-0.579-0.99-0.579-1.656c0-0.664,0.228-1.236,0.679-1.714c0.453-0.479,1.045-0.719,1.777-0.719
		c0.732,0,1.296,0.221,1.696,0.659C329.136,554.292,329.334,554.843,329.334,555.51z"/>
	<path d="M367.124,552.996c0,1.09,0.12,1.814,0.358,2.173c0.241,0.361,0.704,0.539,1.399,0.539l1.794-0.118l0.08,0.158l-0.358,1.837
		c-2.103-0.08-3.739-0.12-4.909-0.12l-4.589,0.08l0.358-1.797c1.25-0.025,2.067-0.306,2.453-0.837
		c0.386-0.531,0.579-1.677,0.579-3.433v-6.025c-2.819-0.027-4.842-0.04-6.065-0.04l-6.623,0.439l-0.16,7.145
		c0,1.09,0.12,1.814,0.358,2.173c0.241,0.361,0.704,0.539,1.396,0.539l1.797-0.118l0.08,0.158l-0.358,1.837
		c0-0.08-0.86-0.12-2.576-0.12c-1.714,0-3.285,0.053-4.709,0.16c-1.423,0.105-2.148,0.213-2.173,0.318l0.238-1.834
		c1.223-0.241,2.047-0.594,2.473-1.058c0.426-0.466,0.639-1.258,0.639-2.376l0.04-16.76c0-0.852-0.1-1.423-0.298-1.716
		c-0.2-0.291-0.594-0.439-1.178-0.439l-1.356,0.08l-0.08-0.16l0.278-1.754c1.942,0.078,3.285,0.118,4.03,0.118
		c1.093,0,2.649-0.118,4.671-0.358l-0.16,1.797c-1.145,0.186-1.857,0.471-2.135,0.857c-0.281,0.386-0.446,1.298-0.499,2.734
		l-0.241,6.465l6.706,0.038c1.702,0,3.671-0.133,5.904-0.398l0.04-7.262c0-0.852-0.1-1.423-0.298-1.716
		c-0.2-0.291-0.594-0.439-1.178-0.439l-1.356,0.08l-0.08-0.16l0.278-1.754c0,0.078,0.799,0.118,2.396,0.118
		c1.862,0,3.962-0.118,6.305-0.358l-0.16,1.797c-0.985,0.133-1.644,0.351-1.975,0.656c-0.333,0.308-0.526,0.847-0.579,1.616
		C367.31,543.523,367.124,549.269,367.124,552.996z"/>
	<path d="M387.278,557.943c-3.273,0-5.934-1.143-7.981-3.431c-2.048-2.288-3.072-5.328-3.072-9.119c0-3.792,1.263-7.044,3.791-9.756
		c2.526-2.714,5.546-4.072,9.059-4.072c3.511,0,6.318,1.145,8.418,3.433c2.102,2.288,3.153,5.328,3.153,9.117
		c0,3.792-1.283,7.045-3.849,9.759C394.227,556.587,391.054,557.943,387.278,557.943z M379.654,544.576
		c0,3.245,0.825,5.944,2.476,8.099c1.649,2.155,3.757,3.233,6.325,3.233c2.566,0,4.649-0.965,6.245-2.894
		c1.596-1.927,2.393-4.508,2.393-7.741c0-3.233-0.845-5.927-2.534-8.079c-1.689-2.155-3.824-3.233-6.405-3.233
		c-2.581,0-4.641,0.957-6.185,2.872C380.426,538.749,379.654,541.328,379.654,544.576z"/>
	<path d="M426.025,551.678v-16.161c0-1.145-0.439-1.717-1.318-1.717l-1.516,0.04l-0.08-0.16l0.361-1.794
		c1.621,0.105,2.792,0.158,3.511,0.158c1.17,0,2.581-0.105,4.23-0.318l-0.2,1.837c-0.93,0.133-1.609,0.391-2.035,0.777
		c-0.426,0.386-0.652,0.965-0.679,1.737l-0.559,22.426l-1.155,0.559c-4.817-7.475-9.763-14.806-14.846-21.988h-0.2l-0.198,17.038
		c0,0.587,0.093,0.997,0.278,1.238c0.185,0.24,0.506,0.358,0.957,0.358l2.035-0.04l0.08,0.16l-0.358,1.797
		c-1.676-0.108-2.912-0.16-3.711-0.16c-1.276,0-2.687,0.105-4.23,0.318l0.201-1.834c1.621-0.186,2.446-1.025,2.473-2.514
		l0.519-17.439c0-0.825-0.246-1.411-0.739-1.757c-0.491-0.346-1.403-0.584-2.731-0.717l-0.12-0.2l0.318-1.476
		c1.544,0.133,2.686,0.198,3.433,0.198l2.674-0.158c3.937,6.12,8.405,12.716,13.407,19.792H426.025z"/>
	<path d="M446.775,557.943c-3.273,0-5.934-1.143-7.982-3.431c-2.047-2.288-3.072-5.328-3.072-9.119c0-3.792,1.263-7.044,3.792-9.756
		c2.526-2.714,5.546-4.072,9.059-4.072c3.511,0,6.318,1.145,8.418,3.433c2.103,2.288,3.153,5.328,3.153,9.117
		c0,3.792-1.283,7.045-3.849,9.759C453.724,556.587,450.552,557.943,446.775,557.943z M439.152,544.576
		c0,3.245,0.824,5.944,2.476,8.099c1.649,2.155,3.757,3.233,6.325,3.233c2.566,0,4.649-0.965,6.245-2.894
		c1.596-1.927,2.393-4.508,2.393-7.741c0-3.233-0.845-5.927-2.534-8.079c-1.689-2.155-3.824-3.233-6.405-3.233
		c-2.581,0-4.641,0.957-6.185,2.872C439.924,538.749,439.152,541.328,439.152,544.576z"/>
	<path d="M472.394,553.552c1.143,1.411,2.799,2.115,4.967,2.115s3.824-0.576,4.969-1.734c1.143-1.158,1.717-2.827,1.717-5.009
		l-0.241-13.009c-0.053-0.93-0.165-1.523-0.338-1.777c-0.173-0.25-0.554-0.378-1.138-0.378l-1.716,0.08l-0.08-0.16l0.281-1.754
		c1.995,0.078,3.378,0.118,4.15,0.118c1.09,0,2.501-0.118,4.23-0.358l-0.16,1.797c-1.17,0.158-1.922,0.371-2.255,0.636
		c-0.331,0.268-0.499,0.812-0.499,1.636v13.41c0,2.792-0.865,4.954-2.594,6.483c-1.729,1.531-4.077,2.295-7.042,2.295
		c-2.967,0-5.207-0.764-6.726-2.295c-1.516-1.529-2.273-3.704-2.273-6.523v-13.209c0-0.852-0.1-1.423-0.301-1.716
		c-0.198-0.291-0.591-0.439-1.175-0.439l-1.358,0.08l-0.08-0.16l0.281-1.754c1.995,0.078,3.378,0.118,4.15,0.118
		c1.062,0,2.579-0.118,4.548-0.358l-0.158,1.797c-0.985,0.133-1.644,0.351-1.977,0.656c-0.333,0.308-0.524,0.847-0.579,1.616
		l-0.318,11.733C470.677,550.122,471.249,552.144,472.394,553.552z"/>
	<path d="M510.385,533.562c1.436,1.115,2.155,2.566,2.155,4.348c0,3.486-1.955,6.12-5.866,7.901l4.39,6.944
		c0.772,1.278,1.524,2.163,2.255,2.654c0.729,0.491,1.629,0.739,2.691,0.739l0.16,0.158l-0.238,1.358l-3.393,0.439
		c-0.664,0-1.376-0.341-2.135-1.017c-0.757-0.679-1.456-1.604-2.095-2.774l-4.27-7.741h-3.311l-0.12,5.944
		c0,1.438,0.16,2.343,0.479,2.714c0.318,0.373,1.118,0.559,2.393,0.559l0.08,0.16l-0.358,1.676c0-0.028-1.411-0.068-4.23-0.12
		l-4.589,0.12l0.358-1.797c1.25-0.133,2.068-0.406,2.453-0.817c0.386-0.413,0.579-1.19,0.579-2.335l0.04-16.76
		c0-0.852-0.1-1.423-0.298-1.716c-0.2-0.291-0.594-0.439-1.178-0.439l-1.356,0.08l-0.08-0.16l0.278-1.754
		c1.942,0.078,3.418,0.118,4.431,0.118l4.907-0.158C506.994,531.885,508.949,532.444,510.385,533.562z M509.227,538.867
		c0-3.511-2.433-5.268-7.302-5.268c-0.266,0-0.446,0.06-0.539,0.18c-0.093,0.12-0.153,0.366-0.178,0.739
		c-0.241,4.07-0.373,7.343-0.401,9.816l4.113,0.399c0.982-0.238,1.927-0.825,2.832-1.754c0.373-0.401,0.712-0.965,1.017-1.697
		C509.074,540.551,509.227,539.747,509.227,538.867z"/>
</g>
<g id="Layer_4">
	<path fill-rule="evenodd" clip-rule="evenodd" d="M81.178,405.752c-0.809,0.234-1.63,0.655-2.445,0.667
		c-5.465,0.089-10.868-0.08-16.031-2.393c-2.934-1.325-3.813-4.038-5.182-6.427c-0.649-1.144-0.953-2.528-1.221-3.847
		c-0.71-3.45-0.646-6.565,1.774-9.702c3.983-5.163,7.387-10.757,11.068-16.145c3.235-4.729,6.507-9.422,9.745-14.13
		c2.894-4.213,5.791-8.42,8.638-12.651c0.732-1.083,1.565-1.412,2.743-0.803c1.864,0.993,3.555,0.63,5.554-0.092
		c7.113-2.583,14.564-2.937,22.101-2.934c5.711,0,10.966,1.787,16,3.77c4.957,1.944,9.951,4.508,12.802,9.675
		c1.258,2.266,1.627,4.536,1.387,7.002c-0.209,2.146-0.185,4.364-0.747,6.415c-0.732,2.632-1.814,5.188-2.98,7.667
		c-1.421,3.026-2.798,6.15-4.714,8.869c-2.494,3.57-5.578,6.71-8.229,10.182c-1.273,1.664-2.282,3.583-3.078,5.529
		c-0.569,1.369,0.569,1.978,1.814,1.891c2.245-0.129,3.838-1.378,5.139-3.155c1.664-2.276,3.512-4.413,5.08-6.744
		c1.768-2.617,3.407-5.338,4.92-8.103c1.928-3.524,3.776-7.11,5.48-10.748c0.68-1.436,0.907-3.087,1.304-4.649
		c0.397-1.559,0.787-3.121,1.085-4.699c0.234-1.239,0.572-2.528,0.461-3.761c-0.75-8.743-6.113-14.017-13.512-17.725
		c-0.357-0.185-0.775-0.262-1.116-0.474c-0.987-0.615-2.777-0.59-2.365-2.442c0.326-1.439,2.553-2.633,4.09-2.242
		c4.2,1.07,8.082,2.749,11.879,4.948c4.85,2.805,7.236,6.926,9.109,11.993c2.602,7.073,1.187,13.522-1.667,19.94
		c-1.839,4.121-3.905,8.137-5.809,12.224c-0.197,0.434,0.031,1.073,0.058,1.618c0.508-0.203,1.123-0.274,1.516-0.615
		c3.13-2.66,5.772-5.732,7.857-9.318c2.928-5.059,5.655-10.379,5.877-16.173c0.295-8.094-2.731-15.213-8.857-20.899
		c-3.377-3.134-7.177-5.428-11.32-7.3c-2.189-0.978-2.223-1.605-0.132-2.888c4.511-2.789,8.939-5.772,13.669-8.159
		c5.975-3.029,12.175-5.624,18.34-8.244c5.323-2.266,10.65-4.561,16.126-6.357c6.719-2.19,13.522-4.24,20.432-5.692
		c9.945-2.1,19.958-4.096,30.054-5.203c8.208-0.916,16.569-0.784,24.845-0.548c19.324,0.532,38.434,3.097,57.358,6.968
		c6.449,1.316,12.756,3.37,19.1,5.169c3.813,1.083,7.608,2.288,11.372,3.54c2.291,0.76,4.52,1.697,6.787,2.568
		c7.734,2.995,15.038,6.892,22.322,10.818c4.121,2.217,8.146,4.631,12.221,6.938c4.004,2.282,8.082,4.462,12.024,6.854
		c2.983,1.805,5.824,3.863,8.709,5.837c3.272,2.233,6.584,4.456,9.791,6.796c3.343,2.451,6.574,5.065,9.902,7.562
		c0.673,0.51,1.47,0.984,2.279,1.196c1.402,0.363,3.161,0.523,3.669-1.076c0.271-0.889-0.495-2.389-1.23-3.26
		c-3.499-4.194-8.315-6.762-12.645-9.927c-3.426-2.497-6.947-4.862-10.474-7.208c-3.475-2.303-7.008-4.53-10.536-6.753
		c-2.78-1.756-5.554-3.524-8.392-5.173c-4.883-2.835-9.715-5.772-14.739-8.34c-6.464-3.309-13.039-6.403-19.659-9.395
		c-7.052-3.201-14.168-6.227-21.662-8.365c-12.664-3.601-25.558-6.123-38.532-8.171c-13.063-2.064-26.271-2.844-39.495-3.223
		c-16.175-0.443-32.209,0.978-48.065,4.074c-6.599,1.282-13.156,2.906-19.623,4.782c-5.225,1.525-10.339,3.487-15.382,5.538
		c-6.682,2.712-13.343,5.495-19.829,8.617c-6.301,3.026-12.482,6.353-18.537,9.853c-5.892,3.407-11.95,6.713-17.157,11.012
		c-3.61,2.974-6.692,3.549-10.978,2.552c-7.067-1.633-14.22-0.99-21.28,0.467c-1.049,0.212-2.02,0.803-3.069,0.95
		c-0.634,0.099-1.335-0.301-2.002-0.489c0.197-0.59,0.24-1.344,0.637-1.75c5.449-5.665,10.778-11.455,16.468-16.877
		c8.681-8.257,17.765-16.077,27.547-23.036c3.398-2.414,6.698-4.97,10.016-7.507c0.618-0.474,1.307-1.092,1.55-1.793
		c1.971-5.511,6.067-9.65,9.219-14.38c2.841-4.253,5.926-8.331,8.936-12.464c4.268-5.873,8.571-11.744,12.879-17.605
		c1.934-2.642,3.995-5.225,5.837-7.946c1.172-1.747,2.694-2.506,4.634-2.104c3.807,0.793,7.581,1.747,11.36,2.669
		c2.423,0.584,4.871,1.091,7.233,1.857c9.496,3.078,18.005,8.106,26.274,13.58c1.291,0.852,2.737,1.495,3.927,2.473
		c0.643,0.523,1.246,1.577,1.163,2.309c-0.061,0.56-1.184,1.169-1.944,1.449c-5.704,2.076-11.394,4.142-16.363,7.728
		c-1.704,1.224-3.493,2.294-5.197,3.493c-0.59,0.415-1.316,0.929-1.528,1.55c-0.381,1.15-0.88,2.626-0.452,3.576
		c0.27,0.609,2.147,0.879,3.21,0.723c5.268-0.79,10.462-2.1,15.745-2.589c7.027-0.655,14.106-1.009,21.161-0.969
		c10.111,0.059,20.253,0.206,30.318,1.039c8.1,0.667,16.175,2.076,24.143,3.767c8.091,1.719,16.015,4.194,24.023,6.313
		c5.458,1.442,10.865,3.524,16.424,4.074c7.485,0.744,15.072,0.446,22.63,0.298c6.184-0.141,12.365-0.698,18.559-1.11
		c1.74-0.114,2.694,0.664,2.955,2.319c0.498,3.131,0.962,6.261,1.445,9.389c0.206,1.338-0.652,1.805-1.707,2.085
		c-1.427,0.375-2.992,0.47-4.278,1.125c-1.015,0.523-2.242,1.648-2.347,2.626c-0.111,0.95,0.815,2.503,1.725,3.017
		c2.731,1.553,5.732,2.608,8.524,4.065c5.72,2.983,11.443,5.969,17.003,9.222c1.974,1.153,3.586,3.004,5.191,4.702
		c3.644,3.863,7.036,7.968,10.812,11.683c1.965,1.943,4.468,3.376,6.848,4.849c4.991,3.088,10.6,2.728,16.197,2.961
		c8.746,0.375,17.461,1.298,26.176,2.088c5.176,0.461,9.539,3.084,14.017,5.474c7.162,3.807,12.744,9.293,17.661,15.582
		c0.341,0.424,0.64,0.874,0.91,1.332c1.544,2.654,0.763,4.705-1.91,6.15c-2.337,1.276-4.609,2.762-6.648,4.444
		c-4.809,3.952-8.933,8.9-15.477,10.241c-3.823,0.784-7.651,1.62-11.492,2.355c-3.914,0.757-5.409,2.273-5.129,6.175
		c0.409,5.643-2.036,10.511-3.878,15.542c-1.925,5.286-4.951,10.035-8.463,14.395c-3.321,4.136-6.895,8.088-10.471,12.009
		c-1.322,1.442-2.362,1.261-2.888-0.406c-1.685-5.366-5.117-9.631-8.693-13.715c-4.164-4.742-7.008-10.151-9.413-15.893
		c-3.115-7.439-4.594-15.228-4.868-23.239c-0.163-4.561,0.378-9.146,0.172-13.697c-0.268-6.024-1.571-11.79-6.393-16.049
		c-2.829-2.5-5.674-4.97-8.558-7.393c-0.603-0.507-1.378-0.864-2.134-1.11c-2.229-0.741-3.939,0.366-3.779,2.679
		c0.099,1.464,0.72,2.958,1.338,4.33c0.812,1.771,1.978,3.376,2.765,5.154c0.861,1.919,0.298,2.869-1.784,3.001
		c-1.728,0.111-3.49-0.123-5.237-0.178c-5.034-0.139-10.077-0.384-15.121-0.357c-2.254,0.009-4.268-0.314-6.095-1.664
		c-2.838-2.104-5.243-4.53-7.159-7.577c-2.18-3.469-4.917-6.575-7.294-9.924c-1.399-1.962-2.589-4.078-3.856-6.141
		c-0.84-1.378-1.562-2.845-2.475-4.161c-1.636-2.365-3.823-3.767-6.815-3.629c-4.314,0.2-8.626,0.437-12.943,0.538
		c-5.923,0.135-11.864,0.169-17.79,0.219c-1.842,0.018-2.792-1.101-3.266-2.755c-0.36-1.239-0.63-2.617-2.377-2.519
		c-1.784,0.092-2.042,1.445-2.269,2.842c-1.482,9.441-4.247,18.479-8.577,27.015c-0.932,1.86-1.873,3.779-3.195,5.348
		c-0.757,0.895-2.288,1.584-3.463,1.584c-1.765,0-3.617-0.486-5.286-1.138c-3.364-1.313-6.694-2.74-9.917-4.379
		c-5.344-2.715-10.683-5.48-14.739-10.093c-0.077-0.101-0.157-0.243-0.274-0.289c-2.325-1.021-4.548-2.109-5.486-4.809
		c-0.08-0.243-1.71,0.058-2.623,0.098c0.203,0.763,0.356,1.535,0.655,2.263c0.092,0.24,0.547,0.354,0.849,0.504
		c2.473,1.135,2.789,2.737,0.566,4.394c-3.943,2.934-8.048,5.637-12.092,8.429c-2.651,1.82-5.311,3.638-7.983,5.422
		c-3.404,2.269-6.815,4.557-10.283,6.753c-0.772,0.492-1.741,0.698-2.648,0.963c-1.325,0.375-2.297,0.049-2.967-1.319
		c-0.335-0.673-1.193-1.091-1.818-1.624c-0.357,0.79-1.003,1.569-1.024,2.365c-0.089,2.844-0.726,5.446-2.362,7.82
		c-0.514,0.744-0.698,1.738-0.959,2.629c-0.215,0.71-0.301,1.457-0.507,2.174c-1.885,6.23-3.783,12.455-5.664,18.694
		c-0.64,2.119-2.008,2.823-3.986,1.987c-5.846-2.442-11.741-4.739-17.482-7.371c-4.213-1.928-8.248-4.247-12.291-6.498
		c-0.775-0.428-1.227-1.412-1.922-2.033c-0.295-0.271-0.858-0.391-1.261-0.32c-0.2,0.025-0.43,0.609-0.449,0.95
		c-0.114,2.694-0.6,3.149-3.097,4.118c-5.391,2.1-10.723,4.333-16.068,6.55c-2.534,1.055-5.154,1.993-7.522,3.349
		c-5.157,2.931-10.932,3.899-16.514,5.456c-3.813,1.061-7.743,1.759-11.661,2.414c-1.999,0.338-3.481,1.125-4.702,2.752
		c-1.867,2.472-3.699,5.022-5.929,7.137c-2.313,2.208-5.034,3.994-7.645,5.855c-3.952,2.804-8.008,5.449-11.929,8.293
		c-2.322,1.685-4.816,2.688-7.661,2.802c-1.793,0.068-3.364-0.48-4.308-2.104c-0.295-0.516-0.455-1.298-0.271-1.83
		c0.089-0.271,1.036-0.271,1.599-0.378c0.132-0.025,0.283,0.009,0.403,0.065c3.447,1.39,6.212,0.083,8.567-2.337
		c5.04-5.209,10.271-10.28,14.899-15.853c2.282-2.746,3.481-6.427,4.979-9.77c0.76-1.71-0.357-3.89-2.128-4.398
		c-0.547-0.157-1.504,0.157-1.897,0.606c-0.849,0.929-1.593,2.02-2.128,3.17c-2.131,4.634-5.025,8.743-8.669,12.285
		c-3.124,3.038-6.393,5.944-9.693,8.795c-0.643,0.563-1.713,0.834-2.595,0.852c-0.723,0.015-1.759-0.35-2.076-0.889
		c-0.271-0.464,0.139-1.51,0.517-2.113c1.99-3.124,4.102-6.175,6.101-9.287c1.024-1.581,2.485-1.679,4.09-1.479
		c2.349,0.301,5.702-1.209,6.498-3.389c0.461-1.245,0.344-2.909-0.074-4.188c-0.489-1.485-2.008-1.879-3.555-1.676
		c-1.467,0.2-2.924,0.418-4.392,0.707c-4.511,0.892-8.835,0.237-13.085-1.369c-0.99-0.384-2.042-0.766-3.088-0.84
		c-1.498-0.086-3.057,0.114-3.678,1.848c-0.507,1.384,0.43,3.404,2.107,4.167c2.205,1,4.517,1.777,6.774,2.685
		c0.71,0.286,1.381,0.661,2.076,1.003C81.172,405.309,81.178,405.527,81.178,405.752z M109.027,363.886
		c-0.148-3.201-0.16-3.238-2.383-6.458c-2.62-3.786-7.728-5.031-11.689-2.817c-1.457,0.827-2.408,0.329-2.743-1.107
		c-0.2-0.916,0.062-1.953,0.209-2.924c0.145-0.981,0.578-1.953,0.556-2.912c-0.021-0.529-0.612-1.243-1.132-1.479
		c-0.396-0.179-1.27,0.083-1.58,0.452c-1.104,1.255-2.405,2.509-2.995,4.019c-1.31,3.364-2.183,6.885-3.337,10.317
		c-1.021,3.044-1.7,6.344-3.383,8.995c-2.577,4.062-5.763,7.765-9.801,10.619c-0.606,0.421-1.024,1.62-0.916,2.371
		c0.071,0.452,1.371,1.098,2.036,1.021c1.725-0.218,3.466-0.612,5.068-1.249c5.234-2.094,10.452-3.515,16.095-1.5
		c2.325,0.83,4.8,1.335,7.233,1.842c5.486,1.141,9.825,4.361,14.167,7.623c0.621,0.461,1.614,0.446,2.435,0.646
		c0.105-0.83,0.474-1.744,0.24-2.46c-0.726-2.232-2.439-3.662-4.459-4.711c-3.377-1.744-6.661-3.77-10.21-5.059
		c-2.844-1.03-6.027-1.138-9.062-1.654c-0.526-0.092-1.083-0.108-1.587-0.261c-1.301-0.39-1.525-1.196-0.44-1.999
		c1.885-1.381,3.949-2.463,6.381-1.716C103.922,375.381,109.445,368.957,109.027,363.886z M136.953,361.54
		c-0.449-0.723-0.981-2.297-2.067-3.094c-1.467-1.052-3.128,0.179-3.795,1.301c-1.285,2.18-2.448,4.607-2.89,7.076
		c-0.415,2.294,2.402,3.909,4.268,2.672C134.966,367.807,136.476,365.411,136.953,361.54z"/>
	<path fill-rule="evenodd" clip-rule="evenodd" d="M98.292,359.295c2.971,0.092,4.859,2.199,4.788,5.338
		c-0.034,1.759-2.672,3.893-4.788,3.872c-2.371-0.025-5.034-2.509-4.997-4.662C93.34,361.481,95.828,359.215,98.292,359.295z"/>
</g>
</svg>
