<?xml version="1.0" encoding="utf-8"?>
<!-- Generator: Adobe Illustrator 16.0.0, SVG Export Plug-In . SVG Version: 6.00 Build 0)  -->
<!DOCTYPE svg PUBLIC "-//W3C//DTD SVG 1.1//EN" "http://www.w3.org/Graphics/SVG/1.1/DTD/svg11.dtd">
<svg version="1.1" id="Layer_1" xmlns="http://www.w3.org/2000/svg" xmlns:xlink="http://www.w3.org/1999/xlink" x="0px" y="0px"
	 width="258px" height="282px" viewBox="0 0 258 282" enable-background="new 0 0 258 282" xml:space="preserve">
<g>
	<path fill="#DC3522" d="M130.346,37.055c0,0-0.932-2.934-5.482-4.386c-4.55-1.453,0.768-7.128,0.768-7.128
		s-0.987,3.948,4.716,4.387c5.702,0.438,25.438,4.824,27.082,29.166c1.645,24.342-20.669,36.842-20.669,36.842
		s-27.96,15.296-27.302,41.282c0.658,25.986,23.958,35.8,40.077,31.964c16.116-3.839,0.877-26.207-24.123-7.566
		c0,0-3.728-1.975-6.469-5.482c0,0,4.276-4.934,15.351-2.412c0,0-0.439-3.398-6.579-4.275c0,0,7.785-6.25,16.886,1.863
		c0,0,0.961-5.043-4.222-7.758c0,0,11.679-2.796,14.474,10.279c0,0,3.373-3.124,2.057-8.799c0,0,7.318,5.592,5.592,15.05
		c-1.727,9.457-7.729,14.228-17.104,16.528c-9.375,2.303-41.752-11.719-43.338-43.009c-1.645-32.44,32.072-37.993,42.433-54.604
		C155.17,61.876,150.74,41.824,130.346,37.055z"/>
	<path fill="#DC3522" d="M115.653,23.239c0,0-1.754-4.715,3.838-7.676c5.592-2.96,9.649-5.263,11.294-12.062
		c0,0,6.688,11.843-1.645,19.737c0,0,8.223,4.276,14.473-3.399c0,0,2.632,5.482-1.205,9.211c0,0,6.797,2.302,13.047-3.51
		c0,0,2.193,7.347-4.385,10.526c0,0,6.469,6.031,13.813,0c0,0,2.084,7.566-5.7,10.417c0,0,1.315,7.675,11.403,7.018
		c0,0-1.536,6.359-8.663,5.701c0,0-1.314,6.305,7.154,7.867c0,0-2.878,3.29-9.456,2.468c0,0-1.151,5.921,5.838,6.085
		c0,0-3.289,3.701-8.224,1.233c0,0-1.893,1.535-0.356,5.044c1.536,3.509,0.658,7.895-2.083,10.307c0,0,1.206-4.934-2.303-7.346
		c0,0,2.413,8.034-8.441,16.298c-10.857,8.263-14.365,12.539-14.475,22.298c-0.109,9.759,9.759,10.307,9.759,10.307
		s-8.114,3.29-12.774-4.057c-4.66-7.347-0.713-18.859,3.125-23.465c5.429-7.511,15.569-14.912,15.569-14.912
		s14.146-10.854,13.487-31.469c-0.658-20.614-13.926-26.974-19.188-28.837c-3.535-1.252-6.972-1.911-8.847-2.208
		c-0.974-0.154-1.878-0.597-2.597-1.271l0,0c-0.989-0.929-1.55-2.225-1.55-3.582v-0.121
		C126.563,23.842,121.629,22.69,115.653,23.239z"/>
	<path fill="#DC3522" d="M94.134,65.93c-1.634-2.372-1.59-3.934-0.037-2.657c1.553,1.282,4.85,2.724,4.85,2.724
		s-3.814-3.499-3.589-4.009c0.225-0.51,2.58,0.134,2.58,0.134s-3.229-1.405-2.054-3.284c1.178-1.881,2.982,0.493,2.982,0.493
		c-1.472-3.231,1.117-3.407,1.117-3.407c0.307,1.757,2.788,2.788,2.788,2.788s-1.785-2.316-0.617-2.706
		c1.165-0.388,2.101,1.405,2.101,1.405c0.243-0.543-0.44-1.835-0.44-1.835s4.518,0.631,5.626-1.876
		c1.108-2.508,1.498-3.486,1.498-3.486c0.137,0.099,0.268,0.198,0.396,0.298c0.388,1.088,1.458,4.762-0.795,7.161
		c-2.669,2.843,0.233,7.24-0.148,11.183c0,0,1.568-2.939,1.43-6.807c-0.092-2.577,2-3.886,3.021-6.521
		c0.274,1.465-0.152,2.432-0.152,2.432c2.602,1.459,0.813,3.446,0.813,3.446c1.008,0.566,0.953,1.852,0.953,1.852
		c-0.828-0.47-2.124,0.896-2.124,0.896s2.146,0.525,2.778,2.42c0.633,1.899-3.234,1.449-3.234,1.449
		c3.245,2.016,2.779,2.999,2.357,3.865c-0.417,0.857-2.412,0.369-2.412,0.369c0.158,1.312,2.215,1.737,2.215,1.737
		c-0.932,2.11-3.095,0.35-3.095,0.35c0.046,1.661,2.512,2.638,2.512,2.638c-2.211,1.979-5.084-1.404-5.084-1.404
		c0.985,2.954,4.054,4.225,4.054,4.225c-1.646,1.483,5.558,0.237,5.558,0.237c-0.819-3.265,0.88-6.101,0.505-9.939
		c-0.379-3.843,2.027-8.114,3.547-8.621c1.523-0.508,3.836-3.202,3.836-3.202c-11.029,0.005-4.925-13.656,4.121-6.825
		c0.923,0.697,1.764,1.508,2.468,2.427c5.242,6.835,1.355,16.16-3.543,21.965c-5.959,7.063-15.265,10.602-22.057,16.824
		c-15.338,14.051-27.256,37.931-16.999,58.2c13.816,27.302,44.08,26.479,44.08,26.479c-31.416-10.524-38.486-36.513-34.494-55.098
		c3.993-18.585,24.625-29.111,31.367-33.717c6.744-4.605,14.967-13.486,14.967-27.138s-11.842-22.697-19.571-22.121
		c-7.73,0.575-6.825,7.154-6.825,7.154c-1.48-10.033,6.825-9.211,6.825-9.211c-3.207-4.111-7.977-2.467-7.895-6.003
		c0.082-3.536,3.125-6.25,3.125-6.25c-20.806,1.151-17.599,3.372-16.776,8.553c0.446,2.808-1.317,5.195-3.025,6.795
		c1.806-17.334-7.035-26.596-7.035-26.596c4.366,6.26,5.069,22.088,2.941,26.045c-0.851,1.581-1.271,2.923-1.47,3.966
		c-4.796,16.565-9.745,12.052-9.745,12.052c-2.504,5.669-1.454,6.618,0.278,7.593c1.732,0.97,3.869,3.077,3.869,3.077
		c4.1,5.111,7.359,3.9,7.359,3.9C98.59,70.331,95.771,68.295,94.134,65.93z M107.759,40.893c1.371-3.454,5.428-3.619,4.77-8.224
		c0,0,1.896,3.549-0.274,6.281c-1.151,1.449,1.371,2.765,1.919-0.964c0,0,0.987,8.772-5.154,7.237
		C108.828,45.176,106.388,44.346,107.759,40.893z M100.716,51.932c0.443-0.549,0.864-1.407,1.144-2.415
		c0.203-0.731,0.301-1.435,0.303-2.031c0.684,0.173,1.282,0.651,1.581,1.351c0.508,1.19-0.044,2.566-1.234,3.075
		C101.914,52.165,101.272,52.154,100.716,51.932z"/>
	<path fill="#DC3522" d="M112.529,32.669c0,0,1.896,3.549-0.274,6.281c-1.151,1.449,1.371,2.765,1.919-0.964
		c0,0,0.987,8.772-5.154,7.237c-0.191-0.048-2.631-0.878-1.261-4.331C109.129,37.438,113.187,37.273,112.529,32.669z"/>
	<g>
		<g>
			<path fill="#DC3522" d="M127.59,50.924c0,0-0.054-0.04-0.154-0.114c-0.094-0.076-0.262-0.18-0.418-0.329
				c-0.164-0.146-0.375-0.32-0.569-0.536c-0.102-0.105-0.21-0.219-0.325-0.337c-0.11-0.126-0.188-0.295-0.291-0.457
				c-0.189-0.335-0.379-0.719-0.557-1.144c-0.198-0.435-0.253-0.854-0.355-1.324c-0.085-0.463-0.18-0.952-0.144-1.444
				c0.015-0.493,0.052-0.997,0.113-1.497c0.12-0.488,0.26-0.973,0.42-1.439c0.138-0.475,0.402-0.896,0.642-1.3
				c0.257-0.397,0.469-0.791,0.789-1.098c0.304-0.314,0.605-0.594,0.892-0.834c0.151-0.115,0.276-0.235,0.428-0.326
				c0.157-0.083,0.307-0.162,0.447-0.237c0.27-0.151,0.535-0.25,0.743-0.333c0.202-0.088,0.392-0.124,0.506-0.16
				c0.118-0.031,0.181-0.048,0.181-0.048s-0.002,0.068-0.01,0.197c-0.01,0.124-0.002,0.324-0.031,0.534
				c-0.024,0.217-0.041,0.481-0.095,0.746c-0.049,0.269-0.089,0.571-0.112,0.902c-0.035,0.322-0.084,0.654-0.148,0.985
				c-0.087,0.32-0.075,0.699-0.15,1.041c-0.053,0.352-0.158,0.689-0.182,1.057c-0.049,0.358-0.121,0.713-0.214,1.063
				c-0.038,0.359-0.098,0.716-0.18,1.068c-0.111,0.352-0.126,0.703-0.204,1.051c-0.051,0.337-0.195,0.713-0.229,1.008
				c-0.058,0.309-0.135,0.619-0.219,0.925c-0.103,0.295-0.162,0.628-0.199,0.922c-0.035,0.288-0.108,0.552-0.158,0.767
				c-0.042,0.212-0.121,0.393-0.154,0.509C127.611,50.86,127.59,50.924,127.59,50.924z"/>
			<path fill="#DC3522" d="M139.893,41.664c0,0-0.14,0.269-0.42,0.662c-0.141,0.194-0.309,0.438-0.518,0.685
				c-0.215,0.245-0.454,0.521-0.629,0.824c-0.198,0.293-0.408,0.586-0.633,0.865c-0.23,0.252-0.438,0.648-0.688,0.948
				c-0.238,0.326-0.521,0.614-0.74,0.971c-0.229,0.345-0.494,0.662-0.757,0.981c-0.229,0.345-0.454,0.69-0.719,1.009
				c-0.274,0.314-0.472,0.664-0.712,0.987c-0.217,0.332-0.529,0.621-0.711,0.947c-0.209,0.315-0.43,0.617-0.652,0.9
				c-0.244,0.279-0.427,0.554-0.593,0.805c-0.17,0.25-0.353,0.471-0.497,0.66c-0.294,0.376-0.514,0.604-0.514,0.604
				s-0.146-0.25-0.31-0.712c-0.079-0.23-0.184-0.518-0.264-0.852c-0.093-0.337-0.165-0.718-0.16-1.126
				c-0.01-0.412-0.001-0.863,0.034-1.344c0.015-0.488,0.186-0.952,0.318-1.457c0.154-0.494,0.295-1.028,0.586-1.488
				c0.252-0.483,0.552-0.953,0.847-1.423c0.364-0.418,0.729-0.837,1.12-1.219c0.359-0.407,0.824-0.699,1.255-0.987
				c0.448-0.277,0.825-0.558,1.313-0.734c0.467-0.186,0.91-0.332,1.314-0.445c0.204-0.048,0.396-0.115,0.576-0.135
				c0.182-0.008,0.348-0.022,0.512-0.023c0.323-0.012,0.618,0.008,0.857,0.016C139.596,41.607,139.893,41.664,139.893,41.664z"/>
			<path fill="#DC3522" d="M146.773,49.604c0,0-0.222,0.206-0.617,0.482c-0.199,0.135-0.439,0.308-0.719,0.47
				c-0.287,0.157-0.604,0.335-0.871,0.563c-0.285,0.209-0.582,0.414-0.887,0.602c-0.304,0.158-0.633,0.462-0.97,0.66
				c-0.334,0.227-0.696,0.401-1.022,0.663c-0.332,0.247-0.688,0.457-1.045,0.669c-0.332,0.247-0.66,0.496-1.017,0.707
				c-0.364,0.203-0.669,0.466-1.004,0.688c-0.315,0.24-0.707,0.407-0.988,0.652c-0.304,0.227-0.612,0.436-0.919,0.628
				c-0.322,0.18-0.589,0.376-0.828,0.557c-0.246,0.178-0.492,0.324-0.691,0.453c-0.403,0.255-0.688,0.396-0.688,0.396
				s-0.052-0.284-0.052-0.774c0.003-0.244,0.002-0.55,0.039-0.892c0.026-0.348,0.087-0.731,0.229-1.114
				c0.129-0.391,0.289-0.813,0.484-1.253c0.18-0.454,0.495-0.834,0.791-1.264c0.313-0.413,0.624-0.868,1.055-1.204
				c0.4-0.369,0.84-0.71,1.276-1.054c0.485-0.271,0.97-0.541,1.466-0.769c0.477-0.262,1.014-0.379,1.516-0.505
				c0.517-0.11,0.965-0.247,1.484-0.248c0.502-0.018,0.969-0.006,1.389,0.024c0.207,0.023,0.41,0.025,0.588,0.068
				c0.172,0.053,0.334,0.095,0.49,0.15c0.307,0.098,0.578,0.215,0.801,0.305C146.514,49.45,146.773,49.604,146.773,49.604z"/>
			<path fill="#DC3522" d="M149.594,62.119c0,0-0.295,0.069-0.775,0.114c-0.238,0.019-0.532,0.051-0.855,0.053
				c-0.326-0.004-0.689-0.006-1.035,0.06c-0.352,0.04-0.71,0.072-1.068,0.084c-0.342-0.012-0.777,0.09-1.168,0.096
				c-0.401,0.031-0.805,0.005-1.217,0.07c-0.412,0.051-0.824,0.057-1.238,0.065c-0.41,0.05-0.82,0.104-1.233,0.111
				c-0.417-0.003-0.812,0.075-1.213,0.104c-0.394,0.053-0.815,0.004-1.183,0.078c-0.375,0.047-0.748,0.075-1.107,0.092
				c-0.37-0.003-0.698,0.036-0.996,0.074c-0.301,0.033-0.588,0.039-0.824,0.053c-0.478,0.022-0.794,0.005-0.794,0.005
				s0.095-0.273,0.339-0.699c0.123-0.211,0.272-0.477,0.473-0.755c0.195-0.29,0.438-0.593,0.752-0.855
				c0.306-0.275,0.652-0.563,1.041-0.85c0.38-0.307,0.843-0.48,1.313-0.708c0.477-0.205,0.973-0.446,1.512-0.525
				c0.531-0.123,1.082-0.202,1.631-0.284c0.556,0.005,1.111,0.009,1.654,0.056c0.545,0.008,1.067,0.171,1.566,0.31
				c0.503,0.16,0.962,0.263,1.413,0.519c0.444,0.232,0.846,0.474,1.194,0.707c0.17,0.124,0.345,0.226,0.478,0.351
				c0.124,0.131,0.244,0.248,0.353,0.372c0.219,0.237,0.396,0.474,0.547,0.661C149.443,61.857,149.594,62.119,149.594,62.119z"/>
			<path fill="#DC3522" d="M146.859,73.383c0,0-0.303-0.024-0.773-0.132c-0.232-0.056-0.523-0.117-0.83-0.215
				c-0.311-0.104-0.654-0.22-1.003-0.264c-0.347-0.07-0.698-0.151-1.042-0.25c-0.32-0.118-0.768-0.156-1.141-0.271
				c-0.394-0.095-0.768-0.244-1.18-0.31c-0.406-0.079-0.803-0.201-1.197-0.321c-0.406-0.079-0.813-0.154-1.209-0.275
				c-0.396-0.133-0.795-0.181-1.185-0.277c-0.391-0.071-0.776-0.249-1.147-0.292c-0.373-0.071-0.735-0.159-1.084-0.255
				c-0.351-0.117-0.674-0.182-0.969-0.238c-0.297-0.062-0.572-0.145-0.801-0.205c-0.46-0.126-0.756-0.24-0.756-0.24
				s0.175-0.23,0.538-0.561c0.183-0.162,0.407-0.368,0.685-0.571c0.275-0.216,0.601-0.428,0.979-0.581
				c0.376-0.168,0.796-0.333,1.253-0.486c0.457-0.174,0.95-0.195,1.467-0.267c0.517-0.047,1.063-0.124,1.601-0.032
				c0.543,0.048,1.092,0.144,1.641,0.234c0.525,0.177,1.053,0.353,1.555,0.565c0.516,0.176,0.963,0.493,1.395,0.779
				c0.431,0.309,0.834,0.548,1.185,0.931c0.351,0.359,0.656,0.712,0.917,1.042c0.122,0.17,0.26,0.321,0.346,0.48
				c0.078,0.164,0.155,0.313,0.219,0.464c0.136,0.293,0.231,0.573,0.316,0.798C146.797,73.087,146.859,73.383,146.859,73.383z"/>
			<path fill="#DC3522" d="M140.57,83.463c0,0-0.271-0.137-0.666-0.412c-0.195-0.14-0.44-0.306-0.688-0.512
				c-0.247-0.213-0.524-0.449-0.83-0.622c-0.294-0.195-0.59-0.401-0.87-0.623c-0.255-0.229-0.654-0.433-0.955-0.68
				c-0.328-0.235-0.619-0.516-0.979-0.73c-0.346-0.227-0.667-0.487-0.988-0.748c-0.347-0.227-0.693-0.448-1.016-0.709
				c-0.316-0.272-0.668-0.466-0.994-0.703c-0.334-0.213-0.626-0.522-0.954-0.702c-0.317-0.205-0.622-0.424-0.907-0.644
				c-0.281-0.24-0.557-0.421-0.81-0.585c-0.251-0.169-0.475-0.349-0.665-0.491c-0.379-0.29-0.61-0.507-0.61-0.507
				s0.249-0.147,0.709-0.316c0.23-0.082,0.516-0.188,0.848-0.272c0.336-0.097,0.717-0.172,1.125-0.171
				c0.412-0.014,0.863-0.009,1.345,0.021c0.487,0.011,0.954,0.176,1.459,0.305c0.496,0.15,1.03,0.285,1.495,0.571
				c0.484,0.248,0.958,0.543,1.431,0.834c0.421,0.361,0.845,0.723,1.229,1.108c0.412,0.356,0.707,0.819,1,1.246
				c0.281,0.447,0.563,0.82,0.746,1.307c0.188,0.465,0.342,0.907,0.457,1.311c0.051,0.204,0.119,0.396,0.141,0.576
				c0.01,0.181,0.027,0.348,0.027,0.512c0.016,0.322,0,0.617-0.006,0.857C140.625,83.165,140.57,83.463,140.57,83.463z"/>
			<path fill="#DC3522" d="M133.532,89.592c0,0-0.263-0.151-0.642-0.449c-0.188-0.15-0.424-0.329-0.66-0.549
				c-0.234-0.227-0.498-0.479-0.793-0.667c-0.285-0.212-0.566-0.435-0.836-0.672c-0.24-0.243-0.627-0.468-0.914-0.731
				c-0.314-0.254-0.589-0.549-0.936-0.784c-0.333-0.246-0.639-0.524-0.946-0.803c-0.333-0.245-0.668-0.486-0.974-0.765
				c-0.301-0.289-0.642-0.503-0.953-0.757c-0.322-0.231-0.596-0.558-0.913-0.755c-0.306-0.223-0.597-0.458-0.87-0.693
				c-0.267-0.256-0.533-0.452-0.776-0.63c-0.241-0.182-0.454-0.374-0.636-0.526c-0.362-0.312-0.581-0.541-0.581-0.541
				s0.257-0.134,0.726-0.276c0.234-0.069,0.526-0.159,0.863-0.225c0.34-0.077,0.725-0.131,1.132-0.107
				c0.412,0.01,0.862,0.039,1.34,0.096c0.487,0.038,0.942,0.229,1.44,0.386c0.487,0.178,1.013,0.343,1.46,0.654
				c0.471,0.275,0.926,0.596,1.381,0.913c0.4,0.384,0.803,0.769,1.166,1.176c0.391,0.379,0.66,0.856,0.928,1.3
				c0.256,0.462,0.52,0.851,0.672,1.347c0.164,0.475,0.29,0.924,0.385,1.334c0.037,0.206,0.096,0.4,0.106,0.582
				c-0.001,0.181,0.007,0.349,0,0.513c-0.003,0.322-0.036,0.617-0.056,0.855C133.602,89.298,133.532,89.592,133.532,89.592z"/>
			<path fill="#DC3522" d="M124.865,95.394c0,0-0.244-0.178-0.591-0.515c-0.17-0.17-0.386-0.372-0.598-0.616
				c-0.209-0.251-0.444-0.528-0.718-0.748c-0.259-0.24-0.517-0.492-0.759-0.756c-0.213-0.268-0.574-0.532-0.832-0.825
				c-0.286-0.285-0.527-0.608-0.847-0.879c-0.305-0.279-0.579-0.589-0.855-0.898c-0.305-0.279-0.612-0.555-0.887-0.863
				c-0.269-0.319-0.584-0.568-0.867-0.854c-0.295-0.264-0.534-0.617-0.828-0.847c-0.28-0.255-0.544-0.52-0.791-0.782
				c-0.238-0.283-0.482-0.506-0.705-0.709c-0.221-0.206-0.412-0.42-0.576-0.591c-0.327-0.349-0.52-0.6-0.52-0.6
				s0.27-0.105,0.751-0.198c0.24-0.043,0.54-0.103,0.882-0.131c0.347-0.041,0.735-0.054,1.138,0.014
				c0.408,0.053,0.853,0.13,1.323,0.237c0.48,0.089,0.913,0.328,1.392,0.536c0.465,0.229,0.971,0.448,1.382,0.806
				c0.439,0.324,0.857,0.69,1.277,1.055c0.357,0.425,0.716,0.85,1.033,1.292c0.349,0.419,0.566,0.923,0.785,1.392
				c0.206,0.486,0.426,0.901,0.526,1.41c0.112,0.49,0.19,0.95,0.24,1.367c0.016,0.21,0.053,0.409,0.044,0.591
				c-0.02,0.18-0.03,0.348-0.055,0.51c-0.038,0.32-0.101,0.609-0.146,0.846C124.966,95.108,124.865,95.394,124.865,95.394z"/>
			<path fill="#DC3522" d="M117.354,100.897c0,0-0.244-0.178-0.591-0.515c-0.17-0.17-0.386-0.372-0.598-0.616
				c-0.209-0.251-0.444-0.528-0.718-0.748c-0.259-0.24-0.517-0.491-0.759-0.756c-0.213-0.268-0.574-0.532-0.832-0.825
				c-0.286-0.285-0.527-0.608-0.846-0.879c-0.306-0.279-0.58-0.589-0.855-0.897c-0.306-0.279-0.613-0.556-0.888-0.864
				c-0.269-0.319-0.584-0.568-0.867-0.854c-0.295-0.264-0.533-0.617-0.828-0.847c-0.281-0.255-0.545-0.52-0.791-0.782
				c-0.239-0.283-0.482-0.506-0.705-0.708c-0.221-0.207-0.412-0.421-0.577-0.592c-0.327-0.349-0.52-0.6-0.52-0.6
				s0.27-0.105,0.751-0.198c0.24-0.043,0.54-0.103,0.882-0.131c0.347-0.041,0.735-0.054,1.138,0.014
				c0.408,0.053,0.853,0.13,1.323,0.237c0.48,0.09,0.913,0.328,1.391,0.536c0.465,0.229,0.971,0.448,1.382,0.807
				c0.439,0.323,0.857,0.69,1.277,1.054c0.357,0.425,0.716,0.85,1.033,1.293c0.349,0.418,0.566,0.922,0.785,1.391
				c0.206,0.486,0.426,0.901,0.526,1.41c0.112,0.49,0.19,0.95,0.24,1.368c0.016,0.209,0.053,0.408,0.045,0.591
				c-0.02,0.179-0.03,0.347-0.055,0.509c-0.037,0.32-0.101,0.609-0.146,0.846C117.455,100.612,117.354,100.897,117.354,100.897z"/>
			<path fill="#DC3522" d="M110.208,108.225c0,0-0.244-0.178-0.591-0.515c-0.17-0.17-0.386-0.372-0.598-0.616
				c-0.209-0.25-0.444-0.528-0.718-0.747c-0.259-0.24-0.517-0.492-0.759-0.756c-0.213-0.268-0.574-0.533-0.832-0.825
				c-0.286-0.285-0.527-0.608-0.847-0.879c-0.305-0.279-0.579-0.589-0.855-0.898c-0.305-0.279-0.612-0.555-0.887-0.863
				c-0.269-0.319-0.584-0.568-0.867-0.854c-0.295-0.264-0.534-0.617-0.828-0.847c-0.28-0.255-0.544-0.52-0.791-0.782
				c-0.238-0.283-0.481-0.506-0.704-0.708c-0.221-0.207-0.412-0.421-0.577-0.592c-0.327-0.349-0.52-0.6-0.52-0.6
				s0.27-0.105,0.751-0.198c0.24-0.043,0.54-0.103,0.882-0.131c0.347-0.041,0.735-0.054,1.138,0.014
				c0.408,0.053,0.853,0.13,1.322,0.237c0.48,0.089,0.913,0.328,1.392,0.536c0.465,0.229,0.971,0.448,1.382,0.806
				c0.439,0.323,0.857,0.69,1.277,1.054c0.357,0.425,0.716,0.85,1.033,1.293c0.348,0.418,0.565,0.922,0.785,1.392
				c0.206,0.486,0.426,0.9,0.525,1.409c0.113,0.49,0.19,0.95,0.24,1.368c0.017,0.209,0.053,0.408,0.045,0.591
				c-0.02,0.179-0.03,0.347-0.055,0.509c-0.038,0.32-0.101,0.609-0.146,0.846C110.31,107.939,110.208,108.225,110.208,108.225z"/>
			<path fill="#DC3522" d="M105.51,115.107c0,0-0.274-0.129-0.678-0.393c-0.199-0.135-0.449-0.292-0.704-0.491
				c-0.253-0.206-0.537-0.435-0.848-0.598c-0.3-0.187-0.601-0.385-0.889-0.598c-0.261-0.222-0.665-0.413-0.974-0.652
				c-0.335-0.226-0.634-0.496-0.998-0.701c-0.353-0.217-0.681-0.468-1.01-0.719c-0.353-0.217-0.707-0.429-1.036-0.68
				c-0.324-0.263-0.682-0.446-1.014-0.674c-0.34-0.203-0.641-0.504-0.974-0.674c-0.324-0.196-0.633-0.406-0.925-0.617
				c-0.288-0.232-0.569-0.405-0.826-0.562c-0.256-0.161-0.484-0.335-0.679-0.472c-0.387-0.279-0.624-0.489-0.624-0.489
				s0.245-0.154,0.7-0.337c0.227-0.089,0.51-0.203,0.841-0.297c0.333-0.106,0.711-0.192,1.119-0.203
				c0.411-0.025,0.862-0.034,1.344-0.019c0.489-0.004,0.958,0.148,1.468,0.262c0.5,0.137,1.038,0.256,1.51,0.528
				c0.493,0.234,0.973,0.516,1.455,0.792c0.431,0.35,0.864,0.698,1.26,1.072c0.421,0.345,0.73,0.798,1.035,1.217
				c0.295,0.438,0.589,0.804,0.784,1.284c0.204,0.46,0.368,0.897,0.496,1.297c0.056,0.202,0.13,0.392,0.156,0.571
				c0.015,0.181,0.037,0.347,0.043,0.511c0.024,0.322,0.017,0.618,0.017,0.857C105.556,114.809,105.51,115.107,105.51,115.107z"/>
			<path fill="#DC3522" d="M102.16,124.786c0,0-0.3-0.035-0.768-0.157c-0.231-0.063-0.519-0.134-0.823-0.241
				c-0.305-0.115-0.646-0.241-0.993-0.298c-0.344-0.081-0.692-0.173-1.033-0.284c-0.318-0.127-0.762-0.181-1.131-0.308
				c-0.389-0.107-0.758-0.27-1.169-0.349c-0.403-0.093-0.794-0.227-1.186-0.36c-0.403-0.093-0.807-0.181-1.198-0.314
				c-0.391-0.146-0.789-0.207-1.175-0.316c-0.387-0.084-0.769-0.274-1.138-0.329c-0.37-0.084-0.73-0.184-1.074-0.291
				c-0.347-0.129-0.668-0.203-0.962-0.27c-0.294-0.071-0.566-0.163-0.793-0.231c-0.456-0.142-0.748-0.266-0.748-0.266
				s0.183-0.225,0.556-0.542c0.187-0.156,0.419-0.354,0.703-0.549c0.282-0.206,0.613-0.408,0.997-0.549
				c0.381-0.154,0.807-0.307,1.269-0.444c0.461-0.158,0.956-0.164,1.475-0.219c0.517-0.029,1.066-0.088,1.6,0.021
				c0.542,0.064,1.086,0.179,1.631,0.288c0.52,0.193,1.042,0.387,1.536,0.616c0.509,0.192,0.947,0.523,1.368,0.824
				c0.419,0.322,0.814,0.574,1.152,0.969c0.339,0.37,0.633,0.733,0.882,1.071c0.117,0.174,0.248,0.33,0.33,0.492
				c0.071,0.166,0.145,0.316,0.203,0.47c0.125,0.298,0.212,0.581,0.289,0.809C102.108,124.488,102.16,124.786,102.16,124.786z"/>
			<path fill="#DC3522" d="M101.475,135.116c0,0-0.319-0.003-0.83-0.077c-0.253-0.04-0.566-0.081-0.904-0.158
				c-0.172-0.033-0.347-0.082-0.535-0.127c-0.179-0.02-0.367-0.04-0.563-0.062c-0.38-0.048-0.77-0.106-1.156-0.187
				c-0.38-0.086-0.856-0.103-1.282-0.193c-0.221-0.032-0.438-0.082-0.657-0.132c-0.216-0.058-0.455-0.049-0.679-0.095
				c-0.458-0.05-0.907-0.157-1.362-0.236c-0.459-0.054-0.918-0.103-1.37-0.196c-0.452-0.106-0.901-0.116-1.343-0.19
				c-0.439-0.045-0.881-0.197-1.293-0.209c-0.416-0.046-0.821-0.108-1.207-0.18c-0.391-0.094-0.747-0.133-1.071-0.171
				c-0.325-0.041-0.625-0.105-0.875-0.151c-0.501-0.097-0.82-0.192-0.82-0.192s0.187-0.244,0.57-0.599
				c0.192-0.175,0.43-0.396,0.721-0.618c0.288-0.233,0.629-0.468,1.027-0.646c0.395-0.191,0.836-0.384,1.314-0.566
				c0.477-0.209,1-0.261,1.545-0.367c0.545-0.077,1.119-0.202,1.697-0.148c0.58,0.008,1.169,0.063,1.758,0.114
				c0.577,0.122,1.152,0.27,1.706,0.44c0.563,0.138,1.08,0.402,1.569,0.665c0.492,0.271,0.95,0.494,1.37,0.833
				c0.418,0.335,0.79,0.668,1.112,0.982c0.158,0.161,0.312,0.308,0.443,0.459c0.106,0.161,0.212,0.308,0.303,0.459
				c0.188,0.29,0.333,0.57,0.458,0.795C101.363,134.817,101.475,135.116,101.475,135.116z"/>
			<path fill="#DC3522" d="M103.349,144.343c0,0-0.307,0.106-0.821,0.212c-0.256,0.049-0.57,0.116-0.921,0.159
				c-0.177,0.027-0.361,0.04-0.557,0.063c-0.191,0.033-0.372,0.086-0.565,0.131c-0.381,0.089-0.775,0.17-1.173,0.23
				c-0.386,0.03-0.851,0.204-1.286,0.269c-0.444,0.094-0.898,0.125-1.349,0.265c-0.451,0.119-0.912,0.196-1.373,0.275
				c-0.45,0.127-0.898,0.258-1.357,0.343c-0.465,0.071-0.889,0.233-1.328,0.343c-0.425,0.135-0.899,0.163-1.288,0.319
				c-0.403,0.128-0.805,0.235-1.192,0.327c-0.402,0.074-0.748,0.187-1.062,0.289c-0.317,0.101-0.622,0.168-0.872,0.232
				c-0.504,0.125-0.84,0.174-0.84,0.174s0.073-0.303,0.285-0.791c0.107-0.242,0.238-0.547,0.419-0.873
				c0.087-0.168,0.191-0.336,0.298-0.521c0.114-0.176,0.261-0.326,0.403-0.504c0.294-0.34,0.633-0.7,1.011-1.067
				c0.367-0.388,0.846-0.643,1.321-0.962c0.486-0.294,0.986-0.633,1.559-0.805c0.558-0.217,1.142-0.395,1.724-0.573
				c0.603-0.087,1.206-0.176,1.802-0.219c0.592-0.086,1.187-0.001,1.751,0.06c0.572,0.082,1.089,0.107,1.62,0.301
				c0.521,0.168,0.997,0.352,1.417,0.533c0.207,0.1,0.415,0.176,0.583,0.281c0.16,0.116,0.313,0.219,0.454,0.329
				c0.284,0.21,0.524,0.424,0.723,0.593C103.134,144.1,103.349,144.343,103.349,144.343z"/>
			<path fill="#DC3522" d="M108.997,155.58c0,0-0.249,0.208-0.693,0.486c-0.223,0.138-0.492,0.313-0.805,0.477
				c-0.156,0.089-0.323,0.166-0.499,0.256c-0.167,0.1-0.318,0.213-0.482,0.322c-0.326,0.218-0.665,0.434-1.016,0.63
				c-0.35,0.166-0.723,0.493-1.108,0.706c-0.382,0.245-0.795,0.436-1.168,0.725c-0.379,0.271-0.783,0.508-1.187,0.744
				c-0.376,0.277-0.749,0.559-1.147,0.801c-0.41,0.23-0.75,0.532-1.121,0.789c-0.351,0.275-0.783,0.471-1.091,0.754
				c-0.332,0.264-0.669,0.506-0.999,0.729c-0.35,0.211-0.634,0.438-0.891,0.646c-0.262,0.207-0.522,0.377-0.733,0.525
				c-0.427,0.295-0.724,0.459-0.724,0.459s-0.038-0.309-0.013-0.84c0.015-0.266,0.029-0.596,0.083-0.966
				c0.022-0.188,0.06-0.382,0.095-0.593c0.044-0.205,0.128-0.396,0.199-0.613c0.155-0.424,0.344-0.879,0.568-1.355
				c0.206-0.492,0.564-0.9,0.896-1.367c0.351-0.446,0.698-0.94,1.173-1.305c0.445-0.4,0.929-0.771,1.41-1.146
				c0.533-0.295,1.066-0.59,1.609-0.842c0.523-0.289,1.109-0.422,1.659-0.564c0.564-0.124,1.058-0.283,1.622-0.291
				c0.547-0.027,1.057-0.023,1.515-0.002c0.228,0.02,0.45,0.018,0.645,0.057c0.19,0.053,0.37,0.094,0.541,0.147
				c0.34,0.096,0.64,0.211,0.886,0.299C108.71,155.43,108.997,155.58,108.997,155.58z"/>
			<path fill="#DC3522" d="M117.475,165.286c0,0-0.208,0.249-0.595,0.604c-0.194,0.174-0.428,0.395-0.707,0.611
				c-0.137,0.114-0.288,0.221-0.445,0.341c-0.147,0.128-0.274,0.265-0.417,0.404c-0.281,0.272-0.577,0.544-0.887,0.801
				c-0.314,0.228-0.623,0.615-0.963,0.894c-0.332,0.311-0.705,0.572-1.019,0.924c-0.325,0.335-0.68,0.639-1.034,0.943
				c-0.32,0.342-0.637,0.686-0.985,0.993c-0.362,0.302-0.642,0.659-0.961,0.979c-0.295,0.334-0.686,0.604-0.938,0.938
				c-0.279,0.318-0.567,0.618-0.852,0.896c-0.306,0.27-0.545,0.545-0.76,0.796c-0.221,0.249-0.446,0.464-0.627,0.647
				c-0.367,0.366-0.63,0.582-0.63,0.582s-0.093-0.298-0.164-0.824c-0.033-0.264-0.078-0.592-0.091-0.965
				c-0.012-0.188-0.009-0.387-0.013-0.601c0.006-0.209,0.055-0.414,0.085-0.64c0.077-0.443,0.181-0.926,0.316-1.437
				c0.115-0.521,0.393-0.987,0.636-1.506c0.265-0.503,0.519-1.051,0.92-1.493c0.366-0.474,0.775-0.927,1.182-1.381
				c0.472-0.385,0.943-0.771,1.431-1.117c0.462-0.379,1.016-0.613,1.531-0.853c0.533-0.224,0.989-0.47,1.543-0.578
				c0.534-0.125,1.035-0.214,1.49-0.274c0.228-0.021,0.445-0.063,0.645-0.059c0.197,0.018,0.381,0.023,0.558,0.047
				c0.352,0.033,0.667,0.094,0.925,0.135C117.166,165.188,117.475,165.286,117.475,165.286z"/>
			<path fill="#DC3522" d="M126.481,171.865c0,0-0.208,0.248-0.595,0.604c-0.194,0.174-0.428,0.396-0.707,0.612
				c-0.137,0.114-0.288,0.221-0.444,0.341c-0.147,0.127-0.275,0.266-0.417,0.403c-0.281,0.272-0.577,0.545-0.887,0.802
				c-0.314,0.227-0.623,0.615-0.963,0.895c-0.332,0.31-0.705,0.57-1.019,0.922c-0.325,0.336-0.68,0.64-1.034,0.945
				c-0.32,0.34-0.637,0.684-0.986,0.992c-0.361,0.301-0.641,0.658-0.961,0.979c-0.295,0.334-0.686,0.604-0.938,0.938
				c-0.28,0.317-0.567,0.617-0.853,0.896c-0.306,0.27-0.545,0.545-0.76,0.796c-0.221,0.249-0.446,0.464-0.627,0.647
				c-0.368,0.366-0.63,0.581-0.63,0.581s-0.093-0.297-0.164-0.823c-0.032-0.264-0.078-0.592-0.091-0.965
				c-0.012-0.188-0.009-0.387-0.013-0.601c0.007-0.209,0.055-0.414,0.085-0.64c0.077-0.443,0.181-0.926,0.316-1.437
				c0.115-0.521,0.393-0.987,0.636-1.506c0.265-0.502,0.518-1.052,0.92-1.493c0.366-0.475,0.775-0.926,1.182-1.381
				c0.472-0.385,0.943-0.771,1.431-1.116c0.463-0.379,1.016-0.612,1.531-0.853c0.533-0.225,0.989-0.471,1.543-0.578
				c0.533-0.125,1.035-0.215,1.49-0.274c0.228-0.021,0.445-0.063,0.645-0.059c0.197,0.017,0.381,0.024,0.559,0.047
				c0.352,0.033,0.667,0.094,0.925,0.135C126.172,171.768,126.481,171.865,126.481,171.865z"/>
		</g>
	</g>
	<g>
		<path fill="#DC3522" d="M171.693,100.703c-12.729,0.494,6.238-0.305,12.992-21.41c3.299-10.301,2.631-20.591,1.666-26.707
			c-0.436-2.748-1.133-5.448-2.061-8.07c-3.339-9.437-5.126-15.338-10.221-20.152c18.316,4.992,52.347,21.373,66.986,74.924
			c0,0-8.717-67.738-77.295-82.101c-9.432-4.9-18.658-6.313-18.658-6.313s64.32-7.302,90.049,44.502
			c25.729,51.805,12.996,89.019,7.26,140.386s3.65,81.092,3.65,81.092c-19.816-34.68-14.862-93.607-10.17-126.982
			c4.693-33.375-3.91-45.108-3.91-45.108c0.261,20.077-3.912,47.977-7.088,65.708c-3.175,17.73,0,58.398,0,58.398
			c-10.082-27.119-7.475-68.319-5.041-98.915c2.435-30.596-7.475-34.072-7.475-34.072c6.432,14.776-2.26,37.896-4.868,61.714
			c-2.606,23.814,1.565,39.809,1.565,39.809c-8.52-8.691-10.432-37.027-7.997-63.625c2.435-26.597-2.435-33.898-2.435-33.898
			c0,5.216-2.435,10.257-5.041,19.817c-2.607,9.562-2.435,23.989-2.435,23.989s-5.244-12.821-3.158-28.467
			C188.014,115.218,191.908,99.92,171.693,100.703z"/>
		<path fill="#DC3522" d="M209.406,158.689c1.689-18.791,7.078-31.576,8.076-49.692c0,0,1.531,9.443-0.114,29.778
			c-1.708,21.118-2.44,40.557-1.384,48.375c0,0-3.073-3.768-6.648-2.795C209.336,184.355,207.996,174.376,209.406,158.689z"/>
		<path fill="#DC3522" d="M233.799,115.508c0,0,1.963,13.767,0.658,29.77c-1.645,20.175-5.756,38.106-4.605,61.349
			c0,0-1.645-2.229-3.947-3.125c0,0-0.985-16.351,1.646-34.868C229.836,152.537,234.712,128.125,233.799,115.508z"/>
		<path fill="#DC3522" d="M198.932,106.954c0,0,0.896,10.104,0.657,17.023c-0.329,9.532-1.167,12.372-1.538,17.023
			c0,0-1.484-2.796-4.547-2.796c0,0,0.271-11.098,2.191-17.802C197.615,113.698,198.932,106.954,198.932,106.954z"/>
		<path fill="#DC3522" d="M169.998,102.162c17.441-1.03,16.268,10.256,16.268,10.256c-6.707-5.031-13.248,0.828-13.248,0.828
			c-18.115-8.229-29.185,11.15-29.185,11.15S152.555,103.193,169.998,102.162z"/>
		<path fill="#DC3522" d="M142.408,103.939c8.881-6.469,10.197-9.759,10.525-11.842c0,0,0.328,6.467-8.992,14.856
			c-9.319,8.389-6.029,20.889-6.029,20.889s1.535-10.525,12.938-16.228c0,0-9.279,6.292-9.539,21.729c0,0-10.197-2.379-10.197-9.368
			C131.113,116.987,133.525,110.409,142.408,103.939z"/>
		<path fill="#DC3522" d="M138.734,120.936c0.822-7.072,3.865-11.267,5.548-12.875c1.684-1.608,4.319-4.395,4.319-4.395
			c-1.41,4.072,0.658,7.447,0.658,7.447C142.023,114.768,138.734,120.936,138.734,120.936z"/>
	</g>
	<g>
		<path fill="#DC3522" d="M13.587,195.762c-5.736-51.367-18.468-88.582,7.26-140.387c25.729-51.804,90.049-44.502,90.049-44.502
			s-9.228,1.413-18.659,6.313C23.658,31.549,14.942,99.287,14.942,99.287c14.641-53.551,48.67-69.932,66.986-74.924
			c-5.094,4.814-6.881,10.716-10.219,20.152c-0.928,2.622-1.625,5.322-2.059,8.07c-0.966,6.116-1.633,16.406,1.665,26.707
			c6.755,21.105,25.722,21.904,12.993,21.41c-20.214-0.783-16.32,14.515-16.32,14.515c2.086,15.646-3.159,28.469-3.159,28.469
			s0.174-14.43-2.434-23.991c-2.607-9.561-5.042-14.602-5.042-19.817c0,0-4.867,7.302-2.434,33.898
			c2.434,26.598,0.521,54.934-7.997,63.625c0,0,4.172-15.992,1.564-39.809c-2.607-23.816-11.299-46.937-4.868-61.713
			c0,0-9.909,3.477-7.475,34.072c2.434,30.596,5.041,71.796-5.042,98.915c0,0,3.175-40.668,0-58.397
			c-3.175-17.732-7.347-45.632-7.086-65.708c0,0-8.605,11.733-3.911,45.108c4.693,33.375,9.647,92.304-10.169,126.983
			C9.937,276.854,19.324,247.128,13.587,195.762z"/>
		<path fill="#DC3522" d="M38.518,108.997c0.999,18.117,6.387,30.902,8.077,49.692c1.41,15.687,0.07,25.666,0.07,25.666
			c-3.575-0.973-6.649,2.795-6.649,2.795c1.057-7.818,0.325-27.258-1.384-48.375C36.986,118.44,38.518,108.997,38.518,108.997z"/>
		<path fill="#DC3522" d="M21.543,145.277c-1.305-16.003,0.658-29.771,0.658-29.771c-0.913,12.617,3.963,37.029,6.25,53.124
			c2.631,18.52,1.645,34.868,1.645,34.868c-2.302,0.896-3.947,3.125-3.947,3.125C27.3,183.384,23.188,165.451,21.543,145.277z"/>
		<path fill="#DC3522" d="M60.305,120.403c1.92,6.704,2.191,17.802,2.191,17.802c-3.063,0-4.547,2.796-4.547,2.796
			c-0.371-4.651-1.209-7.491-1.538-17.023c-0.239-6.919,0.658-17.023,0.658-17.023S58.385,113.698,60.305,120.403z"/>
		<path fill="#DC3522" d="M86.003,102.162c0.878,0.053,1.713,0.135,2.516,0.252c0.014,0.001,0.027,0.002,0.042,0.003
			c0.705-0.001,1.699,0.215,2.409-0.04c1.271-0.456,0.313-1.779-0.689-2.82c-0.659-0.684-1.385-1.296-2.157-1.85
			c-3.047-2.186-13.65-10.345-15.397-19.205c0,0,6.086,11.912,20.45,9.609c0,0,1.989,5.76,0.09,15.454
			c4.022-3.354,6.3-7.369,7.158-12.597c3.547,0.391,8.233-0.333,13.695-4.134c-4.657,3.47-8.773,7.574-12.837,11.721
			c-4.363,4.452-6.761,8.619-6.79,8.647c-7.019,6.98-13.925-1.947-24.757,5.215C69.734,112.418,68.56,101.132,86.003,102.162z"/>
		<path fill="#DC3522" d="M99.421,90.755c-1.073,7.401-4.93,10.143-4.93,10.143c1.316-4.331,0.329-11.306,0.329-11.306
			C96.465,92.13,99.421,90.755,99.421,90.755z"/>
	</g>
	<path fill="#DC3522" d="M126.618,162.82c0,0,2.083,2.412,6.798,3.181c0,0,2.412-3.181,7.839-3.399
		c3.542-0.144,4.351,4.092,1.733,6.141c0,0,11.265-0.498,11.533-5.537c0.27-5.039-8.26-9.126-16.557-6.688
		C128.35,159.342,126.618,162.82,126.618,162.82z"/>
	<path fill="#DC3522" d="M117.475,175.869c0,0-21.101,23.172-15.274,53.957c6.631,35.031,47.061,25.656,44.74,0.492
		c0,0,4.996,1.729,5.994,7.896c0.996,6.168,6.424-18.009-15.533-29.851c0,0,10.443,19.736-0.164,31.33
		c-10.607,11.596-29.511-4.286-26.343-28.135s12.872-34.018,12.872-34.018S119.899,177.186,117.475,175.869z"/>
	<path fill="#DC3522" d="M135.759,209.68c0,0-0.823,10.395-4.646,20.629c0,0,3.51-4.275,8.607-2.974
		C139.721,227.335,140.514,217.518,135.759,209.68z"/>
	<path fill="#DC3522" d="M115.325,175.32c0,0-2.476-0.657-3.76-1.315c0,0-7.424,0-14.003,8.004l9.54,2.632
		c0,0-9.649-0.438-13.268,6.799c0,0,5.208-2.185,8.991,0c0,0-11.513,3.289-12.719,13.705c0,0,3.673-1.754,9.923-1.314
		c0,0-8.937,3.398-11.02,11.623c0,0,3.783-1.445,8.607-0.641c0,0-6.853,4.148-6.744,11.386c0,0,2.796-1.48,6.195-1.591
		c0,0-3.893,2.468-3.893,8.389c0,0,0.665-0.548,5.376,0.109c0,0-1.429,1.863-1.319,7.565c0,0,1.996-1.489,4.276-1.919
		c0,0-2.686,3.346-0.493,6.963c0,0,1.148-1.755,2.741-2.193c0,0-0.055,8.554,10.69,12.392c10.746,3.837,21.327,8.108,22.643,20.94
		c0,0,1.998-16.859-7.73-20.887c0,0,6.896-0.822,9.697,5.428c0,0,4.611-4.111,0.829-10.033c0,0,1.886-1.629,5.22,1.406
		c0,0,1.93-5.023-0.658-8.313c0,0-5.379,9.211-16.729,9.54c-11.35,0.328-26.811-5.428-27.962-31.414
		C98.603,196.592,111.487,180.2,115.325,175.32z"/>
</g>
</svg>
