<?xml version="1.0" encoding="utf-8"?>
<!-- Generator: Adobe Illustrator 21.0.0, SVG Export Plug-In . SVG Version: 6.00 Build 0)  -->
<svg version="1.1" xmlns="http://www.w3.org/2000/svg" xmlns:xlink="http://www.w3.org/1999/xlink" x="0px" y="0px"
	 viewBox="0 0 576 576" enable-background="new 0 0 576 576" xml:space="preserve">
<g id="Layer_2">
	<path d="M114.38,68.084c-0.589,2.932-0.88,7.375-0.88,13.329c0,5.954,0.315,10.285,0.947,12.991l-0.811,1.218
		c-3.88,1.623-8.774,3.068-14.683,4.329c-5.908,1.263-11.39,1.896-16.441,1.896c-12.09,0-21.698-3.766-28.823-11.3
		C46.561,83.015,43,72.505,43,59.018s4.374-24.629,13.125-33.425c8.749-8.794,20.206-13.192,34.371-13.192
		c6.676,0,15.427,1.083,26.252,3.247l0.542,0.811c-1.805,6.767-2.978,14.299-3.518,22.598l-6.36,0.542
		c0.271-2.436,0.406-4.871,0.406-7.307c0-4.149-1.603-7.173-4.804-9.067c-3.204-1.895-8.413-2.842-15.629-2.842
		c-10.285,0-18.291,3.092-24.019,9.269c-5.729,6.181-8.593,15.044-8.593,26.59c0,11.549,2.819,20.907,8.458,28.079
		c5.637,7.173,13.102,10.758,22.394,10.758c3.249,0,6.405-0.427,9.473-1.285c3.065-0.856,6.089-2.143,9.067-3.858V73.43
		c0-3.066-0.475-5.052-1.422-5.955c-0.947-0.9-2.956-1.353-6.022-1.353h-9.336l-0.271-0.54l1.218-6.767
		c6.135,0.361,11.862,0.542,17.185,0.542l11.638-0.677l0.542,2.978C116.072,63.01,114.966,65.154,114.38,68.084z"/>
	<path d="M186.977,36.96c4.149,3.024,6.225,6.88,6.225,11.571c0,9.291-5.325,16.329-15.967,21.11l11.501,17.32
		c2.166,3.247,4.241,5.547,6.225,6.901c1.984,1.353,4.374,2.029,7.173,2.029l0.54,0.677l-0.676,4.195l-10.42,1.083
		c-4.241,0-8.165-3.292-11.772-9.878l-11.367-19.892h-8.796l-0.271,14.479c0,3.7,0.427,6.022,1.285,6.969
		c0.857,0.947,3.09,1.467,6.7,1.556l0.27,0.406l-1.083,5.142c0-0.182-4.15-0.271-12.449-0.271l-13.532,0.406l0.947-5.549
		c3.337-0.45,5.549-1.218,6.631-2.3c1.082-1.082,1.624-3.113,1.624-6.089l0.135-43.168c0-2.165-0.271-3.63-0.813-4.398
		c-0.54-0.765-1.579-1.149-3.111-1.149l-3.789,0.136l-0.407-0.542l0.811-5.142c5.684,0.182,9.923,0.271,12.72,0.271l14.48-0.406
		C177.099,32.427,182.826,33.939,186.977,36.96z M170.874,66.121c7.578-3.065,11.367-7.983,11.367-14.75
		c0-8.749-6.452-13.125-19.352-13.125c-1.265,0-1.894,0.811-1.894,2.436c-0.724,11.007-1.082,19.126-1.082,24.357L170.874,66.121z"
		/>
	<path d="M237.043,62.332l11.097,0.135l13.396-1.082l0.54,0.678l-1.623,7.036c-6.225-0.179-10.941-0.271-14.141-0.271
		c-3.203,0-6.384,0.226-9.54,0.677c-0.271,6.857-0.406,12.381-0.406,16.576c0,4.194,0.427,6.631,1.285,7.307
		c0.856,0.676,3.699,1.015,8.527,1.015c4.824,0,8.478-0.293,10.96-0.88c2.479-0.586,4.262-1.691,5.345-3.316
		c1.083-1.624,1.939-4.465,2.571-8.525l5.954-0.542l0.542,0.678c-1.353,5.953-2.347,12.09-2.978,18.403l-0.811,0.676
		c-14.977-0.452-25.034-0.676-30.176-0.676c-7.578,0-14.255,0.36-20.027,1.083l0.677-5.683c3.336-0.36,5.592-1.173,6.765-2.436
		c1.171-1.263,1.76-3.428,1.76-6.496l0.135-42.897c0-2.253-0.271-3.766-0.813-4.533c-0.54-0.765-1.623-1.149-3.247-1.149
		l-3.653,0.136l-0.271-0.542l0.811-5.142c6.405,0.182,14.547,0.271,24.425,0.271s18.425-0.406,25.643-1.218l0.406,0.678
		c-1.265,5.594-2.121,11.636-2.571,18.132l-6.496,0.542c0.181-1.984,0.271-3.473,0.271-4.466c0-3.336-0.858-5.39-2.571-6.156
		c-1.715-0.766-5.256-1.151-10.623-1.151c-5.368,0-8.413,0.202-9.134,0.609c-0.723,0.406-1.129,1.512-1.218,3.316L237.043,62.332z"
		/>
	<path d="M325.271,32.158l12.988,0.676l10.559-0.406l0.402,0.813l-0.676,4.6c-3.426,0.723-5.882,1.874-7.374,3.451
		c-1.486,1.579-3.807,4.985-6.966,10.216l-10.96,18.674c-0.997,1.715-1.579,3.61-1.76,5.684c-0.361,3.068-0.542,6.494-0.542,10.283
		c0,3.789,0.335,6.181,1.017,7.173c0.676,0.994,2.001,1.487,3.988,1.487l5.413-0.27l0.274,0.405l-1.084,5.684
		c-6.678-0.271-11.322-0.407-13.938-0.407c-4.784,0-9.79,0.407-15.022,1.218l0.813-5.549c3.968-0.629,6.447-1.623,7.444-2.976
		c0.99-1.353,1.486-4.013,1.486-7.984v-4.194c0-3.789-1.084-7.667-3.245-11.638c-8.391-16.056-12.993-24.716-13.804-25.981
		c-1.986-2.978-5.325-4.691-10.014-5.142l-0.271-0.542l0.813-4.871c5.142,0.182,9.381,0.271,12.719,0.271l16.238-0.811l0.408,0.811
		l-0.408,4.466c-3.068,0.181-5.166,0.519-6.29,1.014c-1.131,0.497-1.693,1.422-1.693,2.775c0,1.352,3.877,9.788,11.636,25.303h0.676
		l11.636-20.839c1.171-2.074,1.76-3.789,1.76-5.142c0-1.713-2.208-2.707-6.631-2.978l-0.268-0.405L325.271,32.158z"/>
	<path d="M374.78,91.093l0.134-46.955c0-2.357-0.304-3.923-0.903-4.696c-0.609-0.773-1.9-1.161-3.884-1.161l-6.082,0.443
		l-0.258-0.443l0.907-4.861h13.972l15.009-0.994l-0.518,4.971c-3.021,0.37-4.959,0.922-5.822,1.658
		c-0.86,0.736-1.382,2.283-1.556,4.64c-0.947,17.53-1.505,33.293-1.679,47.286c-0.087,7.513-1.79,13.533-5.109,18.063
		c-3.322,4.53-8.649,8.082-15.976,10.661l-2.202-3.645l0.392-0.883c5.256-2.727,8.839-5.765,10.733-9.116
		C373.833,102.713,374.78,97.723,374.78,91.093z"/>
	<path d="M475.134,64.836c0,10.24-3.516,18.9-10.552,25.981c-7.039,7.083-15.517,10.623-25.441,10.623
		c-9.927,0-17.749-2.998-23.477-8.998c-5.731-5.999-8.595-14.117-8.595-24.358c0-10.238,3.473-18.876,10.422-25.912
		c6.946-7.038,15.4-10.556,25.37-10.556c9.967,0,17.839,2.978,23.614,8.932C472.247,46.5,475.134,54.598,475.134,64.836z
		 M418.572,65.919c0,8.436,2.098,15.382,6.293,20.839c4.195,5.46,9.652,8.187,16.374,8.187c6.718,0,12.112-2.367,16.17-7.104
		c4.058-4.736,6.089-11.32,6.089-19.756c0-8.433-2.165-15.358-6.494-20.77c-4.333-5.413-9.86-8.12-16.578-8.12
		c-6.721,0-12.044,2.347-15.966,7.036C420.536,50.922,418.572,57.484,418.572,65.919z"/>
	<path d="M524.052,32.158l12.988,0.676l10.556-0.406L548,33.24l-0.676,4.6c-3.429,0.723-5.885,1.874-7.374,3.451
		c-1.489,1.579-3.811,4.985-6.969,10.216l-10.96,18.674c-0.994,1.715-1.579,3.61-1.76,5.684c-0.361,3.068-0.542,6.494-0.542,10.283
		c0,3.789,0.338,6.181,1.017,7.173c0.676,0.994,2.004,1.487,3.992,1.487l5.413-0.27l0.271,0.405l-1.084,5.684
		c-6.678-0.271-11.322-0.407-13.938-0.407c-4.781,0-9.79,0.407-15.019,1.218l0.81-5.549c3.968-0.629,6.451-1.623,7.444-2.976
		c0.99-1.353,1.489-4.013,1.489-7.984v-4.194c0-3.789-1.084-7.667-3.249-11.638c-8.391-16.056-12.991-24.716-13.801-25.981
		c-1.987-2.978-5.326-4.691-10.014-5.142l-0.271-0.542l0.81-4.871c5.142,0.182,9.381,0.271,12.72,0.271l16.24-0.811l0.405,0.811
		l-0.405,4.466c-3.068,0.181-5.166,0.519-6.294,1.014c-1.128,0.497-1.693,1.422-1.693,2.775c0,1.352,3.878,9.788,11.64,25.303h0.676
		l11.636-20.839c1.171-2.074,1.76-3.789,1.76-5.142c0-1.713-2.211-2.707-6.631-2.978l-0.271-0.405L524.052,32.158z"/>
</g>
<g id="Layer_3">
	<path d="M53.748,530.327l-0.059-0.234l0.351-2.519c3.125,0.117,5.329,0.177,6.619,0.177c2.733,0,5.565-0.215,8.493-0.646
		l0.175,0.41l-0.234,2.284c-1.992,0.158-3.329,0.392-4.011,0.704c-0.684,0.313-1.026,0.839-1.026,1.581
		c0,1.523,2.401,10.621,7.203,27.293h0.353l8.257-22.492l-1.054-3.222c-0.392-1.131-0.997-1.951-1.815-2.459
		c-0.82-0.507-1.974-0.8-3.456-0.879l-0.118-0.234l0.41-2.519c3.123,0.117,5.271,0.177,6.442,0.177c2.499,0,5.388-0.215,8.669-0.646
		l0.175,0.41l-0.234,2.284c-2.03,0.158-3.387,0.392-4.072,0.704c-0.682,0.313-1.024,0.82-1.024,1.523
		c0,1.287,2.42,10.405,7.262,27.352h0.351c6.326-17.065,9.489-26.142,9.489-27.236c0-1.366-1.328-2.049-3.983-2.049h-2.928
		l-0.118-0.235l0.41-2.517c2.928,0.274,5.642,0.41,8.141,0.41l6.209-0.177l-0.41,2.753c-1.171,0.079-1.992,0.283-2.461,0.614
		c-0.469,0.333-0.899,1.065-1.289,2.198L92.17,564.767l-3.63,1.287c-2.227-8.004-4.667-16.281-7.321-24.833h-0.351l-8.318,23.545
		l-3.748,1.287c-3.242-11.479-6.501-22.275-9.782-32.389C58.316,531.48,56.56,530.366,53.748,530.327z"/>
	<path d="M123.856,544.326l6.032,0.059l7.146-0.646l0.234,0.294l-0.82,3.456c-3.358-0.118-5.926-0.177-7.702-0.177
		c-1.776,0-3.446,0.138-5.008,0.41c-0.156,5.622-0.234,9.293-0.234,11.01c0,1.72,0.243,2.764,0.732,3.134
		c0.487,0.371,2.078,0.557,4.772,0.557c2.694,0,4.725-0.165,6.092-0.498c1.366-0.331,2.351-0.956,2.957-1.874
		c0.605-0.917,1.063-2.508,1.375-4.774l2.578-0.292l0.175,0.292c-0.702,3.242-1.23,6.521-1.581,9.841l-0.293,0.351
		c-8.121-0.274-13.432-0.41-15.932-0.41c-3.827,0-7.144,0.195-9.956,0.585l0.351-2.694c1.758-0.234,2.959-0.691,3.603-1.376
		c0.644-0.682,0.965-1.865,0.965-3.544l0.059-24.599c0-1.249-0.145-2.089-0.44-2.518c-0.293-0.43-0.868-0.646-1.727-0.646
		l-1.992,0.118l-0.118-0.234l0.41-2.578c3.084,0.117,7.283,0.177,12.594,0.177c5.309,0,9.683-0.235,13.12-0.703l0.175,0.351
		c-0.664,2.889-1.113,6.129-1.346,9.721l-2.812,0.235c0.077-1.133,0.118-1.971,0.118-2.519c0-1.913-0.46-3.084-1.377-3.513
		c-0.918-0.43-2.889-0.646-5.915-0.646c-3.027,0-4.735,0.108-5.125,0.322c-0.392,0.215-0.607,0.87-0.644,1.962L123.856,544.326z"/>
	<path d="M180.727,565.761c-3.632-0.469-6.15-0.702-7.556-0.702c-2.341,0-4.881,0.233-7.614,0.702l0.351-2.694
		c1.797-0.351,3.007-0.868,3.632-1.552c0.623-0.682,0.936-1.845,0.936-3.485l0.059-24.599c0-1.249-0.145-2.089-0.44-2.518
		c-0.292-0.43-0.868-0.646-1.726-0.646l-1.992,0.118l-0.118-0.234l0.41-2.578c2.617,0.117,4.665,0.177,6.15,0.177l8.903-0.235
		c5.701,0,10.337,1.622,13.91,4.862c3.574,3.24,5.359,7.614,5.359,13.12c0,5.504-1.953,10.26-5.858,14.262
		S186.428,565.761,180.727,565.761z M177.681,530.386c-0.82,0-1.368,0.088-1.64,0.263c-0.274,0.177-0.43,0.519-0.469,1.026
		c-0.585,15.033-0.879,23.614-0.879,25.741c0,2.128,0.489,3.553,1.465,4.276c0.975,0.723,2.948,1.083,5.914,1.083
		c4.217,0,7.536-1.455,9.959-4.364c2.42-2.908,3.63-6.92,3.63-12.036c0-5.114-1.552-9.057-4.656-11.831
		C187.901,531.772,183.46,530.386,177.681,530.386z"/>
	<path d="M224.244,565.761c-4.804,0-8.708-1.677-11.715-5.037c-3.007-3.358-4.509-7.818-4.509-13.383
		c0-5.565,1.854-10.337,5.563-14.32c3.709-3.984,8.142-5.973,13.296-5.973c5.155,0,9.272,1.679,12.359,5.037
		c3.084,3.358,4.627,7.818,4.627,13.383c0,5.563-1.885,10.337-5.651,14.32C234.443,563.77,229.787,565.761,224.244,565.761z
		 M213.057,546.141c0,4.765,1.21,8.726,3.63,11.889c2.422,3.163,5.515,4.745,9.283,4.745c3.768,0,6.825-1.414,9.168-4.247
		c2.343-2.83,3.513-6.619,3.513-11.363c0-4.743-1.24-8.697-3.719-11.86c-2.479-3.163-5.613-4.745-9.401-4.745
		c-3.787,0-6.814,1.407-9.078,4.219C214.188,537.589,213.057,541.378,213.057,546.141z"/>
	<path d="M295.288,556.566v-23.72c0-1.679-0.646-2.52-1.933-2.52l-2.227,0.059l-0.116-0.234l0.526-2.637
		c2.381,0.156,4.101,0.235,5.155,0.235c1.718,0,3.789-0.157,6.209-0.469l-0.294,2.694c-1.365,0.195-2.361,0.577-2.987,1.142
		c-0.625,0.566-0.956,1.416-0.997,2.547l-0.82,32.917l-1.697,0.82c-7.068-10.972-14.33-21.73-21.787-32.272h-0.292l-0.295,25.009
		c0,0.859,0.138,1.464,0.41,1.815c0.274,0.351,0.741,0.528,1.407,0.528l2.986-0.059l0.118,0.233l-0.528,2.635
		c-2.461-0.156-4.276-0.233-5.447-0.233c-1.874,0-3.945,0.156-6.209,0.469l0.295-2.694c2.38-0.274,3.592-1.502,3.63-3.691
		l0.762-25.594c0-1.21-0.36-2.069-1.083-2.578c-0.723-0.505-2.06-0.857-4.013-1.054l-0.174-0.292l0.469-2.166
		c2.264,0.195,3.943,0.293,5.037,0.293l3.923-0.235c5.778,8.982,12.338,18.664,19.68,29.051H295.288z"/>
	<path d="M325.742,565.761c-4.804,0-8.71-1.677-11.714-5.037c-3.005-3.358-4.509-7.818-4.509-13.383
		c0-5.565,1.854-10.337,5.565-14.32c3.707-3.984,8.139-5.973,13.296-5.973c5.153,0,9.272,1.679,12.355,5.037
		c3.086,3.358,4.627,7.818,4.627,13.383c0,5.563-1.883,10.337-5.65,14.32C335.942,563.77,331.285,565.761,325.742,565.761z
		 M314.554,546.141c0,4.765,1.21,8.726,3.634,11.889c2.42,3.163,5.513,4.745,9.283,4.745c3.766,0,6.823-1.414,9.166-4.247
		c2.343-2.83,3.513-6.619,3.513-11.363c0-4.743-1.24-8.697-3.719-11.86c-2.479-3.163-5.613-4.745-9.401-4.745
		c-3.788,0-6.812,1.407-9.077,4.219C315.687,537.589,314.554,541.378,314.554,546.141z"/>
	<path d="M363.693,555.572v-25.537c-1.835,0.079-3.152,0.136-3.954,0.175c-0.798,0.04-1.659,0.177-2.575,0.41
		c-0.919,0.235-1.504,0.45-1.758,0.646c-0.254,0.195-0.566,0.634-0.938,1.317c-0.371,0.684-0.603,1.319-0.702,1.903
		c-0.096,0.587-0.243,1.563-0.438,2.93l-2.755,0.234c0.471-3.435,0.762-6.814,0.879-10.133l0.526-0.467l4.862,0.644h18.159
		l4.976-0.644l0.526,0.467c0.081,2.54,0.371,5.839,0.879,9.899l-2.751,0.234c-0.235-1.366-0.412-2.362-0.526-2.987
		c-0.118-0.625-0.353-1.289-0.702-1.992c-0.353-0.702-0.666-1.151-0.938-1.346c-0.276-0.195-0.831-0.419-1.67-0.675
		c-0.843-0.254-1.652-0.399-2.431-0.44c-0.78-0.039-1.99-0.096-3.63-0.175c-0.625,6.247-0.938,15.737-0.938,28.465
		c0,1.445,0.254,2.47,0.761,3.075c0.508,0.605,1.365,0.908,2.578,0.908l3.218-0.176l0.177,0.235l-0.526,2.694
		c-3.906-0.118-6.775-0.177-8.61-0.177l-8.022,0.233l0.467-2.517c2.733-0.234,4.392-0.712,4.976-1.435
		C363.402,560.618,363.693,558.696,363.693,555.572z"/>
	<path d="M411.368,565.761c-1.64,0-3.218-0.165-4.741-0.498c-1.526-0.331-3.009-0.827-4.454-1.493l-0.29-0.585
		c0.467-3.007,0.702-6.404,0.702-10.192l2.633-0.292c0,4.217,0.478,6.97,1.435,8.259c0.956,1.287,2.843,1.933,5.653,1.933
		c2.814,0,4.958-0.576,6.444-1.729c1.482-1.151,2.225-2.723,2.225-4.715c0-1.718-0.879-3.241-2.637-4.568
		c-1.287-0.975-2.575-1.795-3.866-2.459c-1.287-0.664-1.96-1.006-2.019-1.026c-0.059-0.018-0.118-0.048-0.177-0.088
		c-0.059-0.037-0.478-0.263-1.258-0.673c-0.783-0.41-1.611-0.879-2.49-1.405c-0.879-0.528-1.846-1.24-2.898-2.139
		c-2.071-1.717-3.104-3.766-3.104-6.15c0-3.084,1.298-5.67,3.895-7.761c2.597-2.087,5.789-3.132,9.574-3.132
		c2.968,0,5.955,0.487,8.964,1.464l0.177,0.351c-0.625,3.007-1.056,6.306-1.291,9.898l-2.284,0.235l-0.35-0.294
		c0.114-0.82,0.173-1.834,0.173-3.045c0-2.069-0.508-3.494-1.523-4.276c-1.015-0.78-2.714-1.171-5.094-1.171
		c-2.384,0-4.267,0.539-5.653,1.611c-1.387,1.074-2.078,2.402-2.078,3.983c0,1.582,0.673,2.948,2.019,4.099
		c1.35,1.153,3.641,2.569,6.882,4.247c3.24,1.679,5.488,3.065,6.738,4.158c2.107,1.797,3.163,3.809,3.163,6.034
		c0,3.358-1.35,6.1-4.042,8.228C419.099,564.699,415.624,565.761,411.368,565.761z"/>
	<path d="M450.496,565.761c-4.804,0-8.71-1.677-11.715-5.037c-3.005-3.358-4.509-7.818-4.509-13.383
		c0-5.565,1.853-10.337,5.565-14.32c3.708-3.984,8.139-5.973,13.296-5.973c5.153,0,9.272,1.679,12.354,5.037
		c3.086,3.358,4.627,7.818,4.627,13.383c0,5.563-1.883,10.337-5.65,14.32C460.695,563.77,456.039,565.761,450.496,565.761z
		 M439.307,546.141c0,4.765,1.21,8.726,3.634,11.889c2.42,3.163,5.514,4.745,9.284,4.745c3.766,0,6.823-1.414,9.166-4.247
		c2.343-2.83,3.512-6.619,3.512-11.363c0-4.743-1.24-8.697-3.719-11.86c-2.479-3.163-5.613-4.745-9.401-4.745
		c-3.789,0-6.812,1.407-9.078,4.219C440.44,537.589,439.307,541.378,439.307,546.141z"/>
	<path d="M474.448,530.327l-0.055-0.234l0.35-2.519c3.123,0.117,5.329,0.177,6.617,0.177c2.733,0,5.565-0.215,8.493-0.646
		l0.177,0.41l-0.232,2.284c-1.993,0.158-3.332,0.392-4.013,0.704c-0.684,0.313-1.026,0.839-1.026,1.581
		c0,1.523,2.402,10.621,7.205,27.293h0.35l8.261-22.492l-1.056-3.222c-0.39-1.131-0.997-1.951-1.817-2.459
		c-0.82-0.507-1.972-0.8-3.454-0.879l-0.118-0.234l0.408-2.519c3.127,0.117,5.274,0.177,6.444,0.177
		c2.498,0,5.388-0.215,8.669-0.646l0.177,0.41l-0.235,2.284c-2.031,0.158-3.388,0.392-4.071,0.704
		c-0.684,0.313-1.026,0.82-1.026,1.523c0,1.287,2.424,10.405,7.264,27.352h0.353c6.323-17.065,9.485-26.142,9.485-27.236
		c0-1.366-1.328-2.049-3.983-2.049h-2.928l-0.117-0.235l0.412-2.517c2.928,0.274,5.642,0.41,8.139,0.41l6.208-0.177l-0.408,2.753
		c-1.173,0.079-1.994,0.283-2.461,0.614c-0.467,0.333-0.898,1.065-1.287,2.198l-12.299,31.628l-3.634,1.287
		c-2.226-8.004-4.664-16.281-7.32-24.833h-0.353l-8.316,23.545l-3.748,1.287c-3.24-11.479-6.503-22.275-9.78-32.389
		C479.019,531.48,477.261,530.366,474.448,530.327z"/>
</g>
<g id="Layer_4">
	<path fill-rule="evenodd" clip-rule="evenodd" d="M277.742,150.15c2.563-0.044,5.838,2.682,6.818,6.255
		c0.89,3.222,1.479,6.566,1.803,9.898c0.391,4.067,0.575,8.185,0.461,12.271c-0.077,2.777-0.857,5.529-1.238,8.306
		c-0.147,1.037-0.492,2.372-0.017,3.098c1.225,1.882,0.057,3.22-0.321,4.901c-0.542,2.387-0.151,4.968-0.315,7.459
		c-0.191,2.899-0.636,5.785-0.786,8.689c-0.047,0.87,0.789,1.785,0.749,2.663c-0.154,3.63-0.492,7.253-0.769,10.88
		c-0.023,0.318-0.171,0.646-0.131,0.954c0.519,3.591,1.542,7.193,1.455,10.773c-0.08,3.212,0.241,6.215,0.696,9.376
		c0.532,3.672,0.642,7.419,1.659,11.041c0.221,0.764,0.418,1.542,0.549,2.325c0.08,0.48-0.147,1.052,0.04,1.452
		c1.168,2.496,0.515,5.02,0.294,7.563c-0.1,1.221,0.258,2.601,1.89,2.457c0.92-0.08,2.115-0.517,2.61-1.209
		c0.99-1.395,1.579-3.07,2.332-4.625c0.515,1.432,0.8,3.163,1.706,4.46c0.71,1.011,2.185,1.482,3.332,2.192
		c0.485-0.977,1.519-2.039,1.378-2.918c-0.92-5.718,0.837-10.852,2.857-16.024c0.666-1.695,0.646-3.64,1.014-5.459
		c0.475-2.329,1.064-4.644,1.506-6.977c0.127-0.681-0.081-1.43-0.154-2.141c-0.07-0.718-0.287-1.444-0.224-2.14
		c0.271-3.204,0.833-6.402,0.887-9.601c0.07-3.99-0.294-7.986-0.392-11.982c-0.073-3.311-0.016-6.633-0.053-9.95
		c-0.01-0.711,0-1.522-0.318-2.116c-1.03-1.927-0.639-3.702,0.221-5.532c1.215-2.586,0.579-4.983-0.836-7.309
		c-0.435-0.725-0.797-1.546-0.994-2.367c-0.532-2.221-0.97-4.465-1.425-6.705c-0.074-0.395-0.047-0.811-0.047-1.216
		c-0.01-2.457-0.077-4.915,0.037-7.364c0.037-0.84,0.679-1.641,0.846-2.499c0.198-1.049,0.244-2.141,0.234-3.215
		c-0.007-0.611-0.555-1.322-0.378-1.807c1.117-3.018,2.516-5.945,3.56-8.993c0.763-2.23,1.977-3.933,4.042-5.029
		c0.485-0.258,1.04-0.374,1.509-0.542c-1.117,4.594-2.559,8.866-3.111,13.239c-0.609,4.764-0.732,9.649-0.445,14.452
		c0.301,5.35,1.211,10.679,2.031,16.001c0.559,3.703,1.472,7.357,2.105,11.059c0.512,3.015,1.234,6.061,1.198,9.082
		c-0.09,7.355-0.418,14.711-0.957,22.046c-0.248,3.332-1.231,6.606-1.853,9.915c-0.388,2.072,0.361,3.635,2.245,4.602
		c2.449-0.836,3.369-2.653,3.624-5.105c0.1-1.059,0.743-2.074,1.184-3.095c1.204-2.757,3.188-5.444,3.456-8.289
		c0.368-3.929,3.416-6.691,3.406-10.867c-0.01-3.403,2.098-6.787,3.081-10.231c0.95-3.289,1.593-6.653,2.503-9.955
		c0.395-1.405,1.107-2.725,1.706-4.072c0.187-0.423,0.626-0.803,0.663-1.23c0.388-4.341,2.951-7.849,4.44-11.763
		c0.475-1.243,0.635-2.61,0.967-3.909c0.221-0.83,0.295-1.807,0.796-2.439c1.208-1.529,2.546-2.971,3.965-4.309
		c3.342-3.155,6.079-7.061,10.121-9.319c2.345-1.315,5.266-1.618,8.465-2.538c-0.455,0.977-0.606,1.77-1.081,2.212
		c-3.088,2.874-6.557,5.413-9.311,8.583c-2.724,3.142-5.123,6.71-6.973,10.434c-2.459,4.96-4.466,10.19-6.253,15.437
		c-1.238,3.591-1.776,7.421-2.613,11.155c-1.024,4.59-1.663,9.296-3.112,13.747c-2.737,8.418-5.922,16.693-8.936,25.018
		c-0.753,2.093-1.646,4.139-2.289,6.265c-0.184,0.602,0.064,1.603,0.495,2.044c0.318,0.331,1.485,0.338,1.887,0.01
		c1.268-1.04,2.559-2.168,3.47-3.516c1.244-1.85,2.221-3.792,4.898-3.777c0.572,0.005,1.178-0.473,1.7-0.835
		c2.77-1.884,5.47-3.878,8.304-5.671c0.826-0.527,2.051-0.383,2.987-0.788c1.569-0.656,3.058-1.504,4.567-2.278
		c0.907-0.465,1.757-1.129,2.707-1.375c1.603-0.413,2.399-1.375,2.275-2.922c-0.465-5.795,0.85-11.432,2.098-16.956
		c1.452-6.424,3.289-12.769,6.297-18.796c2.583-5.162,5.547-9.917,9.723-13.821c3.597-3.361,7.545-6.208,11.998-8.537
		c5.882-3.066,12.058-4.466,18.458-4.429c6.306,0.04,12.593,1.012,18.231,4.309c5.002,2.934,10.154,5.643,14.975,8.851
		c6.397,4.256,12.443,9.015,18.799,13.333c4.329,2.939,8.732,5.885,13.446,8.091c5.072,2.382,10.793,3.382,16.27,2.211
		c6.447-1.387,12.058-4.773,15.741-10.557c2.376-3.736,2.63-8.073,2.764-12.304c0.114-3.702,0.037-7.484-0.602-11.111
		c-0.9-5.054-3.366-9.532-7.511-12.669c-3.403-2.571-7.023-4.992-10.847-6.839c-4.824-2.333-10.081-3.55-15.497-2.869
		c-4.262,0.535-7.217,3.324-10,6.4c-2.419,2.677-4.724,5.542-9.258,4.56c-2.847-0.617-5.928-0.072-8.873-0.333
		c-4.309-0.39-8.608-0.977-12.888-1.599c-3.463-0.504-6.929-1.077-10.348-1.837c-1.174-0.256-2.258-1.745-3.292-1.656
		c-3.071,0.262-4.677-2.016-6.825-3.341c-0.472-0.295-0.716-0.959-1.061-1.455c0.592-0.284,1.177-0.788,1.783-0.826
		c5.708-0.365,11.436-0.452,17.113-1.044c2.884-0.299,5.694-1.429,8.531-2.232c4.062-1.152,8.113-2.376,12.189-3.525
		c3.821-1.076,7.648-2.192,11.516-3.1c1.539-0.365,3.212-0.336,4.808-0.264c0.549,0.023,1.325,0.602,1.559,1.124
		c0.93,2.079,2.69,2.374,4.664,2.78c3.423,0.723,6.815,1.668,10.121,2.814c3.513,1.215,6.999,2.591,10.325,4.239
		c6.668,3.292,12.59,7.555,16.852,13.841c3.249,4.783,4.678,9.994,4.918,15.773c0.261,6.588-1.051,12.859-3.731,18.668
		c-2.318,5.032-6.457,8.58-11.877,10.671c-5.902,2.283-11.85,2.198-17.829,1.164c-3.416-0.589-6.658-2.101-10.04-2.948
		c-9.549-2.377-16.789-8.736-24.725-13.95c-5.457-3.578-11.181-6.767-16.886-9.933c-3.255-1.803-6.604-3.653-10.147-4.677
		c-4.811-1.39-9.712-2.519-14.895-2.287c-4.068,0.184-8.01,0.719-11.797,2.006c-4.848,1.632-8.889,4.56-12.362,8.384
		c-4.453,4.906-7.642,10.517-9.92,16.675c-2.409,6.521-4.061,13.197-3.653,20.225c0.05,0.878,0.311,2.145,0.91,2.478
		c0.632,0.36,1.917,0.072,2.663-0.37c1.98-1.168,3.827-2.578,5.727-3.893c0.134-0.09,0.228-0.308,0.355-0.316
		c4.312-0.361,5.186-4.926,8.281-6.867c1.204-0.754,1.579-2.795,2.429-4.19c1.573-2.576,3.386-5.029,4.774-7.697
		c1.134-2.173,1.669-4.641,2.693-6.87c0.92-2.021,2.152-3.901,3.239-5.847c0.341,0.129,0.673,0.261,1.007,0.388
		c-0.318,2.24-0.542,4.5-0.97,6.721c-1.489,7.724-4.594,14.729-8.829,21.394c-4.707,7.399-11.137,12.799-18.224,17.61
		c-2.539,1.728-3.914,6.301-2.917,10.487c0.877,3.635,1.817,7.26,2.794,10.877c0.779,2.899,2.459,3.894,5.49,4.451
		c2.914,0.535,5.698,1.825,8.598,2.513c2.108,0.5,4.309,0.775,6.47,0.78c3.46,0.005,6.916-0.321,10.378-0.455
		c0.706-0.03,1.435,0.336,2.131,0.259c1.271-0.131,2.573-0.308,3.771-0.739c2.399-0.866,4.728-1.92,7.079-2.896
		c0.214,0.33,0.425,0.651,0.632,0.975c-1.238,1.233-2.322,2.723-3.754,3.648c-2.543,1.631-5.223,3.128-8.01,4.289
		c-1.864,0.783-4.012,1.276-6.019,1.234c-6.136-0.12-12.262-0.607-18.391-0.816c-0.823-0.03-1.857,0.559-2.432,1.191
		c-0.395,0.432-0.425,1.531-0.174,2.158c2.68,6.696,5.464,13.358,8.197,20.039c1.823,4.443,3.757,8.846,5.34,13.367
		c1,2.809,1.398,5.824,2.138,8.727c0.515,1.997,1.198,3.951,1.74,5.94c2.566,9.296,4.135,18.744,3.563,28.4
		c-0.422,7.294-1.894,14.321-4.824,21.173c-2.074,4.85-4.597,9.391-8.006,13.14c-3.955,4.356-8.846,8.014-15.23,8.147
		c-3.847,0.08-7.722-0.109-11.546-0.53c-1.666-0.182-3.279-1.139-4.831-1.919c-4.487-2.248-9.03-4.644-12.286-8.465
		c-2.445-2.871-4.088-6.501-5.758-9.95c-2.911-6.048-2.165-12.543-1.208-18.793c0.673-4.393,2.633-8.612,4.166-12.859
		c1.157-3.212,2.686-6.297,3.804-9.529c1.967-5.723,4.032-11.439,5.55-17.29c1.897-7.332,2.519-14.882,0.348-22.246
		c-0.92-3.105-2.559-6.236-6.387-7.19c-3.249-0.811-6.404-1.997-9.649-2.781c-3.305-0.798-6.316,0.778-9.308,1.824
		c-1.974,0.688-3.858,1.822-5.544,3.074c-4.477,3.301-7.806,7.501-9.231,12.991c-0.234,0.922-0.318,1.942-0.197,2.876
		c0.284,2.31,2.56,3.421,4.62,2.35c2.874-1.501,5.597-3.518,8.655-4.395c4.078-1.173,8.461-1.614,12.583,0.202
		c1.984,0.873,3.797,2.145,5.687,3.237c-0.097,0.266-0.181,0.527-0.277,0.793c-1.138-0.248-2.312-0.385-3.406-0.756
		c-2.536-0.858-5.229-2.168-7.665-0.572c-2.235,1.469-4.052,3.633-5.865,5.656c-0.923,1.036-1.559,2.387-2.121,3.682
		c-2.63,6.049-1.556,12.433-1.308,18.668c0.258,6.439,1.091,12.861,1.747,19.285c0.505,4.965,1.395,9.913,1.623,14.887
		c0.264,5.902,0.197,11.839-0.087,17.742c-0.224,4.659-0.91,9.306-1.589,13.931c-0.345,2.357,0.987,3.749,2.285,5.273
		c2.134,2.519,4.302,5.01,6.29,7.633c0.191,0.253-0.622,1.663-1.261,2.056c-2.449,1.517-5.196,2.605-7.494,4.309
		c-2.292,1.708-4.202,3.837-4.245,7.16c-0.06,4.09,2.155,9.055,5.4,11.133c2.506,1.602,5.199,2.665,8.204,2.964
		c1.813,0.182,1.93,1.149,1.03,2.819c-1.158,2.141-2.312,4.41-2.764,6.763c-0.739,3.839,1.753,6.663,4.078,9.296
		c1.285,1.452,2.984,2.538,4.494,3.796c1.131,0.948,0.819,1.989-0.8,2.633c-2.526,1.002-5.226,1.7-7.558,3.036
		c-5.015,2.877-5.915,6.151-1.589,10.54c0.304,0.308,0.575,0.651,1.315,1.499c-1.569-0.075-2.539-0.142-3.516-0.165
		c-5.186-0.137-10.398,0.114-14.725,3.274c-2.215,1.625-4.052,3.981-5.537,6.335c-2.155,3.431-3.841,7.16-5.925,11.131
		c-4.855-13.267-12.218-23.085-28.144-20.783c0.87-2.222,1.77-4.033,2.308-5.95c0.763-2.713,0.074-4.584-2.416-5.837
		c-2.469-1.243-5.115-2.198-7.755-3.028c-2.228-0.701-2.379-1.315-1.091-3.274c2.115-3.217,4.406-6.444,5.751-10.002
		c1.245-3.284,1.101-6.932-1.071-10.184c-0.776-1.163-0.666-2.471,1.278-2.395c5.015,0.207,8.903-2.083,11.686-5.919
		c4.47-6.148,3.366-12.479-4.025-16.522c-1.723-0.942-3.597-1.614-5.912-2.636c0.177-0.632,0.362-1.772,0.826-2.774
		c1.573-3.349,3.195-6.625,5.995-9.258c0.913-0.863,1.111-2.845,1.064-4.299c-0.231-7.436-0.847-14.857-0.947-22.296
		c-0.107-6.887,0.124-13.791,0.465-20.676c0.509-10.345,1.315-20.68,1.857-31.025c0.355-6.646-1.833-12.324-7.23-16.469
		c-2.325-1.79-4.831-3.152-7.933-1.628c-0.96,0.468-2.078,0.611-3.476,1.006c2.459-3.19,8.448-5.054,11.73-3.824
		c4.664,1.735,9.251,3.697,13.962,5.286c0.816,0.271,2.877-0.679,3.028-1.361c0.666-3.028,0.713-5.981-0.813-9.055
		c-1.589-3.199-3.446-5.969-6.273-8.057c-2.86-2.113-5.728-4.195-9.448-4.689c-1.676-0.223-3.262-1.243-4.942-1.414
		c-8.705-0.909-15.765,3.909-18.796,11.982c-2.63,7.008-1.071,13.552,1.449,20.128c1.566,4.08,2.907,8.247,4.456,12.329
		c1.265,3.326,2.787,6.547,4.005,9.888c1.215,3.326,2.329,6.705,3.242,10.127c1.074,4.01,2.369,8.051,2.676,12.152
		c0.318,4.206-0.1,8.552-0.823,12.73c-0.947,5.482-3.627,10.412-7.468,14.336c-2.723,2.785-6.226,4.779-10.087,6.164
		c-7.096,2.543-14.323,2.173-21.476,1.215c-2.924-0.388-5.744-2.253-8.397-3.819c-4.627-2.73-7.638-6.924-10.078-11.67
		c-2.101-4.085-3.402-8.317-3.844-12.859c-0.425-4.328-1.385-8.64-1.322-12.954c0.067-5.139,0.88-10.283,1.546-15.402
		c0.619-4.769,1.395-9.52,2.255-14.256c0.468-2.563,1.124-5.109,1.914-7.601c1.526-4.793,3.132-9.562,4.838-14.298
		c2.051-5.689,4.186-11.345,6.377-16.983c1.265-3.222,2.7-6.374,4.273-10.064c-0.893-0.253-2.051-0.907-3.152-0.836
		c-3.121,0.204-6.243,0.565-9.318,1.131c-5.46,1-10.823,0.883-16.24-0.386c-4.573-1.072-8.719-2.732-11.73-6.509
		c-0.562-0.706-1.01-1.504-1.623-2.426c3.011-0.883,3.824,1.842,5.627,2.601c0.893,0.373,1.76,1.059,2.657,1.096
		c3.249,0.134,6.507-0.005,9.756,0.067c3.376,0.08,6.748,0.289,10.117,0.442c0.161,0.005,0.352,0.062,0.485,0
		c2.135-0.997,4.242-1.959,6.671-2.178c1.255-0.11,2.315-2.046,3.791-0.346c0.1,0.112,0.572,0.099,0.669-0.024
		c1.599-1.9,3.503-3.345,5.889-4.1c0.131-0.038,0.254-0.219,0.301-0.361c1.204-3.435,2.723-6.8,3.489-10.33
		c0.746-3.426,0.837-7.017,0.984-10.549c0.1-2.33-2.171-2.842-3.684-3.712c-5.253-3.003-9.759-6.803-13.396-11.648
		c-2.058-2.747-4.289-5.371-6.23-8.195c-1.141-1.657-1.944-3.568-2.773-5.418c-1.044-2.337-2.245-4.652-2.884-7.104
		c-1.094-4.222-1.817-8.54-2.643-12.831c-0.057-0.295,0.308-0.669,0.656-1.352c0.341,0.754,0.696,1.199,0.736,1.669
		c0.264,3.075,1.91,5.495,3.185,8.18c1.379,2.914,3.507,5.281,4.741,8.191c0.164,0.385,0.241,0.94,0.087,1.306
		c-0.576,1.338,0.117,1.959,1.198,2.437c0.067,0.028,0.154,0.077,0.191,0.142c1.87,3.122,5.069,5.134,6.929,8.301
		c0.549,0.928,1.803,1.494,2.824,2.073c0.515,0.294,1.673,0.077,1.79,0.371c1.071,2.912,3.861,3.349,6.146,4.573
		c1.545,0.83,2.693,0.607,3.018-1.139c0.241-1.261,0.154-2.586,0.154-3.881c0.027-7.816-1.338-15.398-4.787-22.406
		c-4.095-8.324-10.472-14.304-19.104-18.105c-6.829-3.008-13.804-4.298-21.141-3.757c-5.42,0.398-10.449,2.263-15.046,5.139
		c-4.266,2.663-8.538,5.348-12.633,8.266c-5.761,4.114-11.315,8.503-17.039,12.67c-5.182,3.772-10.562,7.02-16.732,9.283
		c-6.909,2.533-13.841,2.382-20.432,0.915c-5.922-1.313-11.462-4.831-14.765-10.511c-1.977-3.407-3.941-6.914-5.209-10.621
		c-2.138-6.263-1.512-12.802,0.274-18.98c0.984-3.364,3.309-6.482,5.561-9.284c2.308-2.896,4.998-5.639,7.996-7.797
		c3.466-2.506,7.254-4.813,11.249-6.298c6.092-2.262,12.489-3.729,18.743-5.586c0.759-0.222,1.726-0.559,2.084-1.151
		c2.195-3.665,5.423-2.779,8.595-2.105c5.156,1.097,10.315,2.203,15.444,3.431c3.64,0.868,7.18,2.174,10.843,2.872
		c5.343,1.01,10.76,1.664,16.153,2.434c2.071,0.294,4.149,0.497,6.273,0.744c-0.552,3.635-4.423,3.578-6.554,5.534
		c-2.168,1.984-4.828,1.855-7.534,2.153c-2.894,0.314-5.681,1.633-8.528,2.454c-0.753,0.223-1.576,0.219-2.358,0.343
		c-3.306,0.51-6.598,1.156-9.934,1.504c-2.091,0.218-4.229,0.027-6.347-0.059c-0.79-0.037-1.566-0.427-2.352-0.455
		c-4.794-0.174-8.498-2.235-11.108-6.258c-2.921-4.523-8.776-5.979-13.771-4.063c-6.451,2.482-12.463,5.594-17.943,9.781
		c-4.547,3.473-7.906,7.866-10.191,13.048c-0.535,1.206-0.652,2.71-0.575,4.052c0.261,4.794,0.137,9.567,1.545,14.336
		c0.924,3.136,2.359,5.818,4.293,8.148c3.068,3.672,7.042,6.131,12.068,6.287c1.707,0.053,3.413,0,5.123,0.01
		c8.341,0.028,15.594-3.123,22.148-7.929c5.982-4.379,11.57-9.286,17.598-13.585c4.553-3.252,9.345-6.273,14.346-8.746
		c4.788-2.359,9.853-4.637,15.042-5.557c5.695-1.01,11.636-2.054,17.548-0.418c2.891,0.793,6.026,0.775,8.83,1.748
		c2.74,0.942,5.306,2.529,7.758,4.127c4.737,3.1,9.05,6.762,11.998,11.683c2.867,4.79,5.209,9.843,6.511,15.327
		c0.977,4.105,2.358,8.14,3.027,12.285c0.636,3.958,0.683,8.014,0.816,12.04c0.13,3.767,0.308,4.152,3.901,5.348
		c0.224,0.07,0.592,0.005,0.689,0.147c1.626,2.324,3.838,3.217,6.628,2.912c0.305-0.032,0.847,0.518,0.984,0.901
		c0.723,2.088,2.366,2.369,4.249,2.426c0.749,0.024,1.857,0.189,2.171,0.688c1.388,2.203,3.597,2.819,5.825,3.516
		c2.529,0.783,2.342,3.607,3.828,5.191c0.421,0.46,0.642,1.253,1.151,1.486c0.9,0.418,1.947,0.527,2.927,0.765
		c0.258-1.064,0.967-2.258,0.689-3.152c-1.201-3.871-2.69-7.653-4.098-11.464c-0.987-2.695-2.202-5.325-2.968-8.082
		c-1.422-5.139-2.523-10.372-3.901-15.529c-1.004-3.761-2.308-7.433-3.352-11.178c-0.81-2.912-1.241-5.945-2.158-8.814
		c-1.208-3.782-2.717-7.464-4.132-11.176c-2.75-7.212-7.531-13.001-13.038-18.221c-1.9-1.803-4.092-3.294-6.15-4.925
		c0.024-0.258,0.05-0.514,0.074-0.766c3.018,0.276,6.046,0.504,9.057,0.873c0.395,0.049,0.739,0.79,1.044,1.253
		c0.261,0.403,0.331,1.153,0.652,1.258c3.463,1.152,5.086,4.366,7.551,6.63c0.79,0.726,1.378,1.669,2.091,2.491
		c0.548,0.636,1.137,1.224,1.716,1.832c0.258,0.271,0.592,0.498,0.753,0.811c1.469,2.795,3.031,5.545,4.279,8.436
		c0.548,1.263,0.187,2.904,0.669,4.219c0.99,2.762,2.499,5.34,3.366,8.128c1.044,3.371,1.616,6.886,2.446,10.327
		c0.304,1.276,0.76,2.514,1.171,3.767c0.074,0.224,0.324,0.393,0.375,0.622c0.766,3.282,1.472,6.576,2.288,9.85
		c0.251,0.994,0.863,1.89,1.181,2.872c0.78,2.405,1.991,4.816,2.091,7.265c0.154,3.832,1.358,7.213,2.978,10.552
		c0.86,1.78,1.449,3.715,2.516,5.353c0.595,0.912,1.921,1.346,2.918,1.997c0.445-1.036,1.288-2.08,1.261-3.105
		c-0.167-8.645-0.786-17.285-0.686-25.927c0.087-7.998,0.683-16.014,1.459-23.985c0.632-6.619,2.302-13.169,2.677-19.788
		c0.345-6.32,1.05-12.779-0.893-19.042C279.886,157.097,278.816,153.62,277.742,150.15z M205.338,356.966
		c1.144,5.723,1.927,11.978,3.76,17.899c1.181,3.801,3.767,7.156,7.284,9.637c3.684,2.604,7.815,3.483,12.121,3.881
		c4.737,0.442,9.482-0.197,13.426-2.744c4.494-2.904,6.782-7.729,7.32-12.958c0.485-4.627,0.432-9.368,0-14.003
		c-0.368-4.028-1.348-8.057-2.526-11.938c-1.054-3.456-2.864-6.665-4.125-10.067c-1.526-4.117-2.727-8.361-4.226-12.488
		c-1.78-4.902-3.349-9.818-3.188-15.124c0.02-0.716-0.284-1.437-0.321-2.158c-0.258-5.144-0.552-10.35,1.887-15.101
		c1.228-2.382,2.65-4.868,4.604-6.618c4.51-4.048,9.833-6.89,15.537-9.013c0.87-0.321,1.439-1.432,2.148-2.182
		c-1.04-0.713-2.004-1.873-3.128-2.049c-2.141-0.341-4.406,0.127-6.558-0.181c-5.748-0.831-11.409-0.152-17.043,0.713
		c-1.793,0.273-3.543,1-4.139,3.408c-0.773,3.12-2.111,6.096-3.235,9.129c-1.131,3.031-2.295,6.054-3.446,9.087
		c-0.635,1.694-1.241,3.406-1.907,5.092c-1.596,4.033-3.54,7.966-4.765,12.108c-2.261,7.645-4.423,15.352-6.045,23.154
		C207.268,341.678,206.515,349.056,205.338,356.966z M385.64,352.589c-0.234-2.979-0.278-5.987-0.743-8.93
		c-0.77-4.877-1.71-9.743-2.77-14.569c-0.663-3.021-1.706-5.964-2.529-8.953c-0.85-3.075-1.469-6.22-2.502-9.229
		c-1.991-5.818-4.202-11.559-6.327-17.335c-1.238-3.336-2.513-6.652-3.707-10.006c-0.662-1.847-1.181-3.75-1.766-5.624
		c-1.342-4.314-3.503-5.856-8.066-6.131c-2.964-0.186-5.922-0.569-8.859-1.039c-5.316-0.845-10.372,0.175-15.283,2.098
		c-0.736,0.289-1.221,1.256-1.82,1.917c0.776,0.479,1.509,1.119,2.359,1.419c3.352,1.205,6.828,2.078,10.084,3.498
		c4.259,1.85,7.685,4.943,9.689,9.134c2.104,4.403,3.078,9.263,3.165,14.115c0.087,4.652-0.381,9.34-0.937,13.967
		c-0.462,3.862-0.87,7.867-2.228,11.455c-2.436,6.457-5.601,12.637-8.411,18.962c-0.9,2.026-1.847,4.075-2.382,6.206
		c-0.743,3.01-1.04,6.126-1.676,9.167c-1.215,5.847-0.047,11.133,3.684,15.782c2.522,3.153,5.333,6.146,9.334,7.313
		c10.479,3.061,23.283-3.255,27.505-13.363C384.108,366.091,386.008,359.599,385.64,352.589z M276.889,407.238
		c-0.214,0.112-0.428,0.231-0.636,0.345c-0.037,0.308-0.161,0.636-0.107,0.922c0.439,2.248,0.883,4.498,1.385,6.728
		c0.663,2.909,1.368,5.808,2.078,8.702c0.11,0.46,13.212,49.93,14.523,55.51c0.147,0.631,0.616,1.617,1.265,1.785
		c0.736,0.184,1.288-0.704,1.475-1.268c1.027-3.018,1.994-6.069,2.703-9.172c0.877-3.834,6.347-26.54,7.314-29.896
		c1.05-3.615,1.994-7.26,3.044-10.875c0.74-2.543,1.686-5.025,2.336-7.593c0.85-3.374,1.489-6.8,2.235-10.193
		c0.365-1.666,0.773-3.317,1.158-4.974c-0.197-0.047-0.395-0.088-0.595-0.132c-0.191,0.413-0.265,1.02-0.589,1.215
		c-2.268,1.385-3.67,10.51-4.132,12.001c-0.94,3.061-9.642,36.016-10.653,39.323c-1.148,3.754-2.061,7.578-3.132,11.355
		c-0.134,0.47-0.548,2.454-0.93,3.498c-0.331-2.083-16.354-62.068-17.538-65.341C277.836,408.474,277.297,407.882,276.889,407.238z
		 M235.362,248.622c-0.468,1.146-0.916,1.909-1.094,2.739c-0.626,2.881-1.114,5.79-1.75,8.668c-0.626,2.862-0.177,3.513,2.75,3.518
		c5.246,0.013,10.489,0.005,15.738,0.005c1.784,0,3.577,0.099,5.343-0.054c0.703-0.062,1.348-0.696,2.024-1.067
		c-0.391-0.512-0.676-1.186-1.184-1.511c-3.071-1.935-6.146-3.876-9.304-5.649C243.873,253.03,239.782,250.959,235.362,248.622z
		 M332.604,262.736c1.281,0.289,2.423,0.821,3.523,0.749c2.068-0.134,4.115-0.85,6.176-0.888c4.47-0.075,8.953-0.032,13.403,0.276
		c2.071,0.142,3.536-0.902,3.102-2.904c-0.683-3.207-1.278-6.436-2.054-9.619c-0.241-1.005-0.716-2.282-1.486-2.713
		c-0.502-0.281-1.787,0.664-2.626,1.194c-4.416,2.772-8.86,5.492-13.152,8.441C337.222,258.83,333.745,258.783,332.604,262.736z
		 M311.273,323.099c0.228-0.094,0.461-0.179,0.692-0.276c-1.121-2.685-2.061-5.46-3.416-8.018c-0.98-1.842-2.937-1.965-4.577-0.716
		c-1.352,1.029-1.931,3.899-0.682,4.749c2.68,1.816,3.322,4.451,3.627,7.34c0.144,1.4,0.883,1.78,2.171,1.283
		C311.149,326.667,311.446,325.012,311.273,323.099z M287.384,316.265c-0.682-0.714-1.576-2.101-2.847-2.784
		c-0.619-0.33-2.302,0.378-2.887,1.114c-2.637,3.337-2.463,7.307-1.917,11.237c0.08,0.589,0.97,1.243,1.639,1.519
		c0.442,0.191,1.619-0.162,1.656-0.393c0.566-3.521,2.115-6.541,4.35-9.256C287.488,317.555,287.384,317.229,287.384,316.265z"/>
</g>
</svg>
